<svg xmlns="http://www.w3.org/2000/svg" xmlns:xlink="http://www.w3.org/1999/xlink" width="265" zoomAndPan="magnify" viewBox="0 0 198.75 56.999996" height="76" preserveAspectRatio="xMidYMid meet" version="1.0"><defs><g/></defs><g fill="#ffffff" fill-opacity="1"><g transform="translate(0, 51.06453)"><g><path d="M 11.1875 0.03125 L 10.796875 0 L 10.359375 -0.1875 L 9.984375 -0.46875 L 9.859375 -0.8125 L 9.6875 -1.171875 L 9.328125 -1.484375 L 8.921875 -1.6875 L 8.5 -1.625 L 8.15625 -1.671875 L 6.296875 -1.65625 L 5.953125 -1.703125 L 5.15625 -1.625 L 4.796875 -1.6875 L 4.40625 -1.484375 L 4.046875 -1.125 L 3.703125 -0.5 L 3.34375 -0.15625 L 2.90625 -0.015625 L 1.84375 0.015625 L 1.453125 -0.015625 L 0.71875 0.015625 L 0.34375 -0.09375 L 0.25 -0.5625 L 0.359375 -0.953125 L 0.734375 -1.703125 L 0.828125 -2.046875 L 1.046875 -2.3125 L 1.328125 -3.078125 L 1.671875 -3.6875 L 1.796875 -4.0625 L 1.984375 -4.34375 L 2.109375 -4.765625 L 4.046875 -8.828125 L 4.15625 -9.15625 L 4.359375 -9.515625 L 4.453125 -9.90625 L 4.671875 -10.1875 L 5.421875 -11.9375 L 5.59375 -12.203125 L 5.734375 -12.578125 L 5.90625 -12.90625 L 6.234375 -13.21875 L 6.84375 -13.4375 L 7.46875 -13.234375 L 7.796875 -12.90625 L 8.15625 -12.234375 L 8.265625 -11.890625 L 8.484375 -11.546875 L 8.59375 -11.171875 L 9.84375 -8.53125 L 9.984375 -8.140625 L 10.375 -7.4375 L 10.484375 -7.125 L 10.65625 -6.84375 L 10.78125 -6.4375 L 10.96875 -6.0625 L 11.15625 -5.78125 L 11.875 -4.0625 L 12.25 -3.375 L 12.515625 -2.671875 L 13.03125 -1.6875 L 13.3125 -0.984375 L 13.453125 -0.546875 L 13.390625 -0.09375 L 12.859375 0 L 12.265625 0.015625 L 11.90625 -0.015625 Z M 6.890625 -4.6875 L 7.640625 -4.703125 L 7.921875 -4.859375 L 8 -5.203125 L 7.109375 -7.28125 L 6.84375 -7.4375 L 6.640625 -7.265625 L 5.75 -5.21875 L 5.765625 -4.859375 L 6.0625 -4.71875 L 6.5 -4.765625 Z M 6.890625 -4.6875 "/></g></g></g><g fill="#ffffff" fill-opacity="1"><g transform="translate(13.773858, 51.06453)"><g><path d="M 1.390625 -0.53125 L 1.421875 -0.90625 L 1.390625 -1.34375 L 1.4375 -5.265625 L 1.359375 -5.859375 L 1.40625 -6.28125 L 1.40625 -6.65625 L 1.4375 -7.015625 L 1.390625 -7.359375 L 1.40625 -10.046875 L 1.4375 -10.40625 L 1.359375 -12.6875 L 1.578125 -13.046875 L 1.9375 -13.234375 L 6.46875 -13.234375 L 6.828125 -13.28125 L 7.1875 -13.234375 L 7.59375 -13.265625 L 7.984375 -13.234375 L 8.671875 -13.296875 L 9.125 -13.234375 L 9.46875 -13.0625 L 9.65625 -12.703125 L 9.6875 -12.3125 L 9.65625 -11.90625 L 9.6875 -11.546875 L 9.65625 -11.171875 L 9.65625 -10.8125 L 9.515625 -10.4375 L 9.15625 -10.265625 L 8.78125 -10.203125 L 8 -10.25 L 7.625 -10.203125 L 6.703125 -10.265625 L 6.140625 -10.21875 L 5.59375 -10.25 L 5.046875 -10.046875 L 4.859375 -9.671875 L 4.875 -9.359375 L 4.8125 -8.953125 L 4.8125 -7.828125 L 5.03125 -7.5 L 5.46875 -7.34375 L 8.34375 -7.34375 L 8.921875 -7.15625 L 9.109375 -6.75 L 9.15625 -6.390625 L 9.125 -5.25 L 9.140625 -4.84375 L 8.9375 -4.453125 L 8.578125 -4.28125 L 5.609375 -4.265625 L 5.046875 -4.078125 L 4.875 -3.6875 L 4.84375 -3.28125 L 4.859375 -2.921875 L 4.84375 -2.5625 L 4.890625 -1.75 L 4.859375 -1.34375 L 4.875 -0.765625 L 4.625 -0.171875 L 4.25 0.015625 L 2.15625 0.03125 L 1.578125 -0.171875 Z M 1.390625 -0.53125 "/></g></g></g><g fill="#ffffff" fill-opacity="1"><g transform="translate(24.113737, 51.06453)"><g><path d="M 5.5 0.15625 L 4.703125 0.09375 L 4.34375 -0.03125 L 3.921875 -0.09375 L 2.5625 -0.71875 L 2.234375 -0.921875 L 1.6875 -1.484375 L 1.21875 -2.0625 L 0.90625 -2.828125 L 0.828125 -3.171875 L 0.796875 -3.578125 L 0.921875 -3.984375 L 1.3125 -4.15625 L 1.6875 -4.140625 L 2.0625 -4.171875 L 3.515625 -4.140625 L 3.890625 -3.984375 L 4.171875 -3.609375 L 4.453125 -3.34375 L 4.796875 -3.125 L 5.078125 -3 L 5.515625 -2.890625 L 6.09375 -2.84375 L 6.625 -2.859375 L 7.328125 -3.078125 L 7.625 -3.25 L 7.921875 -3.515625 L 8.046875 -4 L 7.953125 -4.5 L 7.6875 -4.71875 L 7 -5 L 6.625 -5.03125 L 6.28125 -5.078125 L 4.71875 -5.203125 L 4.046875 -5.34375 L 2.953125 -5.703125 L 2.296875 -6.109375 L 1.765625 -6.59375 L 1.296875 -7.234375 L 1.046875 -7.890625 L 0.90625 -8.421875 L 0.890625 -9.6875 L 1.15625 -10.796875 L 1.34375 -11.09375 L 1.484375 -11.4375 L 1.71875 -11.6875 L 1.9375 -12 L 2.28125 -12.234375 L 2.546875 -12.484375 L 2.921875 -12.703125 L 3.21875 -12.828125 L 3.53125 -13.015625 L 3.875 -13.140625 L 5.375 -13.453125 L 6.4375 -13.46875 L 6.84375 -13.375 L 7.1875 -13.328125 L 7.59375 -13.265625 L 8.625 -12.90625 L 9.84375 -12.0625 L 10.09375 -11.78125 L 10.28125 -11.46875 L 10.53125 -11.171875 L 10.828125 -10.484375 L 10.984375 -9.75 L 10.8125 -9.390625 L 10.453125 -9.15625 L 10.09375 -9.203125 L 9.75 -9.15625 L 8.5 -9.203125 L 7.90625 -9.390625 L 7.28125 -10.046875 L 7 -10.28125 L 6.578125 -10.4375 L 5.375 -10.390625 L 5.03125 -10.3125 L 4.765625 -10.203125 L 4.4375 -9.953125 L 4.234375 -9.6875 L 4.171875 -9.203125 L 4.1875 -8.6875 L 4.5 -8.390625 L 4.78125 -8.234375 L 5.578125 -7.953125 L 7.5 -7.703125 L 9.046875 -7.328125 L 10.046875 -6.859375 L 10.375 -6.59375 L 10.828125 -6.015625 L 11.203125 -5.3125 L 11.3125 -4.953125 L 11.359375 -4.578125 L 11.34375 -3.390625 L 11.28125 -3.046875 L 11.171875 -2.671875 L 11.015625 -2.328125 L 10.640625 -1.71875 L 10.109375 -1.125 L 9.5 -0.703125 L 8.515625 -0.171875 L 6.65625 0.1875 L 6.046875 0.203125 Z M 5.5 0.15625 "/></g></g></g><g fill="#ffffff" fill-opacity="1"><g transform="translate(36.218033, 51.06453)"><g><path d="M 1.40625 -0.59375 L 1.390625 -0.953125 L 1.4375 -1.3125 L 1.359375 -1.671875 L 1.453125 -2.046875 L 1.40625 -3.25 L 1.453125 -4 L 1.40625 -4.359375 L 1.40625 -5.15625 L 1.4375 -5.515625 L 1.390625 -6.09375 L 1.453125 -6.59375 L 1.40625 -7.375 L 1.4375 -7.796875 L 1.40625 -8.140625 L 1.4375 -8.515625 L 1.4375 -10.453125 L 1.390625 -10.84375 L 1.390625 -11.203125 L 1.4375 -11.546875 L 1.4375 -12.328125 L 1.484375 -12.734375 L 1.671875 -13.09375 L 2.1875 -13.265625 L 7.859375 -13.234375 L 8.1875 -13.171875 L 8.578125 -13.015625 L 8.96875 -12.9375 L 9.65625 -12.578125 L 10.21875 -12.203125 L 10.546875 -11.90625 L 10.75 -11.625 L 11 -11.359375 L 11.25 -11.046875 L 11.625 -10.359375 L 11.96875 -8.875 L 11.953125 -7.765625 L 11.90625 -7.421875 L 11.734375 -6.640625 L 11.609375 -6.296875 L 11.4375 -5.953125 L 10.828125 -5.046875 L 10.265625 -4.5 L 9.953125 -4.265625 L 9.3125 -3.875 L 8.21875 -3.546875 L 7.4375 -3.390625 L 6.453125 -3.375 L 5.875 -3.4375 L 5.46875 -3.375 L 4.953125 -3.1875 L 4.8125 -2.859375 L 4.8125 -2.46875 L 4.859375 -2.046875 L 4.796875 -1.703125 L 4.84375 -1.34375 L 4.8125 -0.59375 L 4.640625 -0.1875 L 4.265625 0.015625 L 3.875 0.015625 L 3.453125 -0.015625 L 2.328125 0 L 1.953125 -0.03125 L 1.5625 -0.1875 Z M 5.421875 -6.46875 L 5.859375 -6.4375 L 7.421875 -6.53125 L 7.71875 -6.703125 L 8.03125 -6.90625 L 8.453125 -7.4375 L 8.671875 -8.3125 L 8.5 -9.203125 L 8.3125 -9.515625 L 8 -9.8125 L 7.71875 -10.015625 L 7.390625 -10.1875 L 5.875 -10.265625 L 5.40625 -10.21875 L 5.03125 -10.078125 L 4.796875 -9.65625 L 4.84375 -7.015625 L 5.0625 -6.640625 Z M 5.421875 -6.46875 "/></g></g></g><g fill="#ffffff" fill-opacity="1"><g transform="translate(48.701773, 51.06453)"><g><path d="M 1.453125 -0.609375 L 1.40625 -2.09375 L 1.4375 -2.484375 L 1.359375 -3.578125 L 1.421875 -4.359375 L 1.359375 -4.78125 L 1.390625 -5.5 L 1.421875 -5.90625 L 1.421875 -6.84375 L 1.359375 -7.390625 L 1.421875 -12.703125 L 1.578125 -13.109375 L 1.9375 -13.28125 L 2.359375 -13.265625 L 2.71875 -13.3125 L 3.484375 -13.234375 L 3.84375 -13.296875 L 4.984375 -13.265625 L 5.3125 -13.296875 L 5.734375 -13.265625 L 6.109375 -13.296875 L 6.53125 -13.28125 L 7.078125 -13.296875 L 7.546875 -13.265625 L 9.125 -12.9375 L 9.78125 -12.59375 L 10.734375 -11.875 L 10.90625 -11.59375 L 11.171875 -11.3125 L 11.6875 -10.265625 L 11.78125 -9.875 L 11.84375 -9.515625 L 11.9375 -9.15625 L 11.90625 -7.65625 L 11.703125 -6.9375 L 11.578125 -6.625 L 11.359375 -6.28125 L 11.234375 -5.921875 L 11 -5.59375 L 10.46875 -5.078125 L 10.265625 -4.6875 L 10.3125 -4.234375 L 10.890625 -3.25 L 11.140625 -2.9375 L 11.328125 -2.59375 L 11.546875 -2.25 L 11.71875 -1.9375 L 12.328125 -1 L 12.578125 -0.53125 L 12.5 -0.125 L 12.109375 -0.03125 L 11.6875 0 L 10.921875 0 L 10.546875 -0.03125 L 10.125 0 L 9.453125 -0.03125 L 8.96875 -0.15625 L 8.59375 -0.5 L 8.359375 -0.796875 L 8.1875 -1.125 L 7.953125 -1.484375 L 7.421875 -2.421875 L 7.28125 -2.78125 L 6.796875 -3.453125 L 6.484375 -3.78125 L 6.015625 -3.921875 L 5.671875 -3.90625 L 5.328125 -3.90625 L 4.953125 -3.71875 L 4.78125 -3.34375 L 4.8125 -2.15625 L 4.765625 -1.34375 L 4.84375 -0.953125 L 4.796875 -0.546875 L 4.671875 -0.1875 L 4.078125 0 L 3.515625 0 L 3.109375 -0.03125 L 2.328125 0.015625 L 1.96875 0 L 1.59375 -0.1875 Z M 5.328125 -6.984375 L 5.75 -6.984375 L 6.125 -6.921875 L 7.609375 -7.0625 L 7.890625 -7.1875 L 8.125 -7.421875 L 8.328125 -7.734375 L 8.484375 -8.125 L 8.53125 -8.625 L 8.5 -9.1875 L 8.359375 -9.484375 L 8.171875 -9.765625 L 7.59375 -10.125 L 6.71875 -10.25 L 5.671875 -10.265625 L 5.375 -10.25 L 4.984375 -10.046875 L 4.765625 -9.671875 L 4.8125 -7.546875 L 5 -7.15625 Z M 5.328125 -6.984375 "/></g></g></g><g fill="#ffffff" fill-opacity="1"><g transform="translate(61.849545, 51.06453)"><g><path d="M 0.25 -0.515625 L 0.46875 -1.3125 L 0.640625 -1.6875 L 0.875 -1.984375 L 1.421875 -3.375 L 1.953125 -4.359375 L 2.09375 -4.75 L 2.25 -5.046875 L 2.375 -5.4375 L 2.640625 -5.9375 L 2.765625 -6.296875 L 3.046875 -6.796875 L 3.359375 -7.46875 L 3.5625 -7.8125 L 3.65625 -8.140625 L 4.71875 -10.53125 L 4.9375 -10.875 L 5.75 -12.578125 L 5.859375 -12.921875 L 6.21875 -13.265625 L 6.828125 -13.453125 L 7.46875 -13.28125 L 7.8125 -12.921875 L 7.921875 -12.5625 L 8.09375 -12.265625 L 8.40625 -11.546875 L 8.78125 -10.84375 L 9.0625 -10.1875 L 9.15625 -9.875 L 9.5 -9.15625 L 9.625 -8.796875 L 10 -8.140625 L 10.09375 -7.78125 L 10.28125 -7.453125 L 10.4375 -7.125 L 10.640625 -6.796875 L 10.75 -6.40625 L 10.921875 -6.125 L 11.0625 -5.75 L 11.234375 -5.421875 L 11.375 -5.046875 L 11.59375 -4.75 L 11.859375 -4.046875 L 12.046875 -3.71875 L 12.171875 -3.359375 L 12.5 -2.671875 L 12.609375 -2.3125 L 12.796875 -2.03125 L 12.921875 -1.65625 L 13.171875 -1.328125 L 13.296875 -0.984375 L 13.40625 -0.515625 L 13.328125 -0.109375 L 13 0 L 11.8125 0.03125 L 11.15625 -0.015625 L 10.8125 0.015625 L 10.3125 -0.171875 L 10 -0.46875 L 9.78125 -0.8125 L 9.6875 -1.15625 L 9.296875 -1.453125 L 8.671875 -1.671875 L 7.78125 -1.625 L 7.375 -1.671875 L 7.03125 -1.671875 L 6.59375 -1.609375 L 6.203125 -1.671875 L 5.140625 -1.65625 L 4.765625 -1.6875 L 4.3125 -1.5 L 3.984375 -1.140625 L 3.65625 -0.5 L 3.3125 -0.15625 L 2.890625 0.03125 L 2.390625 -0.015625 L 0.71875 -0.015625 L 0.34375 -0.109375 Z M 6.109375 -4.6875 L 7.59375 -4.703125 L 7.90625 -4.859375 L 7.953125 -5.203125 L 7.8125 -5.53125 L 7.625 -5.921875 L 7.546875 -6.21875 L 7.34375 -6.546875 L 7.09375 -7.28125 L 6.859375 -7.4375 L 6.625 -7.25 L 6.453125 -6.9375 L 5.6875 -5.21875 L 5.75 -4.84375 Z M 6.109375 -4.6875 "/></g></g></g><g fill="#ffffff" fill-opacity="1"><g transform="translate(75.623402, 51.06453)"><g><path d="M 0.25 -0.515625 L 0.46875 -1.3125 L 0.640625 -1.6875 L 0.875 -1.984375 L 1.421875 -3.375 L 1.953125 -4.359375 L 2.09375 -4.75 L 2.25 -5.046875 L 2.375 -5.4375 L 2.640625 -5.9375 L 2.765625 -6.296875 L 3.046875 -6.796875 L 3.359375 -7.46875 L 3.5625 -7.8125 L 3.65625 -8.140625 L 4.71875 -10.53125 L 4.9375 -10.875 L 5.75 -12.578125 L 5.859375 -12.921875 L 6.21875 -13.265625 L 6.828125 -13.453125 L 7.46875 -13.28125 L 7.8125 -12.921875 L 7.921875 -12.5625 L 8.09375 -12.265625 L 8.40625 -11.546875 L 8.78125 -10.84375 L 9.0625 -10.1875 L 9.15625 -9.875 L 9.5 -9.15625 L 9.625 -8.796875 L 10 -8.140625 L 10.09375 -7.78125 L 10.28125 -7.453125 L 10.4375 -7.125 L 10.640625 -6.796875 L 10.75 -6.40625 L 10.921875 -6.125 L 11.0625 -5.75 L 11.234375 -5.421875 L 11.375 -5.046875 L 11.59375 -4.75 L 11.859375 -4.046875 L 12.046875 -3.71875 L 12.171875 -3.359375 L 12.5 -2.671875 L 12.609375 -2.3125 L 12.796875 -2.03125 L 12.921875 -1.65625 L 13.171875 -1.328125 L 13.296875 -0.984375 L 13.40625 -0.515625 L 13.328125 -0.109375 L 13 0 L 11.8125 0.03125 L 11.15625 -0.015625 L 10.8125 0.015625 L 10.3125 -0.171875 L 10 -0.46875 L 9.78125 -0.8125 L 9.6875 -1.15625 L 9.296875 -1.453125 L 8.671875 -1.671875 L 7.78125 -1.625 L 7.375 -1.671875 L 7.03125 -1.671875 L 6.59375 -1.609375 L 6.203125 -1.671875 L 5.140625 -1.65625 L 4.765625 -1.6875 L 4.3125 -1.5 L 3.984375 -1.140625 L 3.65625 -0.5 L 3.3125 -0.15625 L 2.890625 0.03125 L 2.390625 -0.015625 L 0.71875 -0.015625 L 0.34375 -0.109375 Z M 6.109375 -4.6875 L 7.59375 -4.703125 L 7.90625 -4.859375 L 7.953125 -5.203125 L 7.8125 -5.53125 L 7.625 -5.921875 L 7.546875 -6.21875 L 7.34375 -6.546875 L 7.09375 -7.28125 L 6.859375 -7.4375 L 6.625 -7.25 L 6.453125 -6.9375 L 5.6875 -5.21875 L 5.75 -4.84375 Z M 6.109375 -4.6875 "/></g></g></g><g fill="#ffffff" fill-opacity="1"><g transform="translate(89.39726, 51.06453)"><g><path d="M 1.453125 -0.5625 L 1.40625 -0.953125 L 1.4375 -1.296875 L 1.421875 -1.671875 L 1.453125 -2.09375 L 1.359375 -2.84375 L 1.421875 -3.609375 L 1.40625 -4 L 1.453125 -4.34375 L 1.421875 -8.890625 L 1.359375 -9.296875 L 1.453125 -10.046875 L 1.40625 -10.4375 L 1.390625 -10.796875 L 1.4375 -11.9375 L 1.40625 -12.3125 L 1.40625 -12.703125 L 1.671875 -13.046875 L 1.96875 -13.296875 L 3.515625 -13.265625 L 3.890625 -13.296875 L 4.28125 -13.265625 L 4.625 -13.0625 L 4.8125 -12.65625 L 4.84375 -12.265625 L 4.890625 -11.90625 L 4.84375 -9.15625 L 4.890625 -8.828125 L 4.875 -8.421875 L 5.21875 -8.21875 L 5.671875 -8.234375 L 6.5 -8.40625 L 6.828125 -8.5625 L 7.171875 -8.765625 L 7.453125 -9.015625 L 7.6875 -9.3125 L 7.921875 -9.59375 L 8.078125 -9.953125 L 8.265625 -10.71875 L 8.359375 -11.515625 L 8.3125 -12.671875 L 8.515625 -13.0625 L 8.96875 -13.296875 L 9.515625 -13.234375 L 11.25 -13.296875 L 11.640625 -13.09375 L 11.796875 -12.65625 L 11.8125 -11.890625 L 11.734375 -11.53125 L 11.78125 -11.109375 L 11.671875 -10.3125 L 11.640625 -9.953125 L 11.453125 -9.234375 L 11.28125 -8.84375 L 11.1875 -8.5 L 11 -8.140625 L 10.578125 -7.5 L 10.03125 -6.9375 L 9.6875 -6.734375 L 9.515625 -6.296875 L 9.515625 -5.875 L 10.1875 -4.9375 L 10.734375 -3.953125 L 10.96875 -3.609375 L 11.109375 -3.265625 L 11.34375 -2.953125 L 11.703125 -2.3125 L 11.984375 -1.984375 L 12.140625 -1.625 L 12.328125 -1.3125 L 12.59375 -1.03125 L 12.765625 -0.5625 L 12.671875 -0.125 L 12.34375 0.03125 L 11.953125 0 L 9.84375 0 L 9.203125 -0.125 L 8.84375 -0.421875 L 8.328125 -1.40625 L 8.078125 -1.71875 L 7.90625 -2.046875 L 7.6875 -2.375 L 7.203125 -3.359375 L 6.4375 -4.640625 L 6.0625 -4.9375 L 5.5 -5.046875 L 5.03125 -4.8125 L 4.859375 -4.484375 L 4.859375 -3.296875 L 4.8125 -2.890625 L 4.875 -0.59375 L 4.6875 -0.171875 L 4.140625 0.015625 L 2.140625 0.03125 L 1.59375 -0.171875 Z M 1.453125 -0.5625 "/></g></g></g><g fill="#ffffff" fill-opacity="1"><g transform="translate(102.545032, 51.06453)"><g/></g></g><g fill="#ffffff" fill-opacity="1"><g transform="translate(107.686517, 51.06453)"><g><path d="M 1.40625 -0.546875 L 1.4375 -0.90625 L 1.359375 -3.609375 L 1.4375 -3.96875 L 1.390625 -12.328125 L 1.421875 -12.734375 L 1.625 -13.109375 L 2.015625 -13.3125 L 2.5625 -13.171875 L 3.109375 -12.765625 L 3.53125 -12.328125 L 3.734375 -12.0625 L 4 -11.8125 L 4.21875 -11.53125 L 4.453125 -11.265625 L 4.78125 -10.984375 L 5.234375 -10.40625 L 6.546875 -9.0625 L 6.765625 -8.765625 L 7.078125 -8.515625 L 7.296875 -8.1875 L 7.546875 -7.953125 L 7.890625 -7.828125 L 8.3125 -7.96875 L 11.109375 -10.9375 L 11.28125 -11.234375 L 12.375 -12.34375 L 12.796875 -12.875 L 13.28125 -13.140625 L 13.84375 -13.3125 L 14.234375 -13.09375 L 14.4375 -12.734375 L 14.421875 -12.328125 L 14.453125 -12 L 14.421875 -11.609375 L 14.46875 -6.234375 L 14.421875 -5.90625 L 14.453125 -5.515625 L 14.421875 -5.125 L 14.4375 -4.75 L 14.375 -4.359375 L 14.421875 -3.625 L 14.375 -3.265625 L 14.453125 -0.984375 L 14.390625 -0.609375 L 14.1875 -0.203125 L 13.828125 0.015625 L 11.546875 0 L 11.140625 -0.15625 L 10.9375 -0.546875 L 11 -3.171875 L 10.9375 -3.875 L 10.96875 -4.25 L 10.9375 -4.59375 L 11 -4.953125 L 10.9375 -5.328125 L 10.796875 -5.5625 L 10.5625 -5.515625 L 10.296875 -5.25 L 10.046875 -4.9375 L 8.453125 -3.3125 L 8.140625 -3.09375 L 7.703125 -3.09375 L 7.078125 -3.609375 L 6.828125 -3.921875 L 5.765625 -4.9375 L 5.296875 -5.515625 L 5 -5.59375 L 4.84375 -5.328125 L 4.90625 -4.234375 L 4.859375 -1.671875 L 4.90625 -1.265625 L 4.9375 -0.875 L 4.890625 -0.515625 L 4.6875 -0.203125 L 4.109375 -0.03125 L 2.03125 0 L 1.578125 -0.203125 Z M 1.40625 -0.546875 "/></g></g></g><g fill="#ffffff" fill-opacity="1"><g transform="translate(123.547326, 51.06453)"><g><path d="M 0.25 -0.515625 L 0.46875 -1.3125 L 0.640625 -1.6875 L 0.875 -1.984375 L 1.421875 -3.375 L 1.953125 -4.359375 L 2.09375 -4.75 L 2.25 -5.046875 L 2.375 -5.4375 L 2.640625 -5.9375 L 2.765625 -6.296875 L 3.046875 -6.796875 L 3.359375 -7.46875 L 3.5625 -7.8125 L 3.65625 -8.140625 L 4.71875 -10.53125 L 4.9375 -10.875 L 5.75 -12.578125 L 5.859375 -12.921875 L 6.21875 -13.265625 L 6.828125 -13.453125 L 7.46875 -13.28125 L 7.8125 -12.921875 L 7.921875 -12.5625 L 8.09375 -12.265625 L 8.40625 -11.546875 L 8.78125 -10.84375 L 9.0625 -10.1875 L 9.15625 -9.875 L 9.5 -9.15625 L 9.625 -8.796875 L 10 -8.140625 L 10.09375 -7.78125 L 10.28125 -7.453125 L 10.4375 -7.125 L 10.640625 -6.796875 L 10.75 -6.40625 L 10.921875 -6.125 L 11.0625 -5.75 L 11.234375 -5.421875 L 11.375 -5.046875 L 11.59375 -4.75 L 11.859375 -4.046875 L 12.046875 -3.71875 L 12.171875 -3.359375 L 12.5 -2.671875 L 12.609375 -2.3125 L 12.796875 -2.03125 L 12.921875 -1.65625 L 13.171875 -1.328125 L 13.296875 -0.984375 L 13.40625 -0.515625 L 13.328125 -0.109375 L 13 0 L 11.8125 0.03125 L 11.15625 -0.015625 L 10.8125 0.015625 L 10.3125 -0.171875 L 10 -0.46875 L 9.78125 -0.8125 L 9.6875 -1.15625 L 9.296875 -1.453125 L 8.671875 -1.671875 L 7.78125 -1.625 L 7.375 -1.671875 L 7.03125 -1.671875 L 6.59375 -1.609375 L 6.203125 -1.671875 L 5.140625 -1.65625 L 4.765625 -1.6875 L 4.3125 -1.5 L 3.984375 -1.140625 L 3.65625 -0.5 L 3.3125 -0.15625 L 2.890625 0.03125 L 2.390625 -0.015625 L 0.71875 -0.015625 L 0.34375 -0.109375 Z M 6.109375 -4.6875 L 7.59375 -4.703125 L 7.90625 -4.859375 L 7.953125 -5.203125 L 7.8125 -5.53125 L 7.625 -5.921875 L 7.546875 -6.21875 L 7.34375 -6.546875 L 7.09375 -7.28125 L 6.859375 -7.4375 L 6.625 -7.25 L 6.453125 -6.9375 L 5.6875 -5.21875 L 5.75 -4.84375 Z M 6.109375 -4.6875 "/></g></g></g><g fill="#ffffff" fill-opacity="1"><g transform="translate(137.321184, 51.06453)"><g><path d="M 1.453125 -0.5625 L 1.40625 -0.953125 L 1.4375 -1.296875 L 1.421875 -1.671875 L 1.453125 -2.09375 L 1.359375 -2.84375 L 1.421875 -3.609375 L 1.40625 -4 L 1.453125 -4.34375 L 1.421875 -8.890625 L 1.359375 -9.296875 L 1.453125 -10.046875 L 1.40625 -10.4375 L 1.390625 -10.796875 L 1.4375 -11.9375 L 1.40625 -12.3125 L 1.40625 -12.703125 L 1.671875 -13.046875 L 1.96875 -13.296875 L 3.515625 -13.265625 L 3.890625 -13.296875 L 4.28125 -13.265625 L 4.625 -13.0625 L 4.8125 -12.65625 L 4.84375 -12.265625 L 4.890625 -11.90625 L 4.84375 -9.15625 L 4.890625 -8.828125 L 4.875 -8.421875 L 5.21875 -8.21875 L 5.671875 -8.234375 L 6.5 -8.40625 L 6.828125 -8.5625 L 7.171875 -8.765625 L 7.453125 -9.015625 L 7.6875 -9.3125 L 7.921875 -9.59375 L 8.078125 -9.953125 L 8.265625 -10.71875 L 8.359375 -11.515625 L 8.3125 -12.671875 L 8.515625 -13.0625 L 8.96875 -13.296875 L 9.515625 -13.234375 L 11.25 -13.296875 L 11.640625 -13.09375 L 11.796875 -12.65625 L 11.8125 -11.890625 L 11.734375 -11.53125 L 11.78125 -11.109375 L 11.671875 -10.3125 L 11.640625 -9.953125 L 11.453125 -9.234375 L 11.28125 -8.84375 L 11.1875 -8.5 L 11 -8.140625 L 10.578125 -7.5 L 10.03125 -6.9375 L 9.6875 -6.734375 L 9.515625 -6.296875 L 9.515625 -5.875 L 10.1875 -4.9375 L 10.734375 -3.953125 L 10.96875 -3.609375 L 11.109375 -3.265625 L 11.34375 -2.953125 L 11.703125 -2.3125 L 11.984375 -1.984375 L 12.140625 -1.625 L 12.328125 -1.3125 L 12.59375 -1.03125 L 12.765625 -0.5625 L 12.671875 -0.125 L 12.34375 0.03125 L 11.953125 0 L 9.84375 0 L 9.203125 -0.125 L 8.84375 -0.421875 L 8.328125 -1.40625 L 8.078125 -1.71875 L 7.90625 -2.046875 L 7.6875 -2.375 L 7.203125 -3.359375 L 6.4375 -4.640625 L 6.0625 -4.9375 L 5.5 -5.046875 L 5.03125 -4.8125 L 4.859375 -4.484375 L 4.859375 -3.296875 L 4.8125 -2.890625 L 4.875 -0.59375 L 4.6875 -0.171875 L 4.140625 0.015625 L 2.140625 0.03125 L 1.59375 -0.171875 Z M 1.453125 -0.5625 "/></g></g></g><g fill="#ffffff" fill-opacity="1"><g transform="translate(150.468956, 51.06453)"><g><path d="M 1.359375 -0.546875 L 1.4375 -0.921875 L 1.453125 -1.3125 L 1.421875 -2.046875 L 1.421875 -2.421875 L 1.390625 -2.859375 L 1.4375 -3.203125 L 1.421875 -3.5625 L 1.453125 -3.984375 L 1.40625 -4.375 L 1.4375 -5.140625 L 1.390625 -5.875 L 1.4375 -6.28125 L 1.4375 -9.671875 L 1.40625 -10.015625 L 1.4375 -10.40625 L 1.359375 -11.375 L 1.4375 -11.9375 L 1.40625 -12.6875 L 1.59375 -13.109375 L 2.140625 -13.234375 L 4.625 -13.296875 L 4.96875 -13.265625 L 5.703125 -13.28125 L 6.09375 -13.234375 L 6.921875 -13.28125 L 7.296875 -13.21875 L 7.640625 -13.265625 L 9.15625 -13.234375 L 9.5625 -13.0625 L 9.75 -12.6875 L 9.6875 -12.328125 L 9.671875 -11.90625 L 9.734375 -11.546875 L 9.765625 -10.78125 L 9.5625 -10.4375 L 9.15625 -10.21875 L 5.515625 -10.203125 L 4.9375 -10.03125 L 4.75 -9.484375 L 4.78125 -8.890625 L 5 -8.5625 L 5.328125 -8.34375 L 6.828125 -8.359375 L 7.265625 -8.328125 L 7.65625 -8.328125 L 8.046875 -8.359375 L 8.796875 -8.34375 L 9.125 -8.140625 L 9.296875 -7.78125 L 9.328125 -7.390625 L 9.296875 -5.90625 L 9.109375 -5.53125 L 8.71875 -5.328125 L 8.390625 -5.3125 L 7.984375 -5.34375 L 7.46875 -5.3125 L 6.46875 -5.375 L 6.09375 -5.328125 L 5.34375 -5.328125 L 5 -5.125 L 4.84375 -4.71875 L 4.8125 -3.796875 L 4.984375 -3.203125 L 5.390625 -2.984375 L 5.796875 -3.015625 L 6.21875 -2.984375 L 6.578125 -3.03125 L 9.09375 -3 L 9.65625 -2.8125 L 9.90625 -2.421875 L 9.859375 -2.0625 L 9.875 -0.890625 L 9.84375 -0.53125 L 9.671875 -0.171875 L 9.28125 0.015625 L 8.921875 0.0625 L 7.765625 -0.015625 L 6.59375 0.03125 L 6.265625 -0.015625 L 1.96875 0.015625 L 1.609375 -0.1875 Z M 1.359375 -0.546875 "/></g></g></g><g fill="#ffffff" fill-opacity="1"><g transform="translate(161.340054, 51.06453)"><g><path d="M 11.1875 -0.296875 L 10.9375 -0.546875 L 10.71875 -0.828125 L 10.40625 -1.078125 L 10.171875 -1.390625 L 8.328125 -3.21875 L 8.03125 -3.46875 L 5.3125 -6.125 L 5.0625 -6.1875 L 4.875 -5.953125 L 4.953125 -5.5625 L 4.890625 -0.90625 L 4.953125 -0.53125 L 4.78125 -0.15625 L 4.40625 0.03125 L 3.96875 0 L 3.5625 0.0625 L 2.625 0 L 1.96875 0.03125 L 1.609375 -0.171875 L 1.4375 -0.59375 L 1.4375 -0.953125 L 1.390625 -1.328125 L 1.4375 -2.046875 L 1.40625 -2.421875 L 1.421875 -3.203125 L 1.359375 -3.609375 L 1.359375 -3.96875 L 1.40625 -4.375 L 1.40625 -4.75 L 1.4375 -5.078125 L 1.359375 -7.796875 L 1.421875 -8.1875 L 1.40625 -8.59375 L 1.4375 -8.9375 L 1.390625 -9.71875 L 1.421875 -10.09375 L 1.390625 -12.75 L 1.625 -13.109375 L 2.09375 -13.328125 L 2.59375 -13.1875 L 3.359375 -12.671875 L 4.375 -11.625 L 4.625 -11.3125 L 4.953125 -11.078125 L 5.140625 -10.796875 L 5.5 -10.546875 L 5.703125 -10.265625 L 6.296875 -9.765625 L 6.703125 -9.359375 L 6.90625 -9.09375 L 7.203125 -8.859375 L 7.875 -8.171875 L 8.15625 -7.953125 L 8.984375 -7.09375 L 9.25 -7.015625 L 9.359375 -7.328125 L 9.328125 -8.078125 L 9.40625 -8.484375 L 9.40625 -8.84375 L 9.328125 -9.234375 L 9.359375 -12.6875 L 9.546875 -13.09375 L 10 -13.28125 L 10.375 -13.265625 L 10.71875 -13.296875 L 11.109375 -13.234375 L 11.53125 -13.28125 L 11.890625 -13.28125 L 12.265625 -13.234375 L 12.6875 -13.046875 L 12.921875 -12.703125 L 12.875 -11.71875 L 12.921875 -11.15625 L 12.84375 -10.78125 L 12.84375 -10.015625 L 12.875 -9.65625 L 12.828125 -8.890625 L 12.90625 -6.625 L 12.859375 -6.203125 L 12.9375 -5.671875 L 12.84375 -0.515625 L 12.671875 -0.109375 L 12.234375 0.09375 L 11.734375 -0.0625 Z M 11.1875 -0.296875 "/></g></g></g></svg>