<svg xmlns="http://www.w3.org/2000/svg" xmlns:xlink="http://www.w3.org/1999/xlink" width="378" zoomAndPan="magnify" viewBox="0 0 283.5 42.75" height="57" preserveAspectRatio="xMidYMid meet" version="1.0"><defs><g/><clipPath id="9a20738dda"><path d="M 4.804688 21.136719 L 36.867188 21.136719 L 36.867188 42.015625 L 4.804688 42.015625 Z M 4.804688 21.136719 " clip-rule="nonzero"/></clipPath></defs><g clip-path="url(#9a20738dda)"><path fill="#ffffff" d="M 35.148438 21.195312 L 6.621094 21.195312 C 6.378906 21.195312 6.144531 21.242188 5.921875 21.332031 C 5.695312 21.425781 5.5 21.558594 5.328125 21.730469 C 5.15625 21.902344 5.023438 22.097656 4.929688 22.324219 C 4.839844 22.546875 4.792969 22.78125 4.792969 23.023438 L 4.792969 40.410156 C 4.792969 40.652344 4.839844 40.886719 4.929688 41.109375 C 5.023438 41.335938 5.15625 41.53125 5.328125 41.703125 C 5.5 41.875 5.695312 42.007812 5.921875 42.101562 C 6.144531 42.191406 6.378906 42.238281 6.621094 42.238281 L 35.148438 42.238281 C 35.390625 42.238281 35.625 42.191406 35.847656 42.101562 C 36.074219 42.007812 36.269531 41.875 36.441406 41.703125 C 36.613281 41.53125 36.746094 41.335938 36.839844 41.109375 C 36.929688 40.886719 36.976562 40.652344 36.976562 40.410156 L 36.976562 23.023438 C 36.976562 22.78125 36.929688 22.546875 36.839844 22.324219 C 36.746094 22.097656 36.613281 21.902344 36.441406 21.730469 C 36.269531 21.558594 36.074219 21.425781 35.847656 21.332031 C 35.625 21.242188 35.390625 21.195312 35.148438 21.195312 Z M 25.941406 31.71875 L 35.988281 22.761719 C 36.015625 22.847656 36.03125 22.933594 36.03125 23.023438 L 36.03125 40.410156 C 36.03125 40.5 36.015625 40.585938 35.988281 40.671875 Z M 35.148438 22.140625 C 35.183594 22.144531 35.214844 22.144531 35.25 22.152344 L 21.46875 34.433594 C 21.300781 34.582031 21.105469 34.65625 20.882812 34.65625 C 20.660156 34.65625 20.464844 34.582031 20.296875 34.433594 L 6.519531 22.152344 C 6.554688 22.144531 6.585938 22.144531 6.621094 22.140625 Z M 5.78125 40.671875 C 5.753906 40.585938 5.738281 40.5 5.738281 40.410156 L 5.738281 23.023438 C 5.738281 22.933594 5.753906 22.847656 5.78125 22.761719 L 15.824219 31.71875 Z M 6.621094 41.292969 C 6.585938 41.292969 6.554688 41.289062 6.519531 41.28125 L 16.539062 32.351562 L 19.667969 35.140625 C 19.835938 35.292969 20.023438 35.40625 20.234375 35.484375 C 20.445312 35.566406 20.660156 35.605469 20.882812 35.605469 C 21.109375 35.605469 21.324219 35.566406 21.535156 35.484375 C 21.746094 35.40625 21.933594 35.292969 22.101562 35.140625 L 25.230469 32.351562 L 35.25 41.28125 C 35.214844 41.289062 35.183594 41.289062 35.148438 41.292969 Z M 6.621094 41.292969 " fill-opacity="1" fill-rule="nonzero"/></g><g fill="#ffffff" fill-opacity="1"><g transform="translate(42.822644, 37.400978)"><g><path d="M 6.53125 -6.90625 L 1.90625 -6.90625 L 1.90625 -4.5 L 6.234375 -4.5 L 6.234375 -3.59375 L 1.90625 -3.59375 L 1.90625 -0.921875 L 6.703125 -0.921875 L 6.703125 0 L 0.859375 0 L 0.859375 -7.828125 L 6.53125 -7.828125 Z M 6.53125 -6.90625 "/></g></g></g><g fill="#ffffff" fill-opacity="1"><g transform="translate(50.111834, 37.400978)"><g><path d="M 3.25 -2.078125 C 3.40625 -1.671875 3.53125 -1.265625 3.625 -0.859375 C 3.757812 -1.304688 3.90625 -1.734375 4.0625 -2.140625 L 6.171875 -7.828125 L 7.234375 -7.828125 L 4.171875 0 L 3.09375 0 L 0.0625 -7.828125 L 1.1875 -7.828125 Z M 3.25 -2.078125 "/></g></g></g><g fill="#ffffff" fill-opacity="1"><g transform="translate(57.401025, 37.400978)"><g><path d="M 6.53125 -6.90625 L 1.90625 -6.90625 L 1.90625 -4.5 L 6.234375 -4.5 L 6.234375 -3.59375 L 1.90625 -3.59375 L 1.90625 -0.921875 L 6.703125 -0.921875 L 6.703125 0 L 0.859375 0 L 0.859375 -7.828125 L 6.53125 -7.828125 Z M 6.53125 -6.90625 "/></g></g></g><g fill="#ffffff" fill-opacity="1"><g transform="translate(64.690215, 37.400978)"><g><path d="M 1.859375 -0.921875 L 5.71875 -0.921875 L 5.71875 0 L 0.8125 0 L 0.8125 -7.828125 L 1.859375 -7.828125 Z M 1.859375 -0.921875 "/></g></g></g><g fill="#ffffff" fill-opacity="1"><g transform="translate(70.766365, 37.400978)"><g><path d="M 2.046875 0 L 1 0 L 1 -7.828125 L 2.046875 -7.828125 Z M 2.046875 0 "/></g></g></g><g fill="#ffffff" fill-opacity="1"><g transform="translate(73.804434, 37.400978)"><g><path d="M 6.03125 -1.6875 L 6.03125 -7.828125 L 7.03125 -7.828125 L 7.03125 0 L 5.96875 0 L 1.859375 -6.140625 L 1.859375 0 L 0.859375 0 L 0.859375 -7.828125 L 1.921875 -7.828125 Z M 6.03125 -1.6875 "/></g></g></g><g fill="#ffffff" fill-opacity="1"><g transform="translate(81.694678, 37.400978)"><g><path d="M 6.53125 -6.90625 L 1.90625 -6.90625 L 1.90625 -4.5 L 6.234375 -4.5 L 6.234375 -3.59375 L 1.90625 -3.59375 L 1.90625 -0.921875 L 6.703125 -0.921875 L 6.703125 0 L 0.859375 0 L 0.859375 -7.828125 L 6.53125 -7.828125 Z M 6.53125 -6.90625 "/></g></g></g><g fill="#ffffff" fill-opacity="1"><g transform="translate(88.983869, 37.400978)"><g><path d="M 2.0625 0 L 0.96875 0 L 0.96875 -1.09375 L 2.0625 -1.09375 Z M 2.0625 0 "/></g></g></g><g fill="#ffffff" fill-opacity="1"><g transform="translate(92.021938, 37.400978)"><g><path d="M 3.546875 -7.96875 C 4.429688 -7.96875 5.132812 -7.757812 5.65625 -7.34375 C 6.175781 -6.925781 6.453125 -6.351562 6.484375 -5.625 L 5.484375 -5.5625 C 5.429688 -6.0625 5.25 -6.429688 4.9375 -6.671875 C 4.632812 -6.910156 4.1875 -7.03125 3.59375 -7.03125 C 3.019531 -7.03125 2.578125 -6.925781 2.265625 -6.71875 C 1.953125 -6.507812 1.796875 -6.226562 1.796875 -5.875 C 1.796875 -5.632812 1.863281 -5.429688 2 -5.265625 C 2.132812 -5.109375 2.332031 -4.992188 2.59375 -4.921875 C 2.644531 -4.910156 2.859375 -4.847656 3.234375 -4.734375 C 3.609375 -4.617188 4.082031 -4.5 4.65625 -4.375 C 5.34375 -4.21875 5.859375 -3.941406 6.203125 -3.546875 C 6.546875 -3.160156 6.71875 -2.710938 6.71875 -2.203125 C 6.71875 -1.785156 6.601562 -1.394531 6.375 -1.03125 C 6.144531 -0.675781 5.8125 -0.394531 5.375 -0.1875 C 4.9375 0.0195312 4.414062 0.125 3.8125 0.125 C 3.125 0.125 2.53125 0.015625 2.03125 -0.203125 C 1.539062 -0.421875 1.164062 -0.726562 0.90625 -1.125 C 0.644531 -1.519531 0.503906 -1.984375 0.484375 -2.515625 L 1.46875 -2.609375 C 1.519531 -1.984375 1.765625 -1.523438 2.203125 -1.234375 C 2.648438 -0.941406 3.175781 -0.796875 3.78125 -0.796875 C 4.382812 -0.796875 4.859375 -0.921875 5.203125 -1.171875 C 5.554688 -1.421875 5.734375 -1.753906 5.734375 -2.171875 C 5.734375 -2.753906 5.269531 -3.15625 4.34375 -3.375 L 3.734375 -3.53125 C 3.347656 -3.613281 2.910156 -3.726562 2.421875 -3.875 C 1.910156 -4.019531 1.515625 -4.265625 1.234375 -4.609375 C 0.953125 -4.960938 0.8125 -5.363281 0.8125 -5.8125 C 0.8125 -6.21875 0.921875 -6.582031 1.140625 -6.90625 C 1.359375 -7.238281 1.671875 -7.5 2.078125 -7.6875 C 2.492188 -7.875 2.984375 -7.96875 3.546875 -7.96875 Z M 3.546875 -7.96875 "/></g></g></g><g fill="#ffffff" fill-opacity="1"><g transform="translate(99.311128, 37.400978)"><g><path d="M 7.3125 0 L 6.140625 0 L 5.21875 -2.390625 L 1.953125 -2.390625 L 1.09375 0 L -0.015625 0 L 3 -7.828125 L 4.109375 -7.828125 Z M 3.109375 -5.515625 L 2.25 -3.21875 L 4.90625 -3.21875 L 3.9375 -5.796875 C 3.820312 -6.097656 3.6875 -6.503906 3.53125 -7.015625 C 3.53125 -6.972656 3.484375 -6.785156 3.390625 -6.453125 C 3.304688 -6.117188 3.210938 -5.804688 3.109375 -5.515625 Z M 3.109375 -5.515625 "/></g></g></g><g fill="#ffffff" fill-opacity="1"><g transform="translate(106.600319, 37.400978)"><g><path d="M 6.03125 -7.3125 C 6.289062 -7.101562 6.484375 -6.847656 6.609375 -6.546875 C 6.742188 -6.242188 6.8125 -5.9375 6.8125 -5.625 C 6.8125 -4.75 6.503906 -4.09375 5.890625 -3.65625 C 5.472656 -3.34375 4.832031 -3.1875 3.96875 -3.1875 L 1.875 -3.1875 L 1.875 0 L 0.84375 0 L 0.84375 -7.828125 L 3.953125 -7.828125 C 4.460938 -7.828125 4.875 -7.789062 5.1875 -7.71875 C 5.5 -7.644531 5.78125 -7.507812 6.03125 -7.3125 Z M 5.734375 -5.59375 C 5.734375 -5.757812 5.695312 -5.929688 5.625 -6.109375 C 5.550781 -6.296875 5.445312 -6.453125 5.3125 -6.578125 C 5.164062 -6.703125 5 -6.785156 4.8125 -6.828125 C 4.625 -6.878906 4.375 -6.90625 4.0625 -6.90625 L 1.875 -6.90625 L 1.875 -4.109375 L 3.953125 -4.109375 C 4.554688 -4.109375 5.003906 -4.226562 5.296875 -4.46875 C 5.585938 -4.707031 5.734375 -5.082031 5.734375 -5.59375 Z M 5.734375 -5.59375 "/></g></g></g><g fill="#ffffff" fill-opacity="1"><g transform="translate(113.889509, 37.400978)"><g><path d="M 2.0625 0 L 0.96875 0 L 0.96875 -1.09375 L 2.0625 -1.09375 Z M 2.0625 0 "/></g></g></g><g fill="#ffffff" fill-opacity="1"><g transform="translate(116.927578, 37.400978)"><g><path d="M 4.25 -7.96875 C 5.050781 -7.96875 5.71875 -7.757812 6.25 -7.34375 C 6.78125 -6.9375 7.144531 -6.378906 7.34375 -5.671875 L 6.328125 -5.4375 C 6.148438 -5.957031 5.894531 -6.359375 5.5625 -6.640625 C 5.226562 -6.929688 4.785156 -7.078125 4.234375 -7.078125 C 3.410156 -7.078125 2.769531 -6.804688 2.3125 -6.265625 C 1.851562 -5.722656 1.625 -4.957031 1.625 -3.96875 C 1.625 -2.9375 1.847656 -2.140625 2.296875 -1.578125 C 2.742188 -1.023438 3.367188 -0.75 4.171875 -0.75 C 4.742188 -0.75 5.226562 -0.914062 5.625 -1.25 C 6.03125 -1.59375 6.300781 -2.09375 6.4375 -2.75 L 7.484375 -2.484375 C 7.265625 -1.660156 6.875 -1.019531 6.3125 -0.5625 C 5.75 -0.101562 5.046875 0.125 4.203125 0.125 C 3.628906 0.125 3.140625 0.0507812 2.734375 -0.09375 C 2.328125 -0.25 1.976562 -0.476562 1.6875 -0.78125 C 1.300781 -1.195312 1.015625 -1.679688 0.828125 -2.234375 C 0.648438 -2.785156 0.5625 -3.363281 0.5625 -3.96875 C 0.5625 -4.78125 0.710938 -5.484375 1.015625 -6.078125 C 1.328125 -6.679688 1.757812 -7.144531 2.3125 -7.46875 C 2.875 -7.800781 3.519531 -7.96875 4.25 -7.96875 Z M 4.25 -7.96875 "/></g></g></g><g fill="#ffffff" fill-opacity="1"><g transform="translate(124.817823, 37.400978)"><g><path d="M 4.125 -7.96875 C 4.90625 -7.96875 5.585938 -7.796875 6.171875 -7.453125 C 6.753906 -7.117188 7.203125 -6.644531 7.515625 -6.03125 C 7.835938 -5.425781 8 -4.71875 8 -3.90625 C 8 -3.101562 7.835938 -2.394531 7.515625 -1.78125 C 7.191406 -1.164062 6.75 -0.691406 6.1875 -0.359375 C 5.625 -0.0351562 5 0.125 4.3125 0.125 C 3.550781 0.125 2.882812 -0.046875 2.3125 -0.390625 C 1.738281 -0.742188 1.296875 -1.21875 0.984375 -1.8125 C 0.671875 -2.414062 0.515625 -3.082031 0.515625 -3.8125 C 0.515625 -4.644531 0.671875 -5.375 0.984375 -6 C 1.296875 -6.625 1.722656 -7.109375 2.265625 -7.453125 C 2.816406 -7.796875 3.4375 -7.96875 4.125 -7.96875 Z M 1.578125 -3.796875 C 1.578125 -3.191406 1.691406 -2.660156 1.921875 -2.203125 C 2.148438 -1.742188 2.46875 -1.382812 2.875 -1.125 C 3.28125 -0.875 3.738281 -0.75 4.25 -0.75 C 4.78125 -0.75 5.25 -0.875 5.65625 -1.125 C 6.0625 -1.382812 6.375 -1.75 6.59375 -2.21875 C 6.820312 -2.695312 6.9375 -3.257812 6.9375 -3.90625 C 6.9375 -4.539062 6.820312 -5.097656 6.59375 -5.578125 C 6.375 -6.066406 6.0625 -6.4375 5.65625 -6.6875 C 5.257812 -6.945312 4.804688 -7.078125 4.296875 -7.078125 C 3.429688 -7.078125 2.757812 -6.785156 2.28125 -6.203125 C 1.8125 -5.628906 1.578125 -4.828125 1.578125 -3.796875 Z M 1.578125 -3.796875 "/></g></g></g><g fill="#ffffff" fill-opacity="1"><g transform="translate(133.320054, 37.400978)"><g><path d="M 7.3125 0 L 6.140625 0 L 5.21875 -2.390625 L 1.953125 -2.390625 L 1.09375 0 L -0.015625 0 L 3 -7.828125 L 4.109375 -7.828125 Z M 3.109375 -5.515625 L 2.25 -3.21875 L 4.90625 -3.21875 L 3.9375 -5.796875 C 3.820312 -6.097656 3.6875 -6.503906 3.53125 -7.015625 C 3.53125 -6.972656 3.484375 -6.785156 3.390625 -6.453125 C 3.304688 -6.117188 3.210938 -5.804688 3.109375 -5.515625 Z M 3.109375 -5.515625 "/></g></g></g><g fill="#ffffff" fill-opacity="1"><g transform="translate(140.609244, 37.400978)"><g><path d="M 4.25 -7.96875 C 5.050781 -7.96875 5.71875 -7.757812 6.25 -7.34375 C 6.78125 -6.9375 7.144531 -6.378906 7.34375 -5.671875 L 6.328125 -5.4375 C 6.148438 -5.957031 5.894531 -6.359375 5.5625 -6.640625 C 5.226562 -6.929688 4.785156 -7.078125 4.234375 -7.078125 C 3.410156 -7.078125 2.769531 -6.804688 2.3125 -6.265625 C 1.851562 -5.722656 1.625 -4.957031 1.625 -3.96875 C 1.625 -2.9375 1.847656 -2.140625 2.296875 -1.578125 C 2.742188 -1.023438 3.367188 -0.75 4.171875 -0.75 C 4.742188 -0.75 5.226562 -0.914062 5.625 -1.25 C 6.03125 -1.59375 6.300781 -2.09375 6.4375 -2.75 L 7.484375 -2.484375 C 7.265625 -1.660156 6.875 -1.019531 6.3125 -0.5625 C 5.75 -0.101562 5.046875 0.125 4.203125 0.125 C 3.628906 0.125 3.140625 0.0507812 2.734375 -0.09375 C 2.328125 -0.25 1.976562 -0.476562 1.6875 -0.78125 C 1.300781 -1.195312 1.015625 -1.679688 0.828125 -2.234375 C 0.648438 -2.785156 0.5625 -3.363281 0.5625 -3.96875 C 0.5625 -4.78125 0.710938 -5.484375 1.015625 -6.078125 C 1.328125 -6.679688 1.757812 -7.144531 2.3125 -7.46875 C 2.875 -7.800781 3.519531 -7.96875 4.25 -7.96875 Z M 4.25 -7.96875 "/></g></g></g><g fill="#ffffff" fill-opacity="1"><g transform="translate(148.499488, 37.400978)"><g><path d="M 1.90625 -4.609375 L 5.984375 -4.609375 L 5.984375 -7.828125 L 7.015625 -7.828125 L 7.015625 0 L 5.984375 0 L 5.984375 -3.703125 L 1.90625 -3.703125 L 1.90625 0 L 0.875 0 L 0.875 -7.828125 L 1.90625 -7.828125 Z M 1.90625 -4.609375 "/></g></g></g><g fill="#ffffff" fill-opacity="1"><g transform="translate(156.389733, 37.400978)"><g><path d="M 2.046875 0 L 1 0 L 1 -7.828125 L 2.046875 -7.828125 Z M 2.046875 0 "/></g></g></g><g fill="#ffffff" fill-opacity="1"><g transform="translate(159.427802, 37.400978)"><g><path d="M 6.03125 -1.6875 L 6.03125 -7.828125 L 7.03125 -7.828125 L 7.03125 0 L 5.96875 0 L 1.859375 -6.140625 L 1.859375 0 L 0.859375 0 L 0.859375 -7.828125 L 1.921875 -7.828125 Z M 6.03125 -1.6875 "/></g></g></g><g fill="#ffffff" fill-opacity="1"><g transform="translate(167.318046, 37.400978)"><g><path d="M 4.5 -7.96875 C 6.226562 -7.96875 7.289062 -7.191406 7.6875 -5.640625 L 6.765625 -5.375 C 6.753906 -5.394531 6.726562 -5.472656 6.6875 -5.609375 C 6.644531 -5.753906 6.582031 -5.90625 6.5 -6.0625 C 6.414062 -6.21875 6.320312 -6.347656 6.21875 -6.453125 C 5.769531 -6.867188 5.203125 -7.078125 4.515625 -7.078125 C 3.609375 -7.078125 2.898438 -6.796875 2.390625 -6.234375 C 1.890625 -5.679688 1.640625 -4.914062 1.640625 -3.9375 C 1.640625 -2.90625 1.90625 -2.125 2.4375 -1.59375 C 2.96875 -1.0625 3.703125 -0.796875 4.640625 -0.796875 C 5.003906 -0.796875 5.398438 -0.878906 5.828125 -1.046875 C 6.253906 -1.222656 6.582031 -1.410156 6.8125 -1.609375 L 6.8125 -3.078125 L 4.5 -3.078125 L 4.5 -3.984375 L 7.8125 -3.984375 L 7.8125 -1.09375 C 7.289062 -0.6875 6.765625 -0.378906 6.234375 -0.171875 C 5.710938 0.0234375 5.15625 0.125 4.5625 0.125 C 3.769531 0.125 3.070312 -0.0351562 2.46875 -0.359375 C 1.863281 -0.691406 1.394531 -1.160156 1.0625 -1.765625 C 0.726562 -2.367188 0.5625 -3.070312 0.5625 -3.875 C 0.5625 -4.675781 0.71875 -5.382812 1.03125 -6 C 1.351562 -6.613281 1.804688 -7.09375 2.390625 -7.4375 C 2.984375 -7.789062 3.6875 -7.96875 4.5 -7.96875 Z M 4.5 -7.96875 "/></g></g></g><g fill="#ffffff" fill-opacity="1"><g transform="translate(175.820277, 37.400978)"><g><path d="M 2.015625 -6.34375 C 2.472656 -6.863281 3.015625 -7.265625 3.640625 -7.546875 C 4.265625 -7.835938 5.015625 -7.984375 5.890625 -7.984375 C 6.796875 -7.984375 7.597656 -7.796875 8.296875 -7.421875 C 8.992188 -7.046875 9.53125 -6.539062 9.90625 -5.90625 C 10.28125 -5.28125 10.46875 -4.609375 10.46875 -3.890625 C 10.46875 -3.179688 10.304688 -2.523438 9.984375 -1.921875 C 9.671875 -1.328125 9.265625 -0.851562 8.765625 -0.5 C 8.273438 -0.15625 7.78125 0.015625 7.28125 0.015625 C 6.90625 0.015625 6.640625 -0.0507812 6.484375 -0.1875 C 6.328125 -0.332031 6.238281 -0.5625 6.21875 -0.875 C 5.976562 -0.59375 5.71875 -0.375 5.4375 -0.21875 C 5.15625 -0.0625 4.878906 0.015625 4.609375 0.015625 C 4.242188 0.015625 3.910156 -0.0820312 3.609375 -0.28125 C 3.316406 -0.488281 3.082031 -0.773438 2.90625 -1.140625 C 2.726562 -1.515625 2.640625 -1.9375 2.640625 -2.40625 C 2.640625 -2.9375 2.769531 -3.460938 3.03125 -3.984375 C 3.289062 -4.515625 3.632812 -4.945312 4.0625 -5.28125 C 4.5 -5.613281 4.953125 -5.78125 5.421875 -5.78125 C 5.742188 -5.78125 6.039062 -5.695312 6.3125 -5.53125 C 6.59375 -5.363281 6.832031 -5.117188 7.03125 -4.796875 L 7.203125 -5.625 L 8.171875 -5.625 L 7.328125 -1.6875 C 7.265625 -1.425781 7.234375 -1.269531 7.234375 -1.21875 C 7.234375 -1.125 7.269531 -1.039062 7.34375 -0.96875 C 7.425781 -0.90625 7.523438 -0.875 7.640625 -0.875 C 7.847656 -0.875 8.113281 -1 8.4375 -1.25 C 8.769531 -1.507812 9.054688 -1.863281 9.296875 -2.3125 C 9.546875 -2.757812 9.671875 -3.265625 9.671875 -3.828125 C 9.671875 -4.460938 9.503906 -5.035156 9.171875 -5.546875 C 8.847656 -6.066406 8.394531 -6.472656 7.8125 -6.765625 C 7.226562 -7.054688 6.570312 -7.203125 5.84375 -7.203125 C 5 -7.203125 4.234375 -7 3.546875 -6.59375 C 2.867188 -6.1875 2.34375 -5.628906 1.96875 -4.921875 C 1.59375 -4.222656 1.40625 -3.445312 1.40625 -2.59375 C 1.40625 -1.738281 1.585938 -1.003906 1.953125 -0.390625 C 2.316406 0.222656 2.84375 0.691406 3.53125 1.015625 C 4.226562 1.347656 5.0625 1.515625 6.03125 1.515625 C 6.882812 1.515625 7.632812 1.367188 8.28125 1.078125 C 8.925781 0.785156 9.421875 0.394531 9.765625 -0.09375 L 10.734375 -0.09375 C 10.535156 0.269531 10.269531 0.601562 9.9375 0.90625 C 9.613281 1.207031 9.257812 1.457031 8.875 1.65625 C 8.445312 1.882812 8.007812 2.046875 7.5625 2.140625 C 7.125 2.242188 6.609375 2.296875 6.015625 2.296875 C 4.878906 2.296875 3.90625 2.097656 3.09375 1.703125 C 2.28125 1.304688 1.660156 0.75 1.234375 0.03125 C 0.816406 -0.6875 0.609375 -1.53125 0.609375 -2.5 C 0.609375 -3.175781 0.722656 -3.851562 0.953125 -4.53125 C 1.191406 -5.21875 1.546875 -5.820312 2.015625 -6.34375 Z M 3.625 -2.3125 C 3.625 -1.851562 3.738281 -1.484375 3.96875 -1.203125 C 4.195312 -0.921875 4.476562 -0.78125 4.8125 -0.78125 C 5.09375 -0.78125 5.382812 -0.898438 5.6875 -1.140625 C 5.988281 -1.390625 6.234375 -1.71875 6.421875 -2.125 C 6.617188 -2.53125 6.71875 -2.96875 6.71875 -3.4375 C 6.71875 -3.925781 6.601562 -4.304688 6.375 -4.578125 C 6.15625 -4.859375 5.851562 -5 5.46875 -5 C 5.132812 -5 4.828125 -4.859375 4.546875 -4.578125 C 4.265625 -4.304688 4.039062 -3.957031 3.875 -3.53125 C 3.707031 -3.113281 3.625 -2.707031 3.625 -2.3125 Z M 3.625 -2.3125 "/></g></g></g><g fill="#ffffff" fill-opacity="1"><g transform="translate(186.912518, 37.400978)"><g><path d="M 4.5 -7.96875 C 6.226562 -7.96875 7.289062 -7.191406 7.6875 -5.640625 L 6.765625 -5.375 C 6.753906 -5.394531 6.726562 -5.472656 6.6875 -5.609375 C 6.644531 -5.753906 6.582031 -5.90625 6.5 -6.0625 C 6.414062 -6.21875 6.320312 -6.347656 6.21875 -6.453125 C 5.769531 -6.867188 5.203125 -7.078125 4.515625 -7.078125 C 3.609375 -7.078125 2.898438 -6.796875 2.390625 -6.234375 C 1.890625 -5.679688 1.640625 -4.914062 1.640625 -3.9375 C 1.640625 -2.90625 1.90625 -2.125 2.4375 -1.59375 C 2.96875 -1.0625 3.703125 -0.796875 4.640625 -0.796875 C 5.003906 -0.796875 5.398438 -0.878906 5.828125 -1.046875 C 6.253906 -1.222656 6.582031 -1.410156 6.8125 -1.609375 L 6.8125 -3.078125 L 4.5 -3.078125 L 4.5 -3.984375 L 7.8125 -3.984375 L 7.8125 -1.09375 C 7.289062 -0.6875 6.765625 -0.378906 6.234375 -0.171875 C 5.710938 0.0234375 5.15625 0.125 4.5625 0.125 C 3.769531 0.125 3.070312 -0.0351562 2.46875 -0.359375 C 1.863281 -0.691406 1.394531 -1.160156 1.0625 -1.765625 C 0.726562 -2.367188 0.5625 -3.070312 0.5625 -3.875 C 0.5625 -4.675781 0.71875 -5.382812 1.03125 -6 C 1.351562 -6.613281 1.804688 -7.09375 2.390625 -7.4375 C 2.984375 -7.789062 3.6875 -7.96875 4.5 -7.96875 Z M 4.5 -7.96875 "/></g></g></g><g fill="#ffffff" fill-opacity="1"><g transform="translate(195.41475, 37.400978)"><g><path d="M 4.3125 -2.09375 C 4.363281 -1.945312 4.460938 -1.625 4.609375 -1.125 C 4.691406 -1.382812 4.828125 -1.78125 5.015625 -2.3125 L 6.90625 -7.828125 L 8.296875 -7.828125 L 8.296875 0 L 7.3125 0 L 7.3125 -6.546875 L 5.03125 0 L 4.09375 0 L 1.828125 -6.65625 L 1.828125 0 L 0.828125 0 L 0.828125 -7.828125 L 2.390625 -7.828125 Z M 4.3125 -2.09375 "/></g></g></g><g fill="#ffffff" fill-opacity="1"><g transform="translate(204.518046, 37.400978)"><g><path d="M 7.3125 0 L 6.140625 0 L 5.21875 -2.390625 L 1.953125 -2.390625 L 1.09375 0 L -0.015625 0 L 3 -7.828125 L 4.109375 -7.828125 Z M 3.109375 -5.515625 L 2.25 -3.21875 L 4.90625 -3.21875 L 3.9375 -5.796875 C 3.820312 -6.097656 3.6875 -6.503906 3.53125 -7.015625 C 3.53125 -6.972656 3.484375 -6.785156 3.390625 -6.453125 C 3.304688 -6.117188 3.210938 -5.804688 3.109375 -5.515625 Z M 3.109375 -5.515625 "/></g></g></g><g fill="#ffffff" fill-opacity="1"><g transform="translate(211.807236, 37.400978)"><g><path d="M 2.046875 0 L 1 0 L 1 -7.828125 L 2.046875 -7.828125 Z M 2.046875 0 "/></g></g></g><g fill="#ffffff" fill-opacity="1"><g transform="translate(214.845305, 37.400978)"><g><path d="M 1.859375 -0.921875 L 5.71875 -0.921875 L 5.71875 0 L 0.8125 0 L 0.8125 -7.828125 L 1.859375 -7.828125 Z M 1.859375 -0.921875 "/></g></g></g><g fill="#ffffff" fill-opacity="1"><g transform="translate(220.921455, 37.400978)"><g><path d="M 2.0625 0 L 0.96875 0 L 0.96875 -1.09375 L 2.0625 -1.09375 Z M 2.0625 0 "/></g></g></g><g fill="#ffffff" fill-opacity="1"><g transform="translate(223.959524, 37.400978)"><g><path d="M 4.25 -7.96875 C 5.050781 -7.96875 5.71875 -7.757812 6.25 -7.34375 C 6.78125 -6.9375 7.144531 -6.378906 7.34375 -5.671875 L 6.328125 -5.4375 C 6.148438 -5.957031 5.894531 -6.359375 5.5625 -6.640625 C 5.226562 -6.929688 4.785156 -7.078125 4.234375 -7.078125 C 3.410156 -7.078125 2.769531 -6.804688 2.3125 -6.265625 C 1.851562 -5.722656 1.625 -4.957031 1.625 -3.96875 C 1.625 -2.9375 1.847656 -2.140625 2.296875 -1.578125 C 2.742188 -1.023438 3.367188 -0.75 4.171875 -0.75 C 4.742188 -0.75 5.226562 -0.914062 5.625 -1.25 C 6.03125 -1.59375 6.300781 -2.09375 6.4375 -2.75 L 7.484375 -2.484375 C 7.265625 -1.660156 6.875 -1.019531 6.3125 -0.5625 C 5.75 -0.101562 5.046875 0.125 4.203125 0.125 C 3.628906 0.125 3.140625 0.0507812 2.734375 -0.09375 C 2.328125 -0.25 1.976562 -0.476562 1.6875 -0.78125 C 1.300781 -1.195312 1.015625 -1.679688 0.828125 -2.234375 C 0.648438 -2.785156 0.5625 -3.363281 0.5625 -3.96875 C 0.5625 -4.78125 0.710938 -5.484375 1.015625 -6.078125 C 1.328125 -6.679688 1.757812 -7.144531 2.3125 -7.46875 C 2.875 -7.800781 3.519531 -7.96875 4.25 -7.96875 Z M 4.25 -7.96875 "/></g></g></g><g fill="#ffffff" fill-opacity="1"><g transform="translate(231.849768, 37.400978)"><g><path d="M 4.125 -7.96875 C 4.90625 -7.96875 5.585938 -7.796875 6.171875 -7.453125 C 6.753906 -7.117188 7.203125 -6.644531 7.515625 -6.03125 C 7.835938 -5.425781 8 -4.71875 8 -3.90625 C 8 -3.101562 7.835938 -2.394531 7.515625 -1.78125 C 7.191406 -1.164062 6.75 -0.691406 6.1875 -0.359375 C 5.625 -0.0351562 5 0.125 4.3125 0.125 C 3.550781 0.125 2.882812 -0.046875 2.3125 -0.390625 C 1.738281 -0.742188 1.296875 -1.21875 0.984375 -1.8125 C 0.671875 -2.414062 0.515625 -3.082031 0.515625 -3.8125 C 0.515625 -4.644531 0.671875 -5.375 0.984375 -6 C 1.296875 -6.625 1.722656 -7.109375 2.265625 -7.453125 C 2.816406 -7.796875 3.4375 -7.96875 4.125 -7.96875 Z M 1.578125 -3.796875 C 1.578125 -3.191406 1.691406 -2.660156 1.921875 -2.203125 C 2.148438 -1.742188 2.46875 -1.382812 2.875 -1.125 C 3.28125 -0.875 3.738281 -0.75 4.25 -0.75 C 4.78125 -0.75 5.25 -0.875 5.65625 -1.125 C 6.0625 -1.382812 6.375 -1.75 6.59375 -2.21875 C 6.820312 -2.695312 6.9375 -3.257812 6.9375 -3.90625 C 6.9375 -4.539062 6.820312 -5.097656 6.59375 -5.578125 C 6.375 -6.066406 6.0625 -6.4375 5.65625 -6.6875 C 5.257812 -6.945312 4.804688 -7.078125 4.296875 -7.078125 C 3.429688 -7.078125 2.757812 -6.785156 2.28125 -6.203125 C 1.8125 -5.628906 1.578125 -4.828125 1.578125 -3.796875 Z M 1.578125 -3.796875 "/></g></g></g><g fill="#ffffff" fill-opacity="1"><g transform="translate(240.351988, 37.400978)"><g><path d="M 4.3125 -2.09375 C 4.363281 -1.945312 4.460938 -1.625 4.609375 -1.125 C 4.691406 -1.382812 4.828125 -1.78125 5.015625 -2.3125 L 6.90625 -7.828125 L 8.296875 -7.828125 L 8.296875 0 L 7.3125 0 L 7.3125 -6.546875 L 5.03125 0 L 4.09375 0 L 1.828125 -6.65625 L 1.828125 0 L 0.828125 0 L 0.828125 -7.828125 L 2.390625 -7.828125 Z M 4.3125 -2.09375 "/></g></g></g></svg>