<svg xmlns="http://www.w3.org/2000/svg" xmlns:xlink="http://www.w3.org/1999/xlink" width="189" zoomAndPan="magnify" viewBox="0 0 141.75 42.75" height="57" preserveAspectRatio="xMidYMid meet" version="1.0"><defs><g/><clipPath id="12c54913ed"><path d="M 4.515625 11.082031 L 36.464844 11.082031 L 36.464844 41.960938 L 4.515625 41.960938 Z M 4.515625 11.082031 " clip-rule="nonzero"/></clipPath><clipPath id="6e7d418d13"><path d="M 11.222656 11.082031 L 29.726562 11.082031 C 33.433594 11.082031 36.4375 14.085938 36.4375 17.789062 L 36.4375 35.558594 C 36.4375 39.265625 33.433594 42.269531 29.726562 42.269531 L 11.222656 42.269531 C 7.519531 42.269531 4.515625 39.265625 4.515625 35.558594 L 4.515625 17.789062 C 4.515625 14.085938 7.519531 11.082031 11.222656 11.082031 Z M 11.222656 11.082031 " clip-rule="nonzero"/></clipPath><clipPath id="7c2608b0ea"><path d="M 17.960938 16.824219 L 29.789062 16.824219 L 29.789062 41.796875 L 17.960938 41.796875 Z M 17.960938 16.824219 " clip-rule="nonzero"/></clipPath></defs><g fill="#ffffff" fill-opacity="1"><g transform="translate(42.761135, 37.40097)"><g><path d="M 6.15625 -6.90625 L 1.90625 -6.90625 L 1.90625 -4.484375 L 5.59375 -4.484375 L 5.59375 -3.5625 L 1.90625 -3.5625 L 1.90625 0 L 0.875 0 L 0.875 -7.828125 L 6.15625 -7.828125 Z M 6.15625 -6.90625 "/></g></g></g><g fill="#ffffff" fill-opacity="1"><g transform="translate(49.438338, 37.40097)"><g><path d="M 7.3125 0 L 6.140625 0 L 5.21875 -2.390625 L 1.953125 -2.390625 L 1.09375 0 L -0.015625 0 L 3 -7.828125 L 4.109375 -7.828125 Z M 3.109375 -5.515625 L 2.25 -3.21875 L 4.90625 -3.21875 L 3.9375 -5.796875 C 3.820312 -6.097656 3.6875 -6.503906 3.53125 -7.015625 C 3.53125 -6.972656 3.484375 -6.785156 3.390625 -6.453125 C 3.304688 -6.117188 3.210938 -5.804688 3.109375 -5.515625 Z M 3.109375 -5.515625 "/></g></g></g><g fill="#ffffff" fill-opacity="1"><g transform="translate(56.727528, 37.40097)"><g><path d="M 4.25 -7.96875 C 5.050781 -7.96875 5.71875 -7.757812 6.25 -7.34375 C 6.78125 -6.9375 7.144531 -6.378906 7.34375 -5.671875 L 6.328125 -5.4375 C 6.148438 -5.957031 5.894531 -6.359375 5.5625 -6.640625 C 5.226562 -6.929688 4.785156 -7.078125 4.234375 -7.078125 C 3.410156 -7.078125 2.769531 -6.804688 2.3125 -6.265625 C 1.851562 -5.722656 1.625 -4.957031 1.625 -3.96875 C 1.625 -2.9375 1.847656 -2.140625 2.296875 -1.578125 C 2.742188 -1.023438 3.367188 -0.75 4.171875 -0.75 C 4.742188 -0.75 5.226562 -0.914062 5.625 -1.25 C 6.03125 -1.59375 6.300781 -2.09375 6.4375 -2.75 L 7.484375 -2.484375 C 7.265625 -1.660156 6.875 -1.019531 6.3125 -0.5625 C 5.75 -0.101562 5.046875 0.125 4.203125 0.125 C 3.628906 0.125 3.140625 0.0507812 2.734375 -0.09375 C 2.328125 -0.25 1.976562 -0.476562 1.6875 -0.78125 C 1.300781 -1.195312 1.015625 -1.679688 0.828125 -2.234375 C 0.648438 -2.785156 0.5625 -3.363281 0.5625 -3.96875 C 0.5625 -4.78125 0.710938 -5.484375 1.015625 -6.078125 C 1.328125 -6.679688 1.757812 -7.144531 2.3125 -7.46875 C 2.875 -7.800781 3.519531 -7.96875 4.25 -7.96875 Z M 4.25 -7.96875 "/></g></g></g><g fill="#ffffff" fill-opacity="1"><g transform="translate(64.617772, 37.40097)"><g><path d="M 6.53125 -6.90625 L 1.90625 -6.90625 L 1.90625 -4.5 L 6.234375 -4.5 L 6.234375 -3.59375 L 1.90625 -3.59375 L 1.90625 -0.921875 L 6.703125 -0.921875 L 6.703125 0 L 0.859375 0 L 0.859375 -7.828125 L 6.53125 -7.828125 Z M 6.53125 -6.90625 "/></g></g></g><g fill="#ffffff" fill-opacity="1"><g transform="translate(71.906963, 37.40097)"><g><path d="M 5.578125 -7.359375 C 5.867188 -7.140625 6.070312 -6.894531 6.1875 -6.625 C 6.300781 -6.351562 6.359375 -6.109375 6.359375 -5.890625 C 6.359375 -5.109375 5.988281 -4.535156 5.25 -4.171875 C 5.75 -4.015625 6.117188 -3.769531 6.359375 -3.4375 C 6.597656 -3.101562 6.71875 -2.703125 6.71875 -2.234375 C 6.71875 -1.867188 6.625 -1.503906 6.4375 -1.140625 C 6.257812 -0.773438 5.941406 -0.484375 5.484375 -0.265625 C 5.097656 -0.0859375 4.5625 0 3.875 0 L 0.8125 0 L 0.8125 -7.828125 L 3.8125 -7.828125 C 4.25 -7.828125 4.597656 -7.785156 4.859375 -7.703125 C 5.128906 -7.628906 5.367188 -7.515625 5.578125 -7.359375 Z M 5.328125 -5.703125 C 5.328125 -6.179688 5.175781 -6.5 4.875 -6.65625 C 4.570312 -6.820312 4.117188 -6.90625 3.515625 -6.90625 L 1.84375 -6.90625 L 1.84375 -4.53125 L 3.609375 -4.53125 C 4.203125 -4.53125 4.632812 -4.625 4.90625 -4.8125 C 5.1875 -5 5.328125 -5.296875 5.328125 -5.703125 Z M 4.953125 -1.109375 C 5.203125 -1.234375 5.378906 -1.398438 5.484375 -1.609375 C 5.585938 -1.816406 5.640625 -2.035156 5.640625 -2.265625 C 5.640625 -2.566406 5.5625 -2.820312 5.40625 -3.03125 C 5.257812 -3.25 5.039062 -3.40625 4.75 -3.5 C 4.519531 -3.582031 4.179688 -3.625 3.734375 -3.625 L 1.84375 -3.625 L 1.84375 -0.921875 L 3.9375 -0.921875 C 4.175781 -0.921875 4.367188 -0.929688 4.515625 -0.953125 C 4.671875 -0.984375 4.816406 -1.035156 4.953125 -1.109375 Z M 4.953125 -1.109375 "/></g></g></g><g fill="#ffffff" fill-opacity="1"><g transform="translate(79.196153, 37.40097)"><g><path d="M 4.125 -7.96875 C 4.90625 -7.96875 5.585938 -7.796875 6.171875 -7.453125 C 6.753906 -7.117188 7.203125 -6.644531 7.515625 -6.03125 C 7.835938 -5.425781 8 -4.71875 8 -3.90625 C 8 -3.101562 7.835938 -2.394531 7.515625 -1.78125 C 7.191406 -1.164062 6.75 -0.691406 6.1875 -0.359375 C 5.625 -0.0351562 5 0.125 4.3125 0.125 C 3.550781 0.125 2.882812 -0.046875 2.3125 -0.390625 C 1.738281 -0.742188 1.296875 -1.21875 0.984375 -1.8125 C 0.671875 -2.414062 0.515625 -3.082031 0.515625 -3.8125 C 0.515625 -4.644531 0.671875 -5.375 0.984375 -6 C 1.296875 -6.625 1.722656 -7.109375 2.265625 -7.453125 C 2.816406 -7.796875 3.4375 -7.96875 4.125 -7.96875 Z M 1.578125 -3.796875 C 1.578125 -3.191406 1.691406 -2.660156 1.921875 -2.203125 C 2.148438 -1.742188 2.46875 -1.382812 2.875 -1.125 C 3.28125 -0.875 3.738281 -0.75 4.25 -0.75 C 4.78125 -0.75 5.25 -0.875 5.65625 -1.125 C 6.0625 -1.382812 6.375 -1.75 6.59375 -2.21875 C 6.820312 -2.695312 6.9375 -3.257812 6.9375 -3.90625 C 6.9375 -4.539062 6.820312 -5.097656 6.59375 -5.578125 C 6.375 -6.066406 6.0625 -6.4375 5.65625 -6.6875 C 5.257812 -6.945312 4.804688 -7.078125 4.296875 -7.078125 C 3.429688 -7.078125 2.757812 -6.785156 2.28125 -6.203125 C 1.8125 -5.628906 1.578125 -4.828125 1.578125 -3.796875 Z M 1.578125 -3.796875 "/></g></g></g><g fill="#ffffff" fill-opacity="1"><g transform="translate(87.698385, 37.40097)"><g><path d="M 4.125 -7.96875 C 4.90625 -7.96875 5.585938 -7.796875 6.171875 -7.453125 C 6.753906 -7.117188 7.203125 -6.644531 7.515625 -6.03125 C 7.835938 -5.425781 8 -4.71875 8 -3.90625 C 8 -3.101562 7.835938 -2.394531 7.515625 -1.78125 C 7.191406 -1.164062 6.75 -0.691406 6.1875 -0.359375 C 5.625 -0.0351562 5 0.125 4.3125 0.125 C 3.550781 0.125 2.882812 -0.046875 2.3125 -0.390625 C 1.738281 -0.742188 1.296875 -1.21875 0.984375 -1.8125 C 0.671875 -2.414062 0.515625 -3.082031 0.515625 -3.8125 C 0.515625 -4.644531 0.671875 -5.375 0.984375 -6 C 1.296875 -6.625 1.722656 -7.109375 2.265625 -7.453125 C 2.816406 -7.796875 3.4375 -7.96875 4.125 -7.96875 Z M 1.578125 -3.796875 C 1.578125 -3.191406 1.691406 -2.660156 1.921875 -2.203125 C 2.148438 -1.742188 2.46875 -1.382812 2.875 -1.125 C 3.28125 -0.875 3.738281 -0.75 4.25 -0.75 C 4.78125 -0.75 5.25 -0.875 5.65625 -1.125 C 6.0625 -1.382812 6.375 -1.75 6.59375 -2.21875 C 6.820312 -2.695312 6.9375 -3.257812 6.9375 -3.90625 C 6.9375 -4.539062 6.820312 -5.097656 6.59375 -5.578125 C 6.375 -6.066406 6.0625 -6.4375 5.65625 -6.6875 C 5.257812 -6.945312 4.804688 -7.078125 4.296875 -7.078125 C 3.429688 -7.078125 2.757812 -6.785156 2.28125 -6.203125 C 1.8125 -5.628906 1.578125 -4.828125 1.578125 -3.796875 Z M 1.578125 -3.796875 "/></g></g></g><g fill="#ffffff" fill-opacity="1"><g transform="translate(96.200616, 37.40097)"><g><path d="M 1.84375 -3.953125 L 5.71875 -7.828125 L 7.125 -7.828125 L 3.84375 -4.65625 L 7.265625 0 L 5.90625 0 L 3.109375 -3.953125 L 1.84375 -2.71875 L 1.84375 0 L 0.796875 0 L 0.796875 -7.828125 L 1.84375 -7.828125 Z M 1.84375 -3.953125 "/></g></g></g><g clip-path="url(#12c54913ed)"><g clip-path="url(#6e7d418d13)"><path stroke-linecap="butt" transform="matrix(0.657108, 0, 0, 0.657108, 4.515038, 11.080733)" fill="none" stroke-linejoin="miter" d="M 10.20779 0.00197547 L 38.367411 0.00197547 C 44.008847 0.00197547 48.580252 4.573381 48.580252 10.208872 L 48.580252 37.250906 C 48.580252 42.892342 44.008847 47.463748 38.367411 47.463748 L 10.20779 47.463748 C 4.572299 47.463748 0.000893624 42.892342 0.000893624 37.250906 L 0.000893624 10.208872 C 0.000893624 4.573381 4.572299 0.00197547 10.20779 0.00197547 Z M 10.20779 0.00197547 " stroke="#ffffff" stroke-width="2.269459" stroke-opacity="1" stroke-miterlimit="4"/></g></g><g clip-path="url(#7c2608b0ea)"><path fill="#ffffff" d="M 27.058594 20.964844 L 29.789062 20.964844 L 29.789062 16.863281 L 26.304688 16.863281 L 26.304688 16.878906 C 21.722656 17.046875 20.777344 19.605469 20.699219 22.3125 L 20.6875 22.3125 L 20.6875 25.160156 L 17.960938 25.160156 L 17.960938 29.269531 L 20.6875 29.269531 L 20.6875 41.757812 L 25.585938 41.757812 L 25.585938 29.269531 L 29.097656 29.269531 L 29.789062 25.160156 L 25.585938 25.160156 L 25.585938 22.609375 C 25.585938 21.703125 26.195312 20.964844 27.058594 20.964844 Z M 27.058594 20.964844 " fill-opacity="1" fill-rule="nonzero"/></g></svg>