<svg xmlns="http://www.w3.org/2000/svg" xmlns:xlink="http://www.w3.org/1999/xlink" width="416" zoomAndPan="magnify" viewBox="0 0 312 42.75" height="57" preserveAspectRatio="xMidYMid meet" version="1.0"><defs><g/><clipPath id="a154d1638b"><path d="M 6.746094 0 L 39.546875 0 L 39.546875 42.269531 L 6.746094 42.269531 Z M 6.746094 0 " clip-rule="nonzero"/></clipPath></defs><g clip-path="url(#a154d1638b)"><path fill="#ffffff" d="M 32.667969 39.980469 C 35.410156 40.035156 37.652344 40.089844 37.671875 40.105469 C 37.6875 40.125 37.679688 40.359375 37.644531 40.640625 L 37.578125 41.148438 L 37.207031 41.109375 C 35.808594 40.957031 32.441406 40.875 29.992188 40.929688 C 27.261719 40.992188 27.207031 40.992188 27.207031 40.8125 C 27.207031 40.722656 27.179688 40.449219 27.152344 40.226562 L 27.089844 39.808594 L 27.394531 39.84375 C 27.566406 39.871094 29.9375 39.933594 32.667969 39.980469 Z M 20.152344 40.421875 L 20.152344 41.039062 L 18.414062 41.101562 C 17.457031 41.136719 15.820312 41.203125 14.769531 41.246094 C 13.730469 41.292969 12.066406 41.355469 11.089844 41.390625 L 9.296875 41.453125 L 9.296875 39.933594 L 14.652344 39.90625 C 17.601562 39.890625 20.023438 39.863281 20.050781 39.835938 C 20.140625 39.753906 20.152344 39.828125 20.152344 40.421875 Z M 24.328125 31.40625 C 25.0625 31.625 25.640625 32.589844 25.902344 34.011719 C 26.019531 34.699219 26.183594 37.332031 26.246094 39.671875 L 26.273438 40.949219 L 23.523438 41.011719 C 22.003906 41.046875 20.757812 41.066406 20.75 41.046875 C 20.710938 40.984375 20.867188 37.519531 20.964844 36.453125 C 21.074219 35.195312 21.355469 33.738281 21.597656 33.078125 C 21.796875 32.554688 22.269531 31.929688 22.65625 31.660156 C 22.890625 31.496094 23.273438 31.386719 23.894531 31.308594 C 23.941406 31.308594 24.128906 31.34375 24.328125 31.40625 Z M 14.308594 5.972656 C 14.328125 6 14.289062 6.671875 14.226562 7.464844 C 14.15625 8.261719 14.089844 9.320312 14.089844 9.816406 C 14.089844 10.867188 14.183594 10.695312 12.582031 12.503906 C 12.074219 13.066406 11.566406 13.644531 11.441406 13.796875 L 11.207031 14.070312 L 11.226562 9.972656 L 11.242188 5.875 L 12.753906 5.902344 C 13.578125 5.917969 14.28125 5.945312 14.308594 5.972656 Z M 14.433594 4.5 C 14.726562 4.535156 14.816406 4.589844 14.816406 4.707031 C 14.816406 5.152344 14.84375 5.140625 12.636719 5.152344 L 10.5625 5.160156 L 10.5625 4.320312 L 12.308594 4.382812 C 13.257812 4.417969 14.21875 4.464844 14.433594 4.5 Z M 25.597656 3.949219 C 26.472656 5.085938 27.46875 6.40625 27.8125 6.878906 C 28.871094 8.351562 31.636719 11.753906 33.554688 13.941406 C 34.179688 14.65625 35.074219 15.734375 35.535156 16.328125 C 35.988281 16.925781 36.703125 17.804688 37.117188 18.273438 L 37.859375 19.140625 L 37.734375 19.8125 C 37.5 21.085938 37.40625 24.984375 37.535156 29.144531 C 37.597656 31.253906 37.652344 34.453125 37.652344 36.261719 L 37.652344 39.554688 L 35.617188 39.546875 C 34.496094 39.539062 32.109375 39.5 30.316406 39.472656 L 27.050781 39.410156 L 26.988281 38.089844 C 26.816406 33.820312 26.726562 33.214844 26.164062 32.058594 C 25.550781 30.800781 24.691406 30.304688 23.460938 30.492188 C 23.109375 30.546875 22.675781 30.664062 22.503906 30.753906 C 22.097656 30.964844 21.308594 31.796875 21.066406 32.273438 C 20.585938 33.222656 20.152344 35.957031 20.152344 38.054688 L 20.152344 39.347656 L 19.636719 39.355469 C 19.347656 39.355469 18.523438 39.375 17.800781 39.382812 C 10.65625 39.527344 9.296875 39.554688 9.289062 39.519531 C 9.289062 39.5 9.253906 35.773438 9.207031 31.253906 C 9.144531 24.082031 9.046875 20.625 8.890625 19.449219 C 8.855469 19.160156 8.910156 19.050781 9.414062 18.4375 C 10.445312 17.160156 13.585938 13.445312 14.542969 12.351562 C 15.070312 11.753906 15.917969 10.757812 16.441406 10.132812 C 17.890625 8.398438 18.324219 7.882812 18.921875 7.195312 C 19.726562 6.261719 21.226562 4.636719 22.429688 3.367188 C 23.019531 2.753906 23.5625 2.15625 23.640625 2.03125 C 23.722656 1.902344 23.839844 1.824219 23.894531 1.839844 C 23.949219 1.859375 24.71875 2.808594 25.597656 3.949219 Z M 23.273438 0.175781 C 22.636719 0.566406 18.730469 4.96875 16.324219 7.992188 C 15.585938 8.921875 14.941406 9.710938 14.886719 9.734375 C 14.832031 9.773438 14.824219 9.113281 14.859375 7.910156 C 14.921875 6.144531 14.941406 6 15.132812 5.703125 C 15.277344 5.484375 15.359375 5.1875 15.402344 4.734375 C 15.457031 4.128906 15.449219 4.082031 15.265625 3.984375 C 15.023438 3.847656 11.550781 3.675781 10.746094 3.757812 C 10.429688 3.785156 10.113281 3.855469 10.050781 3.910156 C 9.921875 4.011719 9.886719 5.304688 10.003906 5.484375 C 10.039062 5.539062 10.230469 5.65625 10.417969 5.746094 L 10.773438 5.917969 L 10.710938 7.855469 C 10.683594 8.921875 10.609375 10.40625 10.554688 11.164062 C 10.5 11.914062 10.484375 13.054688 10.511719 13.699219 L 10.574219 14.855469 L 10.320312 15.191406 C 10.183594 15.371094 9.886719 15.742188 9.652344 16.011719 C 8.59375 17.269531 6.746094 19.828125 6.746094 20.046875 C 6.746094 20.5625 7.335938 20.796875 7.777344 20.445312 L 8.003906 20.273438 L 8.058594 20.742188 C 8.09375 21.003906 8.167969 25.835938 8.222656 31.480469 C 8.277344 37.121094 8.359375 41.808594 8.402344 41.890625 C 8.636719 42.339844 10.78125 42.378906 17.347656 42.0625 C 18.371094 42.007812 20.929688 41.96875 23.046875 41.96875 C 25.160156 41.980469 28.480469 41.953125 30.417969 41.925781 C 32.359375 41.890625 34.777344 41.90625 35.796875 41.953125 C 37.550781 42.035156 37.671875 42.023438 37.988281 41.863281 C 38.25 41.71875 38.347656 41.597656 38.4375 41.308594 C 38.582031 40.785156 38.574219 34.90625 38.421875 31.867188 C 38.304688 29.550781 38.339844 22.480469 38.476562 20.652344 C 38.53125 19.921875 38.539062 19.910156 38.71875 20.039062 C 38.953125 20.199219 39.34375 20.210938 39.488281 20.066406 C 39.550781 20 39.597656 19.792969 39.597656 19.605469 C 39.597656 18.988281 39.640625 19.050781 36.917969 15.695312 C 36.359375 15 35.507812 13.960938 35.027344 13.390625 C 33.960938 12.105469 33.175781 11.128906 31.320312 8.777344 C 26.402344 2.535156 25.660156 1.625 24.753906 0.699219 C 24.003906 -0.0664062 23.789062 -0.140625 23.273438 0.175781 " fill-opacity="1" fill-rule="evenodd"/></g><path fill="#ffffff" d="M 26.011719 14.980469 L 26.492188 15.035156 L 26.429688 15.8125 C 26.390625 16.25 26.355469 16.617188 26.328125 16.636719 C 26.308594 16.664062 25.253906 16.628906 23.96875 16.574219 C 22.691406 16.511719 21.34375 16.464844 20.992188 16.464844 L 20.332031 16.464844 L 20.332031 14.882812 L 22.929688 14.902344 C 24.367188 14.917969 25.75 14.945312 26.011719 14.980469 Z M 23.933594 12.8125 L 26.390625 12.875 L 26.390625 14.574219 L 23.363281 14.546875 L 20.332031 14.519531 L 20.332031 12.640625 L 20.902344 12.695312 C 21.210938 12.730469 22.574219 12.785156 23.933594 12.8125 Z M 20.285156 12.105469 C 20.042969 12.125 19.796875 12.167969 19.753906 12.222656 C 19.699219 12.269531 19.652344 13.261719 19.636719 14.429688 C 19.589844 17.296875 19.492188 17.132812 21.328125 17.234375 C 21.898438 17.261719 22.9375 17.324219 23.632812 17.371094 C 24.328125 17.414062 25.34375 17.449219 25.875 17.449219 C 26.789062 17.460938 26.871094 17.441406 27.070312 17.242188 C 27.277344 17.035156 27.277344 17 27.25 15.839844 C 27.222656 15.179688 27.195312 14.621094 27.167969 14.582031 C 27.152344 14.546875 27.105469 14.070312 27.078125 13.527344 C 26.996094 12.296875 26.988281 12.25 26.679688 12.160156 C 26.445312 12.097656 21.226562 12.050781 20.285156 12.105469 " fill-opacity="1" fill-rule="evenodd"/><path fill="#ffffff" d="M 34.097656 30.011719 C 34.125 30.050781 34.171875 30.601562 34.179688 31.253906 L 34.207031 32.429688 L 32.378906 32.429688 L 32.316406 31.214844 C 32.269531 30.25 32.28125 29.988281 32.378906 29.921875 C 32.507812 29.839844 33.988281 29.914062 34.097656 30.011719 Z M 31.820312 31.171875 L 31.820312 32.492188 L 30.625 32.429688 C 29.964844 32.390625 29.414062 32.355469 29.402344 32.347656 C 29.386719 32.335938 29.402344 31.796875 29.441406 31.136719 L 29.496094 29.949219 L 30.273438 29.914062 C 30.695312 29.90625 31.222656 29.878906 31.4375 29.867188 L 31.820312 29.851562 Z M 34.078125 28.152344 L 34.078125 29.445312 L 32.269531 29.445312 L 32.269531 28.628906 C 32.269531 28.175781 32.242188 27.597656 32.214844 27.335938 L 32.152344 26.867188 L 34.078125 26.867188 Z M 30.894531 26.839844 L 31.820312 26.894531 L 31.820312 29.378906 L 30.671875 29.417969 C 30.027344 29.433594 29.496094 29.433594 29.484375 29.425781 C 29.421875 29.398438 29.449219 27.425781 29.511719 27.046875 C 29.566406 26.710938 29.601562 26.675781 29.773438 26.722656 C 29.875 26.757812 30.378906 26.804688 30.894531 26.839844 Z M 34.078125 25.140625 L 34.078125 26.394531 L 33.15625 26.351562 C 32.640625 26.324219 32.214844 26.289062 32.199219 26.277344 C 32.179688 26.261719 32.199219 25.71875 32.234375 25.066406 L 32.296875 23.882812 L 34.078125 23.882812 Z M 31.621094 23.980469 C 31.636719 24.027344 31.691406 24.042969 31.738281 24.007812 C 31.78125 23.980469 31.820312 24.453125 31.820312 25.140625 L 31.820312 26.324219 L 29.558594 26.324219 L 29.558594 23.828125 L 30.578125 23.863281 C 31.132812 23.882812 31.609375 23.9375 31.621094 23.980469 Z M 29.003906 23.527344 L 28.808594 23.816406 L 28.816406 28.296875 C 28.824219 31.316406 28.859375 32.808594 28.925781 32.871094 C 29.042969 32.988281 33.808594 33.007812 34.460938 32.898438 L 34.882812 32.828125 L 34.910156 31.316406 C 34.929688 30.484375 34.910156 29.597656 34.875 29.351562 C 34.839844 29.101562 34.777344 27.726562 34.75 26.296875 C 34.683594 23.773438 34.675781 23.683594 34.496094 23.566406 C 34.359375 23.472656 33.644531 23.410156 31.964844 23.347656 C 30.671875 23.292969 29.519531 23.25 29.414062 23.25 C 29.285156 23.25 29.132812 23.355469 29.003906 23.527344 " fill-opacity="1" fill-rule="evenodd"/><path fill="#ffffff" d="M 18.558594 30.539062 C 18.585938 30.773438 18.613281 31.308594 18.613281 31.722656 L 18.613281 32.484375 L 17.464844 32.457031 L 16.308594 32.429688 L 16.28125 31.296875 L 16.253906 30.15625 L 17.375 30.132812 L 18.496094 30.113281 Z M 14.777344 30.039062 C 15.320312 30.09375 15.792969 30.183594 15.828125 30.238281 C 15.863281 30.304688 15.902344 30.800781 15.902344 31.351562 L 15.902344 32.355469 L 14.804688 32.417969 C 14.199219 32.457031 13.703125 32.472656 13.683594 32.457031 C 13.675781 32.4375 13.640625 31.867188 13.621094 31.179688 C 13.59375 30.285156 13.613281 29.941406 13.683594 29.941406 C 13.738281 29.941406 14.238281 29.988281 14.777344 30.039062 Z M 18.460938 27.472656 C 18.488281 27.714844 18.515625 28.332031 18.515625 28.847656 L 18.515625 29.777344 L 17.410156 29.714844 C 16.804688 29.679688 16.28125 29.632812 16.246094 29.605469 C 16.199219 29.589844 16.171875 29 16.171875 28.304688 L 16.171875 27.046875 L 18.414062 27.046875 Z M 15.792969 28.304688 L 15.820312 29.605469 L 14.988281 29.550781 C 14.527344 29.515625 14.019531 29.488281 13.867188 29.488281 L 13.578125 29.488281 L 13.511719 28.511719 C 13.476562 27.980469 13.429688 27.410156 13.394531 27.246094 L 13.351562 26.949219 L 14.554688 26.976562 L 15.765625 27 Z M 18.144531 24.117188 L 18.433594 24.160156 L 18.433594 25.273438 C 18.433594 26.105469 18.40625 26.40625 18.316406 26.441406 C 18.253906 26.46875 17.746094 26.460938 17.195312 26.441406 L 16.179688 26.386719 L 16.136719 25.925781 C 16.109375 25.671875 16.074219 25.128906 16.0625 24.722656 L 16.035156 23.972656 L 16.941406 24.027344 C 17.4375 24.054688 17.980469 24.089844 18.144531 24.117188 Z M 15.675781 23.988281 C 15.691406 24.007812 15.730469 24.558594 15.765625 25.21875 L 15.828125 26.421875 L 14.578125 26.394531 L 13.324219 26.367188 L 13.214844 25.464844 C 13.160156 24.96875 13.105469 24.398438 13.105469 24.207031 L 13.097656 23.855469 L 14.382812 23.910156 C 15.078125 23.945312 15.664062 23.980469 15.675781 23.988281 Z M 12.871094 23.546875 L 12.617188 23.753906 L 12.726562 25.113281 C 12.789062 25.851562 12.863281 27.898438 12.890625 29.652344 C 12.925781 32.121094 12.96875 32.871094 13.0625 32.960938 C 13.140625 33.050781 13.730469 33.097656 15.285156 33.144531 C 16.441406 33.179688 17.71875 33.222656 18.117188 33.25 C 19.308594 33.332031 19.203125 33.8125 19.203125 28.429688 C 19.203125 23.855469 19.203125 23.835938 19.003906 23.609375 L 18.8125 23.382812 L 15.964844 23.355469 L 13.125 23.328125 L 12.871094 23.546875 " fill-opacity="1" fill-rule="evenodd"/><path fill="#ffffff" d="M 21.886719 36.472656 C 21.824219 36.535156 21.78125 36.6875 21.78125 36.816406 C 21.78125 37.25 22.160156 37.410156 22.441406 37.105469 C 22.730469 36.789062 22.574219 36.363281 22.1875 36.363281 C 22.078125 36.363281 21.953125 36.40625 21.886719 36.472656 " fill-opacity="1" fill-rule="evenodd"/><g fill="#ffffff" fill-opacity="1"><g transform="translate(45.437917, 37.88312)"><g><path d="M 1.84375 -3.953125 L 5.71875 -7.828125 L 7.125 -7.828125 L 3.84375 -4.65625 L 7.265625 0 L 5.90625 0 L 3.109375 -3.953125 L 1.84375 -2.71875 L 1.84375 0 L 0.796875 0 L 0.796875 -7.828125 L 1.84375 -7.828125 Z M 1.84375 -3.953125 "/></g></g></g><g fill="#ffffff" fill-opacity="1"><g transform="translate(52.727108, 37.88312)"><g><path d="M 7.3125 0 L 6.140625 0 L 5.21875 -2.390625 L 1.953125 -2.390625 L 1.09375 0 L -0.015625 0 L 3 -7.828125 L 4.109375 -7.828125 Z M 3.109375 -5.515625 L 2.25 -3.21875 L 4.90625 -3.21875 L 3.9375 -5.796875 C 3.820312 -6.097656 3.6875 -6.503906 3.53125 -7.015625 C 3.53125 -6.972656 3.484375 -6.785156 3.390625 -6.453125 C 3.304688 -6.117188 3.210938 -5.804688 3.109375 -5.515625 Z M 3.109375 -5.515625 "/></g></g></g><g fill="#ffffff" fill-opacity="1"><g transform="translate(60.016298, 37.88312)"><g><path d="M 6.359375 -7.359375 C 6.628906 -7.148438 6.828125 -6.894531 6.953125 -6.59375 C 7.078125 -6.300781 7.140625 -6 7.140625 -5.6875 C 7.140625 -5.113281 6.957031 -4.644531 6.59375 -4.28125 C 6.226562 -3.914062 5.675781 -3.675781 4.9375 -3.5625 C 5.21875 -3.4375 5.46875 -3.257812 5.6875 -3.03125 C 5.914062 -2.8125 6.160156 -2.503906 6.421875 -2.109375 L 7.78125 0 L 6.46875 0 L 5.46875 -1.578125 C 5.113281 -2.117188 4.832031 -2.515625 4.625 -2.765625 C 4.414062 -3.023438 4.203125 -3.207031 3.984375 -3.3125 C 3.765625 -3.414062 3.488281 -3.46875 3.15625 -3.46875 L 1.90625 -3.46875 L 1.90625 0 L 0.875 0 L 0.875 -7.828125 L 4.46875 -7.828125 C 4.925781 -7.828125 5.300781 -7.789062 5.59375 -7.71875 C 5.882812 -7.65625 6.140625 -7.535156 6.359375 -7.359375 Z M 5.609375 -4.71875 C 5.765625 -4.84375 5.878906 -4.988281 5.953125 -5.15625 C 6.023438 -5.332031 6.0625 -5.507812 6.0625 -5.6875 C 6.0625 -6.144531 5.894531 -6.472656 5.5625 -6.671875 C 5.238281 -6.867188 4.859375 -6.96875 4.421875 -6.96875 L 1.90625 -6.96875 L 1.90625 -4.390625 L 4.25 -4.390625 C 4.613281 -4.390625 4.890625 -4.414062 5.078125 -4.46875 C 5.273438 -4.519531 5.453125 -4.601562 5.609375 -4.71875 Z M 5.609375 -4.71875 "/></g></g></g><g fill="#ffffff" fill-opacity="1"><g transform="translate(67.906542, 37.88312)"><g><path d="M 6.53125 -6.90625 L 1.90625 -6.90625 L 1.90625 -4.5 L 6.234375 -4.5 L 6.234375 -3.59375 L 1.90625 -3.59375 L 1.90625 -0.921875 L 6.703125 -0.921875 L 6.703125 0 L 0.859375 0 L 0.859375 -7.828125 L 6.53125 -7.828125 Z M 6.53125 -6.90625 "/></g></g></g><g fill="#ffffff" fill-opacity="1"><g transform="translate(75.195733, 37.88312)"><g><path d="M 1.859375 -0.921875 L 5.71875 -0.921875 L 5.71875 0 L 0.8125 0 L 0.8125 -7.828125 L 1.859375 -7.828125 Z M 1.859375 -0.921875 "/></g></g></g><g fill="#ffffff" fill-opacity="1"><g transform="translate(81.271883, 37.88312)"><g/></g></g><g fill="#ffffff" fill-opacity="1"><g transform="translate(84.309952, 37.88312)"><g><path d="M 5.734375 -7.421875 C 6.265625 -7.117188 6.664062 -6.664062 6.9375 -6.0625 C 7.207031 -5.46875 7.34375 -4.769531 7.34375 -3.96875 C 7.34375 -3.300781 7.242188 -2.679688 7.046875 -2.109375 C 6.859375 -1.535156 6.5625 -1.082031 6.15625 -0.75 C 5.851562 -0.5 5.519531 -0.3125 5.15625 -0.1875 C 4.789062 -0.0625 4.335938 0 3.796875 0 L 0.875 0 L 0.875 -7.828125 L 3.71875 -7.828125 C 4.175781 -7.828125 4.554688 -7.800781 4.859375 -7.75 C 5.160156 -7.695312 5.453125 -7.585938 5.734375 -7.421875 Z M 6.28125 -3.984375 C 6.28125 -4.773438 6.15625 -5.382812 5.90625 -5.8125 C 5.65625 -6.25 5.359375 -6.539062 5.015625 -6.6875 C 4.671875 -6.832031 4.242188 -6.90625 3.734375 -6.90625 L 1.90625 -6.90625 L 1.90625 -0.921875 L 3.625 -0.921875 C 4.132812 -0.921875 4.5625 -0.976562 4.90625 -1.09375 C 5.257812 -1.21875 5.578125 -1.503906 5.859375 -1.953125 C 6.140625 -2.410156 6.28125 -3.085938 6.28125 -3.984375 Z M 6.28125 -3.984375 "/></g></g></g><g fill="#ffffff" fill-opacity="1"><g transform="translate(92.200196, 37.88312)"><g><path d="M 6.53125 -6.90625 L 1.90625 -6.90625 L 1.90625 -4.5 L 6.234375 -4.5 L 6.234375 -3.59375 L 1.90625 -3.59375 L 1.90625 -0.921875 L 6.703125 -0.921875 L 6.703125 0 L 0.859375 0 L 0.859375 -7.828125 L 6.53125 -7.828125 Z M 6.53125 -6.90625 "/></g></g></g><g fill="#ffffff" fill-opacity="1"><g transform="translate(99.489386, 37.88312)"><g/></g></g><g fill="#ffffff" fill-opacity="1"><g transform="translate(102.527455, 37.88312)"><g><path d="M 4.5 -7.96875 C 6.226562 -7.96875 7.289062 -7.191406 7.6875 -5.640625 L 6.765625 -5.375 C 6.753906 -5.394531 6.726562 -5.472656 6.6875 -5.609375 C 6.644531 -5.753906 6.582031 -5.90625 6.5 -6.0625 C 6.414062 -6.21875 6.320312 -6.347656 6.21875 -6.453125 C 5.769531 -6.867188 5.203125 -7.078125 4.515625 -7.078125 C 3.609375 -7.078125 2.898438 -6.796875 2.390625 -6.234375 C 1.890625 -5.679688 1.640625 -4.914062 1.640625 -3.9375 C 1.640625 -2.90625 1.90625 -2.125 2.4375 -1.59375 C 2.96875 -1.0625 3.703125 -0.796875 4.640625 -0.796875 C 5.003906 -0.796875 5.398438 -0.878906 5.828125 -1.046875 C 6.253906 -1.222656 6.582031 -1.410156 6.8125 -1.609375 L 6.8125 -3.078125 L 4.5 -3.078125 L 4.5 -3.984375 L 7.8125 -3.984375 L 7.8125 -1.09375 C 7.289062 -0.6875 6.765625 -0.378906 6.234375 -0.171875 C 5.710938 0.0234375 5.15625 0.125 4.5625 0.125 C 3.769531 0.125 3.070312 -0.0351562 2.46875 -0.359375 C 1.863281 -0.691406 1.394531 -1.160156 1.0625 -1.765625 C 0.726562 -2.367188 0.5625 -3.070312 0.5625 -3.875 C 0.5625 -4.675781 0.71875 -5.382812 1.03125 -6 C 1.351562 -6.613281 1.804688 -7.09375 2.390625 -7.4375 C 2.984375 -7.789062 3.6875 -7.96875 4.5 -7.96875 Z M 4.5 -7.96875 "/></g></g></g><g fill="#ffffff" fill-opacity="1"><g transform="translate(111.029687, 37.88312)"><g><path d="M 4.125 -7.96875 C 4.90625 -7.96875 5.585938 -7.796875 6.171875 -7.453125 C 6.753906 -7.117188 7.203125 -6.644531 7.515625 -6.03125 C 7.835938 -5.425781 8 -4.71875 8 -3.90625 C 8 -3.101562 7.835938 -2.394531 7.515625 -1.78125 C 7.191406 -1.164062 6.75 -0.691406 6.1875 -0.359375 C 5.625 -0.0351562 5 0.125 4.3125 0.125 C 3.550781 0.125 2.882812 -0.046875 2.3125 -0.390625 C 1.738281 -0.742188 1.296875 -1.21875 0.984375 -1.8125 C 0.671875 -2.414062 0.515625 -3.082031 0.515625 -3.8125 C 0.515625 -4.644531 0.671875 -5.375 0.984375 -6 C 1.296875 -6.625 1.722656 -7.109375 2.265625 -7.453125 C 2.816406 -7.796875 3.4375 -7.96875 4.125 -7.96875 Z M 1.578125 -3.796875 C 1.578125 -3.191406 1.691406 -2.660156 1.921875 -2.203125 C 2.148438 -1.742188 2.46875 -1.382812 2.875 -1.125 C 3.28125 -0.875 3.738281 -0.75 4.25 -0.75 C 4.78125 -0.75 5.25 -0.875 5.65625 -1.125 C 6.0625 -1.382812 6.375 -1.75 6.59375 -2.21875 C 6.820312 -2.695312 6.9375 -3.257812 6.9375 -3.90625 C 6.9375 -4.539062 6.820312 -5.097656 6.59375 -5.578125 C 6.375 -6.066406 6.0625 -6.4375 5.65625 -6.6875 C 5.257812 -6.945312 4.804688 -7.078125 4.296875 -7.078125 C 3.429688 -7.078125 2.757812 -6.785156 2.28125 -6.203125 C 1.8125 -5.628906 1.578125 -4.828125 1.578125 -3.796875 Z M 1.578125 -3.796875 "/></g></g></g><g fill="#ffffff" fill-opacity="1"><g transform="translate(119.531918, 37.88312)"><g><path d="M 6.53125 -6.90625 L 1.90625 -6.90625 L 1.90625 -4.5 L 6.234375 -4.5 L 6.234375 -3.59375 L 1.90625 -3.59375 L 1.90625 -0.921875 L 6.703125 -0.921875 L 6.703125 0 L 0.859375 0 L 0.859375 -7.828125 L 6.53125 -7.828125 Z M 6.53125 -6.90625 "/></g></g></g><g fill="#ffffff" fill-opacity="1"><g transform="translate(126.821109, 37.88312)"><g><path d="M 5.734375 -7.421875 C 6.265625 -7.117188 6.664062 -6.664062 6.9375 -6.0625 C 7.207031 -5.46875 7.34375 -4.769531 7.34375 -3.96875 C 7.34375 -3.300781 7.242188 -2.679688 7.046875 -2.109375 C 6.859375 -1.535156 6.5625 -1.082031 6.15625 -0.75 C 5.851562 -0.5 5.519531 -0.3125 5.15625 -0.1875 C 4.789062 -0.0625 4.335938 0 3.796875 0 L 0.875 0 L 0.875 -7.828125 L 3.71875 -7.828125 C 4.175781 -7.828125 4.554688 -7.800781 4.859375 -7.75 C 5.160156 -7.695312 5.453125 -7.585938 5.734375 -7.421875 Z M 6.28125 -3.984375 C 6.28125 -4.773438 6.15625 -5.382812 5.90625 -5.8125 C 5.65625 -6.25 5.359375 -6.539062 5.015625 -6.6875 C 4.671875 -6.832031 4.242188 -6.90625 3.734375 -6.90625 L 1.90625 -6.90625 L 1.90625 -0.921875 L 3.625 -0.921875 C 4.132812 -0.921875 4.5625 -0.976562 4.90625 -1.09375 C 5.257812 -1.21875 5.578125 -1.503906 5.859375 -1.953125 C 6.140625 -2.410156 6.28125 -3.085938 6.28125 -3.984375 Z M 6.28125 -3.984375 "/></g></g></g><g fill="#ffffff" fill-opacity="1"><g transform="translate(134.711353, 37.88312)"><g><path d="M 6.53125 -6.90625 L 1.90625 -6.90625 L 1.90625 -4.5 L 6.234375 -4.5 L 6.234375 -3.59375 L 1.90625 -3.59375 L 1.90625 -0.921875 L 6.703125 -0.921875 L 6.703125 0 L 0.859375 0 L 0.859375 -7.828125 L 6.53125 -7.828125 Z M 6.53125 -6.90625 "/></g></g></g><g fill="#ffffff" fill-opacity="1"><g transform="translate(142.000543, 37.88312)"><g><path d="M 1.859375 -0.921875 L 5.71875 -0.921875 L 5.71875 0 L 0.8125 0 L 0.8125 -7.828125 L 1.859375 -7.828125 Z M 1.859375 -0.921875 "/></g></g></g><g fill="#ffffff" fill-opacity="1"><g transform="translate(148.076693, 37.88312)"><g><path d="M 7.3125 0 L 6.140625 0 L 5.21875 -2.390625 L 1.953125 -2.390625 L 1.09375 0 L -0.015625 0 L 3 -7.828125 L 4.109375 -7.828125 Z M 3.109375 -5.515625 L 2.25 -3.21875 L 4.90625 -3.21875 L 3.9375 -5.796875 C 3.820312 -6.097656 3.6875 -6.503906 3.53125 -7.015625 C 3.53125 -6.972656 3.484375 -6.785156 3.390625 -6.453125 C 3.304688 -6.117188 3.210938 -5.804688 3.109375 -5.515625 Z M 3.109375 -5.515625 "/></g></g></g><g fill="#ffffff" fill-opacity="1"><g transform="translate(155.365883, 37.88312)"><g><path d="M 7.3125 0 L 6.140625 0 L 5.21875 -2.390625 L 1.953125 -2.390625 L 1.09375 0 L -0.015625 0 L 3 -7.828125 L 4.109375 -7.828125 Z M 3.109375 -5.515625 L 2.25 -3.21875 L 4.90625 -3.21875 L 3.9375 -5.796875 C 3.820312 -6.097656 3.6875 -6.503906 3.53125 -7.015625 C 3.53125 -6.972656 3.484375 -6.785156 3.390625 -6.453125 C 3.304688 -6.117188 3.210938 -5.804688 3.109375 -5.515625 Z M 3.109375 -5.515625 "/></g></g></g><g fill="#ffffff" fill-opacity="1"><g transform="translate(162.655074, 37.88312)"><g><path d="M 6.03125 -1.6875 L 6.03125 -7.828125 L 7.03125 -7.828125 L 7.03125 0 L 5.96875 0 L 1.859375 -6.140625 L 1.859375 0 L 0.859375 0 L 0.859375 -7.828125 L 1.921875 -7.828125 Z M 6.03125 -1.6875 "/></g></g></g><g fill="#ffffff" fill-opacity="1"><g transform="translate(170.545318, 37.88312)"><g/></g></g><g fill="#ffffff" fill-opacity="1"><g transform="translate(173.583387, 37.88312)"><g><path d="M 3.03125 -7.859375 C 3.519531 -7.859375 3.945312 -7.765625 4.3125 -7.578125 C 4.6875 -7.390625 4.972656 -7.132812 5.171875 -6.8125 C 5.367188 -6.488281 5.46875 -6.128906 5.46875 -5.734375 C 5.46875 -5.316406 5.363281 -4.921875 5.15625 -4.546875 C 4.945312 -4.171875 4.691406 -3.832031 4.390625 -3.53125 C 4.097656 -3.238281 3.71875 -2.898438 3.25 -2.515625 C 2.78125 -2.128906 2.425781 -1.820312 2.1875 -1.59375 C 1.957031 -1.375 1.773438 -1.148438 1.640625 -0.921875 L 5.484375 -0.921875 L 5.484375 0 L 0.3125 0 C 0.3125 -0.445312 0.472656 -0.898438 0.796875 -1.359375 C 1.128906 -1.828125 1.570312 -2.289062 2.125 -2.75 C 2.6875 -3.21875 3.128906 -3.601562 3.453125 -3.90625 C 3.773438 -4.207031 4.023438 -4.503906 4.203125 -4.796875 C 4.390625 -5.097656 4.484375 -5.398438 4.484375 -5.703125 C 4.484375 -6.097656 4.34375 -6.425781 4.0625 -6.6875 C 3.789062 -6.945312 3.441406 -7.078125 3.015625 -7.078125 C 2.578125 -7.078125 2.210938 -6.941406 1.921875 -6.671875 C 1.628906 -6.410156 1.476562 -6.015625 1.46875 -5.484375 L 0.484375 -5.59375 C 0.554688 -6.332031 0.8125 -6.894531 1.25 -7.28125 C 1.695312 -7.664062 2.289062 -7.859375 3.03125 -7.859375 Z M 3.03125 -7.859375 "/></g></g></g><g fill="#ffffff" fill-opacity="1"><g transform="translate(179.659537, 37.88312)"><g><path d="M 2.9375 -7.859375 C 3.363281 -7.859375 3.75 -7.765625 4.09375 -7.578125 C 4.445312 -7.398438 4.722656 -7.160156 4.921875 -6.859375 C 5.117188 -6.554688 5.21875 -6.234375 5.21875 -5.890625 C 5.21875 -5.128906 4.859375 -4.582031 4.140625 -4.25 C 4.617188 -4.132812 4.984375 -3.90625 5.234375 -3.5625 C 5.484375 -3.21875 5.609375 -2.828125 5.609375 -2.390625 C 5.609375 -1.878906 5.484375 -1.429688 5.234375 -1.046875 C 4.992188 -0.671875 4.675781 -0.378906 4.28125 -0.171875 C 3.894531 0.0234375 3.484375 0.125 3.046875 0.125 C 2.316406 0.125 1.722656 -0.0703125 1.265625 -0.46875 C 0.804688 -0.875 0.546875 -1.40625 0.484375 -2.0625 L 1.4375 -2.203125 C 1.53125 -1.691406 1.707031 -1.304688 1.96875 -1.046875 C 2.238281 -0.785156 2.570312 -0.65625 2.96875 -0.65625 C 3.269531 -0.65625 3.539062 -0.722656 3.78125 -0.859375 C 4.03125 -1.003906 4.222656 -1.207031 4.359375 -1.46875 C 4.503906 -1.726562 4.578125 -2.035156 4.578125 -2.390625 C 4.578125 -2.617188 4.515625 -2.84375 4.390625 -3.0625 C 4.273438 -3.28125 4.101562 -3.457031 3.875 -3.59375 C 3.644531 -3.738281 3.378906 -3.8125 3.078125 -3.8125 C 2.929688 -3.8125 2.816406 -3.800781 2.734375 -3.78125 C 2.648438 -3.769531 2.535156 -3.742188 2.390625 -3.703125 L 2.484375 -4.546875 L 2.65625 -4.53125 C 3.082031 -4.53125 3.453125 -4.644531 3.765625 -4.875 C 4.078125 -5.113281 4.234375 -5.445312 4.234375 -5.875 C 4.234375 -6.21875 4.109375 -6.503906 3.859375 -6.734375 C 3.617188 -6.960938 3.316406 -7.078125 2.953125 -7.078125 C 2.566406 -7.078125 2.25 -6.953125 2 -6.703125 C 1.757812 -6.453125 1.609375 -6.109375 1.546875 -5.671875 L 0.578125 -5.828125 C 0.691406 -6.472656 0.957031 -6.972656 1.375 -7.328125 C 1.789062 -7.679688 2.3125 -7.859375 2.9375 -7.859375 Z M 2.9375 -7.859375 "/></g></g></g><g fill="#ffffff" fill-opacity="1"><g transform="translate(185.735686, 37.88312)"><g><path d="M 2.078125 0.046875 C 2.078125 0.421875 2.003906 0.726562 1.859375 0.96875 C 1.710938 1.21875 1.488281 1.410156 1.1875 1.546875 L 0.921875 1.140625 C 1.140625 1.035156 1.289062 0.890625 1.375 0.703125 C 1.46875 0.515625 1.519531 0.28125 1.53125 0 L 0.984375 0 L 0.984375 -1.09375 L 2.078125 -1.09375 Z M 2.078125 0.046875 "/></g></g></g><g fill="#ffffff" fill-opacity="1"><g transform="translate(188.773755, 37.88312)"><g/></g></g><g fill="#ffffff" fill-opacity="1"><g transform="translate(191.816274, 37.88312)"><g><path d="M 3.03125 -7.859375 C 3.476562 -7.859375 3.867188 -7.765625 4.203125 -7.578125 C 4.546875 -7.398438 4.8125 -7.15625 5 -6.84375 C 5.195312 -6.539062 5.296875 -6.195312 5.296875 -5.8125 C 5.296875 -5.0625 4.910156 -4.539062 4.140625 -4.25 C 4.648438 -4.070312 5.023438 -3.804688 5.265625 -3.453125 C 5.503906 -3.109375 5.625 -2.710938 5.625 -2.265625 C 5.625 -1.804688 5.515625 -1.394531 5.296875 -1.03125 C 5.078125 -0.664062 4.769531 -0.378906 4.375 -0.171875 C 3.976562 0.0234375 3.535156 0.125 3.046875 0.125 C 2.535156 0.125 2.082031 0.0234375 1.6875 -0.171875 C 1.300781 -0.378906 1 -0.664062 0.78125 -1.03125 C 0.5625 -1.394531 0.453125 -1.804688 0.453125 -2.265625 C 0.453125 -2.785156 0.582031 -3.210938 0.84375 -3.546875 C 1.101562 -3.890625 1.472656 -4.125 1.953125 -4.25 C 1.171875 -4.53125 0.78125 -5.0625 0.78125 -5.84375 C 0.78125 -6.21875 0.875 -6.5625 1.0625 -6.875 C 1.25 -7.1875 1.515625 -7.425781 1.859375 -7.59375 C 2.203125 -7.769531 2.59375 -7.859375 3.03125 -7.859375 Z M 1.765625 -5.875 C 1.765625 -5.507812 1.878906 -5.207031 2.109375 -4.96875 C 2.347656 -4.726562 2.660156 -4.609375 3.046875 -4.609375 C 3.398438 -4.609375 3.695312 -4.722656 3.9375 -4.953125 C 4.1875 -5.191406 4.3125 -5.484375 4.3125 -5.828125 C 4.3125 -6.179688 4.1875 -6.476562 3.9375 -6.71875 C 3.695312 -6.957031 3.390625 -7.078125 3.015625 -7.078125 C 2.785156 -7.078125 2.570312 -7.019531 2.375 -6.90625 C 2.1875 -6.789062 2.035156 -6.640625 1.921875 -6.453125 C 1.816406 -6.265625 1.765625 -6.070312 1.765625 -5.875 Z M 1.4375 -2.25 C 1.4375 -1.789062 1.585938 -1.410156 1.890625 -1.109375 C 2.203125 -0.804688 2.601562 -0.65625 3.09375 -0.65625 C 3.375 -0.65625 3.628906 -0.71875 3.859375 -0.84375 C 4.097656 -0.976562 4.285156 -1.164062 4.421875 -1.40625 C 4.566406 -1.644531 4.640625 -1.921875 4.640625 -2.234375 C 4.640625 -2.535156 4.566406 -2.804688 4.421875 -3.046875 C 4.273438 -3.285156 4.082031 -3.472656 3.84375 -3.609375 C 3.601562 -3.753906 3.332031 -3.828125 3.03125 -3.828125 C 2.71875 -3.828125 2.441406 -3.753906 2.203125 -3.609375 C 1.960938 -3.460938 1.773438 -3.269531 1.640625 -3.03125 C 1.503906 -2.789062 1.4375 -2.53125 1.4375 -2.25 Z M 1.4375 -2.25 "/></g></g></g><g fill="#ffffff" fill-opacity="1"><g transform="translate(197.892423, 37.88312)"><g><path d="M 3.03125 -7.859375 C 3.476562 -7.859375 3.867188 -7.765625 4.203125 -7.578125 C 4.546875 -7.398438 4.8125 -7.15625 5 -6.84375 C 5.195312 -6.539062 5.296875 -6.195312 5.296875 -5.8125 C 5.296875 -5.0625 4.910156 -4.539062 4.140625 -4.25 C 4.648438 -4.070312 5.023438 -3.804688 5.265625 -3.453125 C 5.503906 -3.109375 5.625 -2.710938 5.625 -2.265625 C 5.625 -1.804688 5.515625 -1.394531 5.296875 -1.03125 C 5.078125 -0.664062 4.769531 -0.378906 4.375 -0.171875 C 3.976562 0.0234375 3.535156 0.125 3.046875 0.125 C 2.535156 0.125 2.082031 0.0234375 1.6875 -0.171875 C 1.300781 -0.378906 1 -0.664062 0.78125 -1.03125 C 0.5625 -1.394531 0.453125 -1.804688 0.453125 -2.265625 C 0.453125 -2.785156 0.582031 -3.210938 0.84375 -3.546875 C 1.101562 -3.890625 1.472656 -4.125 1.953125 -4.25 C 1.171875 -4.53125 0.78125 -5.0625 0.78125 -5.84375 C 0.78125 -6.21875 0.875 -6.5625 1.0625 -6.875 C 1.25 -7.1875 1.515625 -7.425781 1.859375 -7.59375 C 2.203125 -7.769531 2.59375 -7.859375 3.03125 -7.859375 Z M 1.765625 -5.875 C 1.765625 -5.507812 1.878906 -5.207031 2.109375 -4.96875 C 2.347656 -4.726562 2.660156 -4.609375 3.046875 -4.609375 C 3.398438 -4.609375 3.695312 -4.722656 3.9375 -4.953125 C 4.1875 -5.191406 4.3125 -5.484375 4.3125 -5.828125 C 4.3125 -6.179688 4.1875 -6.476562 3.9375 -6.71875 C 3.695312 -6.957031 3.390625 -7.078125 3.015625 -7.078125 C 2.785156 -7.078125 2.570312 -7.019531 2.375 -6.90625 C 2.1875 -6.789062 2.035156 -6.640625 1.921875 -6.453125 C 1.816406 -6.265625 1.765625 -6.070312 1.765625 -5.875 Z M 1.4375 -2.25 C 1.4375 -1.789062 1.585938 -1.410156 1.890625 -1.109375 C 2.203125 -0.804688 2.601562 -0.65625 3.09375 -0.65625 C 3.375 -0.65625 3.628906 -0.71875 3.859375 -0.84375 C 4.097656 -0.976562 4.285156 -1.164062 4.421875 -1.40625 C 4.566406 -1.644531 4.640625 -1.921875 4.640625 -2.234375 C 4.640625 -2.535156 4.566406 -2.804688 4.421875 -3.046875 C 4.273438 -3.285156 4.082031 -3.472656 3.84375 -3.609375 C 3.601562 -3.753906 3.332031 -3.828125 3.03125 -3.828125 C 2.71875 -3.828125 2.441406 -3.753906 2.203125 -3.609375 C 1.960938 -3.460938 1.773438 -3.269531 1.640625 -3.03125 C 1.503906 -2.789062 1.4375 -2.53125 1.4375 -2.25 Z M 1.4375 -2.25 "/></g></g></g><g fill="#ffffff" fill-opacity="1"><g transform="translate(203.968573, 37.88312)"><g><path d="M 3.03125 -7.859375 C 3.519531 -7.859375 3.945312 -7.765625 4.3125 -7.578125 C 4.6875 -7.390625 4.972656 -7.132812 5.171875 -6.8125 C 5.367188 -6.488281 5.46875 -6.128906 5.46875 -5.734375 C 5.46875 -5.316406 5.363281 -4.921875 5.15625 -4.546875 C 4.945312 -4.171875 4.691406 -3.832031 4.390625 -3.53125 C 4.097656 -3.238281 3.71875 -2.898438 3.25 -2.515625 C 2.78125 -2.128906 2.425781 -1.820312 2.1875 -1.59375 C 1.957031 -1.375 1.773438 -1.148438 1.640625 -0.921875 L 5.484375 -0.921875 L 5.484375 0 L 0.3125 0 C 0.3125 -0.445312 0.472656 -0.898438 0.796875 -1.359375 C 1.128906 -1.828125 1.570312 -2.289062 2.125 -2.75 C 2.6875 -3.21875 3.128906 -3.601562 3.453125 -3.90625 C 3.773438 -4.207031 4.023438 -4.503906 4.203125 -4.796875 C 4.390625 -5.097656 4.484375 -5.398438 4.484375 -5.703125 C 4.484375 -6.097656 4.34375 -6.425781 4.0625 -6.6875 C 3.789062 -6.945312 3.441406 -7.078125 3.015625 -7.078125 C 2.578125 -7.078125 2.210938 -6.941406 1.921875 -6.671875 C 1.628906 -6.410156 1.476562 -6.015625 1.46875 -5.484375 L 0.484375 -5.59375 C 0.554688 -6.332031 0.8125 -6.894531 1.25 -7.28125 C 1.695312 -7.664062 2.289062 -7.859375 3.03125 -7.859375 Z M 3.03125 -7.859375 "/></g></g></g><g fill="#ffffff" fill-opacity="1"><g transform="translate(210.044723, 37.88312)"><g><path d="M 3.046875 -7.859375 C 3.867188 -7.859375 4.5 -7.523438 4.9375 -6.859375 C 5.375 -6.203125 5.59375 -5.203125 5.59375 -3.859375 C 5.59375 -2.515625 5.375 -1.515625 4.9375 -0.859375 C 4.507812 -0.203125 3.878906 0.125 3.046875 0.125 C 1.335938 0.125 0.484375 -1.203125 0.484375 -3.859375 C 0.484375 -5.160156 0.695312 -6.148438 1.125 -6.828125 C 1.550781 -7.515625 2.191406 -7.859375 3.046875 -7.859375 Z M 1.46875 -3.859375 C 1.46875 -2.785156 1.59375 -1.984375 1.84375 -1.453125 C 2.09375 -0.921875 2.492188 -0.65625 3.046875 -0.65625 C 3.597656 -0.65625 3.992188 -0.921875 4.234375 -1.453125 C 4.484375 -1.984375 4.609375 -2.785156 4.609375 -3.859375 C 4.609375 -4.984375 4.476562 -5.800781 4.21875 -6.3125 C 3.96875 -6.820312 3.570312 -7.078125 3.03125 -7.078125 C 2.488281 -7.078125 2.09375 -6.8125 1.84375 -6.28125 C 1.59375 -5.75 1.46875 -4.941406 1.46875 -3.859375 Z M 1.46875 -3.859375 "/></g></g></g><g fill="#ffffff" fill-opacity="1"><g transform="translate(216.120872, 37.88312)"><g/></g></g><g fill="#ffffff" fill-opacity="1"><g transform="translate(219.158942, 37.88312)"><g><path d="M 6.453125 -6.90625 L 3.859375 -6.90625 L 3.859375 0 L 2.828125 0 L 2.828125 -6.90625 L 0.234375 -6.90625 L 0.234375 -7.828125 L 6.453125 -7.828125 Z M 6.453125 -6.90625 "/></g></g></g><g fill="#ffffff" fill-opacity="1"><g transform="translate(225.836145, 37.88312)"><g><path d="M 4.125 -7.96875 C 4.90625 -7.96875 5.585938 -7.796875 6.171875 -7.453125 C 6.753906 -7.117188 7.203125 -6.644531 7.515625 -6.03125 C 7.835938 -5.425781 8 -4.71875 8 -3.90625 C 8 -3.101562 7.835938 -2.394531 7.515625 -1.78125 C 7.191406 -1.164062 6.75 -0.691406 6.1875 -0.359375 C 5.625 -0.0351562 5 0.125 4.3125 0.125 C 3.550781 0.125 2.882812 -0.046875 2.3125 -0.390625 C 1.738281 -0.742188 1.296875 -1.21875 0.984375 -1.8125 C 0.671875 -2.414062 0.515625 -3.082031 0.515625 -3.8125 C 0.515625 -4.644531 0.671875 -5.375 0.984375 -6 C 1.296875 -6.625 1.722656 -7.109375 2.265625 -7.453125 C 2.816406 -7.796875 3.4375 -7.96875 4.125 -7.96875 Z M 1.578125 -3.796875 C 1.578125 -3.191406 1.691406 -2.660156 1.921875 -2.203125 C 2.148438 -1.742188 2.46875 -1.382812 2.875 -1.125 C 3.28125 -0.875 3.738281 -0.75 4.25 -0.75 C 4.78125 -0.75 5.25 -0.875 5.65625 -1.125 C 6.0625 -1.382812 6.375 -1.75 6.59375 -2.21875 C 6.820312 -2.695312 6.9375 -3.257812 6.9375 -3.90625 C 6.9375 -4.539062 6.820312 -5.097656 6.59375 -5.578125 C 6.375 -6.066406 6.0625 -6.4375 5.65625 -6.6875 C 5.257812 -6.945312 4.804688 -7.078125 4.296875 -7.078125 C 3.429688 -7.078125 2.757812 -6.785156 2.28125 -6.203125 C 1.8125 -5.628906 1.578125 -4.828125 1.578125 -3.796875 Z M 1.578125 -3.796875 "/></g></g></g><g fill="#ffffff" fill-opacity="1"><g transform="translate(234.338376, 37.88312)"><g><path d="M 6.359375 -7.359375 C 6.628906 -7.148438 6.828125 -6.894531 6.953125 -6.59375 C 7.078125 -6.300781 7.140625 -6 7.140625 -5.6875 C 7.140625 -5.113281 6.957031 -4.644531 6.59375 -4.28125 C 6.226562 -3.914062 5.675781 -3.675781 4.9375 -3.5625 C 5.21875 -3.4375 5.46875 -3.257812 5.6875 -3.03125 C 5.914062 -2.8125 6.160156 -2.503906 6.421875 -2.109375 L 7.78125 0 L 6.46875 0 L 5.46875 -1.578125 C 5.113281 -2.117188 4.832031 -2.515625 4.625 -2.765625 C 4.414062 -3.023438 4.203125 -3.207031 3.984375 -3.3125 C 3.765625 -3.414062 3.488281 -3.46875 3.15625 -3.46875 L 1.90625 -3.46875 L 1.90625 0 L 0.875 0 L 0.875 -7.828125 L 4.46875 -7.828125 C 4.925781 -7.828125 5.300781 -7.789062 5.59375 -7.71875 C 5.882812 -7.65625 6.140625 -7.535156 6.359375 -7.359375 Z M 5.609375 -4.71875 C 5.765625 -4.84375 5.878906 -4.988281 5.953125 -5.15625 C 6.023438 -5.332031 6.0625 -5.507812 6.0625 -5.6875 C 6.0625 -6.144531 5.894531 -6.472656 5.5625 -6.671875 C 5.238281 -6.867188 4.859375 -6.96875 4.421875 -6.96875 L 1.90625 -6.96875 L 1.90625 -4.390625 L 4.25 -4.390625 C 4.613281 -4.390625 4.890625 -4.414062 5.078125 -4.46875 C 5.273438 -4.519531 5.453125 -4.601562 5.609375 -4.71875 Z M 5.609375 -4.71875 "/></g></g></g><g fill="#ffffff" fill-opacity="1"><g transform="translate(242.22862, 37.88312)"><g><path d="M 1.90625 -4.609375 L 5.984375 -4.609375 L 5.984375 -7.828125 L 7.015625 -7.828125 L 7.015625 0 L 5.984375 0 L 5.984375 -3.703125 L 1.90625 -3.703125 L 1.90625 0 L 0.875 0 L 0.875 -7.828125 L 1.90625 -7.828125 Z M 1.90625 -4.609375 "/></g></g></g><g fill="#ffffff" fill-opacity="1"><g transform="translate(250.118864, 37.88312)"><g><path d="M 4.125 -7.96875 C 4.90625 -7.96875 5.585938 -7.796875 6.171875 -7.453125 C 6.753906 -7.117188 7.203125 -6.644531 7.515625 -6.03125 C 7.835938 -5.425781 8 -4.71875 8 -3.90625 C 8 -3.101562 7.835938 -2.394531 7.515625 -1.78125 C 7.191406 -1.164062 6.75 -0.691406 6.1875 -0.359375 C 5.625 -0.0351562 5 0.125 4.3125 0.125 C 3.550781 0.125 2.882812 -0.046875 2.3125 -0.390625 C 1.738281 -0.742188 1.296875 -1.21875 0.984375 -1.8125 C 0.671875 -2.414062 0.515625 -3.082031 0.515625 -3.8125 C 0.515625 -4.644531 0.671875 -5.375 0.984375 -6 C 1.296875 -6.625 1.722656 -7.109375 2.265625 -7.453125 C 2.816406 -7.796875 3.4375 -7.96875 4.125 -7.96875 Z M 1.578125 -3.796875 C 1.578125 -3.191406 1.691406 -2.660156 1.921875 -2.203125 C 2.148438 -1.742188 2.46875 -1.382812 2.875 -1.125 C 3.28125 -0.875 3.738281 -0.75 4.25 -0.75 C 4.78125 -0.75 5.25 -0.875 5.65625 -1.125 C 6.0625 -1.382812 6.375 -1.75 6.59375 -2.21875 C 6.820312 -2.695312 6.9375 -3.257812 6.9375 -3.90625 C 6.9375 -4.539062 6.820312 -5.097656 6.59375 -5.578125 C 6.375 -6.066406 6.0625 -6.4375 5.65625 -6.6875 C 5.257812 -6.945312 4.804688 -7.078125 4.296875 -7.078125 C 3.429688 -7.078125 2.757812 -6.785156 2.28125 -6.203125 C 1.8125 -5.628906 1.578125 -4.828125 1.578125 -3.796875 Z M 1.578125 -3.796875 "/></g></g></g><g fill="#ffffff" fill-opacity="1"><g transform="translate(258.621096, 37.88312)"><g><path d="M 1.90625 -3.203125 C 1.90625 -2.535156 1.976562 -2.050781 2.125 -1.75 C 2.257812 -1.46875 2.472656 -1.238281 2.765625 -1.0625 C 3.054688 -0.882812 3.429688 -0.796875 3.890625 -0.796875 C 4.523438 -0.796875 4.992188 -0.921875 5.296875 -1.171875 C 5.609375 -1.421875 5.800781 -1.707031 5.875 -2.03125 C 5.945312 -2.363281 5.984375 -2.75 5.984375 -3.1875 L 5.984375 -7.828125 L 7.015625 -7.828125 L 7.015625 -3.21875 C 7.015625 -2.820312 6.988281 -2.4375 6.9375 -2.0625 C 6.894531 -1.695312 6.765625 -1.351562 6.546875 -1.03125 C 6.296875 -0.664062 5.960938 -0.378906 5.546875 -0.171875 C 5.140625 0.0234375 4.609375 0.125 3.953125 0.125 C 3.304688 0.125 2.785156 0.03125 2.390625 -0.15625 C 1.992188 -0.34375 1.664062 -0.601562 1.40625 -0.9375 C 1.164062 -1.226562 1.015625 -1.570312 0.953125 -1.96875 C 0.890625 -2.363281 0.859375 -2.773438 0.859375 -3.203125 L 0.859375 -7.828125 L 1.90625 -7.828125 Z M 1.90625 -3.203125 "/></g></g></g><g fill="#ffffff" fill-opacity="1"><g transform="translate(266.51134, 37.88312)"><g><path d="M 6.453125 -6.90625 L 3.859375 -6.90625 L 3.859375 0 L 2.828125 0 L 2.828125 -6.90625 L 0.234375 -6.90625 L 0.234375 -7.828125 L 6.453125 -7.828125 Z M 6.453125 -6.90625 "/></g></g></g></svg>