<svg xmlns="http://www.w3.org/2000/svg" xmlns:xlink="http://www.w3.org/1999/xlink" width="253" zoomAndPan="magnify" viewBox="0 0 189.75 42.75" height="57" preserveAspectRatio="xMidYMid meet" version="1.0"><defs><g/><clipPath id="f7e45aa812"><path d="M 0.425781 9.5625 L 33.234375 9.5625 L 33.234375 42.371094 L 0.425781 42.371094 Z M 0.425781 9.5625 " clip-rule="nonzero"/></clipPath></defs><g clip-path="url(#f7e45aa812)"><path fill="#ffffff" d="M 16.785156 11.125 C 8.625 11.125 1.988281 17.761719 1.988281 25.921875 C 1.988281 34.078125 8.625 40.714844 16.785156 40.714844 C 24.941406 40.714844 31.578125 34.078125 31.578125 25.921875 C 31.578125 17.761719 24.941406 11.125 16.785156 11.125 Z M 16.785156 42.277344 C 7.765625 42.277344 0.425781 34.941406 0.425781 25.921875 C 0.425781 16.902344 7.765625 9.5625 16.785156 9.5625 C 25.804688 9.5625 33.140625 16.902344 33.140625 25.921875 C 33.140625 34.941406 25.804688 42.277344 16.785156 42.277344 " fill-opacity="1" fill-rule="nonzero"/></g><path fill="#ffffff" d="M 21.304688 31.222656 C 21.105469 31.222656 20.902344 31.144531 20.753906 30.992188 L 16.230469 26.472656 C 16.085938 26.324219 16.003906 26.128906 16.003906 25.921875 L 16.003906 16.835938 C 16.003906 16.40625 16.351562 16.054688 16.785156 16.054688 C 17.214844 16.054688 17.566406 16.40625 17.566406 16.835938 L 17.566406 25.597656 L 21.855469 29.886719 C 22.160156 30.191406 22.160156 30.6875 21.855469 30.992188 C 21.703125 31.144531 21.503906 31.222656 21.304688 31.222656 " fill-opacity="1" fill-rule="nonzero"/><path fill="#ffffff" d="M 23.847656 15.25 L 23.976562 15.023438 C 24.191406 14.648438 24.066406 14.171875 23.691406 13.957031 C 23.316406 13.738281 22.839844 13.867188 22.625 14.242188 L 22.492188 14.46875 C 22.277344 14.84375 22.40625 15.320312 22.78125 15.535156 C 22.902344 15.605469 23.039062 15.640625 23.167969 15.640625 C 23.441406 15.640625 23.703125 15.5 23.847656 15.25 Z M 10.941406 37.597656 L 11.074219 37.371094 C 11.289062 37 11.164062 36.519531 10.789062 36.304688 C 10.414062 36.089844 9.9375 36.21875 9.722656 36.589844 L 9.589844 36.820312 C 9.375 37.191406 9.503906 37.671875 9.878906 37.886719 C 10 37.957031 10.132812 37.988281 10.265625 37.988281 C 10.535156 37.988281 10.800781 37.851562 10.941406 37.597656 Z M 28.238281 20.210938 L 28.464844 20.078125 C 28.835938 19.863281 28.964844 19.386719 28.75 19.011719 C 28.53125 18.640625 28.054688 18.511719 27.683594 18.726562 L 27.457031 18.859375 C 27.082031 19.074219 26.953125 19.550781 27.167969 19.925781 C 27.3125 20.175781 27.578125 20.316406 27.847656 20.316406 C 27.980469 20.316406 28.113281 20.28125 28.238281 20.210938 Z M 5.886719 33.113281 L 6.113281 32.984375 C 6.484375 32.765625 6.613281 32.289062 6.398438 31.917969 C 6.183594 31.542969 5.703125 31.414062 5.332031 31.628906 L 5.105469 31.761719 C 4.730469 31.976562 4.605469 32.457031 4.820312 32.828125 C 4.964844 33.078125 5.226562 33.21875 5.496094 33.21875 C 5.628906 33.21875 5.765625 33.183594 5.886719 33.113281 Z M 30.601562 25.921875 C 30.601562 25.488281 30.25 25.140625 29.820312 25.140625 L 29.558594 25.140625 C 29.125 25.140625 28.777344 25.488281 28.777344 25.921875 C 28.777344 26.351562 29.125 26.699219 29.558594 26.699219 L 29.820312 26.699219 C 30.25 26.699219 30.601562 26.351562 30.601562 25.921875 Z M 4.792969 25.921875 C 4.792969 25.488281 4.441406 25.140625 4.011719 25.140625 L 3.75 25.140625 C 3.320312 25.140625 2.96875 25.488281 2.96875 25.921875 C 2.96875 26.351562 3.320312 26.699219 3.75 26.699219 L 4.011719 26.699219 C 4.441406 26.699219 4.792969 26.351562 4.792969 25.921875 Z M 28.75 32.828125 C 28.964844 32.457031 28.835938 31.976562 28.464844 31.761719 L 28.238281 31.628906 C 27.863281 31.414062 27.386719 31.542969 27.167969 31.917969 C 26.953125 32.289062 27.082031 32.765625 27.457031 32.984375 L 27.683594 33.113281 C 27.804688 33.183594 27.9375 33.21875 28.070312 33.21875 C 28.339844 33.21875 28.605469 33.078125 28.75 32.828125 Z M 6.398438 19.925781 C 6.613281 19.550781 6.484375 19.074219 6.113281 18.859375 L 5.886719 18.726562 C 5.511719 18.511719 5.035156 18.640625 4.820312 19.011719 C 4.605469 19.386719 4.730469 19.863281 5.105469 20.078125 L 5.332031 20.210938 C 5.453125 20.28125 5.589844 20.316406 5.722656 20.316406 C 5.992188 20.316406 6.253906 20.175781 6.398438 19.925781 Z M 23.691406 37.886719 C 24.066406 37.671875 24.191406 37.191406 23.976562 36.820312 L 23.847656 36.589844 C 23.632812 36.21875 23.152344 36.089844 22.78125 36.304688 C 22.40625 36.519531 22.277344 37 22.496094 37.371094 L 22.625 37.597656 C 22.769531 37.851562 23.03125 37.988281 23.300781 37.988281 C 23.433594 37.988281 23.570312 37.957031 23.691406 37.886719 Z M 10.789062 15.535156 C 11.164062 15.320312 11.289062 14.84375 11.074219 14.46875 L 10.941406 14.242188 C 10.726562 13.867188 10.25 13.738281 9.878906 13.957031 C 9.503906 14.171875 9.375 14.648438 9.589844 15.023438 L 9.722656 15.25 C 9.867188 15.5 10.128906 15.640625 10.398438 15.640625 C 10.53125 15.640625 10.664062 15.605469 10.789062 15.535156 Z M 17.566406 38.957031 L 17.566406 38.691406 C 17.566406 38.261719 17.214844 37.910156 16.785156 37.910156 C 16.351562 37.910156 16.003906 38.261719 16.003906 38.691406 L 16.003906 38.957031 C 16.003906 39.386719 16.351562 39.734375 16.785156 39.734375 C 17.214844 39.734375 17.566406 39.386719 17.566406 38.957031 Z M 16.785156 13.929688 C 16.351562 13.929688 16.003906 13.578125 16.003906 13.148438 L 16.003906 12.886719 C 16.003906 12.453125 16.351562 12.105469 16.785156 12.105469 C 17.214844 12.105469 17.566406 12.453125 17.566406 12.886719 L 17.566406 13.148438 C 17.566406 13.578125 17.214844 13.929688 16.785156 13.929688 " fill-opacity="1" fill-rule="nonzero"/><g fill="#ffffff" fill-opacity="1"><g transform="translate(41.641803, 37.400961)"><g><path d="M 6.53125 -6.90625 L 1.90625 -6.90625 L 1.90625 -4.5 L 6.234375 -4.5 L 6.234375 -3.59375 L 1.90625 -3.59375 L 1.90625 -0.921875 L 6.703125 -0.921875 L 6.703125 0 L 0.859375 0 L 0.859375 -7.828125 L 6.53125 -7.828125 Z M 6.53125 -6.90625 "/></g></g></g><g fill="#ffffff" fill-opacity="1"><g transform="translate(48.930994, 37.400961)"><g><path d="M 6.03125 -1.6875 L 6.03125 -7.828125 L 7.03125 -7.828125 L 7.03125 0 L 5.96875 0 L 1.859375 -6.140625 L 1.859375 0 L 0.859375 0 L 0.859375 -7.828125 L 1.921875 -7.828125 Z M 6.03125 -1.6875 "/></g></g></g><g fill="#ffffff" fill-opacity="1"><g transform="translate(56.821238, 37.400961)"><g><path d="M 1.84375 -3.953125 L 5.71875 -7.828125 L 7.125 -7.828125 L 3.84375 -4.65625 L 7.265625 0 L 5.90625 0 L 3.109375 -3.953125 L 1.84375 -2.71875 L 1.84375 0 L 0.796875 0 L 0.796875 -7.828125 L 1.84375 -7.828125 Z M 1.84375 -3.953125 "/></g></g></g><g fill="#ffffff" fill-opacity="1"><g transform="translate(64.110428, 37.400961)"><g><path d="M 6.53125 -6.90625 L 1.90625 -6.90625 L 1.90625 -4.5 L 6.234375 -4.5 L 6.234375 -3.59375 L 1.90625 -3.59375 L 1.90625 -0.921875 L 6.703125 -0.921875 L 6.703125 0 L 0.859375 0 L 0.859375 -7.828125 L 6.53125 -7.828125 Z M 6.53125 -6.90625 "/></g></g></g><g fill="#ffffff" fill-opacity="1"><g transform="translate(71.399619, 37.400961)"><g><path d="M 1.859375 -0.921875 L 5.71875 -0.921875 L 5.71875 0 L 0.8125 0 L 0.8125 -7.828125 L 1.859375 -7.828125 Z M 1.859375 -0.921875 "/></g></g></g><g fill="#ffffff" fill-opacity="1"><g transform="translate(77.475768, 37.400961)"><g/></g></g><g fill="#ffffff" fill-opacity="1"><g transform="translate(80.513837, 37.400961)"><g><path d="M 4.125 -7.96875 C 4.90625 -7.96875 5.585938 -7.796875 6.171875 -7.453125 C 6.753906 -7.117188 7.203125 -6.644531 7.515625 -6.03125 C 7.835938 -5.425781 8 -4.71875 8 -3.90625 C 8 -3.101562 7.835938 -2.394531 7.515625 -1.78125 C 7.191406 -1.164062 6.75 -0.691406 6.1875 -0.359375 C 5.625 -0.0351562 5 0.125 4.3125 0.125 C 3.550781 0.125 2.882812 -0.046875 2.3125 -0.390625 C 1.738281 -0.742188 1.296875 -1.21875 0.984375 -1.8125 C 0.671875 -2.414062 0.515625 -3.082031 0.515625 -3.8125 C 0.515625 -4.644531 0.671875 -5.375 0.984375 -6 C 1.296875 -6.625 1.722656 -7.109375 2.265625 -7.453125 C 2.816406 -7.796875 3.4375 -7.96875 4.125 -7.96875 Z M 1.578125 -3.796875 C 1.578125 -3.191406 1.691406 -2.660156 1.921875 -2.203125 C 2.148438 -1.742188 2.46875 -1.382812 2.875 -1.125 C 3.28125 -0.875 3.738281 -0.75 4.25 -0.75 C 4.78125 -0.75 5.25 -0.875 5.65625 -1.125 C 6.0625 -1.382812 6.375 -1.75 6.59375 -2.21875 C 6.820312 -2.695312 6.9375 -3.257812 6.9375 -3.90625 C 6.9375 -4.539062 6.820312 -5.097656 6.59375 -5.578125 C 6.375 -6.066406 6.0625 -6.4375 5.65625 -6.6875 C 5.257812 -6.945312 4.804688 -7.078125 4.296875 -7.078125 C 3.429688 -7.078125 2.757812 -6.785156 2.28125 -6.203125 C 1.8125 -5.628906 1.578125 -4.828125 1.578125 -3.796875 Z M 1.578125 -3.796875 "/></g></g></g><g fill="#ffffff" fill-opacity="1"><g transform="translate(89.016069, 37.400961)"><g><path d="M 6.03125 -7.3125 C 6.289062 -7.101562 6.484375 -6.847656 6.609375 -6.546875 C 6.742188 -6.242188 6.8125 -5.9375 6.8125 -5.625 C 6.8125 -4.75 6.503906 -4.09375 5.890625 -3.65625 C 5.472656 -3.34375 4.832031 -3.1875 3.96875 -3.1875 L 1.875 -3.1875 L 1.875 0 L 0.84375 0 L 0.84375 -7.828125 L 3.953125 -7.828125 C 4.460938 -7.828125 4.875 -7.789062 5.1875 -7.71875 C 5.5 -7.644531 5.78125 -7.507812 6.03125 -7.3125 Z M 5.734375 -5.59375 C 5.734375 -5.757812 5.695312 -5.929688 5.625 -6.109375 C 5.550781 -6.296875 5.445312 -6.453125 5.3125 -6.578125 C 5.164062 -6.703125 5 -6.785156 4.8125 -6.828125 C 4.625 -6.878906 4.375 -6.90625 4.0625 -6.90625 L 1.875 -6.90625 L 1.875 -4.109375 L 3.953125 -4.109375 C 4.554688 -4.109375 5.003906 -4.226562 5.296875 -4.46875 C 5.585938 -4.707031 5.734375 -5.082031 5.734375 -5.59375 Z M 5.734375 -5.59375 "/></g></g></g><g fill="#ffffff" fill-opacity="1"><g transform="translate(96.305259, 37.400961)"><g/></g></g><g fill="#ffffff" fill-opacity="1"><g transform="translate(99.343328, 37.400961)"><g><path d="M 7.3125 0 L 6.140625 0 L 5.21875 -2.390625 L 1.953125 -2.390625 L 1.09375 0 L -0.015625 0 L 3 -7.828125 L 4.109375 -7.828125 Z M 3.109375 -5.515625 L 2.25 -3.21875 L 4.90625 -3.21875 L 3.9375 -5.796875 C 3.820312 -6.097656 3.6875 -6.503906 3.53125 -7.015625 C 3.53125 -6.972656 3.484375 -6.785156 3.390625 -6.453125 C 3.304688 -6.117188 3.210938 -5.804688 3.109375 -5.515625 Z M 3.109375 -5.515625 "/></g></g></g><g fill="#ffffff" fill-opacity="1"><g transform="translate(106.632519, 37.400961)"><g><path d="M 6.15625 -6.90625 L 1.90625 -6.90625 L 1.90625 -4.484375 L 5.59375 -4.484375 L 5.59375 -3.5625 L 1.90625 -3.5625 L 1.90625 0 L 0.875 0 L 0.875 -7.828125 L 6.15625 -7.828125 Z M 6.15625 -6.90625 "/></g></g></g><g fill="#ffffff" fill-opacity="1"><g transform="translate(113.309722, 37.400961)"><g><path d="M 3.546875 -7.96875 C 4.429688 -7.96875 5.132812 -7.757812 5.65625 -7.34375 C 6.175781 -6.925781 6.453125 -6.351562 6.484375 -5.625 L 5.484375 -5.5625 C 5.429688 -6.0625 5.25 -6.429688 4.9375 -6.671875 C 4.632812 -6.910156 4.1875 -7.03125 3.59375 -7.03125 C 3.019531 -7.03125 2.578125 -6.925781 2.265625 -6.71875 C 1.953125 -6.507812 1.796875 -6.226562 1.796875 -5.875 C 1.796875 -5.632812 1.863281 -5.429688 2 -5.265625 C 2.132812 -5.109375 2.332031 -4.992188 2.59375 -4.921875 C 2.644531 -4.910156 2.859375 -4.847656 3.234375 -4.734375 C 3.609375 -4.617188 4.082031 -4.5 4.65625 -4.375 C 5.34375 -4.21875 5.859375 -3.941406 6.203125 -3.546875 C 6.546875 -3.160156 6.71875 -2.710938 6.71875 -2.203125 C 6.71875 -1.785156 6.601562 -1.394531 6.375 -1.03125 C 6.144531 -0.675781 5.8125 -0.394531 5.375 -0.1875 C 4.9375 0.0195312 4.414062 0.125 3.8125 0.125 C 3.125 0.125 2.53125 0.015625 2.03125 -0.203125 C 1.539062 -0.421875 1.164062 -0.726562 0.90625 -1.125 C 0.644531 -1.519531 0.503906 -1.984375 0.484375 -2.515625 L 1.46875 -2.609375 C 1.519531 -1.984375 1.765625 -1.523438 2.203125 -1.234375 C 2.648438 -0.941406 3.175781 -0.796875 3.78125 -0.796875 C 4.382812 -0.796875 4.859375 -0.921875 5.203125 -1.171875 C 5.554688 -1.421875 5.734375 -1.753906 5.734375 -2.171875 C 5.734375 -2.753906 5.269531 -3.15625 4.34375 -3.375 L 3.734375 -3.53125 C 3.347656 -3.613281 2.910156 -3.726562 2.421875 -3.875 C 1.910156 -4.019531 1.515625 -4.265625 1.234375 -4.609375 C 0.953125 -4.960938 0.8125 -5.363281 0.8125 -5.8125 C 0.8125 -6.21875 0.921875 -6.582031 1.140625 -6.90625 C 1.359375 -7.238281 1.671875 -7.5 2.078125 -7.6875 C 2.492188 -7.875 2.984375 -7.96875 3.546875 -7.96875 Z M 3.546875 -7.96875 "/></g></g></g><g fill="#ffffff" fill-opacity="1"><g transform="translate(120.598913, 37.400961)"><g><path d="M 6.03125 -7.3125 C 6.289062 -7.101562 6.484375 -6.847656 6.609375 -6.546875 C 6.742188 -6.242188 6.8125 -5.9375 6.8125 -5.625 C 6.8125 -4.75 6.503906 -4.09375 5.890625 -3.65625 C 5.472656 -3.34375 4.832031 -3.1875 3.96875 -3.1875 L 1.875 -3.1875 L 1.875 0 L 0.84375 0 L 0.84375 -7.828125 L 3.953125 -7.828125 C 4.460938 -7.828125 4.875 -7.789062 5.1875 -7.71875 C 5.5 -7.644531 5.78125 -7.507812 6.03125 -7.3125 Z M 5.734375 -5.59375 C 5.734375 -5.757812 5.695312 -5.929688 5.625 -6.109375 C 5.550781 -6.296875 5.445312 -6.453125 5.3125 -6.578125 C 5.164062 -6.703125 5 -6.785156 4.8125 -6.828125 C 4.625 -6.878906 4.375 -6.90625 4.0625 -6.90625 L 1.875 -6.90625 L 1.875 -4.109375 L 3.953125 -4.109375 C 4.554688 -4.109375 5.003906 -4.226562 5.296875 -4.46875 C 5.585938 -4.707031 5.734375 -5.082031 5.734375 -5.59375 Z M 5.734375 -5.59375 "/></g></g></g><g fill="#ffffff" fill-opacity="1"><g transform="translate(127.888103, 37.400961)"><g><path d="M 6.359375 -7.359375 C 6.628906 -7.148438 6.828125 -6.894531 6.953125 -6.59375 C 7.078125 -6.300781 7.140625 -6 7.140625 -5.6875 C 7.140625 -5.113281 6.957031 -4.644531 6.59375 -4.28125 C 6.226562 -3.914062 5.675781 -3.675781 4.9375 -3.5625 C 5.21875 -3.4375 5.46875 -3.257812 5.6875 -3.03125 C 5.914062 -2.8125 6.160156 -2.503906 6.421875 -2.109375 L 7.78125 0 L 6.46875 0 L 5.46875 -1.578125 C 5.113281 -2.117188 4.832031 -2.515625 4.625 -2.765625 C 4.414062 -3.023438 4.203125 -3.207031 3.984375 -3.3125 C 3.765625 -3.414062 3.488281 -3.46875 3.15625 -3.46875 L 1.90625 -3.46875 L 1.90625 0 L 0.875 0 L 0.875 -7.828125 L 4.46875 -7.828125 C 4.925781 -7.828125 5.300781 -7.789062 5.59375 -7.71875 C 5.882812 -7.65625 6.140625 -7.535156 6.359375 -7.359375 Z M 5.609375 -4.71875 C 5.765625 -4.84375 5.878906 -4.988281 5.953125 -5.15625 C 6.023438 -5.332031 6.0625 -5.507812 6.0625 -5.6875 C 6.0625 -6.144531 5.894531 -6.472656 5.5625 -6.671875 C 5.238281 -6.867188 4.859375 -6.96875 4.421875 -6.96875 L 1.90625 -6.96875 L 1.90625 -4.390625 L 4.25 -4.390625 C 4.613281 -4.390625 4.890625 -4.414062 5.078125 -4.46875 C 5.273438 -4.519531 5.453125 -4.601562 5.609375 -4.71875 Z M 5.609375 -4.71875 "/></g></g></g><g fill="#ffffff" fill-opacity="1"><g transform="translate(135.778347, 37.400961)"><g><path d="M 7.3125 0 L 6.140625 0 L 5.21875 -2.390625 L 1.953125 -2.390625 L 1.09375 0 L -0.015625 0 L 3 -7.828125 L 4.109375 -7.828125 Z M 3.109375 -5.515625 L 2.25 -3.21875 L 4.90625 -3.21875 L 3.9375 -5.796875 C 3.820312 -6.097656 3.6875 -6.503906 3.53125 -7.015625 C 3.53125 -6.972656 3.484375 -6.785156 3.390625 -6.453125 C 3.304688 -6.117188 3.210938 -5.804688 3.109375 -5.515625 Z M 3.109375 -5.515625 "/></g></g></g><g fill="#ffffff" fill-opacity="1"><g transform="translate(143.067538, 37.400961)"><g><path d="M 7.3125 0 L 6.140625 0 L 5.21875 -2.390625 L 1.953125 -2.390625 L 1.09375 0 L -0.015625 0 L 3 -7.828125 L 4.109375 -7.828125 Z M 3.109375 -5.515625 L 2.25 -3.21875 L 4.90625 -3.21875 L 3.9375 -5.796875 C 3.820312 -6.097656 3.6875 -6.503906 3.53125 -7.015625 C 3.53125 -6.972656 3.484375 -6.785156 3.390625 -6.453125 C 3.304688 -6.117188 3.210938 -5.804688 3.109375 -5.515625 Z M 3.109375 -5.515625 "/></g></g></g><g fill="#ffffff" fill-opacity="1"><g transform="translate(150.356728, 37.400961)"><g><path d="M 1.84375 -3.953125 L 5.71875 -7.828125 L 7.125 -7.828125 L 3.84375 -4.65625 L 7.265625 0 L 5.90625 0 L 3.109375 -3.953125 L 1.84375 -2.71875 L 1.84375 0 L 0.796875 0 L 0.796875 -7.828125 L 1.84375 -7.828125 Z M 1.84375 -3.953125 "/></g></g></g></svg>