<svg xmlns="http://www.w3.org/2000/svg" xmlns:xlink="http://www.w3.org/1999/xlink" width="377" zoomAndPan="magnify" viewBox="0 0 282.96 283.499989" height="377" preserveAspectRatio="xMidYMid meet" version="1.0"><path fill="#f5f5ec" d="M 18.019531 189.4375 C 37.5625 256.628906 115.207031 270.980469 175.007812 255.054688 C 205.347656 246.976562 234.921875 230.914062 254.660156 206.035156 C 273.351562 182.484375 278.617188 152.335938 271.375 123.417969 C 266.480469 103.890625 256.085938 86.097656 243.976562 70.203125 C 228.804688 50.289062 210.136719 30.402344 187.660156 18.84375 C 145.75 -2.710938 97.707031 12.832031 64.851562 43.261719 C 32.507812 73.214844 14.152344 117.34375 18.675781 161.433594 C 23.527344 208.761719 59.414062 251.109375 104.121094 266.164062 C 145.855469 280.222656 193.570312 269.5625 226.769531 241.148438 C 243.109375 227.164062 255.238281 208.707031 261.722656 188.222656 C 267.796875 169.042969 267.925781 148.65625 265.421875 128.859375 C 260.964844 93.574219 243.804688 61.175781 213.746094 41.394531 C 186.949219 23.761719 153.457031 18.214844 121.929688 21.574219 C 92.449219 24.710938 62.355469 36.21875 41.21875 57.527344 C 22.054688 76.84375 14.960938 103.277344 20.28125 129.777344 C 22.5 140.847656 27.121094 151.074219 32.660156 160.847656 C 32.507812 160.578125 33.035156 158.945312 32.679688 158.3125 C 24.117188 143.199219 17.8125 125.378906 19.175781 107.800781 C 20.25 93.933594 26.015625 80.824219 34.375 69.828125 C 52.445312 46.070312 82.082031 32.773438 110.753906 27.382812 C 141.96875 21.511719 175.476562 24.867188 203.925781 39.398438 C 235.808594 55.691406 256.148438 85.992188 263.367188 120.613281 C 268.628906 145.851562 267.492188 172.152344 257.332031 196.015625 C 248.664062 216.367188 233.566406 233.488281 215.414062 245.929688 C 178.882812 270.972656 130.171875 275.125 90.121094 256.246094 C 42.335938 233.722656 11.105469 180.0625 20.398438 127.515625 C 28.496094 81.691406 61.585938 39.703125 104.273438 21.257812 C 124.457031 12.535156 146.984375 10.117188 168.378906 15.421875 C 194.183594 21.820312 213.894531 39.734375 231.363281 58.863281 C 257.808594 87.816406 281.554688 127.269531 271.761719 167.921875 C 264.335938 198.761719 239.671875 222.101562 212.632812 236.769531 C 183.695312 252.46875 149.65625 259.8125 116.824219 257.933594 C 95.46875 256.714844 73.976562 251.109375 55.84375 239.523438 C 37.234375 227.644531 24.21875 209.097656 18.054688 188.03125 C 18.117188 188.253906 17.90625 189.039062 18.019531 189.4375 " fill-opacity="1" fill-rule="nonzero"/><g mask="url(#af4cddeb9b)"><g transform="matrix(1, 0, 0, 1, 77, 118)"><g clip-path="url(#9e69ed69c3)"><g fill="#f5f5ec" fill-opacity="1"><g transform="translate(1.064795, 90.01825)"><g><path d="M 42.234375 -25.46875 C 42.503906 -25.769531 42.773438 -25.921875 43.046875 -25.921875 C 43.328125 -25.921875 43.535156 -25.800781 43.671875 -25.5625 C 43.773438 -25.320312 43.6875 -25.015625 43.40625 -24.640625 C 43.34375 -24.503906 43.257812 -24.375 43.15625 -24.25 C 43.050781 -24.132812 42.945312 -24.003906 42.84375 -23.859375 C 41.570312 -22.148438 40.234375 -20.421875 38.828125 -18.671875 C 37.421875 -16.921875 35.929688 -15.171875 34.359375 -13.421875 C 31.273438 -9.921875 27.609375 -6.9375 23.359375 -4.46875 C 17.347656 -1.320312 12.375 -0.429688 8.4375 -1.796875 C 4.382812 -3.203125 1.984375 -6.082031 1.234375 -10.4375 C 0.410156 -14.757812 1.78125 -19.867188 5.34375 -25.765625 C 6.207031 -27.066406 7.050781 -28.238281 7.875 -29.28125 C 8.695312 -30.332031 9.5 -31.253906 10.28125 -32.046875 C 11.070312 -32.835938 11.8125 -33.539062 12.5 -34.15625 C 13.1875 -34.769531 13.800781 -35.300781 14.34375 -35.75 C 15.75 -36.84375 16.59375 -37.75 16.875 -38.46875 C 17.082031 -39.125 16.394531 -39.914062 14.8125 -40.84375 C 12.550781 -42.113281 11.332031 -43.65625 11.15625 -45.46875 C 10.988281 -47.289062 12.460938 -49.519531 15.578125 -52.15625 C 20.210938 -55.582031 25.132812 -58.15625 30.34375 -59.875 C 36.34375 -61.757812 38.757812 -60.128906 37.59375 -54.984375 C 37.425781 -54.265625 37.210938 -53.535156 36.953125 -52.796875 C 36.703125 -52.054688 36.382812 -51.296875 36 -50.515625 C 35.625 -49.753906 35.238281 -49.03125 34.84375 -48.34375 C 34.445312 -47.664062 34.03125 -47.035156 33.59375 -46.453125 C 33.3125 -46.066406 33 -45.894531 32.65625 -45.9375 C 32.3125 -45.9375 32.054688 -46.085938 31.890625 -46.390625 C 31.722656 -46.671875 31.789062 -47.035156 32.09375 -47.484375 C 32.75 -48.398438 33.421875 -49.5625 34.109375 -50.96875 C 34.722656 -52.34375 35.179688 -53.648438 35.484375 -54.890625 C 35.929688 -56.910156 35.710938 -58.109375 34.828125 -58.484375 C 33.960938 -58.796875 32.535156 -58.609375 30.546875 -57.921875 C 29.421875 -57.546875 28.265625 -57.097656 27.078125 -56.578125 C 25.898438 -56.066406 24.691406 -55.503906 23.453125 -54.890625 C 20.921875 -53.578125 18.691406 -52.171875 16.765625 -50.671875 C 14.910156 -49.117188 13.863281 -47.882812 13.625 -46.96875 C 13.320312 -46 13.476562 -45.175781 14.09375 -44.5 C 14.644531 -43.84375 15.363281 -43.257812 16.25 -42.75 C 16.289062 -42.707031 16.328125 -42.6875 16.359375 -42.6875 C 18.796875 -41.039062 19.753906 -39.601562 19.234375 -38.375 C 18.722656 -37.101562 17.421875 -35.628906 15.328125 -33.953125 C 14.097656 -32.921875 12.757812 -31.6875 11.3125 -30.25 C 9.90625 -28.84375 8.519531 -27.109375 7.15625 -25.046875 C 3.925781 -19.835938 2.65625 -15.296875 3.34375 -11.421875 C 3.957031 -7.515625 6.015625 -4.976562 9.515625 -3.8125 C 12.984375 -2.601562 17.390625 -3.390625 22.734375 -6.171875 C 26.609375 -8.398438 30.054688 -11.175781 33.078125 -14.5 C 34.585938 -16.1875 36.046875 -17.859375 37.453125 -19.515625 C 38.859375 -21.179688 40.191406 -22.851562 41.453125 -24.53125 C 41.597656 -24.707031 41.726562 -24.867188 41.84375 -25.015625 C 41.96875 -25.171875 42.097656 -25.320312 42.234375 -25.46875 Z M 42.234375 -25.46875 "/></g></g></g><g fill="#f5f5ec" fill-opacity="1"><g transform="translate(43.138018, 90.01825)"><g><path d="M 19.140625 -25.671875 C 19.617188 -25.941406 19.992188 -26.007812 20.265625 -25.875 C 20.535156 -25.695312 20.671875 -25.4375 20.671875 -25.09375 C 20.671875 -24.71875 20.453125 -24.378906 20.015625 -24.078125 C 16.890625 -21.984375 13.800781 -20.9375 10.75 -20.9375 C 9.207031 -20.9375 8.128906 -21.378906 7.515625 -22.265625 L 7.515625 -22.328125 L 7.453125 -22.375 C 6.703125 -21.34375 5.878906 -20.453125 4.984375 -19.703125 C 4.128906 -18.941406 3.273438 -18.5625 2.421875 -18.5625 C 1.390625 -18.5625 0.664062 -19.023438 0.25 -19.953125 C -0.15625 -20.910156 -0.34375 -21.992188 -0.3125 -23.203125 C -0.238281 -24.429688 -0.015625 -25.5625 0.359375 -26.59375 C 0.535156 -27 0.828125 -27.289062 1.234375 -27.46875 C 1.578125 -27.570312 1.882812 -27.535156 2.15625 -27.359375 C 2.4375 -27.117188 2.503906 -26.78125 2.359375 -26.34375 C 2.222656 -25.957031 2.128906 -25.554688 2.078125 -25.140625 C 2.023438 -24.734375 1.984375 -24.304688 1.953125 -23.859375 C 1.921875 -23.003906 1.972656 -22.269531 2.109375 -21.65625 C 2.242188 -21 2.535156 -20.671875 2.984375 -20.671875 C 3.328125 -20.671875 3.804688 -20.984375 4.421875 -21.609375 C 5.035156 -22.148438 5.632812 -22.882812 6.21875 -23.8125 C 6.769531 -24.664062 7.179688 -25.578125 7.453125 -26.546875 C 7.628906 -26.984375 7.890625 -27.273438 8.234375 -27.421875 C 8.640625 -27.585938 8.984375 -27.601562 9.265625 -27.46875 C 9.535156 -27.289062 9.617188 -26.960938 9.515625 -26.484375 C 9.515625 -26.421875 9.5 -26.351562 9.46875 -26.28125 C 9.425781 -26.144531 9.378906 -25.972656 9.328125 -25.765625 C 9.285156 -25.566406 9.242188 -25.328125 9.203125 -25.046875 C 9.097656 -24.503906 9.164062 -24.0625 9.40625 -23.71875 C 9.71875 -23.238281 10.351562 -23 11.3125 -23 C 13.914062 -23 16.523438 -23.890625 19.140625 -25.671875 Z M 19.140625 -25.671875 "/></g></g></g><g fill="#f5f5ec" fill-opacity="1"><g transform="translate(62.117264, 90.01825)"><g><path d="M 4.78125 -25.3125 C 4.03125 -25.476562 3.257812 -25.320312 2.46875 -24.84375 C 3.5625 -24.914062 4.332031 -25.070312 4.78125 -25.3125 Z M 15.125 -25.5625 C 15.53125 -25.875 15.890625 -25.960938 16.203125 -25.828125 C 16.472656 -25.679688 16.628906 -25.421875 16.671875 -25.046875 C 16.671875 -24.671875 16.460938 -24.328125 16.046875 -24.015625 C 11.347656 -20.484375 6.957031 -18.71875 2.875 -18.71875 C 1.09375 -18.71875 -0.140625 -19.113281 -0.828125 -19.90625 C -1.472656 -20.65625 -1.609375 -21.6875 -1.234375 -23 C -0.753906 -24.46875 0.101562 -25.5625 1.34375 -26.28125 C 1.957031 -26.65625 2.570312 -26.9375 3.1875 -27.125 C 3.800781 -27.320312 4.398438 -27.4375 4.984375 -27.46875 C 6.148438 -27.46875 6.875 -27.019531 7.15625 -26.125 C 7.289062 -25.164062 6.773438 -24.328125 5.609375 -23.609375 C 4.335938 -22.890625 2.722656 -22.648438 0.765625 -22.890625 C 0.703125 -22.578125 0.722656 -22.300781 0.828125 -22.0625 C 0.859375 -21.789062 1.0625 -21.519531 1.4375 -21.25 C 1.8125 -20.96875 2.363281 -20.8125 3.09375 -20.78125 C 6.445312 -20.539062 10.457031 -22.132812 15.125 -25.5625 Z M 15.125 -25.5625 "/></g></g></g><g fill="#f5f5ec" fill-opacity="1"><g transform="translate(77.187506, 90.01825)"><g><path d="M 14.140625 -25.515625 C 14.554688 -25.816406 14.914062 -25.921875 15.21875 -25.828125 C 15.5625 -25.648438 15.753906 -25.40625 15.796875 -25.09375 C 15.828125 -24.789062 15.632812 -24.453125 15.21875 -24.078125 C 13.03125 -22.285156 11.128906 -20.945312 9.515625 -20.0625 C 7.898438 -19.164062 6.238281 -18.71875 4.53125 -18.71875 C 2.195312 -18.71875 0.769531 -19.523438 0.25 -21.140625 C -0.332031 -22.753906 -0.28125 -25.15625 0.40625 -28.34375 C 0.75 -29.914062 1.160156 -31.6875 1.640625 -33.65625 C 2.117188 -35.632812 2.6875 -37.789062 3.34375 -40.125 C 3.550781 -40.8125 3.753906 -41.53125 3.953125 -42.28125 C 4.160156 -43.03125 4.367188 -43.785156 4.578125 -44.546875 C 4.648438 -44.890625 4.734375 -45.222656 4.828125 -45.546875 C 4.929688 -45.867188 5.019531 -46.203125 5.09375 -46.546875 L 5.65625 -48.5 C 5.832031 -49.019531 6.085938 -49.347656 6.421875 -49.484375 C 6.804688 -49.648438 7.148438 -49.648438 7.453125 -49.484375 C 7.734375 -49.304688 7.820312 -48.976562 7.71875 -48.5 L 7.203125 -46.546875 C 7.097656 -46.203125 6.992188 -45.867188 6.890625 -45.546875 C 6.785156 -45.222656 6.703125 -44.890625 6.640625 -44.546875 C 6.398438 -43.722656 6.175781 -42.925781 5.96875 -42.15625 C 5.757812 -41.382812 5.550781 -40.617188 5.34375 -39.859375 C 4.800781 -37.867188 4.3125 -36.015625 3.875 -34.296875 C 3.445312 -32.585938 3.082031 -31.03125 2.78125 -29.625 C 2.4375 -28.21875 2.21875 -26.96875 2.125 -25.875 C 2.039062 -24.78125 2.070312 -23.851562 2.21875 -23.09375 C 2.488281 -21.550781 3.445312 -20.78125 5.09375 -20.78125 C 6.289062 -20.78125 7.539062 -21.125 8.84375 -21.8125 C 9.5 -22.15625 10.269531 -22.632812 11.15625 -23.25 C 12.050781 -23.863281 13.046875 -24.617188 14.140625 -25.515625 Z M 14.140625 -25.515625 "/></g></g></g><g fill="#f5f5ec" fill-opacity="1"><g transform="translate(91.177625, 90.01825)"><g><path d="M 2.0625 -28.8125 C 2.300781 -28.8125 2.554688 -28.894531 2.828125 -29.0625 C 3.035156 -29.195312 3.207031 -29.421875 3.34375 -29.734375 L 3.546875 -30.34375 L 3.953125 -31.484375 C 4.097656 -31.722656 4.117188 -31.976562 4.015625 -32.25 C 3.910156 -32.457031 3.722656 -32.59375 3.453125 -32.65625 C 3.210938 -32.726562 2.953125 -32.679688 2.671875 -32.515625 C 2.429688 -32.367188 2.226562 -32.144531 2.0625 -31.84375 C 1.925781 -31.601562 1.820312 -31.367188 1.75 -31.140625 C 1.675781 -30.921875 1.609375 -30.707031 1.546875 -30.5 L 1.484375 -30.5 C 1.453125 -30.394531 1.40625 -30.207031 1.34375 -29.9375 C 1.238281 -29.664062 1.253906 -29.425781 1.390625 -29.21875 C 1.492188 -29.007812 1.679688 -28.875 1.953125 -28.8125 Z M 12.140625 -25.40625 C 12.515625 -25.75 12.890625 -25.867188 13.265625 -25.765625 C 13.609375 -25.660156 13.800781 -25.457031 13.84375 -25.15625 C 13.90625 -24.8125 13.75 -24.453125 13.375 -24.078125 C 9.5 -20.503906 6.191406 -18.71875 3.453125 -18.71875 C 1.972656 -18.71875 0.957031 -19.046875 0.40625 -19.703125 C -0.175781 -20.390625 -0.46875 -21.265625 -0.46875 -22.328125 C -0.46875 -23.453125 -0.257812 -24.703125 0.15625 -26.078125 C 0.289062 -26.628906 0.582031 -26.988281 1.03125 -27.15625 C 1.40625 -27.332031 1.726562 -27.332031 2 -27.15625 C 2.28125 -26.988281 2.367188 -26.628906 2.265625 -26.078125 C 1.816406 -24.671875 1.644531 -23.472656 1.75 -22.484375 C 1.851562 -21.554688 2.453125 -21.003906 3.546875 -20.828125 C 5.710938 -20.628906 8.578125 -22.15625 12.140625 -25.40625 Z M 12.140625 -25.40625 "/></g></g></g><g fill="#f5f5ec" fill-opacity="1"><g transform="translate(103.31611, 90.01825)"><g><path d="M 22.734375 -25.609375 C 23.179688 -25.890625 23.539062 -25.960938 23.8125 -25.828125 C 24.125 -25.679688 24.296875 -25.4375 24.328125 -25.09375 C 24.328125 -24.789062 24.125 -24.453125 23.71875 -24.078125 C 23.539062 -23.929688 23.363281 -23.796875 23.1875 -23.671875 C 23.019531 -23.554688 22.851562 -23.429688 22.6875 -23.296875 C 21.3125 -22.234375 19.816406 -21.207031 18.203125 -20.21875 C 16.597656 -19.21875 15.09375 -18.71875 13.6875 -18.71875 C 12.625 -18.71875 11.867188 -18.941406 11.421875 -19.390625 C 10.972656 -19.835938 10.695312 -20.382812 10.59375 -21.03125 C 10.488281 -21.71875 10.457031 -22.320312 10.5 -22.84375 C 10.5 -23.800781 10.425781 -24.429688 10.28125 -24.734375 C 10.144531 -25.046875 9.835938 -25.203125 9.359375 -25.203125 C 8.328125 -25.203125 7.0625 -24.585938 5.5625 -23.359375 C 4.007812 -22.085938 2.460938 -20.695312 0.921875 -19.1875 C 0.273438 -18.570312 -0.269531 -18.347656 -0.71875 -18.515625 C -1.164062 -18.648438 -1.375 -19.046875 -1.34375 -19.703125 C -1.300781 -19.972656 -1.253906 -20.296875 -1.203125 -20.671875 C -1.148438 -21.054688 -1.054688 -21.46875 -0.921875 -21.90625 C -0.785156 -22.382812 -0.664062 -22.851562 -0.5625 -23.3125 C -0.457031 -23.78125 -0.335938 -24.238281 -0.203125 -24.6875 C -0.0351562 -25.269531 0.113281 -25.785156 0.25 -26.234375 C 0.425781 -26.710938 0.6875 -27.019531 1.03125 -27.15625 C 1.40625 -27.332031 1.75 -27.332031 2.0625 -27.15625 C 2.332031 -26.988281 2.414062 -26.679688 2.3125 -26.234375 C 2.28125 -26.023438 2.21875 -25.800781 2.125 -25.5625 C 2.039062 -25.320312 1.96875 -25.066406 1.90625 -24.796875 C 1.769531 -24.347656 1.640625 -23.875 1.515625 -23.375 C 1.398438 -22.875 1.269531 -22.382812 1.125 -21.90625 C 1.914062 -22.664062 2.6875 -23.351562 3.4375 -23.96875 C 4.195312 -24.582031 4.953125 -25.164062 5.703125 -25.71875 C 7.210938 -26.75 8.617188 -27.265625 9.921875 -27.265625 C 10.847656 -27.265625 11.484375 -27.054688 11.828125 -26.640625 C 12.203125 -26.191406 12.441406 -25.695312 12.546875 -25.15625 C 12.585938 -24.84375 12.613281 -24.539062 12.625 -24.25 C 12.644531 -23.957031 12.640625 -23.675781 12.609375 -23.40625 C 12.609375 -22.375 12.726562 -21.6875 12.96875 -21.34375 C 13.164062 -20.96875 13.59375 -20.78125 14.25 -20.78125 C 15.28125 -20.78125 16.5 -21.226562 17.90625 -22.125 C 19.269531 -23.007812 20.519531 -23.898438 21.65625 -24.796875 C 21.820312 -24.929688 22 -25.066406 22.1875 -25.203125 C 22.382812 -25.335938 22.566406 -25.472656 22.734375 -25.609375 Z M 22.734375 -25.609375 "/></g></g></g><g fill="#f5f5ec" fill-opacity="1"><g transform="translate(125.895754, 90.01825)"><g><path d="M 4.78125 -25.3125 C 4.03125 -25.476562 3.257812 -25.320312 2.46875 -24.84375 C 3.5625 -24.914062 4.332031 -25.070312 4.78125 -25.3125 Z M 15.125 -25.5625 C 15.53125 -25.875 15.890625 -25.960938 16.203125 -25.828125 C 16.472656 -25.679688 16.628906 -25.421875 16.671875 -25.046875 C 16.671875 -24.671875 16.460938 -24.328125 16.046875 -24.015625 C 11.347656 -20.484375 6.957031 -18.71875 2.875 -18.71875 C 1.09375 -18.71875 -0.140625 -19.113281 -0.828125 -19.90625 C -1.472656 -20.65625 -1.609375 -21.6875 -1.234375 -23 C -0.753906 -24.46875 0.101562 -25.5625 1.34375 -26.28125 C 1.957031 -26.65625 2.570312 -26.9375 3.1875 -27.125 C 3.800781 -27.320312 4.398438 -27.4375 4.984375 -27.46875 C 6.148438 -27.46875 6.875 -27.019531 7.15625 -26.125 C 7.289062 -25.164062 6.773438 -24.328125 5.609375 -23.609375 C 4.335938 -22.890625 2.722656 -22.648438 0.765625 -22.890625 C 0.703125 -22.578125 0.722656 -22.300781 0.828125 -22.0625 C 0.859375 -21.789062 1.0625 -21.519531 1.4375 -21.25 C 1.8125 -20.96875 2.363281 -20.8125 3.09375 -20.78125 C 6.445312 -20.539062 10.457031 -22.132812 15.125 -25.5625 Z M 15.125 -25.5625 "/></g></g></g></g></g></g><g mask="url(#a5a5d03e2e)"><g transform="matrix(1, 0, 0, 1, 62, 55)"><g clip-path="url(#bb97aae246)"><g clip-path="url(#08b6eb712c)"><g fill="#f5f5ec" fill-opacity="1"><g transform="translate(0.834175, 106.341851)"><g><path d="M 47.09375 -71.4375 C 48.675781 -70.257812 49.285156 -68.414062 48.921875 -65.90625 C 48.554688 -63.40625 47.945312 -60.878906 47.09375 -58.328125 C 46.976562 -57.921875 46.859375 -57.535156 46.734375 -57.171875 C 46.609375 -56.804688 46.488281 -56.441406 46.375 -56.078125 C 46.207031 -55.585938 45.898438 -55.242188 45.453125 -55.046875 C 45.015625 -54.847656 44.632812 -54.847656 44.3125 -55.046875 C 43.945312 -55.242188 43.820312 -55.609375 43.9375 -56.140625 L 44.546875 -58.140625 C 44.910156 -59.191406 45.242188 -60.265625 45.546875 -61.359375 C 45.847656 -62.453125 46.101562 -63.566406 46.3125 -64.703125 C 46.71875 -66.847656 46.394531 -68.363281 45.34375 -69.25 C 44.6875 -69.894531 42.925781 -69.796875 40.0625 -68.953125 C 37.1875 -68.097656 32.613281 -65.75 26.34375 -61.90625 C 19.457031 -57.695312 14.378906 -54.113281 11.109375 -51.15625 C 9.410156 -49.664062 8.003906 -48.320312 6.890625 -47.125 C 5.773438 -45.9375 4.957031 -44.875 4.4375 -43.9375 C 3.34375 -42.039062 2.875 -40.644531 3.03125 -39.75 C 3.195312 -37.6875 4.816406 -36.085938 7.890625 -34.953125 C 10.921875 -33.828125 15.226562 -33.265625 20.8125 -33.265625 C 25.957031 -33.265625 29.945312 -32.65625 32.78125 -31.4375 C 35.53125 -30.1875 36.820312 -28.222656 36.65625 -25.546875 C 36.414062 -22.835938 34.394531 -19.335938 30.59375 -15.046875 C 26.101562 -10.273438 21.628906 -6.753906 17.171875 -4.484375 C 12.640625 -2.222656 8.859375 -1.15625 5.828125 -1.28125 C 2.753906 -1.3125 1.09375 -2.421875 0.84375 -4.609375 C 0.6875 -5.460938 1.070312 -6.675781 2 -8.25 C 2.445312 -9.019531 3.132812 -9.878906 4.0625 -10.828125 C 5 -11.785156 6.175781 -12.828125 7.59375 -13.953125 C 8.15625 -14.273438 8.597656 -14.378906 8.921875 -14.265625 C 9.285156 -14.097656 9.488281 -13.8125 9.53125 -13.40625 C 9.53125 -13.007812 9.285156 -12.585938 8.796875 -12.140625 C 5.203125 -9.265625 3.40625 -7.019531 3.40625 -5.40625 C 3.5625 -4.1875 4.914062 -3.640625 7.46875 -3.765625 C 10.09375 -3.878906 13.285156 -4.929688 17.046875 -6.921875 C 20.890625 -8.941406 24.816406 -12.097656 28.828125 -16.390625 C 31.535156 -19.335938 33.234375 -21.925781 33.921875 -24.15625 C 34.535156 -26.300781 33.789062 -27.941406 31.6875 -29.078125 C 29.582031 -30.203125 25.738281 -30.765625 20.15625 -30.765625 C 7.601562 -30.765625 1.046875 -33.5 0.484375 -38.96875 C 0.203125 -45.15625 8.519531 -53.46875 25.4375 -63.90625 C 36.84375 -70.988281 44.0625 -73.5 47.09375 -71.4375 Z M 47.09375 -71.4375 "/></g></g></g></g><g fill="#f5f5ec" fill-opacity="1"><g transform="translate(46.231195, 106.341851)"><g><path d="M 20.875 -29.984375 C 21.28125 -30.390625 21.707031 -30.53125 22.15625 -30.40625 C 22.519531 -30.28125 22.757812 -30.035156 22.875 -29.671875 C 22.957031 -29.273438 22.773438 -28.851562 22.328125 -28.40625 C 17.679688 -24.195312 13.757812 -22.09375 10.5625 -22.09375 C 9.269531 -22.09375 8.21875 -22.375 7.40625 -22.9375 C 6.632812 -23.507812 6.148438 -24.421875 5.953125 -25.671875 C 4.171875 -23.285156 2.53125 -22.09375 1.03125 -22.09375 C -0.539062 -22.09375 -1.390625 -22.941406 -1.515625 -24.640625 C -1.515625 -26.140625 -1.09375 -27.578125 -0.25 -28.953125 C 0.519531 -30.328125 1.492188 -31.316406 2.671875 -31.921875 C 3.847656 -32.523438 4.878906 -32.382812 5.765625 -31.5 C 6.046875 -31.175781 6.085938 -30.789062 5.890625 -30.34375 C 5.640625 -29.9375 5.296875 -29.632812 4.859375 -29.4375 C 4.410156 -29.226562 4.023438 -29.289062 3.703125 -29.625 C 3.421875 -29.863281 3.078125 -29.738281 2.671875 -29.25 C 2.265625 -28.769531 1.898438 -28.164062 1.578125 -27.4375 C 1.210938 -26.664062 1.03125 -25.976562 1.03125 -25.375 C 1.03125 -25.125 1.070312 -24.921875 1.15625 -24.765625 C 1.238281 -24.640625 1.335938 -24.578125 1.453125 -24.578125 C 1.492188 -24.535156 1.578125 -24.515625 1.703125 -24.515625 C 1.859375 -24.515625 2.140625 -24.695312 2.546875 -25.0625 C 2.910156 -25.34375 3.476562 -26.007812 4.25 -27.0625 C 5.019531 -28.070312 5.910156 -29.507812 6.921875 -31.375 C 7.160156 -31.863281 7.484375 -32.164062 7.890625 -32.28125 C 8.335938 -32.40625 8.703125 -32.390625 8.984375 -32.234375 C 9.265625 -32.066406 9.363281 -31.703125 9.28125 -31.140625 L 9.171875 -30.765625 C 8.679688 -29.191406 8.457031 -27.835938 8.5 -26.703125 C 8.5 -25.492188 9.226562 -24.785156 10.6875 -24.578125 C 13.1875 -24.335938 16.582031 -26.140625 20.875 -29.984375 Z M 20.875 -29.984375 "/></g></g></g><g fill="#f5f5ec" fill-opacity="1"><g transform="translate(67.108969, 106.341851)"><g><path d="M 12.6875 -29.796875 C 11.394531 -29.796875 10.097656 -29.210938 8.796875 -28.046875 C 7.421875 -26.867188 6.109375 -25.289062 4.859375 -23.3125 C 6.960938 -23.550781 8.78125 -24.195312 10.3125 -25.25 C 11.8125 -26.257812 12.828125 -27.269531 13.359375 -28.28125 C 13.835938 -29.289062 13.613281 -29.796875 12.6875 -29.796875 Z M 27.3125 -29.984375 C 27.71875 -30.390625 28.140625 -30.550781 28.578125 -30.46875 C 28.984375 -30.34375 29.25 -30.097656 29.375 -29.734375 C 29.457031 -29.328125 29.273438 -28.90625 28.828125 -28.46875 C 24.742188 -24.664062 20.921875 -22.132812 17.359375 -20.875 C 15.578125 -20.226562 13.925781 -19.765625 12.40625 -19.484375 C 10.894531 -19.203125 9.488281 -19.097656 8.1875 -19.171875 C 5.644531 -19.296875 3.882812 -19.601562 2.90625 -20.09375 C 1.851562 -18.101562 0.84375 -16.066406 -0.125 -13.984375 C -1.09375 -11.898438 -1.984375 -9.726562 -2.796875 -7.46875 C -3.640625 -5.195312 -4.382812 -3.070312 -5.03125 -1.09375 C -5.6875 0.882812 -6.234375 2.707031 -6.671875 4.375 C -6.835938 4.851562 -7.144531 5.195312 -7.59375 5.40625 C -8.03125 5.601562 -8.410156 5.601562 -8.734375 5.40625 C -9.097656 5.238281 -9.222656 4.894531 -9.109375 4.375 C -9.023438 3.925781 -8.867188 3.304688 -8.640625 2.515625 C -8.421875 1.722656 -8.171875 0.765625 -7.890625 -0.359375 C -7.328125 -2.585938 -6.703125 -5.003906 -6.015625 -7.609375 C -5.328125 -10.222656 -4.578125 -13.066406 -3.765625 -16.140625 C -2.953125 -19.179688 -2.203125 -21.941406 -1.515625 -24.421875 C -0.828125 -26.910156 -0.203125 -29.109375 0.359375 -31.015625 C 0.523438 -31.535156 0.847656 -31.898438 1.328125 -32.109375 C 1.734375 -32.265625 2.117188 -32.242188 2.484375 -32.046875 C 2.804688 -31.835938 2.910156 -31.472656 2.796875 -30.953125 C 2.265625 -29.210938 1.6875 -27.207031 1.0625 -24.9375 C 0.4375 -22.675781 -0.257812 -20.171875 -1.03125 -17.421875 C -0.382812 -18.710938 0.289062 -19.972656 1 -21.203125 C 1.707031 -22.441406 2.445312 -23.628906 3.21875 -24.765625 C 3.988281 -25.898438 4.773438 -26.910156 5.578125 -27.796875 C 6.390625 -28.679688 7.222656 -29.46875 8.078125 -30.15625 C 9.734375 -31.539062 11.492188 -32.234375 13.359375 -32.234375 C 15.171875 -32.234375 16.097656 -31.539062 16.140625 -30.15625 C 16.179688 -28.820312 15.492188 -27.304688 14.078125 -25.609375 C 12.660156 -23.953125 10.617188 -22.640625 7.953125 -21.671875 C 10.941406 -21.460938 14.078125 -22.023438 17.359375 -23.359375 C 19.015625 -24.015625 20.671875 -24.894531 22.328125 -26 C 23.992188 -27.113281 25.65625 -28.441406 27.3125 -29.984375 Z M 27.3125 -29.984375 "/></g></g></g></g></g></g><g clip-path="url(#6d452d16ba)"><path fill="#f5f5ec" d="M 222.832031 95.976562 C 224.410156 97.292969 226.050781 98.882812 227.757812 100.742188 L 227.753906 100.742188 C 231.285156 105.425781 231.902344 110.003906 229.617188 114.472656 C 228.902344 107.644531 226.464844 101.703125 222.292969 96.648438 L 222.285156 96.648438 C 222.285156 96.542969 222.441406 96.339844 222.75 96.046875 C 222.773438 96.023438 222.796875 96 222.820312 95.976562 Z M 220.09375 115.730469 C 220.332031 115.8125 220.574219 115.894531 220.816406 115.976562 C 223.828125 117.121094 225.488281 118.109375 225.792969 118.945312 L 225.785156 118.945312 C 225.554688 119.121094 225.246094 119.203125 224.859375 119.199219 C 224.226562 119.1875 223.378906 118.929688 222.324219 118.425781 L 222.320312 118.425781 C 221.773438 118.085938 221.300781 117.640625 220.894531 117.097656 L 220.890625 117.097656 C 220.609375 116.613281 220.339844 116.15625 220.085938 115.730469 Z M 231.070312 117.75 C 231.527344 117.757812 231.835938 117.828125 231.996094 117.964844 C 232.304688 118.226562 232.027344 118.867188 231.164062 119.882812 L 231.15625 119.882812 L 227.960938 122.582031 C 228.453125 121.515625 228.898438 120.40625 229.296875 119.246094 L 229.292969 119.246094 C 229.703125 118.578125 230.242188 118.082031 230.90625 117.75 L 230.898438 117.75 C 230.957031 117.75 231.015625 117.746094 231.070312 117.75 Z M 211.367188 122.691406 C 213.265625 123.164062 215.429688 123.417969 217.851562 123.457031 C 219.9375 123.492188 222.214844 123.367188 224.6875 123.082031 L 224.695312 123.082031 C 224.554688 123.152344 224.378906 123.230469 224.175781 123.3125 L 224.125 123.339844 C 223.78125 123.566406 220.742188 124.730469 215.003906 126.832031 C 213.144531 127.492188 211.589844 127.925781 210.347656 128.125 C 209.578125 126.828125 209.371094 125.402344 209.730469 123.839844 L 209.726562 123.839844 C 210.019531 123.125 210.5625 122.742188 211.355469 122.691406 Z M 226.070312 124.945312 C 224.921875 126.90625 223.585938 128.675781 222.058594 130.25 C 220.917969 131.3125 219.515625 131.851562 217.851562 131.875 L 226.058594 124.945312 Z M 180.859375 126.171875 C 182.804688 126.203125 184.402344 126.746094 185.652344 127.800781 L 185.648438 127.800781 C 185.753906 127.910156 185.855469 128.015625 185.945312 128.121094 C 187.351562 129.769531 186.972656 131.519531 184.804688 133.367188 C 182.804688 134.859375 179.972656 136.0625 176.304688 136.984375 L 176.269531 136.996094 C 175.210938 137.414062 171.644531 137.933594 165.570312 138.550781 C 166.324219 132.917969 170.085938 128.964844 176.851562 126.695312 C 178.320312 126.324219 179.65625 126.152344 180.859375 126.171875 Z M 229.285156 89.925781 C 228.597656 89.914062 227.929688 90.085938 227.28125 90.445312 L 227.273438 90.445312 C 226.570312 90.726562 225.769531 91.820312 224.878906 93.726562 L 224.871094 93.726562 C 224.003906 94.300781 223.316406 94.792969 222.8125 95.210938 C 219.0625 92.167969 215.640625 90.621094 212.539062 90.570312 C 211.640625 90.554688 210.773438 90.664062 209.929688 90.902344 L 209.890625 90.914062 C 208.417969 91.570312 207.636719 92.457031 207.535156 93.566406 C 207.53125 93.609375 207.539062 93.648438 207.550781 93.6875 L 210.523438 102.324219 L 210.515625 102.324219 C 209.734375 103.90625 209.179688 105.179688 208.851562 106.152344 C 208.363281 107.59375 208.382812 108.445312 208.902344 108.710938 L 208.894531 108.710938 C 209.167969 109.152344 209.652344 109.515625 210.347656 109.792969 L 210.402344 109.808594 C 214.007812 110.488281 216.011719 111.101562 216.414062 111.644531 C 216.457031 111.703125 216.519531 111.742188 216.589844 111.757812 C 216.898438 111.859375 217.621094 112.832031 218.765625 114.679688 L 218.761719 114.675781 C 213.925781 113.109375 210.605469 112.308594 208.796875 112.277344 C 208.285156 112.269531 207.898438 112.324219 207.628906 112.4375 L 207.621094 112.4375 C 207.390625 112.480469 207.164062 112.527344 206.941406 112.574219 C 201.410156 113.804688 199.183594 116.847656 200.261719 121.707031 L 200.277344 121.757812 C 202.089844 126.136719 204.792969 128.488281 208.382812 128.816406 C 208.511719 128.828125 208.644531 128.835938 208.785156 128.835938 C 209.160156 128.84375 209.578125 128.816406 210.039062 128.757812 L 210.046875 128.757812 C 210.667969 129.667969 211.550781 130.515625 212.699219 131.292969 L 212.753906 131.324219 C 214.054688 131.855469 215.261719 132.203125 216.378906 132.359375 L 216.371094 132.359375 L 203.996094 142.800781 L 203.988281 142.800781 C 196.132812 147.484375 188.273438 149.757812 180.402344 149.625 C 179.925781 149.617188 179.449219 149.601562 178.972656 149.574219 L 178.964844 149.574219 C 170.675781 148.746094 166.164062 145.753906 165.433594 140.597656 L 165.429688 140.597656 C 165.433594 140.101562 165.457031 139.617188 165.503906 139.144531 L 165.496094 139.144531 C 171.65625 138.515625 175.308594 137.988281 176.453125 137.550781 L 176.449219 137.550781 C 180.199219 136.609375 183.105469 135.367188 185.167969 133.824219 L 185.183594 133.8125 C 187.644531 131.707031 188.046875 129.6875 186.386719 127.742188 C 186.28125 127.621094 186.167969 127.496094 186.046875 127.375 L 186.027344 127.359375 C 184.675781 126.210938 182.957031 125.621094 180.875 125.589844 C 179.617188 125.566406 178.230469 125.746094 176.707031 126.128906 L 176.6875 126.136719 C 169.613281 128.503906 165.707031 132.664062 164.972656 138.609375 L 164.964844 138.609375 C 163.464844 138.761719 161.820312 138.917969 160.035156 139.078125 L 160.011719 139.082031 C 157.144531 139.566406 155.0625 140.132812 153.765625 140.773438 C 149.1875 142.9375 145.613281 146.785156 143.039062 152.316406 C 142.96875 152.460938 143.035156 152.636719 143.179688 152.703125 C 143.21875 152.722656 143.257812 152.730469 143.296875 152.730469 C 143.410156 152.734375 143.515625 152.671875 143.566406 152.5625 C 146.082031 147.15625 149.566406 143.402344 154.019531 141.296875 L 154.023438 141.292969 C 155.265625 140.679688 157.289062 140.136719 160.089844 139.660156 L 160.085938 139.660156 C 161.828125 139.5 163.433594 139.347656 164.902344 139.203125 L 164.910156 139.203125 C 164.871094 139.65625 164.851562 140.121094 164.847656 140.59375 L 164.851562 140.636719 C 165.605469 146.121094 170.289062 149.292969 178.90625 150.15625 L 178.917969 150.15625 C 179.410156 150.183594 179.902344 150.199219 180.390625 150.207031 C 188.386719 150.34375 196.367188 148.03125 204.332031 143.277344 L 204.371094 143.246094 L 217.175781 132.445312 L 217.183594 132.445312 C 217.328125 132.453125 217.46875 132.457031 217.609375 132.460938 C 219.535156 132.492188 221.152344 131.894531 222.464844 130.664062 L 222.476562 130.65625 C 224.378906 128.695312 225.992188 126.441406 227.3125 123.894531 L 227.304688 123.894531 L 231.574219 120.292969 L 231.605469 120.261719 C 232.722656 118.945312 232.976562 118.03125 232.375 117.519531 C 232.105469 117.292969 231.667969 117.175781 231.0625 117.167969 C 230.988281 117.164062 230.910156 117.164062 230.832031 117.167969 C 230.789062 117.167969 230.75 117.179688 230.710938 117.195312 C 229.917969 117.574219 229.28125 118.15625 228.796875 118.941406 L 228.769531 119 C 228.21875 120.601562 227.578125 122.109375 226.851562 123.523438 L 226.839844 123.523438 L 216.984375 131.839844 C 215.789062 131.738281 214.46875 131.390625 213.023438 130.804688 L 213.015625 130.804688 C 212.035156 130.136719 211.261719 129.421875 210.699219 128.65625 L 210.691406 128.65625 C 211.929688 128.433594 213.433594 128.007812 215.203125 127.378906 L 215.207031 127.378906 C 220.800781 125.332031 223.867188 124.15625 224.402344 123.851562 L 224.394531 123.851562 C 225.109375 123.558594 225.535156 123.308594 225.679688 123.105469 C 225.699219 123.074219 225.71875 123.042969 225.730469 123.007812 C 225.820312 122.792969 225.761719 122.625 225.554688 122.492188 C 225.523438 122.476562 225.492188 122.457031 225.453125 122.441406 C 225.421875 122.429688 225.382812 122.421875 225.347656 122.421875 C 225.332031 122.421875 225.320312 122.421875 225.304688 122.421875 C 222.59375 122.761719 220.109375 122.914062 217.859375 122.875 C 215.464844 122.835938 213.332031 122.582031 211.460938 122.117188 C 211.441406 122.109375 211.417969 122.109375 211.398438 122.109375 C 211.390625 122.105469 211.382812 122.109375 211.378906 122.109375 C 210.308594 122.15625 209.578125 122.660156 209.1875 123.621094 L 209.171875 123.664062 C 208.78125 125.320312 208.964844 126.835938 209.714844 128.210938 L 209.707031 128.210938 C 209.378906 128.246094 209.078125 128.257812 208.804688 128.253906 C 208.675781 128.253906 208.550781 128.246094 208.4375 128.234375 L 208.433594 128.234375 C 205.09375 127.929688 202.558594 125.714844 200.835938 121.582031 L 200.832031 121.582031 C 199.835938 117.101562 201.914062 114.289062 207.070312 113.144531 C 207.296875 113.09375 207.535156 113.046875 207.773438 113.003906 L 207.84375 112.980469 C 208.066406 112.878906 208.402344 112.828125 208.847656 112.835938 C 210.597656 112.867188 214.066406 113.738281 219.25 115.449219 L 219.238281 115.449219 C 219.589844 116.027344 219.972656 116.675781 220.386719 117.390625 L 220.40625 117.417969 C 220.859375 118.03125 221.394531 118.53125 222.007812 118.921875 L 222.039062 118.9375 C 223.171875 119.480469 224.113281 119.761719 224.859375 119.773438 C 225.488281 119.78125 225.980469 119.605469 226.332031 119.234375 C 226.394531 119.167969 226.421875 119.074219 226.40625 118.980469 C 226.207031 117.902344 224.410156 116.71875 221.011719 115.425781 L 221.003906 115.421875 C 220.53125 115.265625 220.074219 115.109375 219.628906 114.960938 L 219.621094 114.960938 C 218.242188 112.71875 217.316406 111.476562 216.835938 111.230469 L 216.828125 111.230469 C 216.25 110.585938 214.160156 109.925781 210.554688 109.246094 L 210.542969 109.246094 C 209.941406 109 209.542969 108.699219 209.351562 108.339844 C 209.316406 108.273438 209.257812 108.226562 209.1875 108.203125 C 208.941406 108.117188 209.011719 107.496094 209.402344 106.339844 C 209.730469 105.367188 210.296875 104.074219 211.097656 102.464844 C 211.132812 102.394531 211.136719 102.3125 211.113281 102.238281 L 208.128906 93.578125 L 208.121094 93.578125 C 208.214844 92.71875 208.875 92.015625 210.09375 91.460938 L 210.085938 91.460938 C 210.875 91.242188 211.691406 91.136719 212.535156 91.152344 C 215.484375 91.203125 218.765625 92.683594 222.375 95.601562 L 222.367188 95.601562 C 222.359375 95.609375 222.351562 95.617188 222.34375 95.625 C 221.910156 96.042969 221.695312 96.390625 221.703125 96.667969 C 221.707031 96.808594 221.753906 96.929688 221.851562 97.027344 C 226.128906 102.21875 228.554688 108.363281 229.121094 115.46875 C 229.132812 115.59375 229.222656 115.699219 229.347656 115.730469 C 229.367188 115.734375 229.386719 115.734375 229.40625 115.734375 C 229.511719 115.738281 229.609375 115.683594 229.664062 115.59375 C 232.609375 110.628906 232.121094 105.554688 228.203125 100.367188 L 228.1875 100.347656 C 226.492188 98.5 224.855469 96.914062 223.277344 95.59375 L 223.269531 95.59375 C 223.761719 95.191406 224.429688 94.714844 225.273438 94.15625 C 225.320312 94.128906 225.355469 94.085938 225.378906 94.035156 C 226.234375 92.191406 226.949219 91.167969 227.515625 90.972656 L 227.5625 90.953125 C 228.113281 90.652344 228.683594 90.503906 229.273438 90.515625 C 230.066406 90.527344 230.894531 90.824219 231.757812 91.402344 L 231.753906 91.402344 C 234.230469 93.421875 235.375 97.617188 235.183594 103.996094 L 235.183594 104.007812 C 235.203125 109.597656 233.808594 113.707031 231.003906 116.34375 C 230.921875 116.417969 230.890625 116.535156 230.925781 116.640625 C 230.957031 116.746094 231.046875 116.824219 231.15625 116.84375 C 233.6875 117.234375 235.667969 117.441406 237.09375 117.464844 C 238.085938 117.484375 238.8125 117.410156 239.273438 117.25 L 239.261719 117.25 C 240.761719 116.992188 241.832031 116.433594 242.472656 115.574219 L 242.46875 115.574219 C 243.09375 114.828125 243.09375 114.199219 242.476562 113.683594 C 242.40625 113.625 242.328125 113.570312 242.242188 113.515625 C 242.207031 113.492188 242.167969 113.480469 242.128906 113.472656 C 241.964844 113.453125 241.816406 113.441406 241.679688 113.441406 C 240.945312 113.425781 240.550781 113.671875 240.484375 114.179688 C 240.460938 114.378906 240.5 114.613281 240.605469 114.882812 C 240.648438 114.996094 240.757812 115.066406 240.871094 115.066406 C 240.910156 115.066406 240.945312 115.0625 240.984375 115.046875 C 241.132812 114.988281 241.207031 114.820312 241.148438 114.667969 C 241.078125 114.492188 241.050781 114.355469 241.0625 114.253906 C 241.082031 114.089844 241.277344 114.011719 241.640625 114.019531 C 241.746094 114.019531 241.867188 114.03125 242 114.046875 L 241.992188 114.046875 C 242.03125 114.074219 242.070312 114.101562 242.105469 114.128906 C 242.425781 114.394531 242.398438 114.753906 242.023438 115.203125 L 242.011719 115.214844 C 241.464844 115.957031 240.515625 116.445312 239.15625 116.675781 L 239.105469 116.691406 C 238.703125 116.839844 238.042969 116.90625 237.125 116.890625 C 235.851562 116.871094 234.085938 116.691406 231.828125 116.355469 L 231.820312 116.355469 C 234.46875 113.601562 235.785156 109.488281 235.765625 104.015625 C 235.964844 97.425781 234.742188 93.066406 232.101562 90.933594 L 232.082031 90.921875 C 231.117188 90.273438 230.183594 89.941406 229.285156 89.925781 Z M 229.285156 89.925781 " fill-opacity="1" fill-rule="nonzero"/></g><path fill="#f5f5ec" d="M 238.949219 110.136719 C 238.933594 110.136719 238.917969 110.136719 238.902344 110.140625 C 238.894531 110.140625 238.886719 110.140625 238.875 110.144531 C 238.289062 110.238281 238.054688 110.652344 238.175781 111.378906 C 238.199219 111.519531 238.320312 111.621094 238.457031 111.625 C 238.472656 111.625 238.492188 111.625 238.507812 111.621094 C 238.667969 111.59375 238.777344 111.445312 238.753906 111.335938 L 238.75 111.285156 C 238.703125 111 238.746094 110.820312 238.875 110.75 L 238.886719 110.75 C 239 110.886719 239.023438 111.148438 238.957031 111.535156 L 238.953125 111.535156 C 238.800781 112.121094 238.40625 112.644531 237.773438 113.105469 L 237.769531 113.105469 C 235.652344 114.488281 233.558594 115.53125 231.480469 116.242188 C 231.328125 116.292969 231.246094 116.460938 231.300781 116.613281 C 231.339844 116.730469 231.449219 116.808594 231.570312 116.808594 C 231.601562 116.808594 231.636719 116.804688 231.667969 116.792969 C 233.796875 116.066406 235.941406 114.996094 238.101562 113.585938 L 238.113281 113.578125 C 238.867188 113.027344 239.339844 112.386719 239.523438 111.65625 L 239.53125 111.636719 C 239.660156 110.898438 239.511719 110.410156 239.085938 110.171875 C 239.042969 110.148438 238.996094 110.136719 238.949219 110.136719 Z M 238.949219 110.136719 " fill-opacity="1" fill-rule="nonzero"/><g fill="#f5f5ec" fill-opacity="1"><g transform="translate(170.754394, 159.494968)"><g><path d="M 1.890625 0.28125 C 1.679688 0.175781 1.515625 0.078125 1.390625 -0.015625 C 1.265625 -0.128906 1.132812 -0.289062 1 -0.5 C 0.59375 -1.039062 0.390625 -1.769531 0.390625 -2.6875 C 0.378906 -2.976562 0.394531 -3.273438 0.4375 -3.578125 C 0.507812 -4.222656 0.675781 -4.910156 0.9375 -5.640625 C 1.144531 -6.222656 1.363281 -6.695312 1.59375 -7.0625 C 1.8125 -7.4375 2.054688 -7.738281 2.328125 -7.96875 C 2.578125 -8.164062 2.789062 -8.289062 2.96875 -8.34375 C 3.144531 -8.40625 3.363281 -8.421875 3.625 -8.390625 C 3.800781 -8.367188 3.925781 -8.34375 4 -8.3125 C 4.09375 -8.28125 4.207031 -8.21875 4.34375 -8.125 L 4.6875 -7.890625 C 4.738281 -7.953125 4.820312 -8.03125 4.9375 -8.125 C 5.007812 -8.1875 5.070312 -8.234375 5.125 -8.265625 C 5.195312 -8.316406 5.25 -8.335938 5.28125 -8.328125 C 5.34375 -8.328125 5.414062 -8.273438 5.5 -8.171875 C 5.582031 -8.066406 5.617188 -7.984375 5.609375 -7.921875 C 5.609375 -7.890625 5.554688 -7.800781 5.453125 -7.65625 C 5.359375 -7.53125 5.242188 -7.390625 5.109375 -7.234375 C 4.953125 -7.035156 4.800781 -6.863281 4.65625 -6.71875 C 4.488281 -6.539062 4.378906 -6.445312 4.328125 -6.4375 C 4.140625 -6.382812 4.015625 -6.445312 3.953125 -6.625 C 3.878906 -6.800781 3.914062 -6.957031 4.0625 -7.09375 C 4.09375 -7.125 4.117188 -7.160156 4.140625 -7.203125 C 4.179688 -7.242188 4.203125 -7.273438 4.203125 -7.296875 C 4.210938 -7.359375 4.132812 -7.4375 3.96875 -7.53125 C 3.800781 -7.632812 3.65625 -7.691406 3.53125 -7.703125 C 3.164062 -7.742188 2.796875 -7.519531 2.421875 -7.03125 C 2.046875 -6.539062 1.71875 -5.851562 1.4375 -4.96875 C 1.40625 -4.851562 1.375 -4.710938 1.34375 -4.546875 C 1.300781 -4.378906 1.269531 -4.203125 1.25 -4.015625 C 1.195312 -3.671875 1.148438 -3.332031 1.109375 -3 C 1.078125 -2.644531 1.070312 -2.398438 1.09375 -2.265625 C 1.125 -1.992188 1.191406 -1.707031 1.296875 -1.40625 C 1.410156 -1.113281 1.53125 -0.898438 1.65625 -0.765625 C 2.019531 -0.359375 2.457031 -0.1875 2.96875 -0.25 C 3.457031 -0.3125 3.890625 -0.582031 4.265625 -1.0625 C 4.367188 -1.1875 4.441406 -1.273438 4.484375 -1.328125 C 4.546875 -1.359375 4.613281 -1.367188 4.6875 -1.359375 C 4.800781 -1.359375 4.890625 -1.320312 4.953125 -1.25 C 5.023438 -1.1875 5.050781 -1.101562 5.03125 -1 C 5.019531 -0.90625 4.914062 -0.738281 4.71875 -0.5 C 4.5 -0.238281 4.316406 -0.0625 4.171875 0.03125 C 3.816406 0.269531 3.4375 0.410156 3.03125 0.453125 C 2.863281 0.484375 2.695312 0.488281 2.53125 0.46875 C 2.3125 0.4375 2.097656 0.375 1.890625 0.28125 Z M 1.890625 0.28125 "/></g></g></g><g fill="#f5f5ec" fill-opacity="1"><g transform="translate(177.173957, 160.211799)"><g><path d="M 3.8125 -7.734375 C 4.050781 -7.609375 4.257812 -7.445312 4.4375 -7.25 C 4.625 -7.0625 4.78125 -6.835938 4.90625 -6.578125 C 5.019531 -6.316406 5.109375 -6.046875 5.171875 -5.765625 C 5.222656 -5.492188 5.25 -5.148438 5.25 -4.734375 L 5.25 -4.34375 C 5.226562 -3.289062 5.03125 -2.421875 4.65625 -1.734375 C 4.25 -0.941406 3.6875 -0.484375 2.96875 -0.359375 C 2.769531 -0.335938 2.640625 -0.328125 2.578125 -0.328125 C 2.503906 -0.328125 2.382812 -0.34375 2.21875 -0.375 C 1.875 -0.457031 1.5625 -0.613281 1.28125 -0.84375 C 1.007812 -1.09375 0.785156 -1.398438 0.609375 -1.765625 C 0.460938 -2.085938 0.359375 -2.398438 0.296875 -2.703125 C 0.253906 -2.992188 0.238281 -3.363281 0.25 -3.8125 C 0.25 -4.40625 0.304688 -4.925781 0.421875 -5.375 C 0.535156 -5.820312 0.722656 -6.289062 0.984375 -6.78125 C 1.273438 -7.300781 1.671875 -7.65625 2.171875 -7.84375 C 2.390625 -7.9375 2.613281 -7.984375 2.84375 -7.984375 C 3.15625 -7.972656 3.476562 -7.890625 3.8125 -7.734375 Z M 1.71875 -6.625 C 1.445312 -6.175781 1.242188 -5.679688 1.109375 -5.140625 C 0.984375 -4.585938 0.925781 -4.054688 0.9375 -3.546875 C 0.9375 -3.273438 0.96875 -3.007812 1.03125 -2.75 C 1.082031 -2.5 1.15625 -2.265625 1.25 -2.046875 C 1.351562 -1.835938 1.492188 -1.648438 1.671875 -1.484375 C 1.835938 -1.328125 2.007812 -1.210938 2.1875 -1.140625 C 2.363281 -1.078125 2.5 -1.046875 2.59375 -1.046875 C 2.675781 -1.035156 2.804688 -1.050781 2.984375 -1.09375 C 3.484375 -1.238281 3.867188 -1.644531 4.140625 -2.3125 C 4.421875 -2.96875 4.550781 -3.773438 4.53125 -4.734375 C 4.519531 -5.210938 4.472656 -5.613281 4.390625 -5.9375 C 4.296875 -6.238281 4.15625 -6.507812 3.96875 -6.75 C 3.832031 -6.90625 3.648438 -7.035156 3.421875 -7.140625 C 3.179688 -7.222656 2.9375 -7.265625 2.6875 -7.265625 C 2.457031 -7.265625 2.265625 -7.210938 2.109375 -7.109375 C 1.953125 -7.015625 1.820312 -6.851562 1.71875 -6.625 Z M 1.71875 -6.625 "/></g></g></g><g fill="#f5f5ec" fill-opacity="1"><g transform="translate(183.955682, 160.265195)"><g><path d="M 2.171875 -8.5 C 2.253906 -8.445312 2.296875 -8.375 2.296875 -8.28125 C 2.304688 -8.175781 2.285156 -8.078125 2.234375 -7.984375 C 2.203125 -7.929688 2.191406 -7.859375 2.203125 -7.765625 C 2.210938 -7.679688 2.273438 -7.425781 2.390625 -7 C 2.441406 -6.8125 2.5 -6.582031 2.5625 -6.3125 C 2.644531 -6.050781 2.738281 -5.738281 2.84375 -5.375 C 3.039062 -4.695312 3.226562 -4.035156 3.40625 -3.390625 C 3.582031 -2.765625 3.707031 -2.347656 3.78125 -2.140625 C 3.820312 -1.984375 3.894531 -1.734375 4 -1.390625 L 4.203125 -1.375 C 4.316406 -1.375 4.410156 -1.34375 4.484375 -1.28125 C 4.554688 -1.226562 4.597656 -1.15625 4.609375 -1.0625 C 4.609375 -0.9375 4.566406 -0.84375 4.484375 -0.78125 C 4.378906 -0.71875 4.210938 -0.664062 3.984375 -0.625 C 3.878906 -0.601562 3.769531 -0.582031 3.65625 -0.5625 C 3.550781 -0.550781 3.484375 -0.539062 3.453125 -0.53125 C 3.441406 -0.507812 3.425781 -0.5 3.40625 -0.5 C 3.382812 -0.5 3.363281 -0.503906 3.34375 -0.515625 C 3.300781 -0.523438 3.265625 -0.53125 3.234375 -0.53125 C 3.097656 -0.601562 3.019531 -0.691406 3 -0.796875 C 2.988281 -0.921875 3.035156 -1.03125 3.140625 -1.125 C 3.160156 -1.15625 3.207031 -1.203125 3.28125 -1.265625 C 3.25 -1.367188 3.203125 -1.539062 3.140625 -1.78125 C 3.109375 -1.914062 3.070312 -2.039062 3.03125 -2.15625 C 3 -2.269531 2.972656 -2.335938 2.953125 -2.359375 C 2.929688 -2.367188 2.84375 -2.375 2.6875 -2.375 C 2.550781 -2.363281 2.363281 -2.351562 2.125 -2.34375 C 1.945312 -2.320312 1.6875 -2.304688 1.34375 -2.296875 C 1.332031 -2.210938 1.316406 -2.109375 1.296875 -1.984375 C 1.253906 -1.753906 1.242188 -1.59375 1.265625 -1.5 C 1.285156 -1.414062 1.332031 -1.363281 1.40625 -1.34375 C 1.5 -1.300781 1.566406 -1.238281 1.609375 -1.15625 C 1.628906 -1.0625 1.613281 -0.960938 1.5625 -0.859375 C 1.519531 -0.773438 1.429688 -0.726562 1.296875 -0.71875 C 1.179688 -0.695312 0.953125 -0.703125 0.609375 -0.734375 C 0.335938 -0.765625 0.160156 -0.804688 0.078125 -0.859375 C -0.0234375 -0.898438 -0.0820312 -0.976562 -0.09375 -1.09375 C -0.09375 -1.195312 -0.0703125 -1.273438 -0.03125 -1.328125 C 0.0195312 -1.378906 0.113281 -1.421875 0.25 -1.453125 C 0.375 -1.472656 0.453125 -1.5 0.484375 -1.53125 C 0.515625 -1.570312 0.550781 -1.753906 0.59375 -2.078125 C 0.601562 -2.179688 0.617188 -2.304688 0.640625 -2.453125 C 0.660156 -2.585938 0.679688 -2.757812 0.703125 -2.96875 C 0.734375 -3.28125 0.789062 -3.722656 0.875 -4.296875 C 0.925781 -4.867188 0.988281 -5.40625 1.0625 -5.90625 C 1.113281 -6.382812 1.160156 -6.804688 1.203125 -7.171875 C 1.253906 -7.515625 1.28125 -7.695312 1.28125 -7.71875 C 1.269531 -7.726562 1.242188 -7.742188 1.203125 -7.765625 C 1.171875 -7.796875 1.128906 -7.828125 1.078125 -7.859375 C 1.003906 -7.878906 0.953125 -7.90625 0.921875 -7.9375 C 0.890625 -7.96875 0.867188 -8.015625 0.859375 -8.078125 C 0.828125 -8.242188 0.851562 -8.351562 0.9375 -8.40625 C 1.03125 -8.476562 1.226562 -8.523438 1.53125 -8.546875 C 1.726562 -8.566406 1.867188 -8.566406 1.953125 -8.546875 C 2.046875 -8.546875 2.117188 -8.53125 2.171875 -8.5 Z M 1.828125 -6.171875 C 1.804688 -6.128906 1.773438 -5.929688 1.734375 -5.578125 C 1.671875 -5.203125 1.617188 -4.816406 1.578125 -4.421875 C 1.546875 -4.085938 1.519531 -3.796875 1.5 -3.546875 C 1.476562 -3.285156 1.472656 -3.140625 1.484375 -3.109375 C 1.492188 -3.085938 1.535156 -3.066406 1.609375 -3.046875 C 1.691406 -3.046875 1.800781 -3.050781 1.9375 -3.0625 L 2.296875 -3.0625 C 2.398438 -3.0625 2.472656 -3.0625 2.515625 -3.0625 C 2.554688 -3.0625 2.59375 -3.066406 2.625 -3.078125 C 2.65625 -3.097656 2.675781 -3.113281 2.6875 -3.125 C 2.695312 -3.144531 2.671875 -3.289062 2.609375 -3.5625 C 2.535156 -3.820312 2.453125 -4.132812 2.359375 -4.5 C 2.171875 -5.1875 2.046875 -5.632812 1.984375 -5.84375 C 1.921875 -6.0625 1.878906 -6.175781 1.859375 -6.1875 L 1.84375 -6.1875 C 1.84375 -6.175781 1.835938 -6.171875 1.828125 -6.171875 Z M 1.828125 -6.171875 "/></g></g></g><g fill="#f5f5ec" fill-opacity="1"><g transform="translate(190.133416, 159.708704)"><g><path d="M 1.59375 -0.78125 C 1.25 -0.8125 0.925781 -0.957031 0.625 -1.21875 C 0.320312 -1.476562 0.0625 -1.800781 -0.15625 -2.1875 C -0.238281 -2.351562 -0.300781 -2.503906 -0.34375 -2.640625 C -0.394531 -2.796875 -0.453125 -3.019531 -0.515625 -3.3125 C -0.535156 -3.414062 -0.554688 -3.515625 -0.578125 -3.609375 C -0.691406 -4.285156 -0.707031 -4.910156 -0.625 -5.484375 C -0.53125 -6.160156 -0.3125 -6.722656 0.03125 -7.171875 C 0.257812 -7.492188 0.507812 -7.707031 0.78125 -7.8125 C 0.84375 -7.832031 0.90625 -7.847656 0.96875 -7.859375 C 1.1875 -7.898438 1.421875 -7.878906 1.671875 -7.796875 C 1.847656 -7.734375 1.957031 -7.707031 2 -7.71875 C 2.050781 -7.726562 2.101562 -7.769531 2.15625 -7.84375 C 2.238281 -7.988281 2.347656 -8.039062 2.484375 -8 C 2.640625 -7.957031 2.734375 -7.859375 2.765625 -7.703125 C 2.773438 -7.648438 2.742188 -7.539062 2.671875 -7.375 C 2.585938 -7.195312 2.503906 -7.015625 2.421875 -6.828125 C 2.335938 -6.660156 2.257812 -6.519531 2.1875 -6.40625 C 2.113281 -6.289062 2.054688 -6.21875 2.015625 -6.1875 C 1.953125 -6.164062 1.90625 -6.15625 1.875 -6.15625 C 1.832031 -6.15625 1.78125 -6.164062 1.71875 -6.1875 C 1.625 -6.226562 1.570312 -6.300781 1.5625 -6.40625 C 1.53125 -6.519531 1.539062 -6.640625 1.59375 -6.765625 C 1.644531 -6.878906 1.65625 -6.960938 1.625 -7.015625 C 1.59375 -7.066406 1.519531 -7.109375 1.40625 -7.140625 C 1.082031 -7.234375 0.789062 -7.082031 0.53125 -6.6875 C 0.257812 -6.289062 0.0976562 -5.757812 0.046875 -5.09375 C 0.015625 -4.894531 0.0078125 -4.710938 0.03125 -4.546875 C 0.0390625 -4.390625 0.078125 -4.128906 0.140625 -3.765625 C 0.203125 -3.390625 0.25 -3.125 0.28125 -2.96875 C 0.332031 -2.820312 0.398438 -2.671875 0.484375 -2.515625 C 0.671875 -2.148438 0.890625 -1.878906 1.140625 -1.703125 C 1.378906 -1.523438 1.648438 -1.453125 1.953125 -1.484375 C 2.160156 -1.503906 2.40625 -1.628906 2.6875 -1.859375 C 2.976562 -2.085938 3.191406 -2.3125 3.328125 -2.53125 C 3.398438 -2.632812 3.46875 -2.710938 3.53125 -2.765625 C 3.570312 -2.816406 3.625 -2.847656 3.6875 -2.859375 C 3.78125 -2.878906 3.867188 -2.859375 3.953125 -2.796875 C 4.023438 -2.742188 4.070312 -2.671875 4.09375 -2.578125 C 4.113281 -2.472656 4.023438 -2.273438 3.828125 -1.984375 C 3.640625 -1.691406 3.460938 -1.472656 3.296875 -1.328125 C 3.066406 -1.171875 2.816406 -1.03125 2.546875 -0.90625 C 2.441406 -0.851562 2.316406 -0.816406 2.171875 -0.796875 C 2.003906 -0.765625 1.8125 -0.757812 1.59375 -0.78125 Z M 1.59375 -0.78125 "/></g></g></g><g fill="#f5f5ec" fill-opacity="1"><g transform="translate(196.089906, 158.615513)"><g><path d="M 3.109375 -0.609375 C 3.023438 -0.617188 2.945312 -0.648438 2.875 -0.703125 C 2.800781 -0.765625 2.757812 -0.828125 2.75 -0.890625 C 2.726562 -0.972656 2.738281 -1.050781 2.78125 -1.125 C 2.820312 -1.207031 2.882812 -1.257812 2.96875 -1.28125 C 3.039062 -1.300781 3.09375 -1.34375 3.125 -1.40625 C 3.144531 -1.457031 3.140625 -1.609375 3.109375 -1.859375 C 3.078125 -1.941406 3.046875 -2.0625 3.015625 -2.21875 C 2.984375 -2.363281 2.945312 -2.546875 2.90625 -2.765625 C 2.769531 -3.367188 2.648438 -3.878906 2.546875 -4.296875 C 2.460938 -4.703125 2.398438 -4.945312 2.359375 -5.03125 C 2.359375 -5.0625 2.285156 -5.066406 2.140625 -5.046875 C 2.015625 -5.003906 1.726562 -4.914062 1.28125 -4.78125 C 1 -4.695312 0.738281 -4.613281 0.5 -4.53125 C 0.28125 -4.4375 0.148438 -4.378906 0.109375 -4.359375 C 0.0859375 -4.359375 0.0507812 -4.335938 0 -4.296875 L 0.359375 -3 C 0.453125 -2.644531 0.539062 -2.335938 0.625 -2.078125 C 0.695312 -1.804688 0.742188 -1.65625 0.765625 -1.625 C 0.785156 -1.601562 0.804688 -1.585938 0.828125 -1.578125 C 0.859375 -1.566406 0.882812 -1.566406 0.90625 -1.578125 C 0.988281 -1.597656 1.078125 -1.578125 1.171875 -1.515625 C 1.265625 -1.460938 1.320312 -1.394531 1.34375 -1.3125 C 1.375 -1.1875 1.34375 -1.085938 1.25 -1.015625 C 1.15625 -0.941406 0.96875 -0.859375 0.6875 -0.765625 C 0.457031 -0.671875 0.3125 -0.625 0.25 -0.625 C 0.1875 -0.613281 0.117188 -0.628906 0.046875 -0.671875 C -0.0234375 -0.710938 -0.0703125 -0.785156 -0.09375 -0.890625 C -0.113281 -1.003906 -0.0976562 -1.101562 -0.046875 -1.1875 C -0.00390625 -1.21875 0.0390625 -1.265625 0.09375 -1.328125 L -0.21875 -2.453125 C -0.3125 -2.765625 -0.445312 -3.210938 -0.625 -3.796875 C -0.78125 -4.378906 -0.929688 -4.921875 -1.078125 -5.421875 C -1.160156 -5.691406 -1.226562 -5.921875 -1.28125 -6.109375 C -1.351562 -6.304688 -1.40625 -6.472656 -1.4375 -6.609375 C -1.539062 -6.929688 -1.609375 -7.113281 -1.640625 -7.15625 C -1.671875 -7.21875 -1.707031 -7.25 -1.75 -7.25 C -1.894531 -7.257812 -2.007812 -7.316406 -2.09375 -7.421875 C -2.113281 -7.460938 -2.132812 -7.503906 -2.15625 -7.546875 C -2.164062 -7.617188 -2.144531 -7.695312 -2.09375 -7.78125 C -2.0625 -7.832031 -2.003906 -7.875 -1.921875 -7.90625 C -1.835938 -7.9375 -1.648438 -7.988281 -1.359375 -8.0625 C -1.035156 -8.144531 -0.84375 -8.1875 -0.78125 -8.1875 C -0.707031 -8.195312 -0.644531 -8.171875 -0.59375 -8.109375 C -0.53125 -8.046875 -0.492188 -8 -0.484375 -7.96875 C -0.472656 -7.9375 -0.476562 -7.882812 -0.5 -7.8125 C -0.507812 -7.757812 -0.535156 -7.710938 -0.578125 -7.671875 C -0.609375 -7.628906 -0.644531 -7.601562 -0.6875 -7.59375 C -0.800781 -7.53125 -0.859375 -7.441406 -0.859375 -7.328125 C -0.835938 -7.210938 -0.75 -6.867188 -0.59375 -6.296875 C -0.488281 -5.890625 -0.40625 -5.597656 -0.34375 -5.421875 C -0.289062 -5.253906 -0.242188 -5.160156 -0.203125 -5.140625 C -0.171875 -5.109375 -0.117188 -5.101562 -0.046875 -5.125 C 0.046875 -5.132812 0.21875 -5.179688 0.46875 -5.265625 C 0.632812 -5.335938 0.828125 -5.40625 1.046875 -5.46875 C 1.285156 -5.539062 1.476562 -5.59375 1.625 -5.625 C 1.882812 -5.71875 2.035156 -5.773438 2.078125 -5.796875 C 2.140625 -5.816406 2.175781 -5.863281 2.1875 -5.9375 C 2.1875 -5.976562 2.148438 -6.144531 2.078125 -6.4375 C 2.015625 -6.726562 1.921875 -7.082031 1.796875 -7.5 C 1.703125 -7.820312 1.566406 -8.285156 1.390625 -8.890625 L 1.125 -8.875 C 1.007812 -8.851562 0.910156 -8.863281 0.828125 -8.90625 C 0.753906 -8.957031 0.703125 -9.035156 0.671875 -9.140625 C 0.640625 -9.273438 0.671875 -9.378906 0.765625 -9.453125 C 0.847656 -9.503906 1.015625 -9.566406 1.265625 -9.640625 L 1.453125 -9.6875 C 1.765625 -9.757812 1.953125 -9.800781 2.015625 -9.8125 C 2.085938 -9.800781 2.160156 -9.769531 2.234375 -9.71875 C 2.296875 -9.664062 2.332031 -9.625 2.34375 -9.59375 C 2.363281 -9.5625 2.363281 -9.519531 2.34375 -9.46875 C 2.34375 -9.414062 2.328125 -9.363281 2.296875 -9.3125 C 2.273438 -9.257812 2.253906 -9.222656 2.234375 -9.203125 C 2.203125 -9.179688 2.15625 -9.148438 2.09375 -9.109375 L 2.40625 -7.9375 C 2.46875 -7.738281 2.550781 -7.421875 2.65625 -6.984375 C 2.757812 -6.578125 2.867188 -6.125 2.984375 -5.625 C 3.035156 -5.351562 3.09375 -5.085938 3.15625 -4.828125 C 3.21875 -4.578125 3.28125 -4.320312 3.34375 -4.0625 C 3.445312 -3.59375 3.539062 -3.171875 3.625 -2.796875 C 3.707031 -2.398438 3.765625 -2.125 3.796875 -1.96875 C 3.828125 -1.800781 3.867188 -1.691406 3.921875 -1.640625 C 3.960938 -1.585938 4.039062 -1.578125 4.15625 -1.609375 C 4.25 -1.628906 4.335938 -1.617188 4.421875 -1.578125 C 4.523438 -1.523438 4.585938 -1.46875 4.609375 -1.40625 C 4.609375 -1.375 4.601562 -1.335938 4.59375 -1.296875 C 4.59375 -1.234375 4.585938 -1.1875 4.578125 -1.15625 C 4.523438 -1.070312 4.476562 -1.015625 4.4375 -0.984375 C 4.351562 -0.953125 4.15625 -0.894531 3.84375 -0.8125 L 3.625 -0.75 L 3.359375 -0.6875 C 3.222656 -0.644531 3.140625 -0.617188 3.109375 -0.609375 Z M 3.109375 -0.609375 "/></g></g></g><g fill="#f5f5ec" fill-opacity="1"><g transform="translate(202.225928, 156.829024)"><g><path d="M 0.09375 -0.5625 C 0 -0.613281 -0.0625 -0.671875 -0.09375 -0.734375 C -0.101562 -0.773438 -0.101562 -0.8125 -0.09375 -0.84375 C -0.0820312 -0.957031 -0.015625 -1.066406 0.109375 -1.171875 L 0.28125 -1.328125 L -0.171875 -2.671875 C -0.367188 -3.304688 -0.582031 -3.941406 -0.8125 -4.578125 C -1.039062 -5.210938 -1.28125 -5.882812 -1.53125 -6.59375 C -1.570312 -6.695312 -1.640625 -6.867188 -1.734375 -7.109375 C -1.765625 -7.097656 -1.820312 -7.085938 -1.90625 -7.078125 C -2 -7.054688 -2.082031 -7.0625 -2.15625 -7.09375 C -2.238281 -7.132812 -2.296875 -7.203125 -2.328125 -7.296875 C -2.378906 -7.421875 -2.351562 -7.523438 -2.25 -7.609375 C -2.15625 -7.691406 -1.9375 -7.820312 -1.59375 -8 C -1.382812 -8.09375 -1.210938 -8.164062 -1.078125 -8.21875 C -1.003906 -8.25 -0.941406 -8.265625 -0.890625 -8.265625 C -0.765625 -8.285156 -0.671875 -8.238281 -0.609375 -8.125 C -0.578125 -8.09375 -0.5625 -8.066406 -0.5625 -8.046875 C -0.53125 -7.960938 -0.539062 -7.882812 -0.59375 -7.8125 C -0.632812 -7.695312 -0.742188 -7.597656 -0.921875 -7.515625 C -0.992188 -7.460938 -1.03125 -7.425781 -1.03125 -7.40625 C -1.039062 -7.363281 -1.019531 -7.253906 -0.96875 -7.078125 C -0.9375 -6.984375 -0.863281 -6.78125 -0.75 -6.46875 C -0.632812 -6.15625 -0.519531 -5.832031 -0.40625 -5.5 C -0.28125 -5.15625 -0.125 -4.726562 0.0625 -4.21875 C 0.238281 -3.695312 0.390625 -3.242188 0.515625 -2.859375 C 0.617188 -2.546875 0.773438 -2.085938 0.984375 -1.484375 C 1.035156 -1.492188 1.125 -1.503906 1.25 -1.515625 C 1.40625 -1.554688 1.53125 -1.554688 1.625 -1.515625 C 1.71875 -1.484375 1.78125 -1.421875 1.8125 -1.328125 C 1.851562 -1.171875 1.828125 -1.066406 1.734375 -1.015625 C 1.679688 -0.984375 1.570312 -0.9375 1.40625 -0.875 C 1.289062 -0.832031 1.144531 -0.785156 0.96875 -0.734375 C 0.644531 -0.628906 0.429688 -0.566406 0.328125 -0.546875 C 0.242188 -0.523438 0.164062 -0.53125 0.09375 -0.5625 Z M 0.09375 -0.5625 "/></g></g></g><g fill="#f5f5ec" fill-opacity="1"><g transform="translate(205.750432, 155.558225)"><g><path d="M 3.03125 -1.734375 C 2.90625 -1.722656 2.804688 -1.738281 2.734375 -1.78125 C 2.660156 -1.820312 2.515625 -1.9375 2.296875 -2.125 C 1.972656 -2.375 1.609375 -2.679688 1.203125 -3.046875 C 0.796875 -3.410156 0.320312 -3.835938 -0.21875 -4.328125 C -0.445312 -4.515625 -0.640625 -4.679688 -0.796875 -4.828125 C -0.960938 -4.972656 -1.054688 -5.039062 -1.078125 -5.03125 C -1.109375 -5.03125 -1.050781 -4.890625 -0.90625 -4.609375 C -0.769531 -4.316406 -0.535156 -3.859375 -0.203125 -3.234375 C -0.0546875 -2.953125 0.0664062 -2.710938 0.171875 -2.515625 C 0.273438 -2.304688 0.363281 -2.140625 0.4375 -2.015625 C 0.570312 -1.765625 0.664062 -1.609375 0.71875 -1.546875 C 0.757812 -1.484375 0.796875 -1.457031 0.828125 -1.46875 C 0.910156 -1.476562 1 -1.472656 1.09375 -1.453125 C 1.195312 -1.410156 1.257812 -1.363281 1.28125 -1.3125 C 1.289062 -1.289062 1.300781 -1.253906 1.3125 -1.203125 C 1.300781 -1.148438 1.289062 -1.101562 1.28125 -1.0625 C 1.257812 -0.96875 1.21875 -0.898438 1.15625 -0.859375 C 1.101562 -0.804688 0.972656 -0.734375 0.765625 -0.640625 C 0.628906 -0.566406 0.523438 -0.515625 0.453125 -0.484375 L 0.34375 -0.4375 C 0.28125 -0.414062 0.210938 -0.410156 0.140625 -0.421875 C 0.0351562 -0.453125 -0.0351562 -0.515625 -0.078125 -0.609375 C -0.117188 -0.722656 -0.113281 -0.820312 -0.0625 -0.90625 L 0.015625 -1.046875 L 0.046875 -1.125 C 0.046875 -1.144531 -0.101562 -1.453125 -0.40625 -2.046875 C -0.707031 -2.640625 -1.070312 -3.335938 -1.5 -4.140625 C -1.800781 -4.753906 -2.273438 -5.660156 -2.921875 -6.859375 L -3.015625 -7.046875 C -3.023438 -7.078125 -3 -7.140625 -2.9375 -7.234375 C -2.90625 -7.285156 -2.875 -7.316406 -2.84375 -7.328125 C -2.8125 -7.335938 -2.757812 -7.347656 -2.6875 -7.359375 C -2.625 -7.359375 -2.546875 -7.332031 -2.453125 -7.28125 C -2.359375 -7.207031 -2.1875 -7.054688 -1.9375 -6.828125 L -1.390625 -6.359375 C -1.179688 -6.171875 -0.925781 -5.9375 -0.625 -5.65625 C -0.207031 -5.257812 0.207031 -4.882812 0.625 -4.53125 C 1.007812 -4.164062 1.335938 -3.875 1.609375 -3.65625 C 1.734375 -3.53125 1.847656 -3.425781 1.953125 -3.34375 C 2.035156 -3.269531 2.097656 -3.222656 2.140625 -3.203125 C 2.191406 -3.160156 2.226562 -3.144531 2.25 -3.15625 C 2.25 -3.144531 2.25 -3.160156 2.25 -3.203125 C 2.25 -3.242188 2.128906 -3.53125 1.890625 -4.0625 C 1.660156 -4.582031 1.351562 -5.273438 0.96875 -6.140625 L 0.5 -7.203125 C 0.351562 -7.492188 0.238281 -7.734375 0.15625 -7.921875 C -0.0195312 -8.296875 -0.132812 -8.523438 -0.1875 -8.609375 C -0.226562 -8.703125 -0.257812 -8.742188 -0.28125 -8.734375 C -0.332031 -8.710938 -0.40625 -8.722656 -0.5 -8.765625 C -0.601562 -8.816406 -0.671875 -8.867188 -0.703125 -8.921875 C -0.722656 -8.953125 -0.734375 -8.992188 -0.734375 -9.046875 C -0.722656 -9.097656 -0.707031 -9.148438 -0.6875 -9.203125 C -0.664062 -9.265625 -0.632812 -9.3125 -0.59375 -9.34375 C -0.550781 -9.394531 -0.460938 -9.453125 -0.328125 -9.515625 C -0.210938 -9.566406 -0.109375 -9.613281 -0.015625 -9.65625 C 0.117188 -9.71875 0.238281 -9.765625 0.34375 -9.796875 C 0.53125 -9.859375 0.65625 -9.878906 0.71875 -9.859375 C 0.800781 -9.804688 0.851562 -9.753906 0.875 -9.703125 C 0.90625 -9.648438 0.921875 -9.597656 0.921875 -9.546875 C 0.890625 -9.410156 0.796875 -9.28125 0.640625 -9.15625 C 0.597656 -9.125 0.535156 -9.082031 0.453125 -9.03125 L 0.6875 -8.5 L 1.03125 -7.71875 L 1.546875 -6.578125 C 1.734375 -6.160156 1.9375 -5.703125 2.15625 -5.203125 L 2.8125 -3.734375 C 2.914062 -3.503906 3.015625 -3.28125 3.109375 -3.0625 L 3.375 -2.484375 C 3.476562 -2.203125 3.507812 -2.007812 3.46875 -1.90625 C 3.414062 -1.800781 3.269531 -1.742188 3.03125 -1.734375 Z M 3.03125 -1.734375 "/></g></g></g><g fill="#f5f5ec" fill-opacity="1"><g transform="translate(211.350446, 152.991951)"><g><path d="M 1.125 -1.03125 C 0.96875 -1.019531 0.773438 -1.046875 0.546875 -1.109375 C 0.296875 -1.171875 0.0859375 -1.25 -0.078125 -1.34375 C -0.222656 -1.425781 -0.398438 -1.566406 -0.609375 -1.765625 C -0.816406 -1.953125 -0.992188 -2.132812 -1.140625 -2.3125 C -1.265625 -2.457031 -1.425781 -2.691406 -1.625 -3.015625 C -1.6875 -3.128906 -1.753906 -3.25 -1.828125 -3.375 C -1.941406 -3.570312 -2.054688 -3.785156 -2.171875 -4.015625 C -2.253906 -4.191406 -2.335938 -4.363281 -2.421875 -4.53125 C -2.492188 -4.6875 -2.554688 -4.832031 -2.609375 -4.96875 C -2.859375 -5.625 -3.003906 -6.195312 -3.046875 -6.6875 C -3.085938 -7.1875 -3.023438 -7.585938 -2.859375 -7.890625 C -2.796875 -7.992188 -2.742188 -8.066406 -2.703125 -8.109375 C -2.628906 -8.148438 -2.535156 -8.195312 -2.421875 -8.25 C -2.285156 -8.3125 -2.175781 -8.347656 -2.09375 -8.359375 C -2.007812 -8.378906 -1.863281 -8.375 -1.65625 -8.34375 C -1.632812 -8.34375 -1.609375 -8.359375 -1.578125 -8.390625 C -1.566406 -8.429688 -1.554688 -8.488281 -1.546875 -8.5625 C -1.515625 -8.707031 -1.460938 -8.804688 -1.390625 -8.859375 L -1.359375 -8.890625 C -1.273438 -8.929688 -1.1875 -8.941406 -1.09375 -8.921875 C -0.976562 -8.898438 -0.90625 -8.835938 -0.875 -8.734375 C -0.851562 -8.628906 -0.847656 -8.414062 -0.859375 -8.09375 C -0.890625 -7.570312 -0.941406 -7.226562 -1.015625 -7.0625 C -1.097656 -6.90625 -1.222656 -6.847656 -1.390625 -6.890625 C -1.492188 -6.921875 -1.5625 -6.972656 -1.59375 -7.046875 C -1.625 -7.109375 -1.640625 -7.210938 -1.640625 -7.359375 C -1.640625 -7.398438 -1.640625 -7.472656 -1.640625 -7.578125 C -1.691406 -7.585938 -1.757812 -7.609375 -1.84375 -7.640625 C -1.96875 -7.660156 -2.066406 -7.648438 -2.140625 -7.609375 C -2.203125 -7.554688 -2.253906 -7.457031 -2.296875 -7.3125 C -2.378906 -6.988281 -2.351562 -6.566406 -2.21875 -6.046875 C -2.082031 -5.535156 -1.835938 -4.929688 -1.484375 -4.234375 C -1.046875 -3.316406 -0.554688 -2.632812 -0.015625 -2.1875 C 0.523438 -1.726562 0.988281 -1.609375 1.375 -1.828125 C 1.414062 -1.847656 1.460938 -1.890625 1.515625 -1.953125 C 1.578125 -1.992188 1.617188 -2.039062 1.640625 -2.09375 C 1.703125 -2.207031 1.753906 -2.363281 1.796875 -2.5625 C 1.828125 -2.769531 1.820312 -2.96875 1.78125 -3.15625 C 1.757812 -3.332031 1.6875 -3.5625 1.5625 -3.84375 C 1.445312 -4.113281 1.332031 -4.300781 1.21875 -4.40625 C 1.1875 -4.4375 1.144531 -4.484375 1.09375 -4.546875 C 1.019531 -4.503906 0.921875 -4.441406 0.796875 -4.359375 C 0.671875 -4.296875 0.578125 -4.253906 0.515625 -4.234375 C 0.460938 -4.210938 0.394531 -4.207031 0.3125 -4.21875 C 0.15625 -4.25 0.0703125 -4.34375 0.0625 -4.5 C 0.0507812 -4.632812 0.125 -4.769531 0.28125 -4.90625 C 0.320312 -4.9375 0.429688 -5.007812 0.609375 -5.125 C 0.753906 -5.25 0.921875 -5.378906 1.109375 -5.515625 C 1.410156 -5.722656 1.601562 -5.851562 1.6875 -5.90625 C 1.78125 -5.957031 1.863281 -5.984375 1.9375 -5.984375 C 2 -5.972656 2.046875 -5.957031 2.078125 -5.9375 C 2.128906 -5.90625 2.171875 -5.859375 2.203125 -5.796875 C 2.253906 -5.703125 2.257812 -5.613281 2.21875 -5.53125 C 2.1875 -5.4375 2.125 -5.363281 2.03125 -5.3125 C 1.976562 -5.28125 1.9375 -5.242188 1.90625 -5.203125 C 1.863281 -5.160156 1.828125 -5.128906 1.796875 -5.109375 C 1.742188 -5.054688 1.722656 -5 1.734375 -4.9375 C 1.753906 -4.90625 1.835938 -4.78125 1.984375 -4.5625 C 2.316406 -4.070312 2.5 -3.554688 2.53125 -3.015625 C 2.5625 -2.472656 2.445312 -2.007812 2.1875 -1.625 C 2.0625 -1.457031 1.90625 -1.320312 1.71875 -1.21875 C 1.53125 -1.113281 1.332031 -1.050781 1.125 -1.03125 Z M 1.125 -1.03125 "/></g></g></g></svg>