<svg xmlns="http://www.w3.org/2000/svg" xmlns:xlink="http://www.w3.org/1999/xlink" width="246" zoomAndPan="magnify" viewBox="0 0 184.5 56.999996" height="76" preserveAspectRatio="xMidYMid meet" version="1.0"><defs><g/></defs><g fill="#ffffff" fill-opacity="1"><g transform="translate(0.000000000000010629, 52.703643)"><g><path d="M 10.59375 0.03125 L 10.21875 0 L 9.796875 -0.171875 L 9.4375 -0.453125 L 9.328125 -0.765625 L 9.171875 -1.109375 L 8.828125 -1.40625 L 8.4375 -1.59375 L 8.046875 -1.546875 L 7.71875 -1.578125 L 5.953125 -1.5625 L 5.640625 -1.609375 L 4.890625 -1.546875 L 4.546875 -1.59375 L 4.171875 -1.40625 L 3.828125 -1.0625 L 3.5 -0.46875 L 3.15625 -0.140625 L 2.75 -0.015625 L 1.734375 0.015625 L 1.375 -0.015625 L 0.6875 0.015625 L 0.328125 -0.09375 L 0.234375 -0.53125 L 0.34375 -0.890625 L 0.703125 -1.609375 L 0.796875 -1.9375 L 0.984375 -2.1875 L 1.25 -2.90625 L 1.578125 -3.484375 L 1.703125 -3.84375 L 1.890625 -4.109375 L 2 -4.5 L 3.828125 -8.34375 L 3.9375 -8.671875 L 4.125 -9.015625 L 4.21875 -9.375 L 4.421875 -9.640625 L 5.140625 -11.296875 L 5.296875 -11.546875 L 5.421875 -11.90625 L 5.578125 -12.203125 L 5.90625 -12.515625 L 6.484375 -12.703125 L 7.078125 -12.53125 L 7.375 -12.203125 L 7.71875 -11.578125 L 7.828125 -11.25 L 8.03125 -10.9375 L 8.125 -10.578125 L 9.3125 -8.078125 L 9.4375 -7.703125 L 9.828125 -7.03125 L 9.921875 -6.75 L 10.09375 -6.484375 L 10.203125 -6.09375 L 10.375 -5.75 L 10.5625 -5.46875 L 11.234375 -3.84375 L 11.59375 -3.203125 L 11.84375 -2.53125 L 12.328125 -1.59375 L 12.609375 -0.9375 L 12.734375 -0.515625 L 12.671875 -0.09375 L 12.171875 0 L 11.609375 0.015625 L 11.28125 -0.015625 Z M 6.515625 -4.4375 L 7.234375 -4.453125 L 7.5 -4.59375 L 7.578125 -4.921875 L 6.734375 -6.890625 L 6.484375 -7.03125 L 6.28125 -6.875 L 5.4375 -4.9375 L 5.453125 -4.59375 L 5.75 -4.46875 L 6.15625 -4.5 Z M 6.515625 -4.4375 "/></g></g></g><g fill="#ffffff" fill-opacity="1"><g transform="translate(13.032643, 52.703643)"><g><path d="M 1.3125 -0.5 L 1.34375 -0.859375 L 1.3125 -1.28125 L 1.359375 -4.984375 L 1.296875 -5.546875 L 1.328125 -5.9375 L 1.328125 -6.296875 L 1.359375 -6.640625 L 1.3125 -6.96875 L 1.328125 -9.515625 L 1.359375 -9.859375 L 1.296875 -12.015625 L 1.484375 -12.359375 L 1.828125 -12.53125 L 6.125 -12.53125 L 6.46875 -12.5625 L 6.796875 -12.53125 L 7.1875 -12.546875 L 7.5625 -12.53125 L 8.203125 -12.578125 L 8.640625 -12.53125 L 8.953125 -12.375 L 9.140625 -12.03125 L 9.171875 -11.65625 L 9.140625 -11.28125 L 9.171875 -10.9375 L 9.140625 -10.578125 L 9.140625 -10.234375 L 9.015625 -9.875 L 8.671875 -9.71875 L 8.3125 -9.65625 L 7.578125 -9.6875 L 7.21875 -9.65625 L 6.34375 -9.71875 L 5.8125 -9.671875 L 5.296875 -9.6875 L 4.78125 -9.515625 L 4.59375 -9.15625 L 4.609375 -8.84375 L 4.5625 -8.46875 L 4.5625 -7.421875 L 4.75 -7.09375 L 5.171875 -6.953125 L 7.90625 -6.953125 L 8.4375 -6.765625 L 8.625 -6.390625 L 8.671875 -6.046875 L 8.640625 -4.96875 L 8.65625 -4.578125 L 8.453125 -4.21875 L 8.109375 -4.0625 L 5.3125 -4.046875 L 4.78125 -3.859375 L 4.609375 -3.484375 L 4.578125 -3.109375 L 4.59375 -2.765625 L 4.578125 -2.421875 L 4.625 -1.65625 L 4.59375 -1.28125 L 4.609375 -0.71875 L 4.375 -0.15625 L 4.015625 0.015625 L 2.046875 0.03125 L 1.484375 -0.15625 Z M 1.3125 -0.5 "/></g></g></g><g fill="#ffffff" fill-opacity="1"><g transform="translate(22.816096, 52.703643)"><g><path d="M 5.203125 0.140625 L 4.453125 0.09375 L 4.109375 -0.03125 L 3.71875 -0.09375 L 2.421875 -0.6875 L 2.125 -0.875 L 1.59375 -1.40625 L 1.15625 -1.953125 L 0.859375 -2.671875 L 0.796875 -3 L 0.75 -3.390625 L 0.875 -3.765625 L 1.234375 -3.9375 L 1.59375 -3.90625 L 1.953125 -3.953125 L 3.328125 -3.90625 L 3.6875 -3.765625 L 3.953125 -3.40625 L 4.21875 -3.15625 L 4.546875 -2.96875 L 4.8125 -2.84375 L 5.21875 -2.734375 L 5.765625 -2.6875 L 6.265625 -2.703125 L 6.9375 -2.90625 L 7.21875 -3.0625 L 7.5 -3.328125 L 7.609375 -3.78125 L 7.515625 -4.25 L 7.265625 -4.46875 L 6.625 -4.734375 L 6.265625 -4.75 L 5.9375 -4.8125 L 4.46875 -4.921875 L 3.828125 -5.0625 L 2.796875 -5.40625 L 2.171875 -5.78125 L 1.671875 -6.25 L 1.21875 -6.84375 L 0.984375 -7.46875 L 0.859375 -7.96875 L 0.84375 -9.171875 L 1.09375 -10.21875 L 1.28125 -10.5 L 1.40625 -10.828125 L 1.640625 -11.0625 L 1.828125 -11.359375 L 2.15625 -11.578125 L 2.40625 -11.8125 L 2.765625 -12.03125 L 3.046875 -12.140625 L 3.34375 -12.3125 L 3.65625 -12.4375 L 5.078125 -12.734375 L 6.09375 -12.75 L 6.484375 -12.65625 L 6.796875 -12.625 L 7.1875 -12.546875 L 8.171875 -12.203125 L 9.3125 -11.421875 L 9.546875 -11.15625 L 9.734375 -10.859375 L 9.96875 -10.578125 L 10.25 -9.921875 L 10.390625 -9.234375 L 10.234375 -8.890625 L 9.890625 -8.671875 L 9.546875 -8.703125 L 9.234375 -8.671875 L 8.046875 -8.703125 L 7.484375 -8.890625 L 6.890625 -9.515625 L 6.625 -9.734375 L 6.234375 -9.875 L 5.078125 -9.84375 L 4.75 -9.765625 L 4.5 -9.65625 L 4.203125 -9.421875 L 4 -9.171875 L 3.953125 -8.703125 L 3.96875 -8.21875 L 4.25 -7.9375 L 4.53125 -7.796875 L 5.28125 -7.515625 L 7.09375 -7.28125 L 8.5625 -6.9375 L 9.515625 -6.5 L 9.828125 -6.25 L 10.25 -5.6875 L 10.609375 -5.03125 L 10.703125 -4.6875 L 10.75 -4.328125 L 10.734375 -3.21875 L 10.6875 -2.890625 L 10.578125 -2.53125 L 10.4375 -2.203125 L 10.078125 -1.640625 L 9.5625 -1.0625 L 9 -0.671875 L 8.0625 -0.15625 L 6.296875 0.171875 L 5.734375 0.203125 Z M 5.203125 0.140625 "/></g></g></g><g fill="#ffffff" fill-opacity="1"><g transform="translate(34.269021, 52.703643)"><g><path d="M 1.328125 -0.5625 L 1.3125 -0.890625 L 1.359375 -1.234375 L 1.296875 -1.578125 L 1.375 -1.9375 L 1.328125 -3.0625 L 1.375 -3.78125 L 1.328125 -4.125 L 1.328125 -4.890625 L 1.359375 -5.21875 L 1.3125 -5.765625 L 1.375 -6.25 L 1.328125 -6.984375 L 1.359375 -7.375 L 1.328125 -7.703125 L 1.359375 -8.0625 L 1.359375 -9.890625 L 1.3125 -10.265625 L 1.3125 -10.609375 L 1.359375 -10.9375 L 1.359375 -11.671875 L 1.40625 -12.046875 L 1.578125 -12.390625 L 2.0625 -12.546875 L 7.4375 -12.53125 L 7.75 -12.453125 L 8.109375 -12.3125 L 8.484375 -12.25 L 9.140625 -11.90625 L 9.671875 -11.546875 L 9.984375 -11.28125 L 10.171875 -11 L 10.40625 -10.75 L 10.640625 -10.453125 L 11 -9.796875 L 11.328125 -8.40625 L 11.3125 -7.34375 L 11.28125 -7.015625 L 11.109375 -6.28125 L 10.984375 -5.953125 L 10.828125 -5.640625 L 10.25 -4.78125 L 9.71875 -4.25 L 9.421875 -4.046875 L 8.8125 -3.65625 L 7.78125 -3.359375 L 7.03125 -3.21875 L 6.109375 -3.203125 L 5.5625 -3.25 L 5.171875 -3.203125 L 4.6875 -3.015625 L 4.5625 -2.703125 L 4.5625 -2.328125 L 4.59375 -1.9375 L 4.546875 -1.609375 L 4.578125 -1.28125 L 4.5625 -0.5625 L 4.40625 -0.171875 L 4.046875 0.015625 L 3.65625 0.015625 L 3.265625 -0.015625 L 2.203125 0 L 1.84375 -0.03125 L 1.46875 -0.171875 Z M 5.140625 -6.125 L 5.546875 -6.09375 L 7.015625 -6.171875 L 7.3125 -6.34375 L 7.59375 -6.53125 L 8 -7.03125 L 8.203125 -7.859375 L 8.046875 -8.703125 L 7.859375 -9.015625 L 7.578125 -9.28125 L 7.3125 -9.484375 L 7 -9.640625 L 5.5625 -9.71875 L 5.109375 -9.671875 L 4.75 -9.53125 L 4.546875 -9.140625 L 4.578125 -6.640625 L 4.796875 -6.28125 Z M 5.140625 -6.125 "/></g></g></g><g fill="#ffffff" fill-opacity="1"><g transform="translate(46.08097, 52.703643)"><g><path d="M 1.375 -0.578125 L 1.328125 -1.96875 L 1.359375 -2.359375 L 1.296875 -3.390625 L 1.34375 -4.125 L 1.296875 -4.53125 L 1.3125 -5.203125 L 1.34375 -5.578125 L 1.34375 -6.484375 L 1.296875 -7 L 1.34375 -12.03125 L 1.484375 -12.40625 L 1.828125 -12.5625 L 2.21875 -12.546875 L 2.5625 -12.609375 L 3.296875 -12.53125 L 3.640625 -12.578125 L 4.71875 -12.546875 L 5.03125 -12.578125 L 5.421875 -12.546875 L 5.78125 -12.578125 L 6.171875 -12.5625 L 6.703125 -12.578125 L 7.140625 -12.546875 L 8.640625 -12.25 L 9.265625 -11.921875 L 10.15625 -11.234375 L 10.328125 -10.96875 L 10.578125 -10.703125 L 11.0625 -9.71875 L 11.15625 -9.359375 L 11.203125 -9.015625 L 11.296875 -8.671875 L 11.28125 -7.25 L 11.078125 -6.578125 L 10.953125 -6.265625 L 10.75 -5.9375 L 10.625 -5.59375 L 10.40625 -5.296875 L 9.90625 -4.8125 L 9.71875 -4.4375 L 9.765625 -4 L 10.3125 -3.0625 L 10.53125 -2.78125 L 10.71875 -2.453125 L 10.9375 -2.140625 L 11.09375 -1.828125 L 11.671875 -0.953125 L 11.90625 -0.5 L 11.828125 -0.125 L 11.453125 -0.03125 L 11.0625 0 L 10.34375 0 L 9.984375 -0.03125 L 9.59375 0 L 8.9375 -0.03125 L 8.484375 -0.140625 L 8.125 -0.46875 L 7.921875 -0.75 L 7.75 -1.0625 L 7.515625 -1.40625 L 7.015625 -2.296875 L 6.890625 -2.640625 L 6.421875 -3.265625 L 6.140625 -3.578125 L 5.6875 -3.71875 L 5.375 -3.703125 L 5.046875 -3.703125 L 4.6875 -3.515625 L 4.53125 -3.15625 L 4.5625 -2.046875 L 4.5 -1.28125 L 4.578125 -0.890625 L 4.546875 -0.515625 L 4.421875 -0.171875 L 3.859375 0 L 3.328125 0 L 2.9375 -0.03125 L 2.203125 0.015625 L 1.859375 0 L 1.515625 -0.171875 Z M 5.046875 -6.609375 L 5.4375 -6.609375 L 5.796875 -6.546875 L 7.203125 -6.671875 L 7.46875 -6.796875 L 7.6875 -7.015625 L 7.875 -7.328125 L 8.03125 -7.6875 L 8.078125 -8.171875 L 8.046875 -8.6875 L 7.921875 -8.984375 L 7.734375 -9.25 L 7.1875 -9.59375 L 6.359375 -9.6875 L 5.375 -9.71875 L 5.078125 -9.6875 L 4.71875 -9.515625 L 4.5 -9.15625 L 4.5625 -7.140625 L 4.734375 -6.765625 Z M 5.046875 -6.609375 "/></g></g></g><g fill="#ffffff" fill-opacity="1"><g transform="translate(58.521224, 52.703643)"><g><path d="M 0.234375 -0.484375 L 0.453125 -1.234375 L 0.609375 -1.59375 L 0.828125 -1.890625 L 1.34375 -3.203125 L 1.84375 -4.125 L 1.96875 -4.484375 L 2.140625 -4.78125 L 2.25 -5.15625 L 2.5 -5.625 L 2.625 -5.953125 L 2.890625 -6.421875 L 3.171875 -7.078125 L 3.375 -7.390625 L 3.46875 -7.703125 L 4.46875 -9.96875 L 4.671875 -10.28125 L 5.4375 -11.90625 L 5.546875 -12.21875 L 5.890625 -12.546875 L 6.46875 -12.734375 L 7.078125 -12.5625 L 7.390625 -12.21875 L 7.5 -11.890625 L 7.671875 -11.609375 L 7.953125 -10.9375 L 8.3125 -10.265625 L 8.578125 -9.640625 L 8.671875 -9.359375 L 9 -8.671875 L 9.109375 -8.328125 L 9.46875 -7.703125 L 9.546875 -7.359375 L 9.734375 -7.0625 L 9.875 -6.75 L 10.078125 -6.421875 L 10.171875 -6.0625 L 10.34375 -5.796875 L 10.46875 -5.4375 L 10.625 -5.140625 L 10.765625 -4.78125 L 10.96875 -4.484375 L 11.21875 -3.828125 L 11.40625 -3.515625 L 11.53125 -3.171875 L 11.828125 -2.53125 L 11.9375 -2.1875 L 12.125 -1.921875 L 12.21875 -1.5625 L 12.453125 -1.25 L 12.578125 -0.9375 L 12.6875 -0.484375 L 12.625 -0.109375 L 12.296875 0 L 11.1875 0.03125 L 10.5625 -0.015625 L 10.234375 0.015625 L 9.765625 -0.15625 L 9.46875 -0.453125 L 9.265625 -0.765625 L 9.171875 -1.09375 L 8.796875 -1.375 L 8.203125 -1.578125 L 7.359375 -1.546875 L 6.984375 -1.578125 L 6.65625 -1.578125 L 6.25 -1.53125 L 5.875 -1.578125 L 4.859375 -1.5625 L 4.5 -1.59375 L 4.078125 -1.421875 L 3.765625 -1.078125 L 3.46875 -0.46875 L 3.140625 -0.140625 L 2.734375 0.03125 L 2.265625 -0.015625 L 0.6875 -0.015625 L 0.328125 -0.109375 Z M 5.78125 -4.4375 L 7.1875 -4.453125 L 7.484375 -4.59375 L 7.515625 -4.921875 L 7.390625 -5.25 L 7.21875 -5.59375 L 7.140625 -5.890625 L 6.953125 -6.1875 L 6.71875 -6.890625 L 6.5 -7.03125 L 6.265625 -6.859375 L 6.109375 -6.578125 L 5.390625 -4.9375 L 5.4375 -4.578125 Z M 5.78125 -4.4375 "/></g></g></g><g fill="#ffffff" fill-opacity="1"><g transform="translate(71.553867, 52.703643)"><g><path d="M 0.234375 -0.484375 L 0.453125 -1.234375 L 0.609375 -1.59375 L 0.828125 -1.890625 L 1.34375 -3.203125 L 1.84375 -4.125 L 1.96875 -4.484375 L 2.140625 -4.78125 L 2.25 -5.15625 L 2.5 -5.625 L 2.625 -5.953125 L 2.890625 -6.421875 L 3.171875 -7.078125 L 3.375 -7.390625 L 3.46875 -7.703125 L 4.46875 -9.96875 L 4.671875 -10.28125 L 5.4375 -11.90625 L 5.546875 -12.21875 L 5.890625 -12.546875 L 6.46875 -12.734375 L 7.078125 -12.5625 L 7.390625 -12.21875 L 7.5 -11.890625 L 7.671875 -11.609375 L 7.953125 -10.9375 L 8.3125 -10.265625 L 8.578125 -9.640625 L 8.671875 -9.359375 L 9 -8.671875 L 9.109375 -8.328125 L 9.46875 -7.703125 L 9.546875 -7.359375 L 9.734375 -7.0625 L 9.875 -6.75 L 10.078125 -6.421875 L 10.171875 -6.0625 L 10.34375 -5.796875 L 10.46875 -5.4375 L 10.625 -5.140625 L 10.765625 -4.78125 L 10.96875 -4.484375 L 11.21875 -3.828125 L 11.40625 -3.515625 L 11.53125 -3.171875 L 11.828125 -2.53125 L 11.9375 -2.1875 L 12.125 -1.921875 L 12.21875 -1.5625 L 12.453125 -1.25 L 12.578125 -0.9375 L 12.6875 -0.484375 L 12.625 -0.109375 L 12.296875 0 L 11.1875 0.03125 L 10.5625 -0.015625 L 10.234375 0.015625 L 9.765625 -0.15625 L 9.46875 -0.453125 L 9.265625 -0.765625 L 9.171875 -1.09375 L 8.796875 -1.375 L 8.203125 -1.578125 L 7.359375 -1.546875 L 6.984375 -1.578125 L 6.65625 -1.578125 L 6.25 -1.53125 L 5.875 -1.578125 L 4.859375 -1.5625 L 4.5 -1.59375 L 4.078125 -1.421875 L 3.765625 -1.078125 L 3.46875 -0.46875 L 3.140625 -0.140625 L 2.734375 0.03125 L 2.265625 -0.015625 L 0.6875 -0.015625 L 0.328125 -0.109375 Z M 5.78125 -4.4375 L 7.1875 -4.453125 L 7.484375 -4.59375 L 7.515625 -4.921875 L 7.390625 -5.25 L 7.21875 -5.59375 L 7.140625 -5.890625 L 6.953125 -6.1875 L 6.71875 -6.890625 L 6.5 -7.03125 L 6.265625 -6.859375 L 6.109375 -6.578125 L 5.390625 -4.9375 L 5.4375 -4.578125 Z M 5.78125 -4.4375 "/></g></g></g><g fill="#ffffff" fill-opacity="1"><g transform="translate(84.586511, 52.703643)"><g><path d="M 1.375 -0.53125 L 1.328125 -0.890625 L 1.359375 -1.21875 L 1.34375 -1.578125 L 1.375 -1.96875 L 1.296875 -2.6875 L 1.34375 -3.40625 L 1.328125 -3.78125 L 1.375 -4.109375 L 1.34375 -8.421875 L 1.296875 -8.796875 L 1.375 -9.515625 L 1.328125 -9.875 L 1.3125 -10.21875 L 1.359375 -11.296875 L 1.328125 -11.65625 L 1.328125 -12.03125 L 1.578125 -12.359375 L 1.859375 -12.578125 L 3.328125 -12.546875 L 3.6875 -12.578125 L 4.0625 -12.546875 L 4.375 -12.375 L 4.5625 -11.96875 L 4.578125 -11.609375 L 4.625 -11.28125 L 4.578125 -8.671875 L 4.625 -8.34375 L 4.609375 -7.96875 L 4.9375 -7.78125 L 5.375 -7.796875 L 6.15625 -7.953125 L 6.46875 -8.09375 L 6.78125 -8.296875 L 7.0625 -8.53125 L 7.265625 -8.8125 L 7.5 -9.078125 L 7.640625 -9.421875 L 7.828125 -10.140625 L 7.921875 -10.890625 L 7.859375 -12 L 8.0625 -12.375 L 8.484375 -12.578125 L 9.015625 -12.53125 L 10.640625 -12.578125 L 11.015625 -12.390625 L 11.171875 -11.96875 L 11.1875 -11.25 L 11.109375 -10.921875 L 11.15625 -10.515625 L 11.046875 -9.765625 L 11.015625 -9.421875 L 10.84375 -8.75 L 10.6875 -8.359375 L 10.59375 -8.046875 L 10.40625 -7.703125 L 10.015625 -7.09375 L 9.5 -6.578125 L 9.171875 -6.375 L 9.015625 -5.953125 L 9.015625 -5.5625 L 9.640625 -4.671875 L 10.15625 -3.734375 L 10.375 -3.40625 L 10.515625 -3.09375 L 10.734375 -2.796875 L 11.078125 -2.1875 L 11.34375 -1.890625 L 11.484375 -1.546875 L 11.671875 -1.234375 L 11.921875 -0.96875 L 12.078125 -0.53125 L 12 -0.125 L 11.6875 0.03125 L 11.3125 0 L 9.3125 0 L 8.703125 -0.125 L 8.359375 -0.390625 L 7.875 -1.328125 L 7.640625 -1.640625 L 7.484375 -1.9375 L 7.265625 -2.25 L 6.828125 -3.171875 L 6.09375 -4.40625 L 5.75 -4.671875 L 5.203125 -4.78125 L 4.75 -4.5625 L 4.59375 -4.234375 L 4.59375 -3.125 L 4.5625 -2.734375 L 4.609375 -0.5625 L 4.4375 -0.15625 L 3.90625 0.015625 L 2.03125 0.03125 L 1.515625 -0.15625 Z M 1.375 -0.53125 "/></g></g></g><g fill="#ffffff" fill-opacity="1"><g transform="translate(97.026765, 52.703643)"><g/></g></g><g fill="#ffffff" fill-opacity="1"><g transform="translate(101.891568, 52.703643)"><g><path d="M 1.328125 -0.515625 L 1.359375 -0.859375 L 1.296875 -3.40625 L 1.359375 -3.75 L 1.3125 -11.671875 L 1.34375 -12.046875 L 1.546875 -12.40625 L 1.90625 -12.609375 L 2.421875 -12.453125 L 2.9375 -12.078125 L 3.34375 -11.671875 L 3.53125 -11.421875 L 3.78125 -11.1875 L 3.984375 -10.921875 L 4.21875 -10.671875 L 4.53125 -10.390625 L 4.953125 -9.859375 L 6.1875 -8.578125 L 6.40625 -8.296875 L 6.703125 -8.0625 L 6.90625 -7.75 L 7.140625 -7.515625 L 7.46875 -7.421875 L 7.859375 -7.546875 L 10.515625 -10.359375 L 10.6875 -10.625 L 11.703125 -11.6875 L 12.125 -12.1875 L 12.5625 -12.4375 L 13.109375 -12.609375 L 13.46875 -12.390625 L 13.65625 -12.046875 L 13.640625 -11.671875 L 13.6875 -11.359375 L 13.640625 -10.984375 L 13.703125 -5.90625 L 13.640625 -5.578125 L 13.6875 -5.21875 L 13.640625 -4.84375 L 13.65625 -4.484375 L 13.609375 -4.125 L 13.640625 -3.421875 L 13.609375 -3.09375 L 13.6875 -0.9375 L 13.625 -0.578125 L 13.421875 -0.203125 L 13.09375 0.015625 L 10.9375 0 L 10.53125 -0.140625 L 10.359375 -0.515625 L 10.40625 -3 L 10.359375 -3.65625 L 10.375 -4.015625 L 10.359375 -4.34375 L 10.40625 -4.6875 L 10.359375 -5.046875 L 10.21875 -5.265625 L 10 -5.21875 L 9.75 -4.96875 L 9.515625 -4.671875 L 8 -3.140625 L 7.703125 -2.921875 L 7.28125 -2.921875 L 6.703125 -3.40625 L 6.46875 -3.71875 L 5.453125 -4.671875 L 5.015625 -5.21875 L 4.734375 -5.296875 L 4.578125 -5.046875 L 4.65625 -4 L 4.59375 -1.578125 L 4.65625 -1.203125 L 4.671875 -0.828125 L 4.625 -0.484375 L 4.4375 -0.203125 L 3.890625 -0.03125 L 1.921875 0 L 1.484375 -0.203125 Z M 1.328125 -0.515625 "/></g></g></g><g fill="#ffffff" fill-opacity="1"><g transform="translate(116.898848, 52.703643)"><g><path d="M 0.234375 -0.484375 L 0.453125 -1.234375 L 0.609375 -1.59375 L 0.828125 -1.890625 L 1.34375 -3.203125 L 1.84375 -4.125 L 1.96875 -4.484375 L 2.140625 -4.78125 L 2.25 -5.15625 L 2.5 -5.625 L 2.625 -5.953125 L 2.890625 -6.421875 L 3.171875 -7.078125 L 3.375 -7.390625 L 3.46875 -7.703125 L 4.46875 -9.96875 L 4.671875 -10.28125 L 5.4375 -11.90625 L 5.546875 -12.21875 L 5.890625 -12.546875 L 6.46875 -12.734375 L 7.078125 -12.5625 L 7.390625 -12.21875 L 7.5 -11.890625 L 7.671875 -11.609375 L 7.953125 -10.9375 L 8.3125 -10.265625 L 8.578125 -9.640625 L 8.671875 -9.359375 L 9 -8.671875 L 9.109375 -8.328125 L 9.46875 -7.703125 L 9.546875 -7.359375 L 9.734375 -7.0625 L 9.875 -6.75 L 10.078125 -6.421875 L 10.171875 -6.0625 L 10.34375 -5.796875 L 10.46875 -5.4375 L 10.625 -5.140625 L 10.765625 -4.78125 L 10.96875 -4.484375 L 11.21875 -3.828125 L 11.40625 -3.515625 L 11.53125 -3.171875 L 11.828125 -2.53125 L 11.9375 -2.1875 L 12.125 -1.921875 L 12.21875 -1.5625 L 12.453125 -1.25 L 12.578125 -0.9375 L 12.6875 -0.484375 L 12.625 -0.109375 L 12.296875 0 L 11.1875 0.03125 L 10.5625 -0.015625 L 10.234375 0.015625 L 9.765625 -0.15625 L 9.46875 -0.453125 L 9.265625 -0.765625 L 9.171875 -1.09375 L 8.796875 -1.375 L 8.203125 -1.578125 L 7.359375 -1.546875 L 6.984375 -1.578125 L 6.65625 -1.578125 L 6.25 -1.53125 L 5.875 -1.578125 L 4.859375 -1.5625 L 4.5 -1.59375 L 4.078125 -1.421875 L 3.765625 -1.078125 L 3.46875 -0.46875 L 3.140625 -0.140625 L 2.734375 0.03125 L 2.265625 -0.015625 L 0.6875 -0.015625 L 0.328125 -0.109375 Z M 5.78125 -4.4375 L 7.1875 -4.453125 L 7.484375 -4.59375 L 7.515625 -4.921875 L 7.390625 -5.25 L 7.21875 -5.59375 L 7.140625 -5.890625 L 6.953125 -6.1875 L 6.71875 -6.890625 L 6.5 -7.03125 L 6.265625 -6.859375 L 6.109375 -6.578125 L 5.390625 -4.9375 L 5.4375 -4.578125 Z M 5.78125 -4.4375 "/></g></g></g><g fill="#ffffff" fill-opacity="1"><g transform="translate(129.931491, 52.703643)"><g><path d="M 1.375 -0.53125 L 1.328125 -0.890625 L 1.359375 -1.21875 L 1.34375 -1.578125 L 1.375 -1.96875 L 1.296875 -2.6875 L 1.34375 -3.40625 L 1.328125 -3.78125 L 1.375 -4.109375 L 1.34375 -8.421875 L 1.296875 -8.796875 L 1.375 -9.515625 L 1.328125 -9.875 L 1.3125 -10.21875 L 1.359375 -11.296875 L 1.328125 -11.65625 L 1.328125 -12.03125 L 1.578125 -12.359375 L 1.859375 -12.578125 L 3.328125 -12.546875 L 3.6875 -12.578125 L 4.0625 -12.546875 L 4.375 -12.375 L 4.5625 -11.96875 L 4.578125 -11.609375 L 4.625 -11.28125 L 4.578125 -8.671875 L 4.625 -8.34375 L 4.609375 -7.96875 L 4.9375 -7.78125 L 5.375 -7.796875 L 6.15625 -7.953125 L 6.46875 -8.09375 L 6.78125 -8.296875 L 7.0625 -8.53125 L 7.265625 -8.8125 L 7.5 -9.078125 L 7.640625 -9.421875 L 7.828125 -10.140625 L 7.921875 -10.890625 L 7.859375 -12 L 8.0625 -12.375 L 8.484375 -12.578125 L 9.015625 -12.53125 L 10.640625 -12.578125 L 11.015625 -12.390625 L 11.171875 -11.96875 L 11.1875 -11.25 L 11.109375 -10.921875 L 11.15625 -10.515625 L 11.046875 -9.765625 L 11.015625 -9.421875 L 10.84375 -8.75 L 10.6875 -8.359375 L 10.59375 -8.046875 L 10.40625 -7.703125 L 10.015625 -7.09375 L 9.5 -6.578125 L 9.171875 -6.375 L 9.015625 -5.953125 L 9.015625 -5.5625 L 9.640625 -4.671875 L 10.15625 -3.734375 L 10.375 -3.40625 L 10.515625 -3.09375 L 10.734375 -2.796875 L 11.078125 -2.1875 L 11.34375 -1.890625 L 11.484375 -1.546875 L 11.671875 -1.234375 L 11.921875 -0.96875 L 12.078125 -0.53125 L 12 -0.125 L 11.6875 0.03125 L 11.3125 0 L 9.3125 0 L 8.703125 -0.125 L 8.359375 -0.390625 L 7.875 -1.328125 L 7.640625 -1.640625 L 7.484375 -1.9375 L 7.265625 -2.25 L 6.828125 -3.171875 L 6.09375 -4.40625 L 5.75 -4.671875 L 5.203125 -4.78125 L 4.75 -4.5625 L 4.59375 -4.234375 L 4.59375 -3.125 L 4.5625 -2.734375 L 4.609375 -0.5625 L 4.4375 -0.15625 L 3.90625 0.015625 L 2.03125 0.03125 L 1.515625 -0.15625 Z M 1.375 -0.53125 "/></g></g></g><g fill="#ffffff" fill-opacity="1"><g transform="translate(142.371746, 52.703643)"><g><path d="M 1.296875 -0.515625 L 1.359375 -0.875 L 1.375 -1.234375 L 1.34375 -1.9375 L 1.34375 -2.296875 L 1.3125 -2.703125 L 1.359375 -3.03125 L 1.34375 -3.375 L 1.375 -3.765625 L 1.328125 -4.140625 L 1.359375 -4.859375 L 1.3125 -5.5625 L 1.359375 -5.9375 L 1.359375 -9.15625 L 1.328125 -9.484375 L 1.359375 -9.859375 L 1.296875 -10.765625 L 1.359375 -11.296875 L 1.328125 -12.015625 L 1.515625 -12.40625 L 2.03125 -12.53125 L 4.375 -12.578125 L 4.703125 -12.546875 L 5.40625 -12.5625 L 5.765625 -12.53125 L 6.546875 -12.5625 L 6.90625 -12.515625 L 7.234375 -12.546875 L 8.671875 -12.53125 L 9.046875 -12.375 L 9.234375 -12.015625 L 9.171875 -11.671875 L 9.15625 -11.28125 L 9.203125 -10.9375 L 9.25 -10.203125 L 9.046875 -9.875 L 8.671875 -9.671875 L 5.21875 -9.65625 L 4.671875 -9.5 L 4.484375 -8.984375 L 4.53125 -8.421875 L 4.734375 -8.09375 L 5.046875 -7.90625 L 6.46875 -7.921875 L 6.875 -7.875 L 7.25 -7.875 L 7.609375 -7.921875 L 8.328125 -7.90625 L 8.640625 -7.703125 L 8.796875 -7.359375 L 8.828125 -7 L 8.796875 -5.578125 L 8.625 -5.25 L 8.265625 -5.046875 L 7.9375 -5.03125 L 7.5625 -5.0625 L 7.078125 -5.03125 L 6.125 -5.078125 L 5.765625 -5.046875 L 5.0625 -5.046875 L 4.734375 -4.84375 L 4.578125 -4.46875 L 4.5625 -3.59375 L 4.71875 -3.03125 L 5.09375 -2.8125 L 5.5 -2.859375 L 5.890625 -2.8125 L 6.234375 -2.875 L 8.59375 -2.84375 L 9.140625 -2.65625 L 9.375 -2.296875 L 9.328125 -1.953125 L 9.359375 -0.84375 L 9.3125 -0.5 L 9.15625 -0.15625 L 8.78125 0.015625 L 8.4375 0.046875 L 7.34375 -0.015625 L 6.25 0.03125 L 5.921875 -0.015625 L 1.859375 0.015625 L 1.53125 -0.171875 Z M 1.296875 -0.515625 "/></g></g></g><g fill="#ffffff" fill-opacity="1"><g transform="translate(152.657834, 52.703643)"><g><path d="M 10.59375 -0.28125 L 10.359375 -0.515625 L 10.140625 -0.796875 L 9.859375 -1.015625 L 9.625 -1.3125 L 7.875 -3.046875 L 7.59375 -3.28125 L 5.03125 -5.796875 L 4.796875 -5.859375 L 4.609375 -5.640625 L 4.6875 -5.265625 L 4.625 -0.859375 L 4.6875 -0.5 L 4.53125 -0.140625 L 4.171875 0.03125 L 3.75 0 L 3.375 0.046875 L 2.484375 0 L 1.859375 0.03125 L 1.53125 -0.15625 L 1.359375 -0.5625 L 1.359375 -0.890625 L 1.3125 -1.25 L 1.359375 -1.9375 L 1.328125 -2.296875 L 1.34375 -3.03125 L 1.296875 -3.40625 L 1.296875 -3.75 L 1.328125 -4.140625 L 1.328125 -4.484375 L 1.359375 -4.8125 L 1.296875 -7.375 L 1.34375 -7.75 L 1.328125 -8.125 L 1.359375 -8.453125 L 1.3125 -9.1875 L 1.34375 -9.546875 L 1.3125 -12.0625 L 1.546875 -12.40625 L 1.96875 -12.625 L 2.453125 -12.484375 L 3.171875 -12 L 4.140625 -11 L 4.375 -10.703125 L 4.6875 -10.484375 L 4.859375 -10.21875 L 5.203125 -9.984375 L 5.40625 -9.71875 L 5.953125 -9.25 L 6.34375 -8.84375 L 6.53125 -8.59375 L 6.828125 -8.390625 L 7.453125 -7.734375 L 7.71875 -7.515625 L 8.515625 -6.71875 L 8.765625 -6.640625 L 8.84375 -6.9375 L 8.828125 -7.640625 L 8.90625 -8.03125 L 8.90625 -8.359375 L 8.828125 -8.75 L 8.84375 -12.015625 L 9.03125 -12.390625 L 9.46875 -12.5625 L 9.828125 -12.546875 L 10.140625 -12.578125 L 10.515625 -12.53125 L 10.921875 -12.5625 L 11.25 -12.5625 L 11.609375 -12.53125 L 12.015625 -12.359375 L 12.21875 -12.03125 L 12.1875 -11.09375 L 12.21875 -10.5625 L 12.15625 -10.203125 L 12.15625 -9.484375 L 12.1875 -9.140625 L 12.140625 -8.421875 L 12.203125 -6.265625 L 12.171875 -5.875 L 12.25 -5.375 L 12.15625 -0.484375 L 12 -0.109375 L 11.578125 0.09375 L 11.109375 -0.046875 Z M 10.59375 -0.28125 "/></g></g></g></svg>