<svg xmlns="http://www.w3.org/2000/svg" xmlns:xlink="http://www.w3.org/1999/xlink" width="227" zoomAndPan="magnify" viewBox="0 0 170.25 56.999997" height="76" preserveAspectRatio="xMidYMid meet" version="1.0"><defs><g/></defs><g fill="#ffffff" fill-opacity="1"><g transform="translate(0.000000000000010611, 52.387677)"><g><path d="M 5.203125 0.140625 L 4.4375 0.09375 L 4.109375 -0.03125 L 3.703125 -0.09375 L 2.421875 -0.6875 L 2.109375 -0.875 L 1.59375 -1.390625 L 1.140625 -1.953125 L 0.859375 -2.671875 L 0.78125 -3 L 0.75 -3.390625 L 0.875 -3.765625 L 1.234375 -3.921875 L 1.59375 -3.90625 L 1.953125 -3.9375 L 3.3125 -3.90625 L 3.671875 -3.765625 L 3.9375 -3.40625 L 4.21875 -3.15625 L 4.53125 -2.953125 L 4.796875 -2.828125 L 5.21875 -2.71875 L 5.75 -2.6875 L 6.25 -2.703125 L 6.921875 -2.90625 L 7.203125 -3.0625 L 7.484375 -3.3125 L 7.59375 -3.78125 L 7.515625 -4.25 L 7.265625 -4.46875 L 6.609375 -4.734375 L 6.25 -4.75 L 5.9375 -4.796875 L 4.46875 -4.90625 L 3.8125 -5.046875 L 2.796875 -5.390625 L 2.171875 -5.765625 L 1.671875 -6.234375 L 1.21875 -6.828125 L 0.984375 -7.453125 L 0.859375 -7.953125 L 0.84375 -9.15625 L 1.09375 -10.203125 L 1.265625 -10.484375 L 1.390625 -10.8125 L 1.625 -11.046875 L 1.828125 -11.34375 L 2.15625 -11.5625 L 2.40625 -11.796875 L 2.765625 -12 L 3.046875 -12.109375 L 3.328125 -12.296875 L 3.65625 -12.421875 L 5.078125 -12.703125 L 6.078125 -12.71875 L 6.46875 -12.640625 L 6.796875 -12.59375 L 7.171875 -12.53125 L 8.15625 -12.1875 L 9.296875 -11.390625 L 9.53125 -11.125 L 9.71875 -10.84375 L 9.953125 -10.5625 L 10.234375 -9.90625 L 10.375 -9.21875 L 10.21875 -8.875 L 9.875 -8.65625 L 9.53125 -8.6875 L 9.21875 -8.65625 L 8.03125 -8.6875 L 7.46875 -8.875 L 6.875 -9.5 L 6.609375 -9.71875 L 6.21875 -9.859375 L 5.078125 -9.828125 L 4.75 -9.75 L 4.5 -9.640625 L 4.1875 -9.40625 L 4 -9.15625 L 3.9375 -8.6875 L 3.953125 -8.203125 L 4.25 -7.921875 L 4.515625 -7.78125 L 5.265625 -7.515625 L 7.078125 -7.28125 L 8.546875 -6.921875 L 9.5 -6.484375 L 9.796875 -6.234375 L 10.234375 -5.6875 L 10.59375 -5.015625 L 10.6875 -4.671875 L 10.734375 -4.3125 L 10.71875 -3.203125 L 10.65625 -2.890625 L 10.5625 -2.53125 L 10.40625 -2.203125 L 10.046875 -1.625 L 9.546875 -1.0625 L 8.984375 -0.65625 L 8.046875 -0.15625 L 6.296875 0.171875 L 5.71875 0.203125 Z M 5.203125 0.140625 "/></g></g></g><g fill="#ffffff" fill-opacity="1"><g transform="translate(11.433594, 52.387677)"><g><path d="M 1.34375 -0.515625 L 1.3125 -0.890625 L 1.375 -1.234375 L 1.34375 -1.59375 L 1.359375 -3.78125 L 1.328125 -4.109375 L 1.3125 -4.828125 L 1.359375 -5.171875 L 1.3125 -5.890625 L 1.359375 -6.234375 L 1.3125 -7 L 1.359375 -7.34375 L 1.328125 -7.703125 L 1.375 -8.03125 L 1.328125 -8.40625 L 1.359375 -8.765625 L 1.34375 -9.109375 L 1.390625 -9.5 L 1.359375 -9.84375 L 1.3125 -10.203125 L 1.359375 -10.578125 L 1.390625 -10.921875 L 1.296875 -11.84375 L 1.515625 -12.328125 L 2.046875 -12.53125 L 3.90625 -12.5625 L 4.375 -12.34375 L 4.546875 -11.8125 L 4.59375 -10.9375 L 4.546875 -10.53125 L 4.609375 -7.75 L 4.546875 -7.359375 L 4.609375 -6.96875 L 4.546875 -6.46875 L 4.5625 -5.578125 L 4.53125 -5.203125 L 4.5625 -4.84375 L 4.546875 -4.4375 L 4.609375 -4.109375 L 4.59375 -3.4375 L 4.703125 -3.046875 L 5.078125 -2.890625 L 8.21875 -2.84375 L 8.625 -2.90625 L 8.90625 -2.71875 L 9.140625 -2.328125 L 9.09375 -1.984375 L 9.140625 -1.59375 L 9.109375 -1.265625 L 9.09375 -0.90625 L 9.125 -0.515625 L 8.921875 -0.203125 L 8.421875 -0.015625 L 2.078125 0.015625 L 1.5 -0.203125 Z M 1.34375 -0.515625 "/></g></g></g><g fill="#ffffff" fill-opacity="1"><g transform="translate(21.075088, 52.387677)"><g><path d="M 0.234375 -0.484375 L 0.453125 -1.234375 L 0.609375 -1.59375 L 0.828125 -1.875 L 1.34375 -3.1875 L 1.84375 -4.125 L 1.96875 -4.484375 L 2.125 -4.765625 L 2.234375 -5.140625 L 2.484375 -5.609375 L 2.609375 -5.953125 L 2.890625 -6.421875 L 3.171875 -7.0625 L 3.375 -7.390625 L 3.453125 -7.6875 L 4.46875 -9.953125 L 4.65625 -10.265625 L 5.4375 -11.875 L 5.53125 -12.203125 L 5.875 -12.53125 L 6.453125 -12.703125 L 7.0625 -12.546875 L 7.390625 -12.203125 L 7.484375 -11.859375 L 7.65625 -11.59375 L 7.9375 -10.921875 L 8.296875 -10.25 L 8.5625 -9.625 L 8.65625 -9.34375 L 8.984375 -8.65625 L 9.09375 -8.3125 L 9.4375 -7.6875 L 9.53125 -7.34375 L 9.71875 -7.046875 L 9.859375 -6.734375 L 10.046875 -6.421875 L 10.15625 -6.0625 L 10.328125 -5.78125 L 10.453125 -5.4375 L 10.609375 -5.125 L 10.75 -4.765625 L 10.953125 -4.484375 L 11.203125 -3.8125 L 11.375 -3.515625 L 11.5 -3.171875 L 11.8125 -2.53125 L 11.921875 -2.1875 L 12.09375 -1.921875 L 12.203125 -1.5625 L 12.4375 -1.25 L 12.5625 -0.9375 L 12.671875 -0.484375 L 12.59375 -0.109375 L 12.28125 0 L 11.171875 0.03125 L 10.53125 -0.015625 L 10.21875 0.015625 L 9.75 -0.15625 L 9.4375 -0.453125 L 9.25 -0.765625 L 9.15625 -1.09375 L 8.78125 -1.375 L 8.1875 -1.578125 L 7.34375 -1.546875 L 6.96875 -1.578125 L 6.65625 -1.578125 L 6.234375 -1.515625 L 5.859375 -1.578125 L 4.859375 -1.5625 L 4.5 -1.59375 L 4.0625 -1.421875 L 3.765625 -1.078125 L 3.453125 -0.46875 L 3.140625 -0.140625 L 2.71875 0.03125 L 2.265625 -0.015625 L 0.6875 -0.015625 L 0.328125 -0.109375 Z M 5.765625 -4.421875 L 7.171875 -4.4375 L 7.46875 -4.59375 L 7.515625 -4.90625 L 7.390625 -5.234375 L 7.203125 -5.59375 L 7.140625 -5.875 L 6.9375 -6.1875 L 6.703125 -6.875 L 6.484375 -7.03125 L 6.25 -6.84375 L 6.09375 -6.5625 L 5.375 -4.921875 L 5.4375 -4.5625 Z M 5.765625 -4.421875 "/></g></g></g><g fill="#ffffff" fill-opacity="1"><g transform="translate(34.085734, 52.387677)"><g><path d="M 0.234375 -0.484375 L 0.453125 -1.234375 L 0.609375 -1.59375 L 0.828125 -1.875 L 1.34375 -3.1875 L 1.84375 -4.125 L 1.96875 -4.484375 L 2.125 -4.765625 L 2.234375 -5.140625 L 2.484375 -5.609375 L 2.609375 -5.953125 L 2.890625 -6.421875 L 3.171875 -7.0625 L 3.375 -7.390625 L 3.453125 -7.6875 L 4.46875 -9.953125 L 4.65625 -10.265625 L 5.4375 -11.875 L 5.53125 -12.203125 L 5.875 -12.53125 L 6.453125 -12.703125 L 7.0625 -12.546875 L 7.390625 -12.203125 L 7.484375 -11.859375 L 7.65625 -11.59375 L 7.9375 -10.921875 L 8.296875 -10.25 L 8.5625 -9.625 L 8.65625 -9.34375 L 8.984375 -8.65625 L 9.09375 -8.3125 L 9.4375 -7.6875 L 9.53125 -7.34375 L 9.71875 -7.046875 L 9.859375 -6.734375 L 10.046875 -6.421875 L 10.15625 -6.0625 L 10.328125 -5.78125 L 10.453125 -5.4375 L 10.609375 -5.125 L 10.75 -4.765625 L 10.953125 -4.484375 L 11.203125 -3.8125 L 11.375 -3.515625 L 11.5 -3.171875 L 11.8125 -2.53125 L 11.921875 -2.1875 L 12.09375 -1.921875 L 12.203125 -1.5625 L 12.4375 -1.25 L 12.5625 -0.9375 L 12.671875 -0.484375 L 12.59375 -0.109375 L 12.28125 0 L 11.171875 0.03125 L 10.53125 -0.015625 L 10.21875 0.015625 L 9.75 -0.15625 L 9.4375 -0.453125 L 9.25 -0.765625 L 9.15625 -1.09375 L 8.78125 -1.375 L 8.1875 -1.578125 L 7.34375 -1.546875 L 6.96875 -1.578125 L 6.65625 -1.578125 L 6.234375 -1.515625 L 5.859375 -1.578125 L 4.859375 -1.5625 L 4.5 -1.59375 L 4.0625 -1.421875 L 3.765625 -1.078125 L 3.453125 -0.46875 L 3.140625 -0.140625 L 2.71875 0.03125 L 2.265625 -0.015625 L 0.6875 -0.015625 L 0.328125 -0.109375 Z M 5.765625 -4.421875 L 7.171875 -4.4375 L 7.46875 -4.59375 L 7.515625 -4.90625 L 7.390625 -5.234375 L 7.203125 -5.59375 L 7.140625 -5.875 L 6.9375 -6.1875 L 6.703125 -6.875 L 6.484375 -7.03125 L 6.25 -6.84375 L 6.09375 -6.5625 L 5.375 -4.921875 L 5.4375 -4.5625 Z M 5.765625 -4.421875 "/></g></g></g><g fill="#ffffff" fill-opacity="1"><g transform="translate(47.096381, 52.387677)"><g><path d="M 1.328125 -0.5625 L 1.3125 -0.890625 L 1.359375 -1.234375 L 1.296875 -1.578125 L 1.375 -1.9375 L 1.328125 -3.0625 L 1.375 -3.78125 L 1.328125 -4.125 L 1.328125 -4.875 L 1.359375 -5.21875 L 1.3125 -5.75 L 1.375 -6.234375 L 1.328125 -6.96875 L 1.359375 -7.359375 L 1.328125 -7.6875 L 1.359375 -8.046875 L 1.359375 -9.875 L 1.3125 -10.25 L 1.3125 -10.59375 L 1.359375 -10.921875 L 1.359375 -11.65625 L 1.390625 -12.03125 L 1.578125 -12.359375 L 2.0625 -12.53125 L 7.421875 -12.515625 L 7.75 -12.4375 L 8.09375 -12.296875 L 8.484375 -12.21875 L 9.125 -11.875 L 9.65625 -11.53125 L 9.96875 -11.25 L 10.15625 -10.984375 L 10.390625 -10.734375 L 10.625 -10.4375 L 10.984375 -9.78125 L 11.3125 -8.390625 L 11.296875 -7.328125 L 11.25 -7 L 11.09375 -6.265625 L 10.96875 -5.953125 L 10.8125 -5.625 L 10.234375 -4.765625 L 9.703125 -4.25 L 9.40625 -4.03125 L 8.796875 -3.65625 L 7.765625 -3.34375 L 7.03125 -3.203125 L 6.09375 -3.1875 L 5.5625 -3.25 L 5.15625 -3.1875 L 4.671875 -3.015625 L 4.546875 -2.703125 L 4.546875 -2.328125 L 4.59375 -1.9375 L 4.53125 -1.609375 L 4.5625 -1.265625 L 4.546875 -0.5625 L 4.390625 -0.171875 L 4.03125 0.015625 L 3.65625 0.015625 L 3.265625 -0.015625 L 2.203125 0 L 1.84375 -0.03125 L 1.46875 -0.171875 Z M 5.125 -6.109375 L 5.53125 -6.078125 L 7 -6.171875 L 7.296875 -6.328125 L 7.578125 -6.53125 L 8 -7.03125 L 8.1875 -7.84375 L 8.03125 -8.6875 L 7.84375 -9 L 7.5625 -9.265625 L 7.296875 -9.46875 L 6.984375 -9.625 L 5.5625 -9.703125 L 5.109375 -9.65625 L 4.75 -9.515625 L 4.53125 -9.125 L 4.5625 -6.625 L 4.78125 -6.265625 Z M 5.125 -6.109375 "/></g></g></g><g fill="#ffffff" fill-opacity="1"><g transform="translate(58.888393, 52.387677)"><g><path d="M 3.4375 -0.5625 L 3.421875 -1.953125 L 3.453125 -2.3125 L 3.40625 -3.40625 L 3.421875 -3.78125 L 3.40625 -4.140625 L 3.484375 -4.671875 L 3.421875 -5.203125 L 3.421875 -5.921875 L 3.453125 -6.265625 L 3.421875 -6.609375 L 3.484375 -7.171875 L 3.421875 -9.140625 L 3.25 -9.484375 L 2.921875 -9.671875 L 1.328125 -9.703125 L 0.859375 -9.640625 L 0.5 -9.828125 L 0.296875 -10.21875 L 0.328125 -12 L 0.5 -12.359375 L 0.890625 -12.546875 L 6.234375 -12.515625 L 6.65625 -12.5625 L 7 -12.5625 L 7.359375 -12.53125 L 7.71875 -12.53125 L 8.125 -12.578125 L 8.453125 -12.578125 L 8.75 -12.546875 L 9.171875 -12.578125 L 9.53125 -12.40625 L 9.71875 -12.046875 L 9.671875 -10.578125 L 9.71875 -10.203125 L 9.53125 -9.84375 L 9.125 -9.671875 L 8.140625 -9.703125 L 7.8125 -9.65625 L 7.453125 -9.671875 L 7.15625 -9.65625 L 6.75 -9.5 L 6.609375 -9.171875 L 6.65625 -8.78125 L 6.59375 -8.421875 L 6.671875 -4.859375 L 6.609375 -4.109375 L 6.65625 -3.78125 L 6.609375 -2.6875 L 6.5625 -2.3125 L 6.609375 -2 L 6.625 -1.296875 L 6.59375 -0.875 L 6.609375 -0.53125 L 6.46875 -0.171875 L 6.109375 -0.03125 L 5 -0.03125 L 4.65625 0 L 4.296875 -0.03125 L 3.953125 0 L 3.578125 -0.171875 Z M 3.4375 -0.5625 "/></g></g></g><g fill="#ffffff" fill-opacity="1"><g transform="translate(68.906227, 52.387677)"><g><path d="M 1.375 -0.578125 L 1.328125 -1.96875 L 1.359375 -2.34375 L 1.296875 -3.390625 L 1.34375 -4.125 L 1.296875 -4.515625 L 1.3125 -5.203125 L 1.34375 -5.578125 L 1.34375 -6.46875 L 1.296875 -6.984375 L 1.34375 -12 L 1.484375 -12.390625 L 1.828125 -12.546875 L 2.21875 -12.53125 L 2.5625 -12.578125 L 3.296875 -12.515625 L 3.640625 -12.5625 L 4.71875 -12.53125 L 5.015625 -12.5625 L 5.40625 -12.53125 L 5.765625 -12.5625 L 6.171875 -12.546875 L 6.6875 -12.5625 L 7.140625 -12.53125 L 8.625 -12.21875 L 9.25 -11.90625 L 10.140625 -11.21875 L 10.3125 -10.953125 L 10.5625 -10.6875 L 11.046875 -9.703125 L 11.125 -9.34375 L 11.1875 -9 L 11.265625 -8.65625 L 11.25 -7.234375 L 11.0625 -6.5625 L 10.9375 -6.25 L 10.734375 -5.9375 L 10.609375 -5.59375 L 10.390625 -5.28125 L 9.890625 -4.796875 L 9.703125 -4.421875 L 9.75 -4 L 10.28125 -3.0625 L 10.515625 -2.78125 L 10.703125 -2.453125 L 10.921875 -2.125 L 11.078125 -1.828125 L 11.65625 -0.953125 L 11.875 -0.5 L 11.8125 -0.125 L 11.4375 -0.03125 L 11.046875 0 L 10.328125 0 L 9.96875 -0.03125 L 9.5625 0 L 8.921875 -0.03125 L 8.484375 -0.140625 L 8.125 -0.46875 L 7.90625 -0.75 L 7.75 -1.0625 L 7.515625 -1.390625 L 7 -2.296875 L 6.875 -2.640625 L 6.421875 -3.265625 L 6.125 -3.5625 L 5.6875 -3.703125 L 5.359375 -3.6875 L 5.03125 -3.6875 L 4.671875 -3.515625 L 4.515625 -3.15625 L 4.546875 -2.046875 L 4.5 -1.265625 L 4.5625 -0.890625 L 4.53125 -0.515625 L 4.40625 -0.171875 L 3.859375 0 L 3.3125 0 L 2.9375 -0.03125 L 2.203125 0.015625 L 1.859375 0 L 1.5 -0.171875 Z M 5.03125 -6.59375 L 5.4375 -6.59375 L 5.78125 -6.546875 L 7.1875 -6.671875 L 7.453125 -6.796875 L 7.671875 -7 L 7.875 -7.3125 L 8.015625 -7.671875 L 8.0625 -8.15625 L 8.03125 -8.671875 L 7.90625 -8.96875 L 7.71875 -9.234375 L 7.171875 -9.5625 L 6.34375 -9.671875 L 5.359375 -9.703125 L 5.078125 -9.671875 L 4.71875 -9.5 L 4.5 -9.140625 L 4.546875 -7.140625 L 4.734375 -6.75 Z M 5.03125 -6.59375 "/></g></g></g><g fill="#ffffff" fill-opacity="1"><g transform="translate(81.325484, 52.387677)"><g><path d="M 0.234375 -0.484375 L 0.453125 -1.234375 L 0.609375 -1.59375 L 0.828125 -1.875 L 1.34375 -3.1875 L 1.84375 -4.125 L 1.96875 -4.484375 L 2.125 -4.765625 L 2.234375 -5.140625 L 2.484375 -5.609375 L 2.609375 -5.953125 L 2.890625 -6.421875 L 3.171875 -7.0625 L 3.375 -7.390625 L 3.453125 -7.6875 L 4.46875 -9.953125 L 4.65625 -10.265625 L 5.4375 -11.875 L 5.53125 -12.203125 L 5.875 -12.53125 L 6.453125 -12.703125 L 7.0625 -12.546875 L 7.390625 -12.203125 L 7.484375 -11.859375 L 7.65625 -11.59375 L 7.9375 -10.921875 L 8.296875 -10.25 L 8.5625 -9.625 L 8.65625 -9.34375 L 8.984375 -8.65625 L 9.09375 -8.3125 L 9.4375 -7.6875 L 9.53125 -7.34375 L 9.71875 -7.046875 L 9.859375 -6.734375 L 10.046875 -6.421875 L 10.15625 -6.0625 L 10.328125 -5.78125 L 10.453125 -5.4375 L 10.609375 -5.125 L 10.75 -4.765625 L 10.953125 -4.484375 L 11.203125 -3.8125 L 11.375 -3.515625 L 11.5 -3.171875 L 11.8125 -2.53125 L 11.921875 -2.1875 L 12.09375 -1.921875 L 12.203125 -1.5625 L 12.4375 -1.25 L 12.5625 -0.9375 L 12.671875 -0.484375 L 12.59375 -0.109375 L 12.28125 0 L 11.171875 0.03125 L 10.53125 -0.015625 L 10.21875 0.015625 L 9.75 -0.15625 L 9.4375 -0.453125 L 9.25 -0.765625 L 9.15625 -1.09375 L 8.78125 -1.375 L 8.1875 -1.578125 L 7.34375 -1.546875 L 6.96875 -1.578125 L 6.65625 -1.578125 L 6.234375 -1.515625 L 5.859375 -1.578125 L 4.859375 -1.5625 L 4.5 -1.59375 L 4.0625 -1.421875 L 3.765625 -1.078125 L 3.453125 -0.46875 L 3.140625 -0.140625 L 2.71875 0.03125 L 2.265625 -0.015625 L 0.6875 -0.015625 L 0.328125 -0.109375 Z M 5.765625 -4.421875 L 7.171875 -4.4375 L 7.46875 -4.59375 L 7.515625 -4.90625 L 7.390625 -5.234375 L 7.203125 -5.59375 L 7.140625 -5.875 L 6.9375 -6.1875 L 6.703125 -6.875 L 6.484375 -7.03125 L 6.25 -6.84375 L 6.09375 -6.5625 L 5.375 -4.921875 L 5.4375 -4.5625 Z M 5.765625 -4.421875 "/></g></g></g><g fill="#ffffff" fill-opacity="1"><g transform="translate(94.336131, 52.387677)"><g><path d="M 0.859375 -0.515625 L 0.859375 -1.90625 L 0.890625 -2.234375 L 1.109375 -2.578125 L 2.296875 -2.953125 L 2.46875 -3.34375 L 2.515625 -4.046875 L 2.4375 -4.828125 L 2.53125 -5.171875 L 2.453125 -5.875 L 2.484375 -6.234375 L 2.515625 -6.96875 L 2.453125 -7.390625 L 2.4375 -7.6875 L 2.484375 -9.21875 L 2.265625 -9.53125 L 1.171875 -9.90625 L 0.984375 -10.25 L 0.984375 -10.59375 L 0.953125 -10.953125 L 0.953125 -11.34375 L 0.984375 -11.65625 L 0.984375 -11.984375 L 1.1875 -12.359375 L 1.578125 -12.546875 L 2.28125 -12.515625 L 2.609375 -12.53125 L 3.703125 -12.515625 L 4.109375 -12.546875 L 6.375 -12.53125 L 6.953125 -12.359375 L 7.09375 -12 L 7.140625 -11.65625 L 7.09375 -11.328125 L 7.09375 -10.265625 L 6.90625 -9.921875 L 6.5625 -9.734375 L 6.171875 -9.71875 L 5.828125 -9.515625 L 5.625 -9.1875 L 5.625 -8.4375 L 5.65625 -8.0625 L 5.625 -7.703125 L 5.65625 -7.359375 L 5.625 -6.8125 L 5.65625 -6.265625 L 5.59375 -5.515625 L 5.65625 -4.796875 L 5.625 -3.328125 L 5.828125 -2.96875 L 7.03125 -2.59375 L 7.28125 -2.296875 L 7.21875 -1.203125 L 7.265625 -0.875 L 7.265625 -0.484375 L 7.0625 -0.15625 L 6.71875 0.015625 L 1.390625 -0.015625 L 1.046875 -0.140625 Z M 0.859375 -0.515625 "/></g></g></g><g fill="#ffffff" fill-opacity="1"><g transform="translate(102.472263, 52.387677)"><g><path d="M 10.578125 -0.28125 L 10.34375 -0.515625 L 10.125 -0.78125 L 9.84375 -1.015625 L 9.609375 -1.3125 L 7.875 -3.046875 L 7.578125 -3.28125 L 5.015625 -5.78125 L 4.78125 -5.84375 L 4.609375 -5.625 L 4.671875 -5.25 L 4.625 -0.859375 L 4.671875 -0.5 L 4.515625 -0.140625 L 4.15625 0.03125 L 3.75 0 L 3.375 0.046875 L 2.46875 0 L 1.859375 0.03125 L 1.515625 -0.15625 L 1.359375 -0.5625 L 1.359375 -0.890625 L 1.3125 -1.25 L 1.359375 -1.9375 L 1.328125 -2.296875 L 1.34375 -3.03125 L 1.296875 -3.40625 L 1.296875 -3.75 L 1.328125 -4.140625 L 1.328125 -4.484375 L 1.359375 -4.796875 L 1.296875 -7.359375 L 1.34375 -7.75 L 1.328125 -8.125 L 1.359375 -8.4375 L 1.3125 -9.171875 L 1.34375 -9.53125 L 1.3125 -12.046875 L 1.546875 -12.390625 L 1.96875 -12.59375 L 2.453125 -12.453125 L 3.171875 -11.96875 L 4.140625 -10.984375 L 4.375 -10.6875 L 4.671875 -10.46875 L 4.859375 -10.203125 L 5.203125 -9.96875 L 5.390625 -9.703125 L 5.953125 -9.234375 L 6.328125 -8.828125 L 6.53125 -8.578125 L 6.8125 -8.375 L 7.4375 -7.71875 L 7.703125 -7.515625 L 8.5 -6.703125 L 8.75 -6.625 L 8.828125 -6.921875 L 8.8125 -7.640625 L 8.890625 -8.015625 L 8.890625 -8.359375 L 8.8125 -8.734375 L 8.828125 -11.984375 L 9.015625 -12.359375 L 9.4375 -12.546875 L 9.796875 -12.53125 L 10.125 -12.5625 L 10.5 -12.515625 L 10.890625 -12.546875 L 11.234375 -12.546875 L 11.59375 -12.515625 L 11.984375 -12.328125 L 12.203125 -12 L 12.171875 -11.078125 L 12.203125 -10.53125 L 12.140625 -10.171875 L 12.140625 -9.46875 L 12.171875 -9.125 L 12.109375 -8.40625 L 12.1875 -6.25 L 12.15625 -5.859375 L 12.21875 -5.359375 L 12.140625 -0.484375 L 11.96875 -0.109375 L 11.5625 0.09375 L 11.09375 -0.046875 Z M 10.578125 -0.28125 "/></g></g></g><g fill="#ffffff" fill-opacity="1"><g transform="translate(115.984696, 52.387677)"><g><path d="M 0.859375 -0.515625 L 0.859375 -1.90625 L 0.890625 -2.234375 L 1.109375 -2.578125 L 2.296875 -2.953125 L 2.46875 -3.34375 L 2.515625 -4.046875 L 2.4375 -4.828125 L 2.53125 -5.171875 L 2.453125 -5.875 L 2.484375 -6.234375 L 2.515625 -6.96875 L 2.453125 -7.390625 L 2.4375 -7.6875 L 2.484375 -9.21875 L 2.265625 -9.53125 L 1.171875 -9.90625 L 0.984375 -10.25 L 0.984375 -10.59375 L 0.953125 -10.953125 L 0.953125 -11.34375 L 0.984375 -11.65625 L 0.984375 -11.984375 L 1.1875 -12.359375 L 1.578125 -12.546875 L 2.28125 -12.515625 L 2.609375 -12.53125 L 3.703125 -12.515625 L 4.109375 -12.546875 L 6.375 -12.53125 L 6.953125 -12.359375 L 7.09375 -12 L 7.140625 -11.65625 L 7.09375 -11.328125 L 7.09375 -10.265625 L 6.90625 -9.921875 L 6.5625 -9.734375 L 6.171875 -9.71875 L 5.828125 -9.515625 L 5.625 -9.1875 L 5.625 -8.4375 L 5.65625 -8.0625 L 5.625 -7.703125 L 5.65625 -7.359375 L 5.625 -6.8125 L 5.65625 -6.265625 L 5.59375 -5.515625 L 5.65625 -4.796875 L 5.625 -3.328125 L 5.828125 -2.96875 L 7.03125 -2.59375 L 7.28125 -2.296875 L 7.21875 -1.203125 L 7.265625 -0.875 L 7.265625 -0.484375 L 7.0625 -0.15625 L 6.71875 0.015625 L 1.390625 -0.015625 L 1.046875 -0.140625 Z M 0.859375 -0.515625 "/></g></g></g><g fill="#ffffff" fill-opacity="1"><g transform="translate(124.120828, 52.387677)"><g><path d="M 10.578125 -0.28125 L 10.34375 -0.515625 L 10.125 -0.78125 L 9.84375 -1.015625 L 9.609375 -1.3125 L 7.875 -3.046875 L 7.578125 -3.28125 L 5.015625 -5.78125 L 4.78125 -5.84375 L 4.609375 -5.625 L 4.671875 -5.25 L 4.625 -0.859375 L 4.671875 -0.5 L 4.515625 -0.140625 L 4.15625 0.03125 L 3.75 0 L 3.375 0.046875 L 2.46875 0 L 1.859375 0.03125 L 1.515625 -0.15625 L 1.359375 -0.5625 L 1.359375 -0.890625 L 1.3125 -1.25 L 1.359375 -1.9375 L 1.328125 -2.296875 L 1.34375 -3.03125 L 1.296875 -3.40625 L 1.296875 -3.75 L 1.328125 -4.140625 L 1.328125 -4.484375 L 1.359375 -4.796875 L 1.296875 -7.359375 L 1.34375 -7.75 L 1.328125 -8.125 L 1.359375 -8.4375 L 1.3125 -9.171875 L 1.34375 -9.53125 L 1.3125 -12.046875 L 1.546875 -12.390625 L 1.96875 -12.59375 L 2.453125 -12.453125 L 3.171875 -11.96875 L 4.140625 -10.984375 L 4.375 -10.6875 L 4.671875 -10.46875 L 4.859375 -10.203125 L 5.203125 -9.96875 L 5.390625 -9.703125 L 5.953125 -9.234375 L 6.328125 -8.828125 L 6.53125 -8.578125 L 6.8125 -8.375 L 7.4375 -7.71875 L 7.703125 -7.515625 L 8.5 -6.703125 L 8.75 -6.625 L 8.828125 -6.921875 L 8.8125 -7.640625 L 8.890625 -8.015625 L 8.890625 -8.359375 L 8.8125 -8.734375 L 8.828125 -11.984375 L 9.015625 -12.359375 L 9.4375 -12.546875 L 9.796875 -12.53125 L 10.125 -12.5625 L 10.5 -12.515625 L 10.890625 -12.546875 L 11.234375 -12.546875 L 11.59375 -12.515625 L 11.984375 -12.328125 L 12.203125 -12 L 12.171875 -11.078125 L 12.203125 -10.53125 L 12.140625 -10.171875 L 12.140625 -9.46875 L 12.171875 -9.125 L 12.109375 -8.40625 L 12.1875 -6.25 L 12.15625 -5.859375 L 12.21875 -5.359375 L 12.140625 -0.484375 L 11.96875 -0.109375 L 11.5625 0.09375 L 11.09375 -0.046875 Z M 10.578125 -0.28125 "/></g></g></g><g fill="#ffffff" fill-opacity="1"><g transform="translate(137.633262, 52.387677)"><g><path d="M 6.5625 0.21875 L 6.1875 0.171875 L 5.171875 -0.03125 L 4.171875 -0.390625 L 3.859375 -0.5625 L 2.703125 -1.328125 L 2.203125 -1.84375 L 1.5625 -2.65625 L 1.359375 -3 L 0.984375 -3.984375 L 0.6875 -5.359375 L 0.65625 -5.734375 L 0.703125 -6.234375 L 0.65625 -7.140625 L 0.859375 -7.921875 L 0.875 -8.25 L 1.4375 -9.609375 L 1.625 -9.953125 L 1.90625 -10.203125 L 2.078125 -10.484375 L 2.3125 -10.78125 L 2.84375 -11.296875 L 3.75 -11.90625 L 4.0625 -12.0625 L 5.4375 -12.546875 L 6.53125 -12.71875 L 8.296875 -12.640625 L 8.6875 -12.53125 L 9.046875 -12.46875 L 9.34375 -12.34375 L 9.734375 -12.234375 L 10.953125 -11.484375 L 11.46875 -10.96875 L 11.921875 -10.390625 L 12.171875 -10.140625 L 12.75 -8.8125 L 12.609375 -8.421875 L 12.3125 -8.3125 L 11.96875 -8.28125 L 10.21875 -8.28125 L 9.828125 -8.453125 L 9.421875 -8.75 L 9.25 -9.03125 L 8.359375 -9.59375 L 8.015625 -9.671875 L 7.078125 -9.78125 L 6.578125 -9.765625 L 5.875 -9.53125 L 5.578125 -9.390625 L 4.984375 -8.984375 L 4.515625 -8.484375 L 4.25 -7.8125 L 4.171875 -7.453125 L 3.984375 -6.8125 L 4.09375 -5.015625 L 4.21875 -4.671875 L 4.40625 -4.359375 L 4.546875 -4.046875 L 4.75 -3.75 L 5.28125 -3.3125 L 5.9375 -2.96875 L 6.25 -2.84375 L 6.578125 -2.78125 L 7.140625 -2.734375 L 7.65625 -2.765625 L 8.015625 -2.8125 L 8.6875 -3.03125 L 8.984375 -3.171875 L 9.5 -3.671875 L 9.640625 -3.953125 L 9.5625 -4.265625 L 9.3125 -4.46875 L 8.25 -4.40625 L 7.921875 -4.4375 L 7.578125 -4.4375 L 7.234375 -4.609375 L 7.140625 -4.90625 L 7.0625 -5.25 L 7.09375 -6.59375 L 7.265625 -6.9375 L 7.8125 -7.140625 L 12.3125 -7.140625 L 12.828125 -6.96875 L 13.046875 -6.609375 L 13.09375 -6.25 L 13.03125 -4.890625 L 12.921875 -4.53125 L 12.90625 -4.1875 L 12.671875 -3.421875 L 12.265625 -2.59375 L 11.6875 -1.75 L 11.171875 -1.203125 L 10.578125 -0.828125 L 10.328125 -0.609375 L 9 -0.03125 L 8.6875 0.046875 L 8.359375 0.078125 L 8 0.140625 L 7.03125 0.234375 Z M 6.5625 0.21875 "/></g></g></g></svg>