<svg xmlns="http://www.w3.org/2000/svg" xmlns:xlink="http://www.w3.org/1999/xlink" width="189" zoomAndPan="magnify" viewBox="0 0 141.75 56.999996" height="76" preserveAspectRatio="xMidYMid meet" version="1.0"><defs><g/></defs><g fill="#ffffff" fill-opacity="1"><g transform="translate(0.000000000000031918, 52.262323)"><g><path d="M 4.828125 0.15625 L 4.09375 0.03125 L 3.390625 -0.21875 L 3.03125 -0.328125 L 2.6875 -0.484375 L 2.4375 -0.75 L 1.8125 -1.15625 L 1.578125 -1.421875 L 1.328125 -1.65625 L 0.984375 -2.3125 L 0.875 -2.640625 L 0.75 -3.359375 L 0.890625 -3.734375 L 1.21875 -3.875 L 2.609375 -3.953125 L 2.953125 -3.90625 L 3.265625 -3.9375 L 3.625 -3.796875 L 4.21875 -3.140625 L 4.53125 -2.953125 L 4.828125 -2.78125 L 5.75 -2.6875 L 6.078125 -2.75 L 6.625 -2.78125 L 7.234375 -3.046875 L 7.46875 -3.328125 L 7.625 -3.765625 L 7.515625 -4.21875 L 7.28125 -4.4375 L 6.625 -4.75 L 3.8125 -5.0625 L 3.15625 -5.28125 L 1.9375 -5.953125 L 1.28125 -6.78125 L 0.984375 -7.40625 L 0.859375 -8.125 L 0.84375 -8.671875 L 0.890625 -9.5625 L 1.21875 -10.546875 L 1.84375 -11.390625 L 2.71875 -11.984375 L 3.328125 -12.34375 L 4 -12.5625 L 4.328125 -12.609375 L 4.6875 -12.625 L 5.078125 -12.734375 L 6.46875 -12.703125 L 7.171875 -12.5625 L 8.171875 -12.21875 L 9.359375 -11.390625 L 9.75 -10.859375 L 10.265625 -9.921875 L 10.296875 -9.578125 L 10.375 -9.234375 L 10.21875 -8.9375 L 9.875 -8.671875 L 9.5625 -8.71875 L 9.203125 -8.71875 L 8.71875 -8.75 L 7.875 -8.671875 L 7.46875 -8.90625 L 7.203125 -9.265625 L 6.90625 -9.515625 L 6.578125 -9.734375 L 6.25 -9.828125 L 5.671875 -9.90625 L 5.109375 -9.875 L 4.78125 -9.8125 L 4.484375 -9.65625 L 4.21875 -9.453125 L 4 -9.21875 L 3.921875 -8.734375 L 3.984375 -8.1875 L 4.265625 -7.9375 L 4.921875 -7.625 L 5.875 -7.421875 L 6.390625 -7.421875 L 6.78125 -7.34375 L 7.140625 -7.328125 L 7.5 -7.28125 L 8.890625 -6.84375 L 9.21875 -6.640625 L 9.5 -6.5 L 9.828125 -6.21875 L 10.296875 -5.671875 L 10.5 -5.390625 L 10.765625 -4.34375 L 10.796875 -3.765625 L 10.6875 -2.875 L 10.46875 -2.25 L 10.28125 -1.84375 L 10.09375 -1.59375 L 9.578125 -1.0625 L 8.359375 -0.328125 L 8.015625 -0.15625 L 7.6875 -0.125 L 7.328125 0.015625 L 6.96875 0.078125 L 6.609375 0.15625 L 6.25 0.203125 Z M 4.828125 0.15625 "/></g></g></g><g fill="#ffffff" fill-opacity="1"><g transform="translate(11.463744, 52.262323)"><g><path d="M 3.453125 -0.5625 L 3.4375 -1.953125 L 3.46875 -2.3125 L 3.40625 -3.40625 L 3.4375 -3.796875 L 3.40625 -4.15625 L 3.484375 -4.6875 L 3.4375 -5.203125 L 3.4375 -5.921875 L 3.46875 -6.28125 L 3.4375 -6.625 L 3.484375 -7.1875 L 3.4375 -9.15625 L 3.25 -9.5 L 2.921875 -9.703125 L 1.328125 -9.71875 L 0.859375 -9.671875 L 0.5 -9.84375 L 0.3125 -10.234375 L 0.328125 -12.03125 L 0.5 -12.390625 L 0.890625 -12.578125 L 6.25 -12.546875 L 6.671875 -12.59375 L 7.03125 -12.59375 L 7.390625 -12.5625 L 7.75 -12.5625 L 8.140625 -12.609375 L 8.484375 -12.609375 L 8.765625 -12.578125 L 9.203125 -12.609375 L 9.5625 -12.4375 L 9.734375 -12.078125 L 9.703125 -10.59375 L 9.734375 -10.21875 L 9.5625 -9.859375 L 9.140625 -9.703125 L 8.15625 -9.71875 L 7.828125 -9.6875 L 7.46875 -9.703125 L 7.171875 -9.6875 L 6.78125 -9.515625 L 6.625 -9.203125 L 6.671875 -8.796875 L 6.609375 -8.4375 L 6.6875 -4.875 L 6.625 -4.109375 L 6.671875 -3.796875 L 6.625 -2.6875 L 6.578125 -2.3125 L 6.625 -2.015625 L 6.640625 -1.296875 L 6.609375 -0.875 L 6.625 -0.53125 L 6.484375 -0.171875 L 6.125 -0.03125 L 5.015625 -0.03125 L 4.671875 0 L 4.3125 -0.03125 L 3.96875 0 L 3.59375 -0.171875 Z M 3.453125 -0.5625 "/></g></g></g><g fill="#ffffff" fill-opacity="1"><g transform="translate(21.507995, 52.262323)"><g><path d="M 0.234375 -0.484375 L 0.453125 -1.234375 L 0.609375 -1.59375 L 0.828125 -1.890625 L 1.34375 -3.203125 L 1.84375 -4.125 L 1.96875 -4.484375 L 2.140625 -4.78125 L 2.25 -5.15625 L 2.5 -5.625 L 2.625 -5.96875 L 2.890625 -6.4375 L 3.1875 -7.078125 L 3.375 -7.40625 L 3.46875 -7.703125 L 4.46875 -9.96875 L 4.671875 -10.296875 L 5.4375 -11.90625 L 5.546875 -12.234375 L 5.890625 -12.5625 L 6.46875 -12.734375 L 7.078125 -12.578125 L 7.40625 -12.234375 L 7.515625 -11.890625 L 7.671875 -11.625 L 7.953125 -10.9375 L 8.3125 -10.28125 L 8.59375 -9.65625 L 8.671875 -9.359375 L 9 -8.671875 L 9.109375 -8.34375 L 9.46875 -7.703125 L 9.5625 -7.359375 L 9.734375 -7.0625 L 9.875 -6.75 L 10.078125 -6.4375 L 10.1875 -6.078125 L 10.34375 -5.796875 L 10.46875 -5.4375 L 10.640625 -5.140625 L 10.78125 -4.78125 L 10.984375 -4.484375 L 11.234375 -3.828125 L 11.40625 -3.515625 L 11.53125 -3.1875 L 11.84375 -2.53125 L 11.953125 -2.1875 L 12.125 -1.921875 L 12.234375 -1.5625 L 12.46875 -1.25 L 12.59375 -0.9375 L 12.703125 -0.484375 L 12.625 -0.109375 L 12.3125 0 L 11.1875 0.03125 L 10.5625 -0.015625 L 10.234375 0.015625 L 9.78125 -0.15625 L 9.46875 -0.453125 L 9.265625 -0.765625 L 9.1875 -1.09375 L 8.796875 -1.390625 L 8.21875 -1.578125 L 7.359375 -1.546875 L 6.984375 -1.578125 L 6.671875 -1.578125 L 6.25 -1.53125 L 5.875 -1.578125 L 4.875 -1.5625 L 4.515625 -1.59375 L 4.078125 -1.421875 L 3.765625 -1.078125 L 3.46875 -0.46875 L 3.140625 -0.140625 L 2.734375 0.03125 L 2.265625 -0.015625 L 0.6875 -0.015625 L 0.328125 -0.109375 Z M 5.78125 -4.4375 L 7.1875 -4.453125 L 7.5 -4.59375 L 7.53125 -4.921875 L 7.40625 -5.25 L 7.21875 -5.609375 L 7.15625 -5.890625 L 6.953125 -6.203125 L 6.71875 -6.90625 L 6.5 -7.046875 L 6.265625 -6.859375 L 6.109375 -6.578125 L 5.390625 -4.9375 L 5.4375 -4.578125 Z M 5.78125 -4.4375 "/></g></g></g><g fill="#ffffff" fill-opacity="1"><g transform="translate(34.55295, 52.262323)"><g><path d="M 1.390625 -0.578125 L 1.328125 -1.96875 L 1.359375 -2.359375 L 1.296875 -3.390625 L 1.34375 -4.125 L 1.296875 -4.53125 L 1.3125 -5.203125 L 1.34375 -5.59375 L 1.34375 -6.484375 L 1.296875 -7 L 1.34375 -12.03125 L 1.484375 -12.421875 L 1.828125 -12.578125 L 2.234375 -12.5625 L 2.5625 -12.609375 L 3.3125 -12.546875 L 3.640625 -12.59375 L 4.71875 -12.5625 L 5.03125 -12.59375 L 5.421875 -12.5625 L 5.78125 -12.59375 L 6.1875 -12.578125 L 6.703125 -12.59375 L 7.15625 -12.5625 L 8.640625 -12.25 L 9.265625 -11.9375 L 10.171875 -11.25 L 10.328125 -10.984375 L 10.578125 -10.703125 L 11.0625 -9.71875 L 11.15625 -9.359375 L 11.21875 -9.015625 L 11.296875 -8.671875 L 11.28125 -7.265625 L 11.09375 -6.578125 L 10.953125 -6.265625 L 10.765625 -5.953125 L 10.640625 -5.609375 L 10.421875 -5.296875 L 9.921875 -4.8125 L 9.71875 -4.4375 L 9.78125 -4 L 10.3125 -3.078125 L 10.546875 -2.78125 L 10.734375 -2.46875 L 10.9375 -2.140625 L 11.109375 -1.828125 L 11.671875 -0.953125 L 11.90625 -0.5 L 11.84375 -0.125 L 11.46875 -0.03125 L 11.0625 0 L 10.34375 0 L 9.984375 -0.03125 L 9.59375 0 L 8.953125 -0.03125 L 8.5 -0.140625 L 8.140625 -0.46875 L 7.921875 -0.75 L 7.765625 -1.0625 L 7.53125 -1.40625 L 7.03125 -2.296875 L 6.90625 -2.640625 L 6.4375 -3.265625 L 6.140625 -3.578125 L 5.703125 -3.71875 L 5.375 -3.703125 L 5.046875 -3.703125 L 4.6875 -3.515625 L 4.53125 -3.15625 L 4.5625 -2.046875 L 4.515625 -1.28125 L 4.578125 -0.890625 L 4.546875 -0.515625 L 4.421875 -0.171875 L 3.859375 0 L 3.328125 0 L 2.953125 -0.03125 L 2.203125 0.015625 L 1.875 0 L 1.515625 -0.171875 Z M 5.046875 -6.609375 L 5.4375 -6.609375 L 5.796875 -6.5625 L 7.203125 -6.6875 L 7.46875 -6.8125 L 7.6875 -7.03125 L 7.890625 -7.328125 L 8.03125 -7.6875 L 8.078125 -8.171875 L 8.046875 -8.703125 L 7.921875 -8.984375 L 7.75 -9.25 L 7.1875 -9.59375 L 6.359375 -9.703125 L 5.375 -9.71875 L 5.078125 -9.703125 L 4.71875 -9.515625 L 4.515625 -9.15625 L 4.5625 -7.15625 L 4.75 -6.78125 Z M 5.046875 -6.609375 "/></g></g></g><g fill="#ffffff" fill-opacity="1"><g transform="translate(47.004957, 52.262323)"><g><path d="M 3.453125 -0.5625 L 3.4375 -1.953125 L 3.46875 -2.3125 L 3.40625 -3.40625 L 3.4375 -3.796875 L 3.40625 -4.15625 L 3.484375 -4.6875 L 3.4375 -5.203125 L 3.4375 -5.921875 L 3.46875 -6.28125 L 3.4375 -6.625 L 3.484375 -7.1875 L 3.4375 -9.15625 L 3.25 -9.5 L 2.921875 -9.703125 L 1.328125 -9.71875 L 0.859375 -9.671875 L 0.5 -9.84375 L 0.3125 -10.234375 L 0.328125 -12.03125 L 0.5 -12.390625 L 0.890625 -12.578125 L 6.25 -12.546875 L 6.671875 -12.59375 L 7.03125 -12.59375 L 7.390625 -12.5625 L 7.75 -12.5625 L 8.140625 -12.609375 L 8.484375 -12.609375 L 8.765625 -12.578125 L 9.203125 -12.609375 L 9.5625 -12.4375 L 9.734375 -12.078125 L 9.703125 -10.59375 L 9.734375 -10.21875 L 9.5625 -9.859375 L 9.140625 -9.703125 L 8.15625 -9.71875 L 7.828125 -9.6875 L 7.46875 -9.703125 L 7.171875 -9.6875 L 6.78125 -9.515625 L 6.625 -9.203125 L 6.671875 -8.796875 L 6.609375 -8.4375 L 6.6875 -4.875 L 6.625 -4.109375 L 6.671875 -3.796875 L 6.625 -2.6875 L 6.578125 -2.3125 L 6.625 -2.015625 L 6.640625 -1.296875 L 6.609375 -0.875 L 6.625 -0.53125 L 6.484375 -0.171875 L 6.125 -0.03125 L 5.015625 -0.03125 L 4.671875 0 L 4.3125 -0.03125 L 3.96875 0 L 3.59375 -0.171875 Z M 3.453125 -0.5625 "/></g></g></g><g fill="#ffffff" fill-opacity="1"><g transform="translate(57.049208, 52.262323)"><g><path d="M 1.328125 -0.5625 L 1.3125 -0.890625 L 1.359375 -1.234375 L 1.296875 -1.578125 L 1.390625 -1.9375 L 1.328125 -3.078125 L 1.390625 -3.796875 L 1.328125 -4.125 L 1.328125 -4.890625 L 1.359375 -5.234375 L 1.3125 -5.765625 L 1.390625 -6.25 L 1.328125 -6.984375 L 1.359375 -7.390625 L 1.328125 -7.703125 L 1.359375 -8.0625 L 1.359375 -9.90625 L 1.3125 -10.28125 L 1.3125 -10.625 L 1.359375 -10.9375 L 1.359375 -11.671875 L 1.40625 -12.0625 L 1.578125 -12.390625 L 2.0625 -12.5625 L 7.4375 -12.546875 L 7.765625 -12.46875 L 8.125 -12.328125 L 8.5 -12.25 L 9.140625 -11.90625 L 9.6875 -11.546875 L 9.984375 -11.28125 L 10.1875 -11.015625 L 10.421875 -10.765625 L 10.65625 -10.453125 L 11.015625 -9.8125 L 11.34375 -8.40625 L 11.3125 -7.34375 L 11.28125 -7.03125 L 11.125 -6.28125 L 11 -5.96875 L 10.828125 -5.640625 L 10.265625 -4.78125 L 9.71875 -4.265625 L 9.4375 -4.046875 L 8.828125 -3.671875 L 7.78125 -3.359375 L 7.046875 -3.21875 L 6.109375 -3.203125 L 5.5625 -3.25 L 5.171875 -3.203125 L 4.6875 -3.015625 L 4.5625 -2.71875 L 4.5625 -2.328125 L 4.59375 -1.9375 L 4.546875 -1.609375 L 4.578125 -1.28125 L 4.5625 -0.5625 L 4.40625 -0.171875 L 4.046875 0.015625 L 3.671875 0.015625 L 3.265625 -0.015625 L 2.203125 0 L 1.84375 -0.03125 L 1.46875 -0.171875 Z M 5.140625 -6.125 L 5.546875 -6.09375 L 7.03125 -6.1875 L 7.3125 -6.34375 L 7.59375 -6.546875 L 8.015625 -7.046875 L 8.21875 -7.875 L 8.046875 -8.71875 L 7.875 -9.015625 L 7.578125 -9.296875 L 7.3125 -9.484375 L 7 -9.65625 L 5.5625 -9.71875 L 5.125 -9.6875 L 4.765625 -9.546875 L 4.546875 -9.140625 L 4.578125 -6.640625 L 4.796875 -6.28125 Z M 5.140625 -6.125 "/></g></g></g><g fill="#ffffff" fill-opacity="1"><g transform="translate(68.872315, 52.262323)"><g><path d="M 0.234375 -0.484375 L 0.453125 -1.234375 L 0.609375 -1.59375 L 0.828125 -1.890625 L 1.34375 -3.203125 L 1.84375 -4.125 L 1.96875 -4.484375 L 2.140625 -4.78125 L 2.25 -5.15625 L 2.5 -5.625 L 2.625 -5.96875 L 2.890625 -6.4375 L 3.1875 -7.078125 L 3.375 -7.40625 L 3.46875 -7.703125 L 4.46875 -9.96875 L 4.671875 -10.296875 L 5.4375 -11.90625 L 5.546875 -12.234375 L 5.890625 -12.5625 L 6.46875 -12.734375 L 7.078125 -12.578125 L 7.40625 -12.234375 L 7.515625 -11.890625 L 7.671875 -11.625 L 7.953125 -10.9375 L 8.3125 -10.28125 L 8.59375 -9.65625 L 8.671875 -9.359375 L 9 -8.671875 L 9.109375 -8.34375 L 9.46875 -7.703125 L 9.5625 -7.359375 L 9.734375 -7.0625 L 9.875 -6.75 L 10.078125 -6.4375 L 10.1875 -6.078125 L 10.34375 -5.796875 L 10.46875 -5.4375 L 10.640625 -5.140625 L 10.78125 -4.78125 L 10.984375 -4.484375 L 11.234375 -3.828125 L 11.40625 -3.515625 L 11.53125 -3.1875 L 11.84375 -2.53125 L 11.953125 -2.1875 L 12.125 -1.921875 L 12.234375 -1.5625 L 12.46875 -1.25 L 12.59375 -0.9375 L 12.703125 -0.484375 L 12.625 -0.109375 L 12.3125 0 L 11.1875 0.03125 L 10.5625 -0.015625 L 10.234375 0.015625 L 9.78125 -0.15625 L 9.46875 -0.453125 L 9.265625 -0.765625 L 9.1875 -1.09375 L 8.796875 -1.390625 L 8.21875 -1.578125 L 7.359375 -1.546875 L 6.984375 -1.578125 L 6.671875 -1.578125 L 6.25 -1.53125 L 5.875 -1.578125 L 4.875 -1.5625 L 4.515625 -1.59375 L 4.078125 -1.421875 L 3.765625 -1.078125 L 3.46875 -0.46875 L 3.140625 -0.140625 L 2.734375 0.03125 L 2.265625 -0.015625 L 0.6875 -0.015625 L 0.328125 -0.109375 Z M 5.78125 -4.4375 L 7.1875 -4.453125 L 7.5 -4.59375 L 7.53125 -4.921875 L 7.40625 -5.25 L 7.21875 -5.609375 L 7.15625 -5.890625 L 6.953125 -6.203125 L 6.71875 -6.90625 L 6.5 -7.046875 L 6.265625 -6.859375 L 6.109375 -6.578125 L 5.390625 -4.9375 L 5.4375 -4.578125 Z M 5.78125 -4.4375 "/></g></g></g><g fill="#ffffff" fill-opacity="1"><g transform="translate(81.91727, 52.262323)"><g><path d="M 6.578125 0.21875 L 6.203125 0.171875 L 5.1875 -0.03125 L 4.1875 -0.390625 L 3.859375 -0.5625 L 2.71875 -1.328125 L 2.203125 -1.84375 L 1.5625 -2.65625 L 1.359375 -3 L 0.984375 -3.984375 L 0.6875 -5.375 L 0.671875 -5.75 L 0.703125 -6.25 L 0.671875 -7.15625 L 0.859375 -7.9375 L 0.875 -8.265625 L 1.4375 -9.625 L 1.640625 -9.96875 L 1.90625 -10.21875 L 2.078125 -10.515625 L 2.3125 -10.8125 L 2.859375 -11.3125 L 3.75 -11.9375 L 4.078125 -12.09375 L 5.4375 -12.578125 L 6.546875 -12.75 L 8.3125 -12.671875 L 8.71875 -12.5625 L 9.078125 -12.5 L 9.359375 -12.375 L 9.75 -12.265625 L 10.984375 -11.515625 L 11.5 -11 L 11.953125 -10.421875 L 12.203125 -10.171875 L 12.78125 -8.84375 L 12.65625 -8.4375 L 12.34375 -8.34375 L 12 -8.296875 L 10.234375 -8.296875 L 9.84375 -8.484375 L 9.453125 -8.765625 L 9.265625 -9.0625 L 8.375 -9.609375 L 8.03125 -9.703125 L 7.09375 -9.8125 L 6.59375 -9.796875 L 5.890625 -9.5625 L 5.59375 -9.421875 L 5 -9 L 4.53125 -8.5 L 4.265625 -7.828125 L 4.1875 -7.46875 L 3.984375 -6.828125 L 4.09375 -5.03125 L 4.21875 -4.6875 L 4.421875 -4.359375 L 4.5625 -4.0625 L 4.765625 -3.75 L 5.296875 -3.328125 L 5.953125 -2.984375 L 6.265625 -2.859375 L 6.59375 -2.78125 L 7.15625 -2.75 L 7.671875 -2.765625 L 8.03125 -2.828125 L 8.71875 -3.03125 L 9 -3.1875 L 9.515625 -3.6875 L 9.671875 -3.96875 L 9.59375 -4.28125 L 9.34375 -4.46875 L 8.265625 -4.421875 L 7.9375 -4.453125 L 7.59375 -4.453125 L 7.265625 -4.625 L 7.15625 -4.921875 L 7.078125 -5.265625 L 7.109375 -6.609375 L 7.28125 -6.953125 L 7.828125 -7.15625 L 12.34375 -7.15625 L 12.859375 -6.984375 L 13.078125 -6.625 L 13.140625 -6.265625 L 13.0625 -4.90625 L 12.953125 -4.546875 L 12.9375 -4.203125 L 12.703125 -3.4375 L 12.296875 -2.609375 L 11.71875 -1.765625 L 11.1875 -1.203125 L 10.59375 -0.828125 L 10.34375 -0.609375 L 9.015625 -0.03125 L 8.71875 0.046875 L 8.375 0.078125 L 8.015625 0.140625 L 7.046875 0.234375 Z M 6.578125 0.21875 "/></g></g></g><g fill="#ffffff" fill-opacity="1"><g transform="translate(95.680951, 52.262323)"><g><path d="M 0.859375 -0.515625 L 0.859375 -1.90625 L 0.890625 -2.25 L 1.109375 -2.59375 L 2.296875 -2.96875 L 2.484375 -3.359375 L 2.515625 -4.0625 L 2.4375 -4.828125 L 2.53125 -5.1875 L 2.46875 -5.890625 L 2.5 -6.25 L 2.515625 -6.984375 L 2.46875 -7.40625 L 2.4375 -7.703125 L 2.5 -9.234375 L 2.265625 -9.5625 L 1.171875 -9.9375 L 0.984375 -10.28125 L 0.984375 -10.625 L 0.953125 -10.984375 L 0.953125 -11.375 L 0.984375 -11.671875 L 0.984375 -12.015625 L 1.1875 -12.390625 L 1.578125 -12.578125 L 2.28125 -12.546875 L 2.625 -12.5625 L 3.71875 -12.546875 L 4.109375 -12.578125 L 6.390625 -12.5625 L 6.96875 -12.390625 L 7.109375 -12.03125 L 7.15625 -11.671875 L 7.109375 -11.359375 L 7.109375 -10.296875 L 6.921875 -9.953125 L 6.578125 -9.75 L 6.1875 -9.734375 L 5.84375 -9.546875 L 5.640625 -9.21875 L 5.640625 -8.46875 L 5.671875 -8.078125 L 5.640625 -7.71875 L 5.671875 -7.390625 L 5.640625 -6.828125 L 5.671875 -6.28125 L 5.609375 -5.53125 L 5.671875 -4.8125 L 5.640625 -3.34375 L 5.84375 -2.984375 L 7.046875 -2.609375 L 7.296875 -2.296875 L 7.234375 -1.203125 L 7.28125 -0.875 L 7.28125 -0.484375 L 7.078125 -0.15625 L 6.734375 0.015625 L 1.40625 -0.015625 L 1.046875 -0.140625 Z M 0.859375 -0.515625 "/></g></g></g><g fill="#ffffff" fill-opacity="1"><g transform="translate(103.838538, 52.262323)"><g><path d="M 10.59375 -0.28125 L 10.375 -0.515625 L 10.15625 -0.796875 L 9.859375 -1.03125 L 9.625 -1.3125 L 7.890625 -3.046875 L 7.59375 -3.28125 L 5.03125 -5.796875 L 4.796875 -5.859375 L 4.625 -5.640625 L 4.6875 -5.265625 L 4.640625 -0.859375 L 4.6875 -0.5 L 4.53125 -0.140625 L 4.171875 0.03125 L 3.75 0 L 3.375 0.046875 L 2.484375 0 L 1.875 0.03125 L 1.53125 -0.15625 L 1.359375 -0.5625 L 1.359375 -0.890625 L 1.3125 -1.25 L 1.359375 -1.9375 L 1.328125 -2.296875 L 1.34375 -3.03125 L 1.296875 -3.40625 L 1.296875 -3.75 L 1.328125 -4.15625 L 1.328125 -4.484375 L 1.359375 -4.8125 L 1.296875 -7.390625 L 1.34375 -7.765625 L 1.328125 -8.140625 L 1.359375 -8.46875 L 1.3125 -9.203125 L 1.34375 -9.5625 L 1.3125 -12.078125 L 1.546875 -12.421875 L 1.96875 -12.625 L 2.46875 -12.484375 L 3.1875 -12 L 4.15625 -11.015625 L 4.390625 -10.703125 L 4.6875 -10.5 L 4.875 -10.21875 L 5.203125 -9.984375 L 5.40625 -9.71875 L 5.96875 -9.25 L 6.34375 -8.859375 L 6.546875 -8.609375 L 6.828125 -8.390625 L 7.453125 -7.75 L 7.71875 -7.53125 L 8.515625 -6.71875 L 8.765625 -6.640625 L 8.859375 -6.9375 L 8.84375 -7.65625 L 8.90625 -8.03125 L 8.90625 -8.375 L 8.84375 -8.75 L 8.859375 -12.015625 L 9.03125 -12.390625 L 9.46875 -12.578125 L 9.828125 -12.5625 L 10.15625 -12.59375 L 10.53125 -12.546875 L 10.921875 -12.578125 L 11.265625 -12.578125 L 11.625 -12.546875 L 12.015625 -12.359375 L 12.234375 -12.03125 L 12.203125 -11.109375 L 12.234375 -10.5625 L 12.171875 -10.203125 L 12.171875 -9.484375 L 12.203125 -9.140625 L 12.140625 -8.421875 L 12.21875 -6.265625 L 12.1875 -5.875 L 12.25 -5.375 L 12.171875 -0.484375 L 12 -0.109375 L 11.59375 0.09375 L 11.125 -0.046875 Z M 10.59375 -0.28125 "/></g></g></g><g fill="#ffffff" fill-opacity="1"><g transform="translate(117.386603, 52.262323)"><g><path d="M 0.234375 -0.484375 L 0.453125 -1.234375 L 0.609375 -1.59375 L 0.828125 -1.890625 L 1.34375 -3.203125 L 1.84375 -4.125 L 1.96875 -4.484375 L 2.140625 -4.78125 L 2.25 -5.15625 L 2.5 -5.625 L 2.625 -5.96875 L 2.890625 -6.4375 L 3.1875 -7.078125 L 3.375 -7.40625 L 3.46875 -7.703125 L 4.46875 -9.96875 L 4.671875 -10.296875 L 5.4375 -11.90625 L 5.546875 -12.234375 L 5.890625 -12.5625 L 6.46875 -12.734375 L 7.078125 -12.578125 L 7.40625 -12.234375 L 7.515625 -11.890625 L 7.671875 -11.625 L 7.953125 -10.9375 L 8.3125 -10.28125 L 8.59375 -9.65625 L 8.671875 -9.359375 L 9 -8.671875 L 9.109375 -8.34375 L 9.46875 -7.703125 L 9.5625 -7.359375 L 9.734375 -7.0625 L 9.875 -6.75 L 10.078125 -6.4375 L 10.1875 -6.078125 L 10.34375 -5.796875 L 10.46875 -5.4375 L 10.640625 -5.140625 L 10.78125 -4.78125 L 10.984375 -4.484375 L 11.234375 -3.828125 L 11.40625 -3.515625 L 11.53125 -3.1875 L 11.84375 -2.53125 L 11.953125 -2.1875 L 12.125 -1.921875 L 12.234375 -1.5625 L 12.46875 -1.25 L 12.59375 -0.9375 L 12.703125 -0.484375 L 12.625 -0.109375 L 12.3125 0 L 11.1875 0.03125 L 10.5625 -0.015625 L 10.234375 0.015625 L 9.78125 -0.15625 L 9.46875 -0.453125 L 9.265625 -0.765625 L 9.1875 -1.09375 L 8.796875 -1.390625 L 8.21875 -1.578125 L 7.359375 -1.546875 L 6.984375 -1.578125 L 6.671875 -1.578125 L 6.25 -1.53125 L 5.875 -1.578125 L 4.875 -1.5625 L 4.515625 -1.59375 L 4.078125 -1.421875 L 3.765625 -1.078125 L 3.46875 -0.46875 L 3.140625 -0.140625 L 2.734375 0.03125 L 2.265625 -0.015625 L 0.6875 -0.015625 L 0.328125 -0.109375 Z M 5.78125 -4.4375 L 7.1875 -4.453125 L 7.5 -4.59375 L 7.53125 -4.921875 L 7.40625 -5.25 L 7.21875 -5.609375 L 7.15625 -5.890625 L 6.953125 -6.203125 L 6.71875 -6.90625 L 6.5 -7.046875 L 6.265625 -6.859375 L 6.109375 -6.578125 L 5.390625 -4.9375 L 5.4375 -4.578125 Z M 5.78125 -4.4375 "/></g></g></g></svg>