<svg xmlns="http://www.w3.org/2000/svg" xmlns:xlink="http://www.w3.org/1999/xlink" width="265" zoomAndPan="magnify" viewBox="0 0 198 56.999996" height="76" preserveAspectRatio="xMidYMid meet" version="1.0"><defs><g/></defs><g fill="#ffffff" fill-opacity="1"><g transform="translate(0.00000642632, 50.984298)"><g><path d="M 5.09375 0.171875 L 4.328125 0.03125 L 3.578125 -0.234375 L 3.203125 -0.34375 L 2.84375 -0.515625 L 2.578125 -0.796875 L 1.921875 -1.21875 L 1.671875 -1.5 L 1.40625 -1.75 L 1.046875 -2.4375 L 0.921875 -2.78125 L 0.859375 -3.171875 L 0.796875 -3.546875 L 0.953125 -3.9375 L 1.28125 -4.09375 L 2.75 -4.171875 L 3.109375 -4.109375 L 3.453125 -4.15625 L 3.828125 -4 L 4.453125 -3.3125 L 4.78125 -3.109375 L 5.09375 -2.9375 L 6.0625 -2.84375 L 6.40625 -2.90625 L 7 -2.9375 L 7.640625 -3.21875 L 7.890625 -3.5 L 8.03125 -3.984375 L 7.921875 -4.453125 L 7.671875 -4.6875 L 7 -5 L 4.015625 -5.34375 L 3.328125 -5.578125 L 2.046875 -6.28125 L 1.34375 -7.140625 L 1.046875 -7.8125 L 0.90625 -8.5625 L 0.890625 -9.15625 L 0.953125 -10.078125 L 1.28125 -11.125 L 1.953125 -12.015625 L 2.859375 -12.640625 L 3.5 -13.015625 L 4.21875 -13.25 L 4.5625 -13.3125 L 4.953125 -13.328125 L 5.359375 -13.4375 L 6.828125 -13.40625 L 7.5625 -13.25 L 8.625 -12.890625 L 9.875 -12.015625 L 10.296875 -11.453125 L 10.828125 -10.46875 L 10.859375 -10.109375 L 10.9375 -9.734375 L 10.78125 -9.421875 L 10.421875 -9.15625 L 10.078125 -9.1875 L 9.703125 -9.1875 L 9.1875 -9.234375 L 8.296875 -9.15625 L 7.890625 -9.40625 L 7.59375 -9.78125 L 7.28125 -10.046875 L 6.9375 -10.265625 L 6.59375 -10.375 L 5.984375 -10.4375 L 5.375 -10.421875 L 5.046875 -10.34375 L 4.734375 -10.171875 L 4.453125 -9.96875 L 4.21875 -9.71875 L 4.125 -9.21875 L 4.203125 -8.640625 L 4.484375 -8.375 L 5.1875 -8.03125 L 6.203125 -7.828125 L 6.75 -7.828125 L 7.140625 -7.75 L 7.53125 -7.734375 L 7.90625 -7.671875 L 9.375 -7.21875 L 9.71875 -7.015625 L 10.03125 -6.859375 L 10.375 -6.5625 L 10.859375 -5.984375 L 11.0625 -5.6875 L 11.359375 -4.59375 L 11.390625 -3.984375 L 11.28125 -3.03125 L 11.15625 -2.703125 L 11.046875 -2.375 L 10.84375 -1.953125 L 10.65625 -1.6875 L 10.109375 -1.125 L 8.8125 -0.34375 L 8.453125 -0.171875 L 8.109375 -0.125 L 7.734375 0.015625 L 7.359375 0.078125 L 6.96875 0.171875 L 6.59375 0.203125 Z M 5.09375 0.171875 "/></g></g></g><g fill="#ffffff" fill-opacity="1"><g transform="translate(12.09376, 50.984298)"><g><path d="M 3.640625 -0.59375 L 3.625 -2.0625 L 3.65625 -2.4375 L 3.59375 -3.59375 L 3.625 -4 L 3.59375 -4.375 L 3.671875 -4.953125 L 3.625 -5.5 L 3.625 -6.25 L 3.65625 -6.640625 L 3.625 -7 L 3.671875 -7.578125 L 3.625 -9.671875 L 3.4375 -10.03125 L 3.09375 -10.234375 L 1.40625 -10.25 L 0.90625 -10.203125 L 0.53125 -10.390625 L 0.328125 -10.796875 L 0.34375 -12.703125 L 0.53125 -13.078125 L 0.953125 -13.265625 L 6.59375 -13.234375 L 7.03125 -13.28125 L 7.40625 -13.28125 L 7.796875 -13.25 L 8.171875 -13.25 L 8.578125 -13.3125 L 8.953125 -13.3125 L 9.25 -13.265625 L 9.703125 -13.3125 L 10.078125 -13.109375 L 10.265625 -12.734375 L 10.234375 -11.1875 L 10.265625 -10.78125 L 10.078125 -10.40625 L 9.640625 -10.234375 L 8.609375 -10.25 L 8.265625 -10.21875 L 7.890625 -10.234375 L 7.5625 -10.21875 L 7.140625 -10.046875 L 7 -9.703125 L 7.03125 -9.28125 L 6.96875 -8.90625 L 7.046875 -5.140625 L 7 -4.34375 L 7.03125 -4 L 7 -2.84375 L 6.9375 -2.4375 L 7 -2.125 L 7.015625 -1.359375 L 6.96875 -0.921875 L 7 -0.5625 L 6.84375 -0.1875 L 6.46875 -0.03125 L 5.28125 -0.03125 L 4.921875 0 L 4.546875 -0.03125 L 4.1875 0 L 3.796875 -0.1875 Z M 3.640625 -0.59375 "/></g></g></g><g fill="#ffffff" fill-opacity="1"><g transform="translate(22.690018, 50.984298)"><g><path d="M 1.453125 -0.609375 L 1.40625 -2.078125 L 1.4375 -2.484375 L 1.359375 -3.578125 L 1.421875 -4.359375 L 1.359375 -4.78125 L 1.390625 -5.5 L 1.421875 -5.890625 L 1.421875 -6.84375 L 1.359375 -7.390625 L 1.421875 -12.703125 L 1.578125 -13.09375 L 1.9375 -13.265625 L 2.34375 -13.25 L 2.703125 -13.3125 L 3.484375 -13.234375 L 3.84375 -13.28125 L 4.984375 -13.25 L 5.3125 -13.28125 L 5.71875 -13.25 L 6.109375 -13.28125 L 6.515625 -13.265625 L 7.0625 -13.28125 L 7.546875 -13.25 L 9.109375 -12.921875 L 9.78125 -12.578125 L 10.734375 -11.859375 L 10.890625 -11.578125 L 11.15625 -11.296875 L 11.671875 -10.25 L 11.765625 -9.875 L 11.828125 -9.515625 L 11.921875 -9.15625 L 11.90625 -7.65625 L 11.6875 -6.9375 L 11.5625 -6.609375 L 11.359375 -6.28125 L 11.21875 -5.90625 L 11 -5.59375 L 10.46875 -5.078125 L 10.25 -4.6875 L 10.3125 -4.21875 L 10.875 -3.234375 L 11.125 -2.9375 L 11.3125 -2.59375 L 11.546875 -2.25 L 11.71875 -1.9375 L 12.3125 -1 L 12.5625 -0.53125 L 12.484375 -0.125 L 12.09375 -0.03125 L 11.671875 0 L 10.921875 0 L 10.53125 -0.03125 L 10.125 0 L 9.4375 -0.03125 L 8.96875 -0.15625 L 8.578125 -0.5 L 8.359375 -0.796875 L 8.1875 -1.125 L 7.9375 -1.484375 L 7.40625 -2.421875 L 7.28125 -2.78125 L 6.78125 -3.453125 L 6.484375 -3.765625 L 6.015625 -3.921875 L 5.671875 -3.90625 L 5.328125 -3.90625 L 4.953125 -3.71875 L 4.78125 -3.328125 L 4.8125 -2.15625 L 4.75 -1.34375 L 4.828125 -0.953125 L 4.796875 -0.546875 L 4.65625 -0.1875 L 4.078125 0 L 3.5 0 L 3.109375 -0.03125 L 2.328125 0.015625 L 1.96875 0 L 1.59375 -0.1875 Z M 5.328125 -6.96875 L 5.75 -6.96875 L 6.125 -6.921875 L 7.59375 -7.046875 L 7.890625 -7.1875 L 8.109375 -7.40625 L 8.328125 -7.734375 L 8.46875 -8.109375 L 8.53125 -8.625 L 8.484375 -9.171875 L 8.359375 -9.46875 L 8.171875 -9.765625 L 7.578125 -10.125 L 6.703125 -10.234375 L 5.671875 -10.25 L 5.359375 -10.234375 L 4.984375 -10.046875 L 4.75 -9.671875 L 4.8125 -7.546875 L 5 -7.140625 Z M 5.328125 -6.96875 "/></g></g></g><g fill="#ffffff" fill-opacity="1"><g transform="translate(35.826339, 50.984298)"><g><path d="M 1.359375 -0.546875 L 1.4375 -0.921875 L 1.453125 -1.3125 L 1.421875 -2.046875 L 1.421875 -2.421875 L 1.390625 -2.859375 L 1.4375 -3.203125 L 1.421875 -3.5625 L 1.453125 -3.984375 L 1.40625 -4.375 L 1.4375 -5.140625 L 1.390625 -5.875 L 1.4375 -6.28125 L 1.4375 -9.671875 L 1.40625 -10 L 1.4375 -10.40625 L 1.359375 -11.375 L 1.4375 -11.921875 L 1.40625 -12.671875 L 1.59375 -13.09375 L 2.140625 -13.234375 L 4.625 -13.28125 L 4.96875 -13.25 L 5.703125 -13.265625 L 6.078125 -13.234375 L 6.921875 -13.265625 L 7.296875 -13.203125 L 7.640625 -13.25 L 9.15625 -13.234375 L 9.546875 -13.0625 L 9.734375 -12.671875 L 9.6875 -12.3125 L 9.671875 -11.90625 L 9.71875 -11.546875 L 9.765625 -10.765625 L 9.546875 -10.421875 L 9.15625 -10.21875 L 5.515625 -10.203125 L 4.921875 -10.03125 L 4.734375 -9.46875 L 4.78125 -8.890625 L 5 -8.546875 L 5.328125 -8.34375 L 6.828125 -8.359375 L 7.265625 -8.328125 L 7.65625 -8.328125 L 8.03125 -8.359375 L 8.796875 -8.34375 L 9.109375 -8.125 L 9.28125 -7.765625 L 9.328125 -7.390625 L 9.28125 -5.890625 L 9.09375 -5.53125 L 8.71875 -5.328125 L 8.375 -5.3125 L 7.984375 -5.34375 L 7.46875 -5.3125 L 6.46875 -5.359375 L 6.078125 -5.328125 L 5.34375 -5.328125 L 5 -5.125 L 4.828125 -4.71875 L 4.8125 -3.796875 L 4.984375 -3.203125 L 5.375 -2.96875 L 5.796875 -3.015625 L 6.21875 -2.96875 L 6.578125 -3.03125 L 9.078125 -3 L 9.640625 -2.8125 L 9.890625 -2.421875 L 9.859375 -2.0625 L 9.875 -0.890625 L 9.84375 -0.53125 L 9.671875 -0.171875 L 9.265625 0.015625 L 8.90625 0.0625 L 7.75 -0.015625 L 6.59375 0.03125 L 6.25 -0.015625 L 1.96875 0.015625 L 1.609375 -0.1875 Z M 1.359375 -0.546875 "/></g></g></g><g fill="#ffffff" fill-opacity="1"><g transform="translate(46.687969, 50.984298)"><g><path d="M 5.5 0.15625 L 4.703125 0.09375 L 4.34375 -0.03125 L 3.921875 -0.09375 L 2.5625 -0.71875 L 2.234375 -0.921875 L 1.6875 -1.484375 L 1.21875 -2.0625 L 0.90625 -2.828125 L 0.828125 -3.171875 L 0.796875 -3.578125 L 0.921875 -3.984375 L 1.3125 -4.15625 L 1.6875 -4.125 L 2.0625 -4.171875 L 3.5 -4.125 L 3.890625 -3.984375 L 4.171875 -3.59375 L 4.453125 -3.328125 L 4.796875 -3.125 L 5.078125 -3 L 5.515625 -2.875 L 6.078125 -2.84375 L 6.609375 -2.859375 L 7.3125 -3.078125 L 7.625 -3.234375 L 7.921875 -3.5 L 8.03125 -4 L 7.9375 -4.484375 L 7.671875 -4.71875 L 7 -5 L 6.609375 -5.015625 L 6.28125 -5.078125 L 4.71875 -5.1875 L 4.03125 -5.34375 L 2.953125 -5.703125 L 2.296875 -6.109375 L 1.765625 -6.59375 L 1.28125 -7.21875 L 1.046875 -7.890625 L 0.90625 -8.421875 L 0.890625 -9.6875 L 1.15625 -10.78125 L 1.34375 -11.09375 L 1.484375 -11.421875 L 1.71875 -11.671875 L 1.9375 -12 L 2.28125 -12.21875 L 2.546875 -12.46875 L 2.921875 -12.703125 L 3.21875 -12.8125 L 3.53125 -13 L 3.859375 -13.140625 L 5.359375 -13.4375 L 6.421875 -13.453125 L 6.84375 -13.359375 L 7.1875 -13.328125 L 7.578125 -13.25 L 8.625 -12.890625 L 9.84375 -12.046875 L 10.078125 -11.765625 L 10.265625 -11.46875 L 10.515625 -11.15625 L 10.828125 -10.484375 L 10.96875 -9.734375 L 10.796875 -9.375 L 10.4375 -9.15625 L 10.078125 -9.1875 L 9.734375 -9.15625 L 8.484375 -9.1875 L 7.90625 -9.375 L 7.28125 -10.046875 L 7 -10.265625 L 6.578125 -10.421875 L 5.359375 -10.390625 L 5.015625 -10.3125 L 4.75 -10.203125 L 4.4375 -9.953125 L 4.21875 -9.6875 L 4.171875 -9.1875 L 4.1875 -8.6875 L 4.484375 -8.375 L 4.78125 -8.21875 L 5.578125 -7.9375 L 7.484375 -7.6875 L 9.046875 -7.3125 L 10.046875 -6.859375 L 10.375 -6.59375 L 10.828125 -6.015625 L 11.203125 -5.3125 L 11.296875 -4.953125 L 11.359375 -4.5625 L 11.328125 -3.390625 L 11.28125 -3.046875 L 11.15625 -2.671875 L 11.015625 -2.328125 L 10.625 -1.71875 L 10.109375 -1.125 L 9.5 -0.703125 L 8.515625 -0.171875 L 6.65625 0.1875 L 6.046875 0.203125 Z M 5.5 0.15625 "/></g></g></g><g fill="#ffffff" fill-opacity="1"><g transform="translate(58.781723, 50.984298)"><g><path d="M 5.5 0.15625 L 4.703125 0.09375 L 4.34375 -0.03125 L 3.921875 -0.09375 L 2.5625 -0.71875 L 2.234375 -0.921875 L 1.6875 -1.484375 L 1.21875 -2.0625 L 0.90625 -2.828125 L 0.828125 -3.171875 L 0.796875 -3.578125 L 0.921875 -3.984375 L 1.3125 -4.15625 L 1.6875 -4.125 L 2.0625 -4.171875 L 3.5 -4.125 L 3.890625 -3.984375 L 4.171875 -3.59375 L 4.453125 -3.328125 L 4.796875 -3.125 L 5.078125 -3 L 5.515625 -2.875 L 6.078125 -2.84375 L 6.609375 -2.859375 L 7.3125 -3.078125 L 7.625 -3.234375 L 7.921875 -3.5 L 8.03125 -4 L 7.9375 -4.484375 L 7.671875 -4.71875 L 7 -5 L 6.609375 -5.015625 L 6.28125 -5.078125 L 4.71875 -5.1875 L 4.03125 -5.34375 L 2.953125 -5.703125 L 2.296875 -6.109375 L 1.765625 -6.59375 L 1.28125 -7.21875 L 1.046875 -7.890625 L 0.90625 -8.421875 L 0.890625 -9.6875 L 1.15625 -10.78125 L 1.34375 -11.09375 L 1.484375 -11.421875 L 1.71875 -11.671875 L 1.9375 -12 L 2.28125 -12.21875 L 2.546875 -12.46875 L 2.921875 -12.703125 L 3.21875 -12.8125 L 3.53125 -13 L 3.859375 -13.140625 L 5.359375 -13.4375 L 6.421875 -13.453125 L 6.84375 -13.359375 L 7.1875 -13.328125 L 7.578125 -13.25 L 8.625 -12.890625 L 9.84375 -12.046875 L 10.078125 -11.765625 L 10.265625 -11.46875 L 10.515625 -11.15625 L 10.828125 -10.484375 L 10.96875 -9.734375 L 10.796875 -9.375 L 10.4375 -9.15625 L 10.078125 -9.1875 L 9.734375 -9.15625 L 8.484375 -9.1875 L 7.90625 -9.375 L 7.28125 -10.046875 L 7 -10.265625 L 6.578125 -10.421875 L 5.359375 -10.390625 L 5.015625 -10.3125 L 4.75 -10.203125 L 4.4375 -9.953125 L 4.21875 -9.6875 L 4.171875 -9.1875 L 4.1875 -8.6875 L 4.484375 -8.375 L 4.78125 -8.21875 L 5.578125 -7.9375 L 7.484375 -7.6875 L 9.046875 -7.3125 L 10.046875 -6.859375 L 10.375 -6.59375 L 10.828125 -6.015625 L 11.203125 -5.3125 L 11.296875 -4.953125 L 11.359375 -4.5625 L 11.328125 -3.390625 L 11.28125 -3.046875 L 11.15625 -2.671875 L 11.015625 -2.328125 L 10.625 -1.71875 L 10.109375 -1.125 L 9.5 -0.703125 L 8.515625 -0.171875 L 6.65625 0.1875 L 6.046875 0.203125 Z M 5.5 0.15625 "/></g></g></g><g fill="#ffffff" fill-opacity="1"><g transform="translate(70.875476, 50.984298)"><g><path d="M 1.390625 -0.5625 L 1.359375 -1.28125 L 1.4375 -2.421875 L 1.390625 -3.203125 L 1.421875 -4.75 L 1.390625 -5.125 L 1.390625 -5.875 L 1.421875 -6.234375 L 1.359375 -6.640625 L 1.359375 -8.15625 L 1.40625 -8.515625 L 1.390625 -8.90625 L 1.421875 -9.265625 L 1.390625 -9.671875 L 1.4375 -10.0625 L 1.359375 -11.328125 L 1.40625 -11.890625 L 1.359375 -12.703125 L 1.53125 -13.09375 L 1.921875 -13.265625 L 7.625 -13.234375 L 8.6875 -12.984375 L 9.375 -12.609375 L 9.953125 -12.203125 L 10.21875 -11.9375 L 10.671875 -11.328125 L 10.78125 -10.96875 L 10.96875 -10.609375 L 11.1875 -9.90625 L 11.203125 -9.359375 L 10.9375 -8 L 10.703125 -7.671875 L 10.5 -7.296875 L 10.421875 -6.921875 L 10.59375 -6.5 L 10.875 -6.21875 L 11.140625 -5.890625 L 11.484375 -5.234375 L 11.625 -4.828125 L 11.6875 -4.46875 L 11.671875 -2.953125 L 11.53125 -2.578125 L 11.453125 -2.25 L 11.28125 -1.890625 L 10.84375 -1.265625 L 10.53125 -0.984375 L 10.296875 -0.796875 L 9.578125 -0.375 L 8.953125 -0.125 L 8.21875 -0.03125 L 1.953125 0.03125 L 1.59375 -0.125 Z M 5.265625 -8.125 L 6.6875 -8.125 L 7.328125 -8.265625 L 7.65625 -8.5625 L 7.75 -9.140625 L 7.6875 -9.640625 L 7.453125 -9.90625 L 7.21875 -10.0625 L 6.640625 -10.171875 L 5.265625 -10.234375 L 4.875 -10.03125 L 4.65625 -9.703125 L 4.703125 -9.34375 L 4.703125 -8.984375 L 4.625 -8.65625 L 4.8125 -8.28125 Z M 5.21875 -3.015625 L 6.6875 -3 L 7.71875 -3.09375 L 8.0625 -3.296875 L 8.296875 -3.5625 L 8.34375 -4.0625 L 8.296875 -4.59375 L 8.015625 -4.859375 L 7.734375 -5.0625 L 7.203125 -5.15625 L 5.1875 -5.15625 L 4.8125 -4.96875 L 4.6875 -4.625 L 4.65625 -4.25 L 4.703125 -3.890625 L 4.6875 -3.5625 L 4.890625 -3.171875 Z M 5.21875 -3.015625 "/></g></g></g><g fill="#ffffff" fill-opacity="1"><g transform="translate(83.386257, 50.984298)"><g><path d="M 1.359375 -0.546875 L 1.4375 -0.921875 L 1.453125 -1.3125 L 1.421875 -2.046875 L 1.421875 -2.421875 L 1.390625 -2.859375 L 1.4375 -3.203125 L 1.421875 -3.5625 L 1.453125 -3.984375 L 1.40625 -4.375 L 1.4375 -5.140625 L 1.390625 -5.875 L 1.4375 -6.28125 L 1.4375 -9.671875 L 1.40625 -10 L 1.4375 -10.40625 L 1.359375 -11.375 L 1.4375 -11.921875 L 1.40625 -12.671875 L 1.59375 -13.09375 L 2.140625 -13.234375 L 4.625 -13.28125 L 4.96875 -13.25 L 5.703125 -13.265625 L 6.078125 -13.234375 L 6.921875 -13.265625 L 7.296875 -13.203125 L 7.640625 -13.25 L 9.15625 -13.234375 L 9.546875 -13.0625 L 9.734375 -12.671875 L 9.6875 -12.3125 L 9.671875 -11.90625 L 9.71875 -11.546875 L 9.765625 -10.765625 L 9.546875 -10.421875 L 9.15625 -10.21875 L 5.515625 -10.203125 L 4.921875 -10.03125 L 4.734375 -9.46875 L 4.78125 -8.890625 L 5 -8.546875 L 5.328125 -8.34375 L 6.828125 -8.359375 L 7.265625 -8.328125 L 7.65625 -8.328125 L 8.03125 -8.359375 L 8.796875 -8.34375 L 9.109375 -8.125 L 9.28125 -7.765625 L 9.328125 -7.390625 L 9.28125 -5.890625 L 9.09375 -5.53125 L 8.71875 -5.328125 L 8.375 -5.3125 L 7.984375 -5.34375 L 7.46875 -5.3125 L 6.46875 -5.359375 L 6.078125 -5.328125 L 5.34375 -5.328125 L 5 -5.125 L 4.828125 -4.71875 L 4.8125 -3.796875 L 4.984375 -3.203125 L 5.375 -2.96875 L 5.796875 -3.015625 L 6.21875 -2.96875 L 6.578125 -3.03125 L 9.078125 -3 L 9.640625 -2.8125 L 9.890625 -2.421875 L 9.859375 -2.0625 L 9.875 -0.890625 L 9.84375 -0.53125 L 9.671875 -0.171875 L 9.265625 0.015625 L 8.90625 0.0625 L 7.75 -0.015625 L 6.59375 0.03125 L 6.25 -0.015625 L 1.96875 0.015625 L 1.609375 -0.1875 Z M 1.359375 -0.546875 "/></g></g></g><g fill="#ffffff" fill-opacity="1"><g transform="translate(94.247887, 50.984298)"><g><path d="M 1.4375 -0.53125 L 1.40625 -2.46875 L 1.4375 -2.84375 L 1.390625 -3.1875 L 1.4375 -3.5625 L 1.40625 -3.984375 L 1.453125 -4.875 L 1.421875 -5.3125 L 1.453125 -5.890625 L 1.40625 -6.25 L 1.40625 -7.359375 L 1.4375 -7.75 L 1.359375 -8.90625 L 1.4375 -9.28125 L 1.40625 -9.609375 L 1.453125 -10.03125 L 1.359375 -11.15625 L 1.421875 -11.53125 L 1.390625 -11.9375 L 1.390625 -12.296875 L 1.4375 -12.71875 L 1.65625 -13.046875 L 2.234375 -13.203125 L 2.59375 -13.25 L 2.96875 -13.203125 L 4.09375 -13.25 L 4.6875 -13.0625 L 4.90625 -12.65625 L 4.890625 -12.34375 L 4.953125 -10.46875 L 4.90625 -10.125 L 4.90625 -8.984375 L 5.0625 -8.625 L 5.453125 -8.453125 L 7.296875 -8.46875 L 7.640625 -8.4375 L 8.390625 -8.4375 L 8.71875 -8.625 L 8.921875 -9 L 8.921875 -10.109375 L 9 -10.421875 L 8.96875 -12.484375 L 9.109375 -13.046875 L 9.6875 -13.203125 L 10.0625 -13.203125 L 10.671875 -13.265625 L 11.640625 -13.25 L 12.21875 -13.0625 L 12.421875 -12.671875 L 12.453125 -12.296875 L 12.375 -11.921875 L 12.421875 -11.5625 L 12.484375 -11.203125 L 12.390625 -9.625 L 12.453125 -7.765625 L 12.421875 -7.359375 L 12.4375 -6.640625 L 12.375 -6.234375 L 12.375 -5.859375 L 12.421875 -5.453125 L 12.390625 -5.078125 L 12.46875 -4.359375 L 12.46875 -1.3125 L 12.390625 -0.53125 L 12.1875 -0.171875 L 11.8125 0.03125 L 10.5 0.03125 L 9.9375 -0.015625 L 9.546875 0.015625 L 9.171875 -0.171875 L 8.984375 -0.5625 L 8.921875 -1.3125 L 9 -1.875 L 8.921875 -3.21875 L 8.984375 -3.578125 L 8.921875 -4.734375 L 8.734375 -5.125 L 8.390625 -5.3125 L 8.03125 -5.3125 L 7.65625 -5.34375 L 7.28125 -5.3125 L 6.15625 -5.3125 L 5.8125 -5.34375 L 5.421875 -5.34375 L 5.046875 -5.125 L 4.859375 -4.71875 L 4.90625 -3.21875 L 4.875 -2.828125 L 4.890625 -2.40625 L 4.859375 -2.046875 L 4.890625 -1.671875 L 4.859375 -1.328125 L 4.90625 -0.90625 L 4.890625 -0.53125 L 4.734375 -0.15625 L 4.328125 0.015625 L 3.921875 0.0625 L 3.53125 0 L 2.96875 -0.015625 L 2.390625 0.03125 L 2.03125 0.03125 L 1.59375 -0.125 Z M 1.4375 -0.53125 "/></g></g></g><g fill="#ffffff" fill-opacity="1"><g transform="translate(108.123477, 50.984298)"><g><path d="M 1.359375 -0.546875 L 1.4375 -0.921875 L 1.453125 -1.3125 L 1.421875 -2.046875 L 1.421875 -2.421875 L 1.390625 -2.859375 L 1.4375 -3.203125 L 1.421875 -3.5625 L 1.453125 -3.984375 L 1.40625 -4.375 L 1.4375 -5.140625 L 1.390625 -5.875 L 1.4375 -6.28125 L 1.4375 -9.671875 L 1.40625 -10 L 1.4375 -10.40625 L 1.359375 -11.375 L 1.4375 -11.921875 L 1.40625 -12.671875 L 1.59375 -13.09375 L 2.140625 -13.234375 L 4.625 -13.28125 L 4.96875 -13.25 L 5.703125 -13.265625 L 6.078125 -13.234375 L 6.921875 -13.265625 L 7.296875 -13.203125 L 7.640625 -13.25 L 9.15625 -13.234375 L 9.546875 -13.0625 L 9.734375 -12.671875 L 9.6875 -12.3125 L 9.671875 -11.90625 L 9.71875 -11.546875 L 9.765625 -10.765625 L 9.546875 -10.421875 L 9.15625 -10.21875 L 5.515625 -10.203125 L 4.921875 -10.03125 L 4.734375 -9.46875 L 4.78125 -8.890625 L 5 -8.546875 L 5.328125 -8.34375 L 6.828125 -8.359375 L 7.265625 -8.328125 L 7.65625 -8.328125 L 8.03125 -8.359375 L 8.796875 -8.34375 L 9.109375 -8.125 L 9.28125 -7.765625 L 9.328125 -7.390625 L 9.28125 -5.890625 L 9.09375 -5.53125 L 8.71875 -5.328125 L 8.375 -5.3125 L 7.984375 -5.34375 L 7.46875 -5.3125 L 6.46875 -5.359375 L 6.078125 -5.328125 L 5.34375 -5.328125 L 5 -5.125 L 4.828125 -4.71875 L 4.8125 -3.796875 L 4.984375 -3.203125 L 5.375 -2.96875 L 5.796875 -3.015625 L 6.21875 -2.96875 L 6.578125 -3.03125 L 9.078125 -3 L 9.640625 -2.8125 L 9.890625 -2.421875 L 9.859375 -2.0625 L 9.875 -0.890625 L 9.84375 -0.53125 L 9.671875 -0.171875 L 9.265625 0.015625 L 8.90625 0.0625 L 7.75 -0.015625 L 6.59375 0.03125 L 6.25 -0.015625 L 1.96875 0.015625 L 1.609375 -0.1875 Z M 1.359375 -0.546875 "/></g></g></g><g fill="#ffffff" fill-opacity="1"><g transform="translate(118.985108, 50.984298)"><g><path d="M 1.359375 -0.546875 L 1.4375 -0.921875 L 1.453125 -1.3125 L 1.421875 -2.046875 L 1.421875 -2.421875 L 1.390625 -2.859375 L 1.4375 -3.203125 L 1.421875 -3.5625 L 1.453125 -3.984375 L 1.40625 -4.375 L 1.4375 -5.140625 L 1.390625 -5.875 L 1.4375 -6.28125 L 1.4375 -9.671875 L 1.40625 -10 L 1.4375 -10.40625 L 1.359375 -11.375 L 1.4375 -11.921875 L 1.40625 -12.671875 L 1.59375 -13.09375 L 2.140625 -13.234375 L 4.625 -13.28125 L 4.96875 -13.25 L 5.703125 -13.265625 L 6.078125 -13.234375 L 6.921875 -13.265625 L 7.296875 -13.203125 L 7.640625 -13.25 L 9.15625 -13.234375 L 9.546875 -13.0625 L 9.734375 -12.671875 L 9.6875 -12.3125 L 9.671875 -11.90625 L 9.71875 -11.546875 L 9.765625 -10.765625 L 9.546875 -10.421875 L 9.15625 -10.21875 L 5.515625 -10.203125 L 4.921875 -10.03125 L 4.734375 -9.46875 L 4.78125 -8.890625 L 5 -8.546875 L 5.328125 -8.34375 L 6.828125 -8.359375 L 7.265625 -8.328125 L 7.65625 -8.328125 L 8.03125 -8.359375 L 8.796875 -8.34375 L 9.109375 -8.125 L 9.28125 -7.765625 L 9.328125 -7.390625 L 9.28125 -5.890625 L 9.09375 -5.53125 L 8.71875 -5.328125 L 8.375 -5.3125 L 7.984375 -5.34375 L 7.46875 -5.3125 L 6.46875 -5.359375 L 6.078125 -5.328125 L 5.34375 -5.328125 L 5 -5.125 L 4.828125 -4.71875 L 4.8125 -3.796875 L 4.984375 -3.203125 L 5.375 -2.96875 L 5.796875 -3.015625 L 6.21875 -2.96875 L 6.578125 -3.03125 L 9.078125 -3 L 9.640625 -2.8125 L 9.890625 -2.421875 L 9.859375 -2.0625 L 9.875 -0.890625 L 9.84375 -0.53125 L 9.671875 -0.171875 L 9.265625 0.015625 L 8.90625 0.0625 L 7.75 -0.015625 L 6.59375 0.03125 L 6.25 -0.015625 L 1.96875 0.015625 L 1.609375 -0.1875 Z M 1.359375 -0.546875 "/></g></g></g><g fill="#ffffff" fill-opacity="1"><g transform="translate(129.846738, 50.984298)"><g><path d="M 1.453125 -0.609375 L 1.40625 -2.078125 L 1.4375 -2.484375 L 1.359375 -3.578125 L 1.421875 -4.359375 L 1.359375 -4.78125 L 1.390625 -5.5 L 1.421875 -5.890625 L 1.421875 -6.84375 L 1.359375 -7.390625 L 1.421875 -12.703125 L 1.578125 -13.09375 L 1.9375 -13.265625 L 2.34375 -13.25 L 2.703125 -13.3125 L 3.484375 -13.234375 L 3.84375 -13.28125 L 4.984375 -13.25 L 5.3125 -13.28125 L 5.71875 -13.25 L 6.109375 -13.28125 L 6.515625 -13.265625 L 7.0625 -13.28125 L 7.546875 -13.25 L 9.109375 -12.921875 L 9.78125 -12.578125 L 10.734375 -11.859375 L 10.890625 -11.578125 L 11.15625 -11.296875 L 11.671875 -10.25 L 11.765625 -9.875 L 11.828125 -9.515625 L 11.921875 -9.15625 L 11.90625 -7.65625 L 11.6875 -6.9375 L 11.5625 -6.609375 L 11.359375 -6.28125 L 11.21875 -5.90625 L 11 -5.59375 L 10.46875 -5.078125 L 10.25 -4.6875 L 10.3125 -4.21875 L 10.875 -3.234375 L 11.125 -2.9375 L 11.3125 -2.59375 L 11.546875 -2.25 L 11.71875 -1.9375 L 12.3125 -1 L 12.5625 -0.53125 L 12.484375 -0.125 L 12.09375 -0.03125 L 11.671875 0 L 10.921875 0 L 10.53125 -0.03125 L 10.125 0 L 9.4375 -0.03125 L 8.96875 -0.15625 L 8.578125 -0.5 L 8.359375 -0.796875 L 8.1875 -1.125 L 7.9375 -1.484375 L 7.40625 -2.421875 L 7.28125 -2.78125 L 6.78125 -3.453125 L 6.484375 -3.765625 L 6.015625 -3.921875 L 5.671875 -3.90625 L 5.328125 -3.90625 L 4.953125 -3.71875 L 4.78125 -3.328125 L 4.8125 -2.15625 L 4.75 -1.34375 L 4.828125 -0.953125 L 4.796875 -0.546875 L 4.65625 -0.1875 L 4.078125 0 L 3.5 0 L 3.109375 -0.03125 L 2.328125 0.015625 L 1.96875 0 L 1.59375 -0.1875 Z M 5.328125 -6.96875 L 5.75 -6.96875 L 6.125 -6.921875 L 7.59375 -7.046875 L 7.890625 -7.1875 L 8.109375 -7.40625 L 8.328125 -7.734375 L 8.46875 -8.109375 L 8.53125 -8.625 L 8.484375 -9.171875 L 8.359375 -9.46875 L 8.171875 -9.765625 L 7.578125 -10.125 L 6.703125 -10.234375 L 5.671875 -10.25 L 5.359375 -10.234375 L 4.984375 -10.046875 L 4.75 -9.671875 L 4.8125 -7.546875 L 5 -7.140625 Z M 5.328125 -6.96875 "/></g></g></g><g fill="#ffffff" fill-opacity="1"><g transform="translate(142.983059, 50.984298)"><g><path d="M 5.5 0.15625 L 4.703125 0.09375 L 4.34375 -0.03125 L 3.921875 -0.09375 L 2.5625 -0.71875 L 2.234375 -0.921875 L 1.6875 -1.484375 L 1.21875 -2.0625 L 0.90625 -2.828125 L 0.828125 -3.171875 L 0.796875 -3.578125 L 0.921875 -3.984375 L 1.3125 -4.15625 L 1.6875 -4.125 L 2.0625 -4.171875 L 3.5 -4.125 L 3.890625 -3.984375 L 4.171875 -3.59375 L 4.453125 -3.328125 L 4.796875 -3.125 L 5.078125 -3 L 5.515625 -2.875 L 6.078125 -2.84375 L 6.609375 -2.859375 L 7.3125 -3.078125 L 7.625 -3.234375 L 7.921875 -3.5 L 8.03125 -4 L 7.9375 -4.484375 L 7.671875 -4.71875 L 7 -5 L 6.609375 -5.015625 L 6.28125 -5.078125 L 4.71875 -5.1875 L 4.03125 -5.34375 L 2.953125 -5.703125 L 2.296875 -6.109375 L 1.765625 -6.59375 L 1.28125 -7.21875 L 1.046875 -7.890625 L 0.90625 -8.421875 L 0.890625 -9.6875 L 1.15625 -10.78125 L 1.34375 -11.09375 L 1.484375 -11.421875 L 1.71875 -11.671875 L 1.9375 -12 L 2.28125 -12.21875 L 2.546875 -12.46875 L 2.921875 -12.703125 L 3.21875 -12.8125 L 3.53125 -13 L 3.859375 -13.140625 L 5.359375 -13.4375 L 6.421875 -13.453125 L 6.84375 -13.359375 L 7.1875 -13.328125 L 7.578125 -13.25 L 8.625 -12.890625 L 9.84375 -12.046875 L 10.078125 -11.765625 L 10.265625 -11.46875 L 10.515625 -11.15625 L 10.828125 -10.484375 L 10.96875 -9.734375 L 10.796875 -9.375 L 10.4375 -9.15625 L 10.078125 -9.1875 L 9.734375 -9.15625 L 8.484375 -9.1875 L 7.90625 -9.375 L 7.28125 -10.046875 L 7 -10.265625 L 6.578125 -10.421875 L 5.359375 -10.390625 L 5.015625 -10.3125 L 4.75 -10.203125 L 4.4375 -9.953125 L 4.21875 -9.6875 L 4.171875 -9.1875 L 4.1875 -8.6875 L 4.484375 -8.375 L 4.78125 -8.21875 L 5.578125 -7.9375 L 7.484375 -7.6875 L 9.046875 -7.3125 L 10.046875 -6.859375 L 10.375 -6.59375 L 10.828125 -6.015625 L 11.203125 -5.3125 L 11.296875 -4.953125 L 11.359375 -4.5625 L 11.328125 -3.390625 L 11.28125 -3.046875 L 11.15625 -2.671875 L 11.015625 -2.328125 L 10.625 -1.71875 L 10.109375 -1.125 L 9.5 -0.703125 L 8.515625 -0.171875 L 6.65625 0.1875 L 6.046875 0.203125 Z M 5.5 0.15625 "/></g></g></g><g fill="#ffffff" fill-opacity="1"><g transform="translate(155.076812, 50.984298)"><g><path d="M 0.90625 -0.546875 L 0.90625 -2.015625 L 0.953125 -2.375 L 1.171875 -2.734375 L 2.421875 -3.125 L 2.609375 -3.546875 L 2.65625 -4.28125 L 2.578125 -5.09375 L 2.671875 -5.484375 L 2.59375 -6.21875 L 2.640625 -6.59375 L 2.65625 -7.375 L 2.59375 -7.8125 L 2.578125 -8.125 L 2.640625 -9.734375 L 2.390625 -10.078125 L 1.234375 -10.484375 L 1.046875 -10.84375 L 1.046875 -11.203125 L 1 -11.578125 L 1 -12 L 1.046875 -12.3125 L 1.046875 -12.671875 L 1.25 -13.078125 L 1.671875 -13.265625 L 2.40625 -13.234375 L 2.765625 -13.25 L 3.921875 -13.234375 L 4.34375 -13.265625 L 6.75 -13.25 L 7.359375 -13.078125 L 7.5 -12.703125 L 7.546875 -12.3125 L 7.5 -11.984375 L 7.5 -10.859375 L 7.296875 -10.5 L 6.9375 -10.296875 L 6.515625 -10.265625 L 6.15625 -10.0625 L 5.953125 -9.71875 L 5.953125 -8.921875 L 5.984375 -8.53125 L 5.953125 -8.15625 L 5.984375 -7.796875 L 5.953125 -7.203125 L 5.984375 -6.640625 L 5.90625 -5.84375 L 5.984375 -5.078125 L 5.953125 -3.53125 L 6.15625 -3.140625 L 7.421875 -2.75 L 7.6875 -2.421875 L 7.640625 -1.265625 L 7.671875 -0.921875 L 7.671875 -0.515625 L 7.46875 -0.171875 L 7.109375 0.015625 L 1.484375 -0.015625 L 1.09375 -0.15625 Z M 0.90625 -0.546875 "/></g></g></g><g fill="#ffffff" fill-opacity="1"><g transform="translate(163.682709, 50.984298)"><g><path d="M 11.1875 -0.296875 L 10.9375 -0.546875 L 10.703125 -0.828125 L 10.40625 -1.078125 L 10.15625 -1.390625 L 8.328125 -3.21875 L 8.015625 -3.46875 L 5.3125 -6.125 L 5.0625 -6.171875 L 4.875 -5.953125 L 4.953125 -5.546875 L 4.890625 -0.90625 L 4.953125 -0.53125 L 4.78125 -0.15625 L 4.390625 0.03125 L 3.96875 0 L 3.5625 0.0625 L 2.609375 0 L 1.96875 0.03125 L 1.609375 -0.171875 L 1.4375 -0.59375 L 1.4375 -0.953125 L 1.390625 -1.328125 L 1.4375 -2.046875 L 1.40625 -2.421875 L 1.421875 -3.203125 L 1.359375 -3.59375 L 1.359375 -3.96875 L 1.40625 -4.375 L 1.40625 -4.734375 L 1.4375 -5.078125 L 1.359375 -7.796875 L 1.421875 -8.1875 L 1.40625 -8.578125 L 1.4375 -8.921875 L 1.390625 -9.703125 L 1.421875 -10.078125 L 1.390625 -12.734375 L 1.625 -13.09375 L 2.078125 -13.328125 L 2.59375 -13.171875 L 3.359375 -12.65625 L 4.375 -11.625 L 4.625 -11.296875 L 4.953125 -11.0625 L 5.140625 -10.78125 L 5.5 -10.53125 L 5.703125 -10.25 L 6.296875 -9.765625 L 6.6875 -9.34375 L 6.90625 -9.078125 L 7.203125 -8.84375 L 7.859375 -8.171875 L 8.15625 -7.9375 L 8.984375 -7.09375 L 9.25 -7.015625 L 9.34375 -7.3125 L 9.328125 -8.078125 L 9.40625 -8.46875 L 9.40625 -8.828125 L 9.328125 -9.234375 L 9.34375 -12.671875 L 9.53125 -13.078125 L 9.984375 -13.265625 L 10.375 -13.25 L 10.703125 -13.28125 L 11.109375 -13.234375 L 11.53125 -13.265625 L 11.890625 -13.265625 L 12.265625 -13.234375 L 12.671875 -13.046875 L 12.90625 -12.703125 L 12.875 -11.71875 L 12.90625 -11.140625 L 12.828125 -10.765625 L 12.828125 -10 L 12.875 -9.640625 L 12.8125 -8.890625 L 12.890625 -6.609375 L 12.84375 -6.203125 L 12.921875 -5.671875 L 12.828125 -0.515625 L 12.65625 -0.109375 L 12.21875 0.09375 L 11.734375 -0.0625 Z M 11.1875 -0.296875 "/></g></g></g><g fill="#ffffff" fill-opacity="1"><g transform="translate(177.975326, 50.984298)"><g><path d="M 6.9375 0.234375 L 6.53125 0.1875 L 5.484375 -0.03125 L 4.421875 -0.421875 L 4.078125 -0.59375 L 2.859375 -1.40625 L 2.328125 -1.953125 L 1.65625 -2.8125 L 1.4375 -3.171875 L 1.046875 -4.203125 L 0.71875 -5.671875 L 0.703125 -6.0625 L 0.734375 -6.59375 L 0.703125 -7.546875 L 0.90625 -8.375 L 0.921875 -8.71875 L 1.515625 -10.15625 L 1.71875 -10.515625 L 2.015625 -10.78125 L 2.203125 -11.09375 L 2.4375 -11.40625 L 3.015625 -11.9375 L 3.96875 -12.578125 L 4.296875 -12.75 L 5.75 -13.265625 L 6.90625 -13.453125 L 8.78125 -13.359375 L 9.1875 -13.25 L 9.578125 -13.1875 L 9.875 -13.0625 L 10.296875 -12.9375 L 11.578125 -12.15625 L 12.125 -11.59375 L 12.609375 -11 L 12.875 -10.734375 L 13.46875 -9.328125 L 13.34375 -8.90625 L 13.015625 -8.796875 L 12.65625 -8.75 L 10.796875 -8.75 L 10.390625 -8.953125 L 9.96875 -9.25 L 9.78125 -9.546875 L 8.828125 -10.140625 L 8.46875 -10.234375 L 7.484375 -10.34375 L 6.953125 -10.328125 L 6.21875 -10.078125 L 5.890625 -9.9375 L 5.265625 -9.5 L 4.78125 -8.96875 L 4.484375 -8.265625 L 4.421875 -7.890625 L 4.203125 -7.203125 L 4.328125 -5.3125 L 4.453125 -4.953125 L 4.65625 -4.609375 L 4.8125 -4.28125 L 5.015625 -3.96875 L 5.59375 -3.5 L 6.28125 -3.140625 L 6.609375 -3.015625 L 6.953125 -2.9375 L 7.546875 -2.90625 L 8.09375 -2.921875 L 8.46875 -2.96875 L 9.1875 -3.203125 L 9.5 -3.359375 L 10.046875 -3.890625 L 10.203125 -4.1875 L 10.125 -4.515625 L 9.859375 -4.71875 L 8.71875 -4.65625 L 8.375 -4.703125 L 8.015625 -4.703125 L 7.65625 -4.875 L 7.546875 -5.1875 L 7.46875 -5.546875 L 7.5 -6.96875 L 7.671875 -7.328125 L 8.265625 -7.546875 L 13.015625 -7.546875 L 13.578125 -7.375 L 13.796875 -7 L 13.859375 -6.609375 L 13.78125 -5.171875 L 13.671875 -4.796875 L 13.640625 -4.4375 L 13.40625 -3.625 L 12.96875 -2.75 L 12.359375 -1.859375 L 11.8125 -1.265625 L 11.1875 -0.875 L 10.921875 -0.640625 L 9.515625 -0.03125 L 9.1875 0.0625 L 8.828125 0.078125 L 8.453125 0.15625 L 7.421875 0.25 Z M 6.9375 0.234375 "/></g></g></g></svg>