<svg xmlns="http://www.w3.org/2000/svg" xmlns:xlink="http://www.w3.org/1999/xlink" width="189" zoomAndPan="magnify" viewBox="0 0 141.75 42.75" height="57" preserveAspectRatio="xMidYMid meet" version="1.0"><defs><g/><clipPath id="1b1109148d"><path d="M 4.800781 9.789062 L 37.605469 9.789062 L 37.605469 42.5 L 4.800781 42.5 Z M 4.800781 9.789062 " clip-rule="nonzero"/></clipPath></defs><g clip-path="url(#1b1109148d)"><path fill="#ffffff" d="M 21.039062 42.269531 C 12.085938 42.269531 4.800781 34.984375 4.800781 26.03125 C 4.800781 17.074219 12.085938 9.789062 21.039062 9.789062 C 29.996094 9.789062 37.28125 17.074219 37.28125 26.03125 C 37.28125 34.984375 29.996094 42.269531 21.039062 42.269531 Z M 21.039062 11.144531 C 12.832031 11.144531 6.152344 17.820312 6.152344 26.03125 C 6.152344 34.238281 12.832031 40.917969 21.039062 40.917969 C 29.25 40.917969 35.925781 34.238281 35.925781 26.03125 C 35.925781 17.820312 29.25 11.144531 21.039062 11.144531 Z M 21.039062 11.144531 " fill-opacity="1" fill-rule="nonzero"/></g><path fill="#ffffff" d="M 25.738281 35.507812 C 24.359375 35.507812 22.945312 35.140625 21.816406 34.789062 C 19.59375 34.09375 17.542969 32.851562 15.878906 31.191406 C 13.648438 28.957031 12.125 25.972656 11.703125 23.007812 C 11.511719 21.675781 11.402344 19.972656 12.234375 18.613281 C 13.015625 17.34375 14.421875 16.554688 15.914062 16.554688 C 16.171875 16.554688 16.425781 16.585938 16.667969 16.625 C 16.679688 16.628906 16.691406 16.628906 16.703125 16.632812 C 17.542969 16.789062 18.207031 17.507812 18.328125 18.390625 L 18.890625 22.617188 C 19.011719 23.511719 18.539062 24.394531 17.738281 24.769531 C 17.648438 24.808594 17.558594 24.847656 17.46875 24.882812 C 17.941406 25.917969 18.589844 26.847656 19.402344 27.664062 C 20.21875 28.480469 21.152344 29.128906 22.1875 29.601562 C 22.21875 29.511719 22.257812 29.417969 22.296875 29.332031 C 22.671875 28.53125 23.558594 28.054688 24.449219 28.179688 L 28.679688 28.742188 C 29.566406 28.863281 30.292969 29.539062 30.441406 30.386719 C 30.484375 30.640625 30.515625 30.894531 30.515625 31.15625 C 30.515625 32.5625 29.828125 33.882812 28.675781 34.691406 C 27.816406 35.292969 26.789062 35.507812 25.738281 35.507812 Z M 15.914062 17.910156 C 14.890625 17.910156 13.921875 18.449219 13.386719 19.320312 C 12.78125 20.3125 12.882812 21.710938 13.042969 22.816406 C 13.421875 25.496094 14.804688 28.203125 16.835938 30.230469 C 18.34375 31.738281 20.203125 32.867188 22.21875 33.496094 C 24.925781 34.335938 26.78125 34.367188 27.902344 33.582031 C 28.675781 33.039062 29.160156 32.105469 29.160156 31.15625 C 29.160156 30.96875 29.136719 30.792969 29.109375 30.625 C 29.058594 30.34375 28.8125 30.125 28.503906 30.082031 L 24.273438 29.515625 C 23.964844 29.484375 23.652344 29.632812 23.53125 29.898438 C 23.425781 30.125 23.347656 30.371094 23.304688 30.628906 C 23.269531 30.828125 23.148438 31 22.972656 31.101562 C 22.800781 31.199219 22.589844 31.21875 22.402344 31.148438 C 20.910156 30.601562 19.582031 29.75 18.453125 28.621094 C 17.324219 27.492188 16.472656 26.160156 15.921875 24.667969 C 15.855469 24.476562 15.871094 24.269531 15.972656 24.09375 C 16.070312 23.921875 16.242188 23.800781 16.441406 23.769531 C 16.699219 23.722656 16.945312 23.644531 17.171875 23.539062 C 17.4375 23.414062 17.597656 23.109375 17.554688 22.796875 L 16.984375 18.566406 C 16.945312 18.257812 16.722656 18.007812 16.449219 17.960938 C 16.40625 17.953125 16.359375 17.941406 16.316406 17.921875 C 16.273438 17.933594 16.097656 17.910156 15.914062 17.910156 Z M 15.914062 17.910156 " fill-opacity="1" fill-rule="nonzero"/><g fill="#ffffff" fill-opacity="1"><g transform="translate(41.793249, 37.40097)"><g><path d="M 3.046875 -7.859375 C 3.867188 -7.859375 4.5 -7.523438 4.9375 -6.859375 C 5.375 -6.203125 5.59375 -5.203125 5.59375 -3.859375 C 5.59375 -2.515625 5.375 -1.515625 4.9375 -0.859375 C 4.507812 -0.203125 3.878906 0.125 3.046875 0.125 C 1.335938 0.125 0.484375 -1.203125 0.484375 -3.859375 C 0.484375 -5.160156 0.695312 -6.148438 1.125 -6.828125 C 1.550781 -7.515625 2.191406 -7.859375 3.046875 -7.859375 Z M 1.46875 -3.859375 C 1.46875 -2.785156 1.59375 -1.984375 1.84375 -1.453125 C 2.09375 -0.921875 2.492188 -0.65625 3.046875 -0.65625 C 3.597656 -0.65625 3.992188 -0.921875 4.234375 -1.453125 C 4.484375 -1.984375 4.609375 -2.785156 4.609375 -3.859375 C 4.609375 -4.984375 4.476562 -5.800781 4.21875 -6.3125 C 3.96875 -6.820312 3.570312 -7.078125 3.03125 -7.078125 C 2.488281 -7.078125 2.09375 -6.8125 1.84375 -6.28125 C 1.59375 -5.75 1.46875 -4.941406 1.46875 -3.859375 Z M 1.46875 -3.859375 "/></g></g></g><g fill="#ffffff" fill-opacity="1"><g transform="translate(47.869399, 37.40097)"><g><path d="M 4.53125 -2.75 L 5.578125 -2.75 L 5.578125 -1.875 L 4.53125 -1.875 L 4.53125 0 L 3.5625 0 L 3.5625 -1.875 L 0.15625 -1.875 L 0.15625 -2.75 L 3.734375 -7.828125 L 4.53125 -7.828125 Z M 1.109375 -2.75 L 3.5625 -2.75 L 3.5625 -6.28125 Z M 1.109375 -2.75 "/></g></g></g><g fill="#ffffff" fill-opacity="1"><g transform="translate(53.945548, 37.40097)"><g><path d="M 5.59375 -6.984375 C 5.101562 -6.460938 4.640625 -5.828125 4.203125 -5.078125 C 3.773438 -4.328125 3.414062 -3.507812 3.125 -2.625 C 2.84375 -1.75 2.671875 -0.875 2.609375 0 L 1.625 0 C 1.632812 -0.6875 1.753906 -1.441406 1.984375 -2.265625 C 2.210938 -3.085938 2.53125 -3.898438 2.9375 -4.703125 C 3.351562 -5.503906 3.828125 -6.203125 4.359375 -6.796875 L 0.53125 -6.796875 L 0.53125 -7.71875 L 5.59375 -7.71875 Z M 5.59375 -6.984375 "/></g></g></g><g fill="#ffffff" fill-opacity="1"><g transform="translate(60.021698, 37.40097)"><g><path d="M 3.03125 -7.859375 C 3.519531 -7.859375 3.945312 -7.765625 4.3125 -7.578125 C 4.6875 -7.390625 4.972656 -7.132812 5.171875 -6.8125 C 5.367188 -6.488281 5.46875 -6.128906 5.46875 -5.734375 C 5.46875 -5.316406 5.363281 -4.921875 5.15625 -4.546875 C 4.945312 -4.171875 4.691406 -3.832031 4.390625 -3.53125 C 4.097656 -3.238281 3.71875 -2.898438 3.25 -2.515625 C 2.78125 -2.128906 2.425781 -1.820312 2.1875 -1.59375 C 1.957031 -1.375 1.773438 -1.148438 1.640625 -0.921875 L 5.484375 -0.921875 L 5.484375 0 L 0.3125 0 C 0.3125 -0.445312 0.472656 -0.898438 0.796875 -1.359375 C 1.128906 -1.828125 1.570312 -2.289062 2.125 -2.75 C 2.6875 -3.21875 3.128906 -3.601562 3.453125 -3.90625 C 3.773438 -4.207031 4.023438 -4.503906 4.203125 -4.796875 C 4.390625 -5.097656 4.484375 -5.398438 4.484375 -5.703125 C 4.484375 -6.097656 4.34375 -6.425781 4.0625 -6.6875 C 3.789062 -6.945312 3.441406 -7.078125 3.015625 -7.078125 C 2.578125 -7.078125 2.210938 -6.941406 1.921875 -6.671875 C 1.628906 -6.410156 1.476562 -6.015625 1.46875 -5.484375 L 0.484375 -5.59375 C 0.554688 -6.332031 0.8125 -6.894531 1.25 -7.28125 C 1.695312 -7.664062 2.289062 -7.859375 3.03125 -7.859375 Z M 3.03125 -7.859375 "/></g></g></g><g fill="#ffffff" fill-opacity="1"><g transform="translate(66.097848, 37.40097)"><g><path d="M 0.78125 0.125 L 0 0.125 L 2.265625 -7.96875 L 3.046875 -7.96875 Z M 0.78125 0.125 "/></g></g></g><g fill="#ffffff" fill-opacity="1"><g transform="translate(69.135917, 37.40097)"><g/></g></g><g fill="#ffffff" fill-opacity="1"><g transform="translate(72.173986, 37.40097)"><g><path d="M 5.28125 -6.796875 L 2.15625 -6.796875 L 1.734375 -4.703125 C 2.203125 -5.023438 2.695312 -5.1875 3.21875 -5.1875 C 3.65625 -5.1875 4.054688 -5.082031 4.421875 -4.875 C 4.796875 -4.664062 5.09375 -4.367188 5.3125 -3.984375 C 5.539062 -3.597656 5.65625 -3.15625 5.65625 -2.65625 C 5.65625 -2.132812 5.539062 -1.660156 5.3125 -1.234375 C 5.082031 -0.804688 4.765625 -0.472656 4.359375 -0.234375 C 3.960938 0.00390625 3.515625 0.125 3.015625 0.125 C 2.304688 0.125 1.71875 -0.0664062 1.25 -0.453125 C 0.789062 -0.835938 0.523438 -1.375 0.453125 -2.0625 L 1.46875 -2.125 C 1.539062 -1.644531 1.707031 -1.28125 1.96875 -1.03125 C 2.238281 -0.78125 2.570312 -0.65625 2.96875 -0.65625 C 3.457031 -0.65625 3.851562 -0.832031 4.15625 -1.1875 C 4.46875 -1.550781 4.625 -2.035156 4.625 -2.640625 C 4.625 -3.128906 4.46875 -3.535156 4.15625 -3.859375 C 3.851562 -4.191406 3.453125 -4.359375 2.953125 -4.359375 C 2.578125 -4.359375 2.265625 -4.269531 2.015625 -4.09375 C 1.773438 -3.914062 1.613281 -3.75 1.53125 -3.59375 L 0.640625 -3.703125 L 1.390625 -7.71875 L 5.28125 -7.71875 Z M 5.28125 -6.796875 "/></g></g></g><g fill="#ffffff" fill-opacity="1"><g transform="translate(78.250136, 37.40097)"><g><path d="M 3.25 -7.859375 C 3.863281 -7.859375 4.367188 -7.6875 4.765625 -7.34375 C 5.171875 -7.007812 5.410156 -6.535156 5.484375 -5.921875 L 4.53125 -5.84375 C 4.34375 -6.664062 3.90625 -7.078125 3.21875 -7.078125 C 2.664062 -7.078125 2.226562 -6.816406 1.90625 -6.296875 C 1.59375 -5.785156 1.429688 -5.03125 1.421875 -4.03125 C 1.890625 -4.726562 2.53125 -5.078125 3.34375 -5.078125 C 3.75 -5.078125 4.125 -4.96875 4.46875 -4.75 C 4.820312 -4.539062 5.101562 -4.242188 5.3125 -3.859375 C 5.519531 -3.472656 5.625 -3.035156 5.625 -2.546875 C 5.625 -2.046875 5.519531 -1.585938 5.3125 -1.171875 C 5.113281 -0.765625 4.828125 -0.445312 4.453125 -0.21875 C 4.078125 0.0078125 3.660156 0.125 3.203125 0.125 C 2.367188 0.125 1.695312 -0.175781 1.1875 -0.78125 C 0.925781 -1.09375 0.738281 -1.476562 0.625 -1.9375 C 0.507812 -2.40625 0.453125 -2.976562 0.453125 -3.65625 C 0.453125 -5.039062 0.691406 -6.085938 1.171875 -6.796875 C 1.660156 -7.503906 2.351562 -7.859375 3.25 -7.859375 Z M 1.5625 -2.53125 C 1.5625 -2.1875 1.628906 -1.867188 1.765625 -1.578125 C 1.910156 -1.296875 2.101562 -1.070312 2.34375 -0.90625 C 2.59375 -0.738281 2.863281 -0.65625 3.15625 -0.65625 C 3.445312 -0.65625 3.703125 -0.734375 3.921875 -0.890625 C 4.148438 -1.046875 4.328125 -1.265625 4.453125 -1.546875 C 4.578125 -1.828125 4.640625 -2.140625 4.640625 -2.484375 C 4.640625 -2.992188 4.5 -3.414062 4.21875 -3.75 C 3.945312 -4.082031 3.578125 -4.25 3.109375 -4.25 C 2.835938 -4.25 2.582031 -4.175781 2.34375 -4.03125 C 2.101562 -3.882812 1.910156 -3.679688 1.765625 -3.421875 C 1.628906 -3.160156 1.5625 -2.863281 1.5625 -2.53125 Z M 1.5625 -2.53125 "/></g></g></g><g fill="#ffffff" fill-opacity="1"><g transform="translate(84.326285, 37.40097)"><g><path d="M 3.25 -7.859375 C 3.863281 -7.859375 4.367188 -7.6875 4.765625 -7.34375 C 5.171875 -7.007812 5.410156 -6.535156 5.484375 -5.921875 L 4.53125 -5.84375 C 4.34375 -6.664062 3.90625 -7.078125 3.21875 -7.078125 C 2.664062 -7.078125 2.226562 -6.816406 1.90625 -6.296875 C 1.59375 -5.785156 1.429688 -5.03125 1.421875 -4.03125 C 1.890625 -4.726562 2.53125 -5.078125 3.34375 -5.078125 C 3.75 -5.078125 4.125 -4.96875 4.46875 -4.75 C 4.820312 -4.539062 5.101562 -4.242188 5.3125 -3.859375 C 5.519531 -3.472656 5.625 -3.035156 5.625 -2.546875 C 5.625 -2.046875 5.519531 -1.585938 5.3125 -1.171875 C 5.113281 -0.765625 4.828125 -0.445312 4.453125 -0.21875 C 4.078125 0.0078125 3.660156 0.125 3.203125 0.125 C 2.367188 0.125 1.695312 -0.175781 1.1875 -0.78125 C 0.925781 -1.09375 0.738281 -1.476562 0.625 -1.9375 C 0.507812 -2.40625 0.453125 -2.976562 0.453125 -3.65625 C 0.453125 -5.039062 0.691406 -6.085938 1.171875 -6.796875 C 1.660156 -7.503906 2.351562 -7.859375 3.25 -7.859375 Z M 1.5625 -2.53125 C 1.5625 -2.1875 1.628906 -1.867188 1.765625 -1.578125 C 1.910156 -1.296875 2.101562 -1.070312 2.34375 -0.90625 C 2.59375 -0.738281 2.863281 -0.65625 3.15625 -0.65625 C 3.445312 -0.65625 3.703125 -0.734375 3.921875 -0.890625 C 4.148438 -1.046875 4.328125 -1.265625 4.453125 -1.546875 C 4.578125 -1.828125 4.640625 -2.140625 4.640625 -2.484375 C 4.640625 -2.992188 4.5 -3.414062 4.21875 -3.75 C 3.945312 -4.082031 3.578125 -4.25 3.109375 -4.25 C 2.835938 -4.25 2.582031 -4.175781 2.34375 -4.03125 C 2.101562 -3.882812 1.910156 -3.679688 1.765625 -3.421875 C 1.628906 -3.160156 1.5625 -2.863281 1.5625 -2.53125 Z M 1.5625 -2.53125 "/></g></g></g><g fill="#ffffff" fill-opacity="1"><g transform="translate(90.402435, 37.40097)"><g/></g></g><g fill="#ffffff" fill-opacity="1"><g transform="translate(93.440504, 37.40097)"><g><path d="M 3.046875 -7.859375 C 3.867188 -7.859375 4.5 -7.523438 4.9375 -6.859375 C 5.375 -6.203125 5.59375 -5.203125 5.59375 -3.859375 C 5.59375 -2.515625 5.375 -1.515625 4.9375 -0.859375 C 4.507812 -0.203125 3.878906 0.125 3.046875 0.125 C 1.335938 0.125 0.484375 -1.203125 0.484375 -3.859375 C 0.484375 -5.160156 0.695312 -6.148438 1.125 -6.828125 C 1.550781 -7.515625 2.191406 -7.859375 3.046875 -7.859375 Z M 1.46875 -3.859375 C 1.46875 -2.785156 1.59375 -1.984375 1.84375 -1.453125 C 2.09375 -0.921875 2.492188 -0.65625 3.046875 -0.65625 C 3.597656 -0.65625 3.992188 -0.921875 4.234375 -1.453125 C 4.484375 -1.984375 4.609375 -2.785156 4.609375 -3.859375 C 4.609375 -4.984375 4.476562 -5.800781 4.21875 -6.3125 C 3.96875 -6.820312 3.570312 -7.078125 3.03125 -7.078125 C 2.488281 -7.078125 2.09375 -6.8125 1.84375 -6.28125 C 1.59375 -5.75 1.46875 -4.941406 1.46875 -3.859375 Z M 1.46875 -3.859375 "/></g></g></g><g fill="#ffffff" fill-opacity="1"><g transform="translate(99.516654, 37.40097)"><g><path d="M 2.9375 -7.859375 C 3.613281 -7.859375 4.191406 -7.628906 4.671875 -7.171875 C 4.984375 -6.867188 5.21875 -6.488281 5.375 -6.03125 C 5.539062 -5.570312 5.625 -4.914062 5.625 -4.0625 C 5.625 -2.875 5.476562 -1.988281 5.1875 -1.40625 C 4.894531 -0.832031 4.546875 -0.429688 4.140625 -0.203125 C 3.734375 0.015625 3.304688 0.125 2.859375 0.125 C 2.222656 0.125 1.707031 -0.0390625 1.3125 -0.375 C 0.914062 -0.71875 0.679688 -1.195312 0.609375 -1.8125 L 1.546875 -1.90625 C 1.617188 -1.46875 1.765625 -1.148438 1.984375 -0.953125 C 2.203125 -0.753906 2.507812 -0.65625 2.90625 -0.65625 C 3.257812 -0.65625 3.570312 -0.78125 3.84375 -1.03125 C 4.113281 -1.28125 4.320312 -1.628906 4.46875 -2.078125 C 4.613281 -2.535156 4.675781 -3.070312 4.65625 -3.6875 C 4.457031 -3.375 4.191406 -3.125 3.859375 -2.9375 C 3.523438 -2.757812 3.175781 -2.671875 2.8125 -2.671875 C 2.375 -2.671875 1.972656 -2.773438 1.609375 -2.984375 C 1.253906 -3.191406 0.972656 -3.488281 0.765625 -3.875 C 0.566406 -4.269531 0.46875 -4.71875 0.46875 -5.21875 C 0.46875 -5.726562 0.570312 -6.179688 0.78125 -6.578125 C 1 -6.984375 1.289062 -7.296875 1.65625 -7.515625 C 2.03125 -7.742188 2.457031 -7.859375 2.9375 -7.859375 Z M 1.453125 -5.1875 C 1.453125 -4.695312 1.597656 -4.289062 1.890625 -3.96875 C 2.191406 -3.65625 2.566406 -3.5 3.015625 -3.5 C 3.472656 -3.5 3.84375 -3.660156 4.125 -3.984375 C 4.40625 -4.304688 4.546875 -4.734375 4.546875 -5.265625 C 4.546875 -5.773438 4.40625 -6.203125 4.125 -6.546875 C 3.84375 -6.898438 3.484375 -7.078125 3.046875 -7.078125 C 2.753906 -7.078125 2.484375 -6.988281 2.234375 -6.8125 C 1.992188 -6.644531 1.800781 -6.414062 1.65625 -6.125 C 1.519531 -5.84375 1.453125 -5.53125 1.453125 -5.1875 Z M 1.453125 -5.1875 "/></g></g></g><g fill="#ffffff" fill-opacity="1"><g transform="translate(105.592803, 37.40097)"><g><path d="M 2.9375 -7.859375 C 3.363281 -7.859375 3.75 -7.765625 4.09375 -7.578125 C 4.445312 -7.398438 4.722656 -7.160156 4.921875 -6.859375 C 5.117188 -6.554688 5.21875 -6.234375 5.21875 -5.890625 C 5.21875 -5.128906 4.859375 -4.582031 4.140625 -4.25 C 4.617188 -4.132812 4.984375 -3.90625 5.234375 -3.5625 C 5.484375 -3.21875 5.609375 -2.828125 5.609375 -2.390625 C 5.609375 -1.878906 5.484375 -1.429688 5.234375 -1.046875 C 4.992188 -0.671875 4.675781 -0.378906 4.28125 -0.171875 C 3.894531 0.0234375 3.484375 0.125 3.046875 0.125 C 2.316406 0.125 1.722656 -0.0703125 1.265625 -0.46875 C 0.804688 -0.875 0.546875 -1.40625 0.484375 -2.0625 L 1.4375 -2.203125 C 1.53125 -1.691406 1.707031 -1.304688 1.96875 -1.046875 C 2.238281 -0.785156 2.570312 -0.65625 2.96875 -0.65625 C 3.269531 -0.65625 3.539062 -0.722656 3.78125 -0.859375 C 4.03125 -1.003906 4.222656 -1.207031 4.359375 -1.46875 C 4.503906 -1.726562 4.578125 -2.035156 4.578125 -2.390625 C 4.578125 -2.617188 4.515625 -2.84375 4.390625 -3.0625 C 4.273438 -3.28125 4.101562 -3.457031 3.875 -3.59375 C 3.644531 -3.738281 3.378906 -3.8125 3.078125 -3.8125 C 2.929688 -3.8125 2.816406 -3.800781 2.734375 -3.78125 C 2.648438 -3.769531 2.535156 -3.742188 2.390625 -3.703125 L 2.484375 -4.546875 L 2.65625 -4.53125 C 3.082031 -4.53125 3.453125 -4.644531 3.765625 -4.875 C 4.078125 -5.113281 4.234375 -5.445312 4.234375 -5.875 C 4.234375 -6.21875 4.109375 -6.503906 3.859375 -6.734375 C 3.617188 -6.960938 3.316406 -7.078125 2.953125 -7.078125 C 2.566406 -7.078125 2.25 -6.953125 2 -6.703125 C 1.757812 -6.453125 1.609375 -6.109375 1.546875 -5.671875 L 0.578125 -5.828125 C 0.691406 -6.472656 0.957031 -6.972656 1.375 -7.328125 C 1.789062 -7.679688 2.3125 -7.859375 2.9375 -7.859375 Z M 2.9375 -7.859375 "/></g></g></g></svg>